<?xml version="1.0" encoding="UTF-8" standalone="no"?> <svg xmlns="http://www.w3.org/2000/svg" xmlns:xlink="http://www.w3.org/1999/xlink" xmlns:serif="http://www.serif.com/" width="100%" height="100%" viewBox="0 0 280 60" version="1.1" xml:space="preserve" style="fill-rule:evenodd;clip-rule:evenodd;stroke-linejoin:round;stroke-miterlimit:2;"><path d="M87.691,31.688l-0,-0.698c-0,-1.754 -0.601,-3.096 -1.801,-4.027c-1.165,-0.967 -2.693,-1.45 -4.584,-1.45c-1.456,0 -2.602,0.251 -3.438,0.752c-0.801,0.465 -1.565,1.181 -2.292,2.148c-0.219,0.286 -0.455,0.483 -0.71,0.59c-0.255,0.108 -0.6,0.161 -1.037,0.161l-1.637,0c-0.4,0 -0.764,-0.143 -1.091,-0.429c-0.291,-0.286 -0.419,-0.627 -0.382,-1.02c0.109,-1.074 0.636,-2.13 1.582,-3.168c0.982,-1.074 2.274,-1.951 3.875,-2.631c1.601,-0.68 3.311,-1.021 5.13,-1.021c3.383,0 6.112,0.931 8.185,2.793c2.111,1.861 3.166,4.474 3.166,7.839l-0,16.377c-0,0.394 -0.146,0.734 -0.437,1.02c-0.291,0.286 -0.637,0.43 -1.037,0.43l-2.019,-0c-0.4,-0 -0.746,-0.144 -1.037,-0.43c-0.291,-0.286 -0.436,-0.626 -0.436,-1.02l-0,-2.202c-0.583,1.289 -1.82,2.309 -3.711,3.061c-1.892,0.752 -3.784,1.128 -5.676,1.128c-1.855,-0 -3.511,-0.323 -4.966,-0.967c-1.455,-0.68 -2.583,-1.593 -3.383,-2.738c-0.764,-1.146 -1.146,-2.435 -1.146,-3.866c-0,-2.685 1.018,-4.779 3.056,-6.283c2.037,-1.539 4.747,-2.577 8.131,-3.114l7.695,-1.235Zm-0,4.296l-6.44,1.02c-2.365,0.358 -4.202,0.948 -5.512,1.772c-1.31,0.787 -1.964,1.79 -1.964,3.007c-0,0.895 0.418,1.7 1.255,2.416c0.837,0.716 2.11,1.074 3.82,1.074c2.619,-0 4.748,-0.734 6.385,-2.202c1.637,-1.467 2.456,-3.382 2.456,-5.745l-0,-1.342Z" style="fill:#0a0a0a;fill-rule:nonzero;"></path><path d="M105.585,47.904c-0,0.394 -0.146,0.734 -0.437,1.02c-0.291,0.286 -0.636,0.43 -1.037,0.43l-2.019,-0c-0.4,-0 -0.746,-0.144 -1.037,-0.43c-0.291,-0.286 -0.436,-0.626 -0.436,-1.02l-0,-35.224c-0,-0.394 0.145,-0.734 0.436,-1.02c0.291,-0.286 0.637,-0.43 1.037,-0.43l2.019,0c0.401,0 0.746,0.144 1.037,0.43c0.291,0.286 0.437,0.626 0.437,1.02l-0,35.224Z" style="fill:#0a0a0a;fill-rule:nonzero;"></path><path d="M125.242,45.273c3.638,-0 6.094,-1.396 7.368,-4.188c0.254,-0.537 0.509,-0.913 0.764,-1.128c0.254,-0.215 0.6,-0.322 1.036,-0.322l1.638,-0c0.4,-0 0.745,0.143 1.036,0.429c0.292,0.251 0.437,0.555 0.437,0.913c-0,1.217 -0.491,2.524 -1.473,3.92c-0.983,1.396 -2.402,2.577 -4.257,3.544c-1.855,0.966 -4.038,1.45 -6.549,1.45c-2.583,-0 -4.82,-0.537 -6.712,-1.611c-1.892,-1.074 -3.347,-2.542 -4.366,-4.403c-1.019,-1.897 -1.582,-4.009 -1.692,-6.336c-0.036,-0.43 -0.054,-1.253 -0.054,-2.47c-0,-0.859 0.018,-1.468 0.054,-1.826c0.328,-3.651 1.583,-6.622 3.766,-8.913c2.183,-2.291 5.184,-3.437 9.004,-3.437c2.511,0 4.675,0.484 6.494,1.45c1.856,0.931 3.257,2.094 4.202,3.49c0.983,1.361 1.51,2.649 1.583,3.866c0.036,0.394 -0.109,0.734 -0.437,1.021c-0.291,0.286 -0.636,0.429 -1.036,0.429l-1.638,0c-0.436,0 -0.782,-0.107 -1.036,-0.322c-0.255,-0.215 -0.51,-0.591 -0.764,-1.128c-1.274,-2.792 -3.73,-4.188 -7.368,-4.188c-2.001,0 -3.747,0.662 -5.239,1.987c-1.491,1.324 -2.346,3.329 -2.565,6.014c-0.036,0.393 -0.054,1.038 -0.054,1.933c-0,0.823 0.018,1.432 0.054,1.825c0.255,2.685 1.11,4.69 2.565,6.014c1.492,1.325 3.238,1.987 5.239,1.987Z" style="fill:#0a0a0a;fill-rule:nonzero;"></path><path d="M169.265,47.904c-0,0.394 -0.145,0.734 -0.437,1.02c-0.291,0.286 -0.636,0.43 -1.036,0.43l-2.02,-0c-0.4,-0 -0.745,-0.144 -1.036,-0.43c-0.292,-0.286 -0.437,-0.626 -0.437,-1.02l-0,-14.176c-0,-2.684 -0.673,-4.725 -2.019,-6.121c-1.346,-1.396 -3.22,-2.094 -5.621,-2.094c-2.365,0 -4.239,0.698 -5.621,2.094c-1.346,1.396 -2.019,3.437 -2.019,6.121l-0,14.176c-0,0.394 -0.146,0.734 -0.437,1.02c-0.291,0.286 -0.637,0.43 -1.037,0.43l-2.019,-0c-0.4,-0 -0.746,-0.144 -1.037,-0.43c-0.291,-0.286 -0.436,-0.626 -0.436,-1.02l-0,-35.224c-0,-0.394 0.145,-0.734 0.436,-1.02c0.291,-0.286 0.637,-0.43 1.037,-0.43l2.019,0c0.4,0 0.746,0.144 1.037,0.43c0.291,0.286 0.437,0.626 0.437,1.02l-0,11.867c0.8,-1.038 1.892,-1.897 3.274,-2.578c1.419,-0.716 3.147,-1.074 5.184,-1.074c2.292,0 4.33,0.484 6.113,1.45c1.782,0.967 3.165,2.363 4.147,4.188c1.019,1.79 1.528,3.92 1.528,6.39l-0,14.981Z" style="fill:#0a0a0a;fill-rule:nonzero;"></path><path d="M188.388,20.895c3.893,0 6.967,1.218 9.223,3.652c2.256,2.434 3.384,5.745 3.384,9.933l-0,1.45c-0,0.394 -0.146,0.734 -0.437,1.02c-0.291,0.287 -0.637,0.43 -1.037,0.43l-18.773,-0l-0,0.322c0.073,2.362 0.801,4.224 2.183,5.584c1.419,1.325 3.238,1.987 5.457,1.987c1.819,-0 3.22,-0.233 4.202,-0.698c1.019,-0.466 1.929,-1.128 2.729,-1.987c0.291,-0.286 0.546,-0.483 0.764,-0.591c0.255,-0.107 0.582,-0.161 0.982,-0.161l1.638,0c0.436,0 0.8,0.144 1.091,0.43c0.291,0.286 0.418,0.626 0.382,1.02c-0.146,0.967 -0.691,1.969 -1.637,3.007c-0.91,1.002 -2.238,1.861 -3.984,2.577c-1.71,0.68 -3.765,1.021 -6.167,1.021c-2.328,-0 -4.402,-0.52 -6.221,-1.558c-1.819,-1.074 -3.274,-2.541 -4.366,-4.403c-1.055,-1.861 -1.691,-3.955 -1.91,-6.282c-0.072,-1.074 -0.109,-1.897 -0.109,-2.47c-0,-0.573 0.037,-1.396 0.109,-2.47c0.219,-2.219 0.855,-4.224 1.91,-6.014c1.092,-1.789 2.529,-3.203 4.312,-4.241c1.819,-1.038 3.911,-1.558 6.275,-1.558Zm7.695,11.974l-0,-0.161c-0,-2.183 -0.709,-3.919 -2.128,-5.208c-1.383,-1.325 -3.238,-1.987 -5.567,-1.987c-2.11,0 -3.911,0.662 -5.402,1.987c-1.456,1.324 -2.201,3.06 -2.238,5.208l-0,0.161l15.335,0Z" style="fill:#0a0a0a;fill-rule:nonzero;"></path><path d="M212.544,24.547c0.873,-1.11 1.856,-1.987 2.947,-2.631c1.092,-0.68 2.547,-1.021 4.366,-1.021c4.257,0 7.24,1.558 8.95,4.672c1.055,-1.504 2.255,-2.649 3.602,-3.437c1.346,-0.823 3.11,-1.235 5.293,-1.235c3.565,0 6.203,1.056 7.913,3.168c1.746,2.112 2.62,5.101 2.62,8.967l-0,14.874c-0,0.394 -0.146,0.734 -0.437,1.02c-0.291,0.286 -0.637,0.43 -1.037,0.43l-2.019,-0c-0.4,-0 -0.746,-0.144 -1.037,-0.43c-0.291,-0.286 -0.437,-0.626 -0.437,-1.02l-0,-14.337c-0,-5.369 -2.146,-8.054 -6.439,-8.054c-1.965,0 -3.529,0.645 -4.693,1.933c-1.165,1.289 -1.747,3.204 -1.747,5.746l-0,14.712c-0,0.394 -0.145,0.734 -0.436,1.02c-0.291,0.286 -0.637,0.43 -1.037,0.43l-2.019,-0c-0.4,-0 -0.746,-0.144 -1.037,-0.43c-0.291,-0.286 -0.437,-0.626 -0.437,-1.02l-0,-14.337c-0,-5.369 -2.146,-8.054 -6.439,-8.054c-1.965,0 -3.529,0.645 -4.693,1.933c-1.165,1.289 -1.747,3.204 -1.747,5.746l-0,14.712c-0,0.394 -0.145,0.734 -0.436,1.02c-0.291,0.286 -0.637,0.43 -1.037,0.43l-2.019,-0c-0.401,-0 -0.746,-0.144 -1.037,-0.43c-0.291,-0.286 -0.437,-0.626 -0.437,-1.02l-0,-25.022c-0,-0.394 0.146,-0.734 0.437,-1.02c0.291,-0.286 0.636,-0.43 1.037,-0.43l2.019,0c0.4,0 0.746,0.144 1.037,0.43c0.291,0.286 0.436,0.626 0.436,1.02l-0,1.665Z" style="fill:#0a0a0a;fill-rule:nonzero;"></path><path d="M263.519,58.267c-0.328,0.859 -0.855,1.289 -1.583,1.289l-2.237,-0c-0.364,-0 -0.674,-0.126 -0.928,-0.376c-0.255,-0.251 -0.382,-0.555 -0.382,-0.913c-0,-0.143 0.018,-0.269 0.054,-0.376l5.239,-11.222l-10.805,-23.572c-0.036,-0.107 -0.055,-0.233 -0.055,-0.376c-0,-0.358 0.128,-0.662 0.382,-0.913c0.255,-0.25 0.564,-0.376 0.928,-0.376l2.238,0c0.727,0 1.255,0.43 1.582,1.289l8.404,18.256l8.514,-18.256c0.327,-0.859 0.855,-1.289 1.582,-1.289l2.238,0c0.364,0 0.673,0.126 0.927,0.376c0.255,0.251 0.382,0.555 0.382,0.913c-0,0.143 -0.018,0.269 -0.054,0.376l-16.426,35.17Z" style="fill:#0a0a0a;fill-rule:nonzero;"></path><path d="M48.174,31.59l-18.324,-31.081c-0.089,-0.154 -0.217,-0.282 -0.373,-0.371c-0.155,-0.089 -0.332,-0.137 -0.512,-0.138c-0.18,-0.001 -0.357,0.044 -0.513,0.132c-0.157,0.087 -0.287,0.213 -0.378,0.366l-5.488,9.313c-0.179,0.305 -0.274,0.651 -0.274,1.003c0,0.352 0.095,0.698 0.274,1.002l11.949,20.277c0.18,0.305 0.439,0.559 0.751,0.735c0.311,0.176 0.665,0.268 1.025,0.268l10.975,-0c0.18,-0.001 0.357,-0.047 0.512,-0.135c0.155,-0.089 0.285,-0.215 0.374,-0.368c0.09,-0.152 0.138,-0.325 0.138,-0.501c0,-0.176 -0.047,-0.349 -0.136,-0.502Z" style="fill:#363ff9;fill-rule:nonzero;"></path><path d="M0.141,47.835l18.325,-31.082c0.089,-0.152 0.219,-0.278 0.374,-0.366c0.156,-0.088 0.332,-0.135 0.512,-0.135c0.179,0 0.356,0.047 0.511,0.135c0.156,0.088 0.285,0.214 0.375,0.366l5.491,9.305c0.18,0.306 0.274,0.652 0.274,1.004c0,0.353 -0.094,0.699 -0.274,1.005l-11.949,20.276c-0.179,0.305 -0.437,0.559 -0.748,0.735c-0.312,0.176 -0.665,0.268 -1.024,0.268l-10.979,-0c-0.181,0.001 -0.359,-0.045 -0.515,-0.133c-0.157,-0.089 -0.287,-0.216 -0.378,-0.37c-0.09,-0.153 -0.137,-0.327 -0.136,-0.504c0.001,-0.178 0.05,-0.351 0.141,-0.504Z" style="fill:#363ff9;fill-rule:nonzero;"></path><path d="M20.236,49.339l36.648,0c0.18,0 0.357,-0.046 0.512,-0.135c0.156,-0.088 0.285,-0.215 0.375,-0.367c0.089,-0.153 0.136,-0.326 0.136,-0.502c-0,-0.176 -0.048,-0.349 -0.138,-0.501l-5.482,-9.311c-0.18,-0.305 -0.439,-0.558 -0.751,-0.734c-0.311,-0.176 -0.665,-0.269 -1.025,-0.269l-23.897,0c-0.36,0 -0.713,0.093 -1.025,0.269c-0.312,0.176 -0.57,0.429 -0.75,0.734l-5.488,9.311c-0.09,0.152 -0.138,0.325 -0.138,0.501c-0.001,0.176 0.046,0.349 0.136,0.502c0.09,0.152 0.219,0.279 0.375,0.367c0.155,0.089 0.332,0.135 0.512,0.135Z" style="fill:#363ff9;fill-rule:nonzero;"></path></svg> 