<?xml version="1.0" encoding="UTF-8" standalone="no"?> <svg xmlns="http://www.w3.org/2000/svg" xmlns:xlink="http://www.w3.org/1999/xlink" xmlns:serif="http://www.serif.com/" width="100%" height="100%" viewBox="0 0 210 42" version="1.1" xml:space="preserve" style="fill-rule:evenodd;clip-rule:evenodd;stroke-linejoin:round;stroke-miterlimit:2;"><path d="M87.204,16.608l-0,2.229c-1.173,0 -2.581,-0.025 -3.088,-1.352c-0.864,1.352 -2.791,1.74 -4.372,1.74c-2.384,0 -4.891,-0.939 -4.891,-4.095l-0,-0.288c-0,-2.279 1.89,-3.894 4.891,-3.894l4.175,0c-0.05,-1.741 -0.408,-2.756 -2.68,-2.756l-1.532,0c-1.284,0 -2.198,0.727 -2.198,1.553l-2.322,0c-0,-1.891 1.766,-3.782 4.273,-3.782l2.507,0c2.273,0 4.249,1.265 4.249,5.135l-0,4.533c-0,0.802 0.544,0.964 1.001,0.964l-0.013,0.013Zm-3.298,-1.628l-0,-2.054l-3.421,0c-2.865,0 -3.322,1.265 -3.322,2.104c-0,1.453 0.926,1.966 3.322,1.966c1.025,0 3.421,-0.363 3.421,-2.029l-0,0.013Z" style="fill:#0a0a0a;fill-rule:nonzero;"></path><path d="M94.924,19.25c-3.632,0 -5.398,-1.478 -5.954,-3.995l2.557,0c0.21,0.902 1.025,1.766 3.434,1.766c2.915,0 3.396,-1.089 3.396,-1.966c0,-1.115 -0.741,-1.378 -4.372,-1.816c-3.458,-0.413 -4.496,-1.503 -4.496,-3.394c0,-2.354 1.939,-3.857 5.324,-3.857c2.556,0 4.755,1.165 5.323,3.682l-2.557,0c-0.259,-0.902 -1.025,-1.528 -3.013,-1.528c-1.668,0 -2.767,0.651 -2.767,1.503c0,1.039 0.901,1.327 2.964,1.528c4.632,0.463 5.904,1.628 5.904,3.919c0,2.493 -1.791,4.171 -5.731,4.171l-0.012,-0.013Z" style="fill:#0a0a0a;fill-rule:nonzero;"></path><path d="M114.92,6.389l-4.607,12.648c-1.173,3.394 -1.581,5.135 -3.841,5.135l-1.988,0l0,-2.23l0.864,0c0.926,0 1.581,-0.175 2.026,-1.189l0.506,-1.503l-1.284,0l-5.089,-12.861l2.557,0l3.989,10.632l0.618,0l3.68,-10.632l2.569,0Z" style="fill:#0a0a0a;fill-rule:nonzero;"></path><path d="M135.386,11.11l0,7.727l-2.297,0l0,-7.314c0,-2.329 -1.124,-3.318 -2.767,-3.318c-1.284,0 -2.964,0.939 -2.964,4.12l0,6.512l-2.297,0l0,-7.314c0,-2.329 -1.124,-3.318 -2.767,-3.318c-1.285,0 -2.964,0.939 -2.964,4.12l0,6.512l-2.298,0l0,-12.448l2.298,0l0,1.766c0.815,-1.303 2.248,-2.179 3.705,-2.179c1.248,0 3.15,0.751 3.94,2.905c0.717,-1.69 2.384,-2.905 4.088,-2.905c1.606,-0 4.323,1.265 4.323,5.134Z" style="fill:#0a0a0a;fill-rule:nonzero;"></path><path d="M156.952,11.11l0,7.727l-2.298,0l0,-7.314c0,-2.329 -1.124,-3.318 -2.766,-3.318c-1.285,0 -2.965,0.939 -2.965,4.12l0,6.512l-2.297,0l0,-7.314c0,-2.329 -1.124,-3.318 -2.767,-3.318c-1.284,0 -2.964,0.939 -2.964,4.12l0,6.512l-2.297,0l0,-12.448l2.297,0l0,1.766c0.815,-1.303 2.248,-2.179 3.705,-2.179c1.248,0 3.15,0.751 3.94,2.905c0.717,-1.69 2.384,-2.905 4.089,-2.905c1.605,-0 4.323,1.265 4.323,5.134Z" style="fill:#0a0a0a;fill-rule:nonzero;"></path><path d="M171.724,11.624l0,1.427l-10.054,0l0,0.125c0,2.33 1,3.845 3.915,3.845c2.149,0 3.224,-0.826 3.631,-2.204l2.409,0c-0.457,3.031 -2.742,4.433 -5.299,4.433l-1.482,0c-3.014,0 -5.398,-1.766 -5.398,-5.648l0,-1.966c0,-3.857 2.767,-5.648 5.657,-5.648l0.976,0c2.89,0 5.657,1.791 5.657,5.648l-0.012,-0.012Zm-10.017,-0.489l7.732,0c-0.21,-1.816 -1.124,-2.93 -3.866,-2.93c-2.742,0 -3.656,1.114 -3.866,2.93Z" style="fill:#0a0a0a;fill-rule:nonzero;"></path><path d="M177.319,8.618l-0,4.671c-0,2.079 0.642,3.319 2.68,3.319l0.766,0l-0,2.229l-1.507,0c-2.273,0 -4.249,-1.265 -4.249,-5.134l-0,-5.085l-1.816,0l-0,-2.229l1.816,0l-0,-6.374l2.297,0l-0,6.374l3.446,0l-0,2.229l-3.446,0l0.013,0Z" style="fill:#0a0a0a;fill-rule:nonzero;"></path><path d="M191.51,6.389l0,2.229l-2.482,0c-1.285,0 -3.422,1.19 -3.422,4.383l0,5.836l-2.297,0l0,-12.448l2.297,0l0,2.304c0.816,-1.302 2.557,-2.304 4.175,-2.304l1.742,0l-0.013,0Z" style="fill:#0a0a0a;fill-rule:nonzero;"></path><path d="M193.264,1.593c0,-0.852 0.692,-1.578 1.532,-1.578c0.84,0 1.531,0.726 1.531,1.578c0,0.851 -0.691,1.528 -1.531,1.528c-0.84,0 -1.532,-0.677 -1.532,-1.528Zm0.383,4.796l2.297,0l0,12.448l-2.297,0l0,-12.448Z" style="fill:#0a0a0a;fill-rule:nonzero;"></path><path d="M198.427,11.624c0,-3.857 2.507,-5.648 5.274,-5.648l1.482,0c2.347,0 4.422,1.402 4.755,4.433l-2.408,0c-0.284,-1.378 -1.149,-2.204 -3.088,-2.204c-2.791,0 -3.705,1.503 -3.705,3.844l0,1.14c0,2.329 0.926,3.845 3.705,3.845c2.124,0 2.964,-0.965 3.174,-2.518l2.384,0c-0.235,3.244 -2.359,4.747 -4.805,4.747l-1.482,0c-2.766,0 -5.274,-1.791 -5.274,-5.648l0,-1.966l-0.012,-0.025Z" style="fill:#0a0a0a;fill-rule:nonzero;"></path><path d="M83.437,28.592l0,2.23l-2.482,-0c-1.285,-0 -3.422,1.189 -3.422,4.383l0,5.835l-2.309,-0l0,-12.448l2.297,-0l0,2.305c0.815,-1.303 2.557,-2.305 4.175,-2.305l1.741,-0Z" style="fill:#0a0a0a;fill-rule:nonzero;"></path><path d="M97.172,33.84l0,1.427l-10.054,0l0,0.125c0,2.33 1,3.832 3.915,3.832c2.149,0 3.224,-0.826 3.631,-2.204l2.409,0c-0.457,3.031 -2.742,4.434 -5.299,4.434l-1.482,0c-3.014,0 -5.398,-1.766 -5.398,-5.648l0,-1.966c0,-3.87 2.767,-5.648 5.657,-5.648l0.976,0c2.89,0 5.657,1.79 5.657,5.648l-0.012,0Zm-10.017,-0.489l7.732,0c-0.21,-1.816 -1.124,-2.93 -3.866,-2.93c-2.742,0 -3.656,1.114 -3.866,2.93Z" style="fill:#0a0a0a;fill-rule:nonzero;"></path><path d="M104.978,41.454c-3.632,0 -5.398,-1.478 -5.954,-3.995l2.557,0c0.21,0.901 1.025,1.765 3.434,1.765c2.915,0 3.396,-1.089 3.396,-1.966c-0,-1.114 -0.741,-1.377 -4.372,-1.815c-3.446,-0.414 -4.496,-1.503 -4.496,-3.394c-0,-2.355 1.939,-3.87 5.324,-3.87c2.556,0 4.755,1.165 5.323,3.682l-2.557,0c-0.259,-0.902 -1.025,-1.528 -3.013,-1.528c-1.668,0 -2.767,0.651 -2.767,1.503c-0,1.039 0.901,1.327 2.964,1.528c4.632,0.463 5.904,1.628 5.904,3.919c-0,2.492 -1.791,4.171 -5.731,4.171l-0.012,0Z" style="fill:#0a0a0a;fill-rule:nonzero;"></path><path d="M125.011,33.84l0,1.427l-10.054,0l0,0.125c0,2.33 1.001,3.832 3.916,3.832c2.149,0 3.223,-0.826 3.631,-2.204l2.409,0c-0.457,3.031 -2.742,4.434 -5.299,4.434l-1.482,0c-3.014,0 -5.398,-1.766 -5.398,-5.648l0,-1.966c0,-3.87 2.767,-5.648 5.657,-5.648l0.976,0c2.89,0 5.657,1.79 5.657,5.648l-0.013,0Zm-10.016,-0.489l7.731,0c-0.21,-1.816 -1.124,-2.93 -3.866,-2.93c-2.742,0 -3.656,1.114 -3.865,2.93Z" style="fill:#0a0a0a;fill-rule:nonzero;"></path><path d="M139.413,38.811l0,2.229c-1.174,0 -2.582,-0.025 -3.088,-1.352c-0.865,1.352 -2.791,1.741 -4.372,1.741c-2.384,0 -4.891,-0.94 -4.891,-4.096l0,-0.288c0,-2.279 1.889,-3.894 4.891,-3.894l4.174,0c-0.049,-1.741 -0.407,-2.743 -2.68,-2.743l-1.531,0c-1.285,0 -2.199,0.727 -2.199,1.553l-2.297,0c0,-1.891 1.766,-3.782 4.273,-3.782l2.508,0c2.272,0 4.248,1.265 4.248,5.135l0,4.533c0,0.801 0.544,0.964 1.001,0.964l-0.037,0Zm-3.298,-1.628l0,-2.054l-3.421,-0c-2.866,-0 -3.323,1.265 -3.323,2.104c0,1.453 0.927,1.966 3.323,1.966c1.025,-0 3.421,-0.363 3.421,-2.028l0,0.012Z" style="fill:#0a0a0a;fill-rule:nonzero;"></path><path d="M150.109,28.592l0,2.23l-2.482,-0c-1.285,-0 -3.422,1.189 -3.422,4.383l0,5.835l-2.297,-0l0,-12.448l2.297,-0l0,2.305c0.815,-1.303 2.557,-2.305 4.175,-2.305l1.741,-0l-0.012,-0Z" style="fill:#0a0a0a;fill-rule:nonzero;"></path><path d="M151.579,33.84c0,-3.87 2.507,-5.648 5.274,-5.648l1.482,0c2.347,0 4.422,1.402 4.755,4.433l-2.408,0c-0.285,-1.378 -1.149,-2.204 -3.088,-2.204c-2.792,0 -3.706,1.502 -3.706,3.832l0,1.139c0,2.33 0.927,3.832 3.706,3.832c2.124,0 2.964,-0.964 3.174,-2.517l2.384,0c-0.235,3.244 -2.359,4.747 -4.805,4.747l-1.482,0c-2.767,0 -5.274,-1.791 -5.274,-5.648l0,-1.966l-0.012,0Z" style="fill:#0a0a0a;fill-rule:nonzero;"></path><path d="M176.602,33.314l0,7.726l-2.297,0l0,-7.313c0,-2.329 -0.926,-3.319 -3.063,-3.319c-1.285,0 -3.421,0.94 -3.421,4.12l0,6.512l-2.298,0l0,-18.822l2.298,0l0,8.19c0.926,-1.327 2.68,-2.229 4.174,-2.229c2.125,0 4.632,1.265 4.632,5.135l-0.025,0Z" style="fill:#0a0a0a;fill-rule:nonzero;"></path><path d="M27.451,26.213l-16.708,0l-5.276,15.231l-5.467,0l14.334,-41.429l9.497,0l14.333,41.444l-5.466,0l-5.247,-15.231l0,-0.015Zm-1.744,-5.023l-5.628,-16.167l-2.008,0l-5.599,16.167l13.235,0Z" style="fill:#0a0a0a;fill-rule:nonzero;"></path><path d="M51.809,25.574c4.543,-1.337 8.12,-4.844 8.12,-12.438c-0,-9.688 -6.508,-13.136 -13,-13.136l-17.221,0l1.788,5.082l14.334,0c6.565,0 8.632,3.388 8.632,8.054c0,4.666 -2.067,8.054 -8.632,8.054l-17.588,0l1.73,5.023l16.429,0c0,0 3.312,-0.089 5.408,-0.639Z" style="fill:#0a0a0a;fill-rule:nonzero;"></path><path d="M49.464,24.504l7.065,16.955l5.583,0l-7.254,-17.594" style="fill:#0a0a0a;fill-rule:nonzero;"></path></svg> 