<?xml version="1.0" encoding="UTF-8" standalone="no"?> <svg xmlns="http://www.w3.org/2000/svg" xmlns:xlink="http://www.w3.org/1999/xlink" xmlns:serif="http://www.serif.com/" width="100%" height="100%" viewBox="0 0 200 53" version="1.1" xml:space="preserve" style="fill-rule:evenodd;clip-rule:evenodd;stroke-linejoin:round;stroke-miterlimit:2;"><path d="M14.878,0l-13.115,7.553l13.115,7.591l13.116,-7.591l-13.116,-7.553Zm-14.878,25.673l13.085,7.527l-0,-15.072l-13.085,-7.527l-0,15.072Zm13.085,26.667l-13.085,-7.527l-0,-15.071l13.085,7.526l-0,15.072Zm16.67,-26.667l-13.085,7.527l0,-15.072l13.085,-7.527l0,15.072Zm5.349,16.063l0,-15.073l-18.433,10.604l-0,15.072l18.433,-10.603Z" style="fill:url(#_Linear1);"></path><path d="M57.355,10.84l10.272,-0c1.473,-0 2.773,0.216 3.9,0.648c1.156,0.433 2.109,1.009 2.861,1.73c0.751,0.72 1.314,1.57 1.69,2.55c0.405,0.98 0.607,2.003 0.607,3.07c-0,1.556 -0.29,2.853 -0.867,3.891c-0.549,1.009 -1.329,1.844 -2.34,2.507c1.531,0.577 2.788,1.485 3.77,2.724c0.983,1.211 1.474,2.853 1.474,4.929c-0,1.383 -0.26,2.623 -0.781,3.718c-0.519,1.066 -1.242,1.974 -2.166,2.723c-0.925,0.721 -2.038,1.269 -3.338,1.643c-1.3,0.375 -2.744,0.562 -4.334,0.562l-10.748,0l-0,-30.695Zm10.185,13.229c1.647,0 2.918,-0.447 3.814,-1.34c0.925,-0.923 1.387,-2.075 1.387,-3.459c-0,-0.634 -0.116,-1.239 -0.347,-1.816c-0.231,-0.605 -0.578,-1.124 -1.04,-1.556c-0.433,-0.432 -0.983,-0.778 -1.647,-1.038c-0.636,-0.259 -1.358,-0.389 -2.167,-0.389l-6.241,0l-0,9.598l6.241,0Zm1.04,13.835c2.08,-0 3.626,-0.49 4.637,-1.47c1.012,-0.98 1.518,-2.22 1.518,-3.718c-0,-1.499 -0.506,-2.753 -1.518,-3.762c-1.011,-1.008 -2.557,-1.513 -4.637,-1.513l-7.281,0l-0,10.463l7.281,-0Zm32.757,1.47c-0.924,0.836 -1.979,1.47 -3.163,1.902c-1.156,0.404 -2.399,0.605 -3.728,0.605c-1.589,0 -3.063,-0.288 -4.42,-0.864c-1.358,-0.577 -2.529,-1.355 -3.511,-2.335c-0.982,-1.009 -1.748,-2.19 -2.297,-3.545c-0.549,-1.384 -0.823,-2.853 -0.823,-4.41c-0,-1.556 0.274,-3.012 0.823,-4.366c0.549,-1.384 1.315,-2.566 2.297,-3.545c0.982,-1.009 2.153,-1.802 3.511,-2.378c1.357,-0.577 2.831,-0.865 4.42,-0.865c1.329,0 2.572,0.216 3.728,0.649c1.184,0.403 2.239,1.023 3.163,1.859l0,-2.162l3.728,-0l-0,21.616l-3.728,0l0,-2.161Zm-6.804,-0.994c1.56,-0 2.918,-0.332 4.074,-0.995c1.185,-0.663 2.095,-1.499 2.73,-2.507l0,-8.301c-0.635,-1.009 -1.545,-1.845 -2.73,-2.508c-1.156,-0.663 -2.514,-0.994 -4.074,-0.994c-1.069,-0 -2.051,0.202 -2.948,0.605c-0.866,0.375 -1.632,0.908 -2.296,1.6c-0.636,0.692 -1.141,1.513 -1.517,2.464c-0.347,0.922 -0.521,1.917 -0.521,2.983c0,1.067 0.174,2.076 0.521,3.026c0.376,0.923 0.881,1.73 1.517,2.422c0.664,0.691 1.43,1.239 2.296,1.642c0.897,0.375 1.879,0.563 2.948,0.563Zm33.075,-9.69c0,-3.124 -2.541,-5.658 -5.677,-5.658c-3.136,0 -5.678,2.534 -5.678,5.658l0,12.846l-3.727,-0l-0,-12.72c-0,-5.176 4.211,-9.372 9.405,-9.372c5.194,-0 9.405,4.196 9.405,9.372l-0,12.72l-3.728,-0l0,-12.846Zm20.845,13.191c-1.618,0 -3.106,-0.288 -4.464,-0.864c-1.358,-0.577 -2.528,-1.369 -3.51,-2.378c-0.982,-1.009 -1.763,-2.191 -2.341,-3.545c-0.549,-1.355 -0.823,-2.81 -0.823,-4.367c-0,-1.556 0.274,-3.012 0.823,-4.366c0.578,-1.355 1.359,-2.537 2.341,-3.545c0.982,-1.009 2.152,-1.802 3.51,-2.378c1.358,-0.577 2.846,-0.865 4.464,-0.865c1.82,0 3.41,0.332 4.768,0.994c1.386,0.635 2.557,1.442 3.51,2.421l-2.383,2.594c-0.694,-0.691 -1.532,-1.282 -2.514,-1.772c-0.954,-0.49 -2.081,-0.735 -3.381,-0.735c-1.069,-0 -2.051,0.202 -2.947,0.605c-0.867,0.375 -1.633,0.908 -2.297,1.6c-0.635,0.692 -1.141,1.513 -1.517,2.464c-0.346,0.922 -0.52,1.917 -0.52,2.983c-0,1.067 0.174,2.076 0.52,3.026c0.376,0.923 0.882,1.73 1.517,2.422c0.664,0.691 1.43,1.239 2.297,1.642c0.896,0.375 1.878,0.563 2.947,0.563c1.3,-0 2.427,-0.246 3.381,-0.736c0.982,-0.49 1.82,-1.08 2.514,-1.772l2.383,2.594c-0.953,0.98 -2.124,1.801 -3.51,2.464c-1.358,0.634 -2.948,0.951 -4.768,0.951Zm23.092,0c-1.647,0 -3.164,-0.288 -4.55,-0.864c-1.359,-0.577 -2.543,-1.369 -3.555,-2.378c-0.982,-1.009 -1.762,-2.191 -2.34,-3.545c-0.549,-1.355 -0.824,-2.81 -0.824,-4.367c0,-1.556 0.275,-3.012 0.824,-4.366c0.578,-1.355 1.358,-2.537 2.34,-3.545c1.012,-1.009 2.196,-1.802 3.555,-2.378c1.386,-0.577 2.903,-0.865 4.55,-0.865c1.618,0 3.106,0.288 4.464,0.865c1.387,0.576 2.571,1.369 3.554,2.378c1.011,1.008 1.791,2.19 2.34,3.545c0.578,1.354 0.867,2.81 0.867,4.366c0,1.557 -0.289,3.012 -0.867,4.367c-0.549,1.354 -1.329,2.536 -2.34,3.545c-0.983,1.009 -2.167,1.801 -3.554,2.378c-1.358,0.576 -2.846,0.864 -4.464,0.864Zm-0,-3.501c1.098,-0 2.095,-0.188 2.99,-0.563c0.925,-0.403 1.705,-0.951 2.341,-1.642c0.664,-0.692 1.17,-1.499 1.517,-2.422c0.347,-0.95 0.52,-1.959 0.52,-3.026c-0,-1.066 -0.173,-2.061 -0.52,-2.983c-0.347,-0.951 -0.853,-1.772 -1.517,-2.464c-0.636,-0.692 -1.416,-1.225 -2.341,-1.6c-0.895,-0.403 -1.892,-0.605 -2.99,-0.605c-1.098,-0 -2.109,0.202 -3.034,0.605c-0.896,0.375 -1.676,0.908 -2.34,1.6c-0.636,0.692 -1.142,1.513 -1.517,2.464c-0.347,0.922 -0.52,1.917 -0.52,2.983c-0,1.067 0.173,2.076 0.52,3.026c0.375,0.923 0.881,1.73 1.517,2.422c0.664,0.691 1.444,1.239 2.34,1.642c0.925,0.375 1.936,0.563 3.034,0.563Zm17.229,-18.461l3.728,-0l-0,2.308c0.751,-0.922 1.632,-1.372 2.643,-1.833c1.012,-0.461 2.124,-0.691 3.338,-0.691c0.52,-0 1.025,0.043 1.517,0.129l0,3.848c-0.607,-0.173 -1.301,-0.259 -2.08,-0.259c-1.185,-0 -2.269,0.288 -3.251,0.864c-0.557,0.337 -1.035,0.849 -1.434,1.441c-0.568,0.843 -0.733,1.877 -0.733,2.892l-0,12.917l-3.728,0l0,-21.616Z" style="fill:#0a0a0a;fill-rule:nonzero;"></path><defs><linearGradient id="_Linear1" x1="0" y1="0" x2="1" y2="0" gradientUnits="userSpaceOnUse" gradientTransform="matrix(-34.9065,-23.4116,23.4116,-34.9065,25.3043,37.7284)"><stop offset="0" style="stop-color:#10bbd8;stop-opacity:1"></stop><stop offset="1" style="stop-color:#67d79f;stop-opacity:1"></stop></linearGradient></defs></svg> 