<?xml version="1.0" encoding="UTF-8"?> <svg xmlns="http://www.w3.org/2000/svg" width="200" height="39" viewBox="0 0 200 39" fill="none"><g clip-path="url(#clip0_177_2237)"><path d="M80.8703 8.69873C79.373 8.69873 78.1431 9.92958 78.1431 11.4599C78.1431 12.9902 79.3739 14.154 80.8703 14.154C82.3666 14.154 83.5975 12.9232 83.5975 11.4599C83.5975 9.99661 82.3997 8.69873 80.8703 8.69873Z" fill="#F2561D"></path><path d="M83.0977 15.844H78.6738V32.208H83.0977V15.844Z" fill="#F2561D"></path><path d="M129.994 15.4122C128.231 15.4122 126.269 16.1774 125.27 17.8739V15.8449H120.98V32.2089H125.403V22.7965C125.403 20.9005 126.534 19.4042 128.464 19.4042C130.592 19.4042 131.49 20.8345 131.49 22.6633V32.2089H135.914V21.8982C135.914 18.3065 134.052 15.4122 129.994 15.4122Z" fill="#F2561D"></path><path d="M146.18 15.3447C141.291 15.3447 137.599 18.9703 137.599 24.0252C137.599 29.08 141.291 32.7064 146.18 32.7064C151.07 32.7064 154.762 29.0477 154.762 24.0252C154.762 19.0024 151.07 15.3447 146.18 15.3447ZM146.18 28.6821C144.018 28.6821 142.023 27.0857 142.023 24.026C142.023 20.9662 144.018 19.3698 146.18 19.3698C148.342 19.3698 150.337 20.9332 150.337 24.026C150.337 27.1188 148.342 28.6821 146.18 28.6821Z" fill="#F2561D"></path><path d="M175.256 15.3785C173.093 15.3785 171.365 16.1106 170.067 18.1057C169.235 16.3431 167.439 15.3785 165.211 15.3785C163.416 15.3785 161.32 16.243 160.421 17.8394V15.8442H156.197V32.2084H160.621V22.6296C160.621 20.8339 161.752 19.4037 163.68 19.4037C165.61 19.4037 166.575 20.7337 166.575 22.4974V32.2092H170.965V22.6305C170.965 20.8678 172.096 19.4046 173.992 19.4046C176.02 19.4046 176.886 20.7346 176.886 22.4982V32.2101H181.176V21.6007C181.176 17.2101 178.282 15.3812 175.256 15.3812V15.3785Z" fill="#F2561D"></path><path d="M194.518 15.844L190.494 25.4226L186.137 15.844H181.182L188.132 30.1451L184.275 38.6601H188.965L199.241 15.844H194.518Z" fill="#F2561D"></path><path d="M93.3555 28.6813C91.1933 28.6813 89.1981 27.0848 89.1981 24.0252C89.1981 20.9654 91.1942 19.3689 93.3555 19.3689C94.697 19.3689 95.8809 19.9722 96.5868 21.1691L100.759 19.8007C99.4167 17.0708 96.7286 15.3447 93.3555 15.3447C88.4661 15.3447 84.7744 18.9703 84.7744 24.0252C84.7744 29.08 88.4661 32.7064 93.3555 32.7064C97.4189 32.7064 100.487 30.1776 101.407 26.4407H96.8122C96.1541 27.93 94.8537 28.6813 93.3555 28.6813Z" fill="#F2561D"></path><path d="M110.72 15.3447C105.831 15.3447 102.139 18.9703 102.139 24.0252C102.139 29.08 105.831 32.7064 110.72 32.7064C115.61 32.7064 119.301 29.0477 119.301 24.0252C119.301 19.0024 115.61 15.3447 110.72 15.3447ZM110.72 28.6821C108.558 28.6821 106.563 27.0857 106.563 24.026C106.563 20.9662 108.559 19.3698 110.72 19.3698C112.882 19.3698 114.878 20.9332 114.878 24.026C114.878 27.1188 112.882 28.6821 110.72 28.6821Z" fill="#F2561D"></path><path d="M72.8391 17.8766C73.7461 16.6744 73.935 15.5201 73.935 14.1395C73.935 12.7591 72.6781 8.62427 68.0975 8.62427H57.5884V32.1924H68.9402C74.5948 32.1924 76.9817 28.2762 76.9817 24.1432C76.9817 22.2481 76.193 19.7889 72.8391 17.8766ZM62.0269 12.2411H67.3795C68.6111 12.2411 69.6088 13.2395 69.6088 14.4704C69.6088 15.7021 68.6103 16.6997 67.3795 16.6997H62.0269V12.2411ZM68.4162 28.5756H62.0269V20.3174H68.4162C70.6969 20.3174 72.5449 22.1662 72.5449 24.446C72.5449 26.974 70.9014 28.5756 68.4162 28.5756Z" fill="#F2561D"></path><path d="M26.6984 16.2623C27.4035 14.8346 27.8954 13.0442 27.8954 10.8157C27.8954 7.75856 26.6732 4.99132 24.4535 3.02317C22.2633 1.08113 19.3002 0.0548405 15.8845 0.0548405L4.11388 0C1.84193 0 0 1.84193 0 4.11388V39H20.5911C28.2801 39 32.7744 32.5863 32.7744 26.8012C32.7744 22.4061 30.3336 18.3845 26.6984 16.2623ZM15.8836 3.06321C21.4094 3.06321 24.887 6.37538 24.887 10.8157C24.887 16.775 20.3961 19.5005 15.8523 19.5005C11.5834 19.5005 8.06759 15.9846 8.06759 10.5354V7.52702C8.06759 5.55191 6.88635 3.77875 5.05835 3.19465V3.06321H15.8836Z" fill="#F2561D"></path></g><defs><clipPath id="clip0_177_2237"><rect width="199.875" height="39" fill="white"></rect></clipPath></defs></svg> 