<?xml version="1.0" encoding="UTF-8" standalone="no"?> <svg xmlns="http://www.w3.org/2000/svg" xmlns:xlink="http://www.w3.org/1999/xlink" xmlns:serif="http://www.serif.com/" width="100%" height="100%" viewBox="0 0 120 24" version="1.1" xml:space="preserve" style="fill-rule:evenodd;clip-rule:evenodd;stroke-linejoin:round;stroke-miterlimit:2;"><path d="M5.414,12l-2.695,2.695l-2.719,-2.695l2.719,-2.719l2.695,2.719Zm6.586,-6.586l4.641,4.641l2.718,-2.719l-7.359,-7.336l-7.359,7.359l2.718,2.719l4.641,-4.664Zm9.281,3.867l-2.695,2.719l2.719,2.719l2.718,-2.719l-2.742,-2.719Zm-9.281,9.305l-4.641,-4.664l-2.718,2.719l7.359,7.359l7.359,-7.359l-2.718,-2.719l-4.641,4.664Zm0,-3.891l2.719,-2.718l-2.719,-2.696l-2.719,2.719l2.719,2.695Zm28.594,0.282l-0,-0.047c-0,-1.758 -0.938,-2.649 -2.461,-3.235c0.937,-0.515 1.734,-1.359 1.734,-2.836l0,-0.046c0,-2.063 -1.664,-3.399 -4.336,-3.399l-6.117,0l0,13.149l6.258,-0c2.976,0.023 4.922,-1.196 4.922,-3.586Zm-3.61,-5.625c0,0.984 -0.797,1.382 -2.086,1.382l-2.671,0l-0,-2.789l2.859,0c1.219,0 1.898,0.493 1.898,1.36l0,0.047Zm0.727,5.25c-0,0.984 -0.774,1.429 -2.039,1.429l-3.445,0l-0,-2.883l3.351,0c1.477,0 2.133,0.54 2.133,1.43l-0,0.024Zm8.953,3.961l0,-13.149l-2.906,0l-0,13.149l2.906,-0Zm15.563,0.023l-0,-13.172l-2.86,0l0,8.109l-6.164,-8.109l-2.672,0l0,13.149l2.86,-0l-0,-8.344l6.375,8.367l2.461,-0Zm16.031,-0l-5.649,-13.242l-2.672,-0l-5.648,13.242l2.977,-0l1.195,-2.953l5.555,-0l1.195,2.953l3.047,-0Zm-5.274,-5.508l-3.492,0l1.758,-4.265l1.734,4.265Zm19.079,5.508l-0,-13.172l-2.86,0l0,8.109l-6.164,-8.109l-2.672,0l0,13.149l2.86,-0l-0,-8.344l6.375,8.367l2.461,-0Zm14.929,-2.133l-1.851,-1.851c-1.032,0.937 -1.946,1.546 -3.469,1.546c-2.25,0 -3.82,-1.875 -3.82,-4.125l-0,-0.07c-0,-2.25 1.593,-4.101 3.82,-4.101c1.312,-0 2.344,0.562 3.375,1.476l1.851,-2.133c-1.218,-1.195 -2.695,-2.039 -5.179,-2.039c-4.031,0 -6.867,3.071 -6.867,6.797l-0,0.047c-0,3.773 2.882,6.773 6.75,6.773c2.531,0.024 4.031,-0.867 5.39,-2.32Zm12.352,2.11l0,-2.555l-7.149,-0l0,-2.766l6.211,0l0,-2.578l-6.211,0l0,-2.672l7.055,0l0,-2.578l-9.914,0l0,13.149l10.008,-0.001Z" style="fill:#0a0a0a;fill-rule:nonzero;"></path></svg> 