<?xml version="1.0" encoding="UTF-8" standalone="no"?> <svg xmlns="http://www.w3.org/2000/svg" xmlns:xlink="http://www.w3.org/1999/xlink" xmlns:serif="http://www.serif.com/" width="100%" height="100%" viewBox="0 0 164 37" version="1.1" xml:space="preserve" style="fill-rule:evenodd;clip-rule:evenodd;stroke-linejoin:round;stroke-miterlimit:2;"><path d="M60.243,17.318c1.363,-1.249 2.221,-3.03 2.221,-5.017c0,-3.765 -3.071,-6.828 -6.848,-6.828l-12.006,0l-0,25.178l12.2,-0c4.103,-0 7.428,-3.313 7.428,-7.404c0,-2.43 -1.181,-4.583 -2.995,-5.933l0,0.004Zm-13.34,-8.56l8.709,-0c1.959,-0 3.555,1.588 3.555,3.543c0,1.954 -1.592,3.542 -3.555,3.542l-8.71,0l0,-7.085Zm8.904,18.608l-8.904,0l0,-8.238l8.904,-0c2.281,-0 4.135,1.846 4.135,4.119c0,2.273 -1.85,4.119 -4.135,4.119Z" style="fill:#0a0a0a;fill-rule:nonzero;"></path><path d="M79.102,5.473l-11.584,0l-1.003,3.293l12.587,0c2.587,0 4.691,2.104 4.691,4.691c0,2.588 -2.104,4.692 -4.691,4.692l-12.587,-0l-0,12.578l3.297,0l-0,-9.286l9.29,0c4.405,0 7.988,-3.583 7.988,-7.984c0,-4.401 -3.583,-7.984 -7.988,-7.984Z" style="fill:#0a0a0a;fill-rule:nonzero;"></path><path d="M80.565,23.444l2.966,7.215l3.559,-0l-2.958,-7.202l-3.567,-0.013Z" style="fill:#0a0a0a;fill-rule:nonzero;"></path><path d="M94.099,19.209l12.535,-0l0,-3.358l-12.535,0l0,-7.021l13.696,0l0,-3.357l-16.993,0l0,25.254l17.424,0l0,-3.357l-14.127,0l0,-8.161Z" style="fill:#0a0a0a;fill-rule:nonzero;"></path><path d="M122.018,26.749l-8.073,-21.276l-3.535,0l9.581,25.254l4.071,0l9.524,-25.254l-3.656,0l-7.912,21.276Z" style="fill:#0a0a0a;fill-rule:nonzero;"></path><rect x="136.149" y="5.473" width="3.297" height="25.254" style="fill:#0a0a0a;fill-rule:nonzero;"></rect><path d="M158.679,17.391l-9.314,-2.41c-1.504,-0.5 -2.439,-2.04 -2.116,-3.664c0.302,-1.519 1.737,-2.547 3.285,-2.547l4.421,0c2.62,0 4.752,2.132 4.752,4.756l3.297,-0c0,-4.442 -3.611,-8.053 -8.049,-8.053l-4.361,0c-3.361,0 -6.328,2.463 -6.67,5.808c-0.315,3.067 1.535,5.872 4.397,6.827l9.512,2.475c1.814,0.419 1.955,2.354 1.866,3.857c-0.097,1.701 -1.592,2.99 -3.293,2.99l-4.143,0c-2.801,0 -5.079,-2.281 -5.079,-5.082l-3.297,0c0,4.619 3.757,8.379 8.376,8.379l4.26,0c3.635,0 6.582,-3.014 6.477,-6.722c-0.081,-2.769 -0.645,-5.163 -4.321,-6.614Z" style="fill:#0a0a0a;fill-rule:nonzero;"></path><path d="M18.181,5.042c-4.026,-0 -7.629,1.806 -10.031,4.647l1.305,1.096l1.584,1.326c1.713,-2.023 4.277,-3.309 7.142,-3.309c4.502,0 8.259,3.172 9.142,7.392c0.128,0.617 0.197,1.253 0.197,1.906c0,1.955 -0.609,3.773 -1.644,5.268c-1.681,2.434 -4.502,4.03 -7.695,4.03c-0.427,0 -0.85,-0.028 -1.261,-0.084c-4.151,-0.557 -7.436,-3.833 -7.993,-7.964l-2.051,0.278c0.681,5.05 4.696,9.048 9.766,9.729l-0.23,1.689c0.58,0.08 1.173,0.117 1.774,0.117c4.485,-0 8.443,-2.241 10.813,-5.659l-1.41,-0.963c1.265,-1.83 2.007,-4.047 2.007,-6.437c-0,-0.798 -0.085,-1.58 -0.238,-2.329l1.677,-0.351c-1.242,-5.929 -6.522,-10.382 -12.845,-10.382l-0.009,-0Z" style="fill:#0a0a0a;fill-rule:nonzero;"></path><path d="M35.464,12.466l-2.765,1.58c0.363,1.289 0.556,2.648 0.556,4.054c0,8.291 -6.751,15.009 -15.078,15.009c-8.327,0 -15.074,-6.718 -15.074,-15.009c0,-1.426 0.202,-2.809 0.577,-4.119l-2.761,-1.576c-0.597,1.79 -0.919,3.704 -0.919,5.695c0,9.996 8.142,18.101 18.181,18.101c10.04,-0 18.182,-8.105 18.182,-18.101c-0,-1.967 -0.314,-3.861 -0.899,-5.634Z" style="fill:#0a0a0a;fill-rule:nonzero;"></path><path d="M18.182,3.091c6.642,0 12.28,4.276 14.287,10.213l2.737,-1.564c-2.579,-6.859 -9.23,-11.74 -17.025,-11.74c-7.794,-0 -14.404,4.853 -17.004,11.684l2.733,1.56c2.031,-5.905 7.653,-10.153 14.271,-10.153Z" style="fill:#0a0a0a;fill-rule:nonzero;"></path><path d="M23.8,16.927c0.081,0.379 0.121,0.77 0.121,1.173c-0,1.201 -0.371,2.318 -1.008,3.237c-1.035,1.495 -2.765,2.474 -4.732,2.474c-0.262,0 -0.523,-0.016 -0.777,-0.052c-2.552,-0.343 -4.571,-2.354 -4.909,-4.893c-0.037,-0.25 -0.053,-0.508 -0.053,-0.766c0,-1.402 0.508,-2.684 1.35,-3.679c1.052,-1.246 2.628,-2.036 4.39,-2.036c2.764,0 5.078,1.951 5.618,4.542Z" style="fill:#0a0a0a;fill-rule:nonzero;"></path></svg> 