<?xml version="1.0" encoding="UTF-8" standalone="no"?> <svg xmlns="http://www.w3.org/2000/svg" xmlns:xlink="http://www.w3.org/1999/xlink" xmlns:serif="http://www.serif.com/" width="100%" height="100%" viewBox="0 0 149 22" version="1.1" xml:space="preserve" style="fill-rule:evenodd;clip-rule:evenodd;stroke-linejoin:round;stroke-miterlimit:2;"><path d="M34.782,0.049c-2.846,-0 -5.525,1.174 -7.546,3.307c-2.011,2.12 -3.117,4.928 -3.117,7.904l0,10.74l2.983,-0l0,-10.74c0,-2.174 0.807,-4.221 2.271,-5.766c1.455,-1.534 3.375,-2.379 5.409,-2.379c2.034,0 3.953,0.845 5.408,2.379c1.466,1.545 2.271,3.592 2.271,5.766l0,10.74l2.983,-0l0,-10.74c0,-2.976 -1.106,-5.784 -3.116,-7.904c-2.021,-2.133 -4.701,-3.307 -7.546,-3.307Z" style="fill:#0a0a0a;fill-rule:nonzero;"></path><path d="M34.783,10.813c-0.823,0 -1.492,0.688 -1.492,1.532l-0,9.653l2.983,-0l0,-9.653c0,-0.844 -0.669,-1.532 -1.491,-1.532Z" style="fill:#fa5e06;fill-rule:nonzero;"></path><path d="M3.22,3.296c-2.077,2.076 -3.22,4.829 -3.22,7.751c0,2.923 1.143,5.676 3.22,7.752c2.064,2.064 4.797,3.201 7.694,3.201l10.388,-0l-0,-3.064l-10.388,-0c-2.115,-0 -4.108,-0.829 -5.613,-2.333c-1.494,-1.494 -2.316,-3.466 -2.316,-5.556c0,-2.089 0.822,-4.061 2.316,-5.555c1.505,-1.506 3.5,-2.333 5.613,-2.333l10.385,0l0,-3.064l-10.385,-0c-2.897,-0 -5.63,1.136 -7.694,3.201Z" style="fill:#0a0a0a;fill-rule:nonzero;"></path><path d="M144.884,3.354c-2.021,-2.131 -4.7,-3.308 -7.546,-3.308c-2.845,0 -5.525,1.174 -7.546,3.308c-2.01,2.12 -3.116,4.928 -3.116,7.904l-0,10.74l2.983,-0l-0,-10.74c-0,-2.174 0.807,-4.221 2.271,-5.766c1.455,-1.535 3.374,-2.379 5.408,-2.379c2.034,-0 3.954,0.844 5.409,2.379c1.466,1.545 2.271,3.592 2.271,5.766l0,10.74l2.983,-0l0,-10.74c0,-2.976 -1.106,-5.784 -3.117,-7.904Z" style="fill:#0a0a0a;fill-rule:nonzero;"></path><path d="M137.339,10.813c-0.822,0 -1.491,0.688 -1.491,1.532l0,9.655l2.983,0l0,-9.655c0,-0.844 -0.67,-1.532 -1.492,-1.532Z" style="fill:#fa5e06;fill-rule:nonzero;"></path><path d="M72.453,3.113l9.251,-0l-0,18.887l2.983,-0l-0,-18.887l9.184,-0l-0,-3.064l-21.418,-0l0,3.064Z" style="fill:#0a0a0a;fill-rule:nonzero;"></path><path d="M66.65,16.74l-16.295,-16.74l-2.066,0l0,22l2.981,0l0,-16.738l16.295,16.738l2.049,0l0,-22l-2.964,0l0,16.74Z" style="fill:#0a0a0a;fill-rule:nonzero;"></path><path d="M120.881,16.74l-16.295,-16.74l-2.066,0l0,22l2.983,0l0,-16.738l16.293,16.738l2.051,0l0,-22l-2.966,0l0,16.74Z" style="fill:#0a0a0a;fill-rule:nonzero;"></path><rect x="96.697" y="0" width="2.987" height="22" style="fill:#0a0a0a;fill-rule:nonzero;"></rect></svg> 