<?xml version="1.0" encoding="UTF-8" standalone="no"?> <svg xmlns="http://www.w3.org/2000/svg" xmlns:xlink="http://www.w3.org/1999/xlink" xmlns:serif="http://www.serif.com/" width="100%" height="100%" viewBox="0 0 199 59" version="1.1" xml:space="preserve" style="fill-rule:evenodd;clip-rule:evenodd;stroke-linejoin:round;stroke-miterlimit:2;"><path d="M198.02,17.496l-2.751,0l0,3.253c-1.946,-2.268 -4.738,-3.678 -7.865,-3.678c-5.859,0 -10.58,5.005 -10.58,11.163c0,6.159 4.758,11.16 10.58,11.16c3.129,0 5.921,-1.406 7.865,-3.677l0,3.255l2.751,0l0,-21.476Zm-10.616,19.169c-4.331,-0 -7.828,-3.77 -7.828,-8.39c0,-4.62 3.537,-8.392 7.828,-8.392c4.289,-0 7.828,3.772 7.828,8.392c0,4.62 -3.495,8.39 -7.828,8.39Z" style="fill:#0a0a0a;fill-rule:nonzero;"></path><path d="M166.903,21.37l0,-3.874l-2.751,0l0,21.478l2.751,0l0,-10.432c0,-3.815 2.647,-7.17 6.334,-8.01c0.925,-0.193 1.927,-0.309 3.048,-0.309l0.075,0l0,-2.731l-0.075,0c-1.285,0 -2.531,0.114 -3.622,0.387c-2.309,0.565 -4.289,1.784 -5.76,3.491Z" style="fill:#0a0a0a;fill-rule:nonzero;"></path><path d="M150.438,36.664c-4.686,0 -8.448,-3.776 -8.448,-8.389c-0,-4.616 3.802,-8.392 8.448,-8.392c4.645,0 8.447,3.776 8.447,8.392c-0,4.613 -3.762,8.389 -8.447,8.389Zm-0,-19.554c-6.202,0 -11.238,5.001 -11.238,11.161c-0,6.161 5.034,11.164 11.238,11.164c6.204,0 11.233,-5.001 11.233,-11.164c-0,-6.162 -5.031,-11.161 -11.233,-11.161Z" style="fill:#0a0a0a;fill-rule:nonzero;"></path><path d="M128.115,12.764l0,4.733l-2.947,0l0,2.732l2.947,0l0,18.748l9.53,0l0,-2.733l-6.78,0l0,-16.015l6.78,0l0,-2.732l-6.78,0l0,-4.733l-2.75,0Z" style="fill:#0a0a0a;fill-rule:nonzero;"></path><path d="M122.424,17.492c-1.284,0 -2.529,0.114 -3.62,0.387c-2.311,0.565 -4.289,1.784 -5.761,3.489l0,-3.872l-2.75,0l0,21.478l2.75,0l0,-10.432c0,-3.815 2.648,-7.17 6.335,-8.01c0.925,-0.193 1.927,-0.309 3.046,-0.309l0.077,0l0,-2.731l-0.077,0Z" style="fill:#0a0a0a;fill-rule:nonzero;"></path><path d="M96.806,36.629c-4.038,0 -7.436,-3.046 -8.085,-7.007l19.014,0l0,-1.347c0,-6.122 -4.917,-11.124 -10.925,-11.124c-6.01,0 -10.927,5.002 -10.927,11.124c0,6.12 4.917,11.123 10.927,11.123c4.33,0 8.231,-2.6 9.988,-6.627l0.045,-0.107l-3.065,0l-0.022,0.036c-1.497,2.441 -4.107,3.969 -6.946,3.929l-0.004,0Zm0,-16.75c4.039,0 7.435,3.047 8.085,7.007l-16.135,-0c0.614,-4.002 4.012,-7.007 8.05,-7.007Z" style="fill:#0a0a0a;fill-rule:nonzero;"></path><path d="M80.503,23.773l0.022,0.037l3.067,0l-0.048,-0.106c-1.714,-3.874 -5.54,-6.59 -9.988,-6.59c-6.014,0 -10.926,5.001 -10.926,11.123c0,6.121 4.916,11.124 10.926,11.124c4.333,0 8.234,-2.596 9.988,-6.591l0.048,-0.106l-3.067,0l-0.022,0.036c-1.46,2.44 -4.067,3.929 -6.947,3.929c-4.491,0 -8.176,-3.776 -8.176,-8.392c0,-4.618 3.687,-8.391 8.176,-8.391c2.917,0 5.487,1.559 6.947,3.927Z" style="fill:#0a0a0a;fill-rule:nonzero;"></path><path d="M26.291,0.151l-0.014,-0.007c-0.016,-0.008 -0.033,-0.018 -0.049,-0.026c-0.064,-0.033 -0.131,-0.059 -0.198,-0.079c-0.093,-0.025 -0.192,-0.039 -0.291,-0.039l-0.038,0c-0.079,0.004 -0.156,0.014 -0.232,0.033c-0.093,0.024 -0.182,0.061 -0.267,0.111l-0.018,0.007l-25.032,0l0,14.361l-0.152,0.088l0,29.53l0.537,0.309l24.665,14.15l0.537,0.307l0.534,-0.307l24.666,-14.15l0.002,-0.002l0.534,-0.307l0,-29.529l-0.152,-0.089l0,-14.361l-25.032,0Zm-4.289,1.827l-20.01,0l0,11.48l20.01,-11.48Zm-18.786,41.538l21.449,12.304l0,-24.609l-21.449,12.305Zm23.594,-12.305l0,24.609l21.449,-12.304l-21.449,-12.305Zm22.673,-17.753l-20.01,-11.48l20.01,0l0,11.48Zm-0.152,26.082l-9.796,-16.86l9.796,-5.619l0,22.479Zm-11.654,-15.794l9.796,16.86l-19.592,-11.24l9.796,-5.62Zm-1.071,-1.845l-9.796,5.619l0,-22.477l9.796,16.858Zm1.857,-1.066l-9.796,-16.86l19.592,11.241l-9.796,5.619Zm-13.798,6.685l-9.796,-5.619l9.796,-16.858l0,22.477Zm-10.867,-3.774l9.796,5.62l-19.592,11.24l9.796,-16.86Zm-1.857,-1.066l-9.796,16.86l0,-22.479l9.796,5.619Zm1.071,-1.845l-9.796,-5.619l19.592,-11.241l-9.796,16.86Z" style="fill:url(#_Linear1);"></path><defs><linearGradient id="_Linear1" x1="0" y1="0" x2="1" y2="0" gradientUnits="userSpaceOnUse" gradientTransform="matrix(58.038,50.7058,-50.7058,58.038,0.15322,0.152153)"><stop offset="0" style="stop-color:#79f2a5;stop-opacity:1"></stop><stop offset="1" style="stop-color:#40dcff;stop-opacity:1"></stop></linearGradient></defs></svg> 