<?xml version="1.0" encoding="UTF-8" standalone="no"?> <svg xmlns="http://www.w3.org/2000/svg" xmlns:xlink="http://www.w3.org/1999/xlink" xmlns:serif="http://www.serif.com/" width="100%" height="100%" viewBox="0 0 398 102" version="1.1" xml:space="preserve" style="fill-rule:evenodd;clip-rule:evenodd;stroke-linejoin:round;stroke-miterlimit:2;"><path d="M94.955,25.455l-2.203,-3.824c-0.172,-0.3 -0.412,-0.556 -0.7,-0.748c-0.287,-0.193 -0.616,-0.316 -0.96,-0.362c-0.344,-0.046 -0.694,-0.012 -1.023,0.098c-0.328,0.111 -0.627,0.295 -0.872,0.539l-5.032,5.001c-0.371,0.368 -0.602,0.853 -0.653,1.371c-0.052,0.519 0.079,1.039 0.37,1.472c1.839,2.79 3.311,5.803 4.381,8.964c1.999,5.906 2.556,12.201 1.624,18.364c-0.932,6.162 -3.326,12.016 -6.984,17.078c-3.658,5.062 -8.475,9.186 -14.053,12.033c-5.579,2.846 -11.759,4.333 -18.03,4.338c-6.46,0.018 -12.825,-1.552 -18.527,-4.571l8.53,-8.473c4.273,1.607 8.874,2.16 13.409,1.611c4.535,-0.55 8.867,-2.184 12.626,-4.765c3.759,-2.58 6.832,-6.028 8.954,-10.048c2.122,-4.02 3.231,-8.492 3.231,-13.032c-0.002,-0.97 -0.056,-1.939 -0.161,-2.903c-0.335,-3.238 -1.235,-6.393 -2.661,-9.323c-0.159,-0.318 -0.392,-0.594 -0.68,-0.806c-0.287,-0.212 -0.621,-0.352 -0.974,-0.411c-0.353,-0.059 -0.714,-0.033 -1.055,0.074c-0.342,0.107 -0.652,0.293 -0.907,0.542l-5.107,5.076c-0.272,0.269 -0.471,0.603 -0.576,0.97c-0.106,0.367 -0.116,0.755 -0.029,1.127l0.429,1.823c0.755,3.19 0.556,6.529 -0.572,9.607c-1.128,3.079 -3.136,5.764 -5.777,7.725c-2.642,1.96 -5.802,3.112 -9.093,3.313c-3.291,0.201 -6.569,-0.557 -9.433,-2.181l-2.246,-1.279c-0.43,-0.247 -0.929,-0.345 -1.421,-0.281c-0.492,0.064 -0.949,0.288 -1.301,0.636l-20.837,20.682c-0.227,0.226 -0.403,0.497 -0.516,0.796c-0.114,0.299 -0.161,0.618 -0.14,0.937c0.021,0.319 0.11,0.629 0.261,0.911c0.152,0.281 0.362,0.528 0.617,0.722l3.069,2.339c8.849,6.777 19.715,10.437 30.887,10.403c28.019,0 50.816,-22.655 50.816,-50.499c0.002,-8.784 -2.3,-17.417 -6.681,-25.046Z" style="fill:url(#_Linear1);fill-rule:nonzero;"></path><path d="M81.703,10.403c-8.847,-6.776 -19.712,-10.436 -30.883,-10.403c-28.023,0 -50.82,22.655 -50.82,50.502c-0.001,8.784 2.301,17.417 6.681,25.047l2.203,3.824c0.172,0.303 0.413,0.562 0.702,0.756c0.29,0.195 0.622,0.32 0.969,0.366c0.347,0.045 0.699,0.01 1.03,-0.103c0.331,-0.114 0.631,-0.302 0.876,-0.55l5.029,-4.997c0.37,-0.369 0.601,-0.853 0.652,-1.372c0.052,-0.518 -0.079,-1.038 -0.37,-1.472c-1.837,-2.791 -3.31,-5.803 -4.381,-8.963c-2,-5.906 -2.557,-12.2 -1.626,-18.362c0.931,-6.162 3.323,-12.015 6.98,-17.077c3.656,-5.062 8.471,-9.187 14.049,-12.035c5.577,-2.848 11.755,-4.336 18.026,-4.343c6.459,-0.018 12.822,1.552 18.523,4.571l-8.541,8.476c-4.272,-1.608 -8.874,-2.161 -13.409,-1.612c-4.534,0.548 -8.868,2.183 -12.626,4.764c-3.759,2.58 -6.831,6.029 -8.953,10.049c-2.122,4.021 -3.229,8.493 -3.228,13.033c0,0.466 0.125,2.591 0.165,2.957c0.345,3.218 1.245,6.352 2.661,9.266c0.157,0.323 0.389,0.604 0.678,0.82c0.288,0.216 0.625,0.359 0.981,0.42c0.356,0.06 0.721,0.035 1.065,-0.074c0.344,-0.109 0.657,-0.298 0.913,-0.551l5.107,-5.072c0.273,-0.272 0.472,-0.608 0.577,-0.978c0.105,-0.369 0.114,-0.76 0.024,-1.133l-0.422,-1.809c-0.296,-1.261 -0.448,-2.551 -0.45,-3.846c-0.001,-2.946 0.778,-5.84 2.257,-8.392c1.479,-2.553 3.607,-4.675 6.171,-6.154c2.563,-1.479 5.473,-2.262 8.437,-2.273c2.964,-0.01 5.879,0.754 8.453,2.215l2.25,1.279c0.429,0.246 0.928,0.344 1.419,0.28c0.492,-0.064 0.948,-0.288 1.299,-0.635l20.823,-20.693c0.227,-0.226 0.403,-0.497 0.517,-0.797c0.113,-0.299 0.161,-0.618 0.14,-0.937c-0.021,-0.319 -0.11,-0.63 -0.262,-0.912c-0.152,-0.282 -0.362,-0.528 -0.617,-0.723l-3.069,-2.357Z" style="fill:url(#_Linear2);fill-rule:nonzero;"></path><path d="M167.302,64.428c-0.38,-0.307 -0.858,-0.469 -1.347,-0.458c-0.489,0.011 -0.959,0.195 -1.325,0.518c-3.265,2.52 -7.053,4.852 -12.589,4.852c-10.133,0 -18.377,-8.484 -18.377,-18.916c0,-10.431 8.209,-18.986 18.302,-18.986c4.395,0 9.116,1.83 12.6,4.865c0.195,0.228 0.438,0.41 0.712,0.533c0.274,0.123 0.572,0.184 0.872,0.178c0.258,-0.022 0.508,-0.099 0.733,-0.226c0.224,-0.127 0.419,-0.301 0.569,-0.509l3.298,-3.373c0.209,-0.204 0.374,-0.447 0.484,-0.716c0.111,-0.269 0.165,-0.558 0.16,-0.848c-0.012,-0.295 -0.085,-0.585 -0.215,-0.85c-0.13,-0.266 -0.314,-0.502 -0.54,-0.693c-5.722,-4.976 -11.52,-7.201 -18.748,-7.201c-15.43,0 -27.984,12.554 -27.984,27.983c0.006,7.375 2.955,14.447 8.202,19.664c5.246,5.218 12.36,8.154 19.782,8.165c7.26,0 13.78,-2.602 18.859,-7.535c0.218,-0.221 0.39,-0.483 0.504,-0.771c0.114,-0.289 0.169,-0.597 0.161,-0.906c-0.003,-0.25 -0.057,-0.496 -0.159,-0.724c-0.102,-0.228 -0.25,-0.433 -0.435,-0.602l-3.519,-3.444Z" style="fill:#0a0a0a;fill-rule:nonzero;stroke:#0a0a0a;stroke-width:1px;"></path><path d="M191.289,23.352l-5.007,0c-0.561,0.016 -1.095,0.246 -1.49,0.643c-0.394,0.398 -0.619,0.931 -0.627,1.49l0,50.054c0.012,0.555 0.239,1.084 0.633,1.477c0.394,0.394 0.926,0.622 1.484,0.637l5.007,0c0.559,-0.015 1.091,-0.243 1.485,-0.636c0.395,-0.394 0.623,-0.923 0.636,-1.478l0,-50.072c-0.012,-0.556 -0.24,-1.085 -0.635,-1.479c-0.394,-0.394 -0.927,-0.621 -1.486,-0.636Z" style="fill:#0a0a0a;fill-rule:nonzero;stroke:#0a0a0a;stroke-width:1px;"></path><path d="M250.361,40.213c0,-9.29 -7.704,-16.861 -17.167,-16.861l-20.576,0c-0.565,0.008 -1.103,0.236 -1.499,0.635c-0.397,0.399 -0.619,0.937 -0.619,1.498l0,50.054c0.005,0.557 0.229,1.091 0.625,1.486c0.396,0.395 0.931,0.621 1.493,0.628l4.917,0c0.559,-0.016 1.089,-0.244 1.483,-0.638c0.394,-0.393 0.621,-0.922 0.635,-1.476l0,-18.61l10.322,0l9.871,19.669c0.179,0.323 0.442,0.592 0.762,0.78c0.319,0.188 0.684,0.286 1.055,0.286l5.901,0c0.373,0.013 0.743,-0.073 1.071,-0.249c0.329,-0.175 0.605,-0.434 0.8,-0.75c0.19,-0.334 0.29,-0.712 0.29,-1.096c0,-0.384 -0.1,-0.762 -0.29,-1.097l-10.015,-18.56c6.775,-3.003 10.941,-8.953 10.941,-15.699Zm-9.227,0.153c0,4.717 -3.913,8.701 -8.545,8.701l-12.786,0l0,-17.025l12.783,0c4.631,0 8.544,3.814 8.544,8.324l0.004,0Z" style="fill:#0a0a0a;fill-rule:nonzero;stroke:#0a0a0a;stroke-width:1px;"></path><path d="M304.113,64.428c-0.38,-0.307 -0.857,-0.469 -1.347,-0.458c-0.489,0.011 -0.958,0.195 -1.324,0.518c-3.266,2.52 -7.053,4.852 -12.59,4.852c-10.132,0 -18.376,-8.484 -18.376,-18.916c0,-10.431 8.226,-18.986 18.301,-18.986c4.392,0 9.117,1.83 12.6,4.865c0.195,0.228 0.438,0.411 0.712,0.533c0.274,0.123 0.572,0.184 0.873,0.178c0.257,-0.022 0.507,-0.099 0.732,-0.226c0.225,-0.127 0.419,-0.301 0.57,-0.509l3.297,-3.373c0.209,-0.204 0.373,-0.448 0.483,-0.717c0.11,-0.269 0.164,-0.557 0.158,-0.847c-0.012,-0.295 -0.084,-0.584 -0.213,-0.85c-0.13,-0.265 -0.313,-0.501 -0.539,-0.693c-5.722,-4.976 -11.52,-7.201 -18.748,-7.201c-15.433,-0.003 -27.969,12.55 -27.969,27.979c0.006,7.376 2.956,14.449 8.202,19.666c5.247,5.217 12.362,8.153 19.785,8.164c7.257,0 13.777,-2.602 18.859,-7.535c0.219,-0.222 0.39,-0.485 0.504,-0.774c0.115,-0.289 0.169,-0.597 0.161,-0.907c-0.003,-0.249 -0.058,-0.495 -0.16,-0.722c-0.102,-0.227 -0.25,-0.432 -0.433,-0.601l-3.538,-3.44Z" style="fill:#0a0a0a;fill-rule:nonzero;stroke:#0a0a0a;stroke-width:1px;"></path><path d="M350.032,69.261l-19.814,0l0,-43.795c-0.008,-0.558 -0.233,-1.092 -0.627,-1.489c-0.395,-0.397 -0.929,-0.628 -1.49,-0.644l-5.007,0c-0.565,0.008 -1.103,0.236 -1.499,0.635c-0.397,0.399 -0.619,0.937 -0.619,1.498l0,50.072c0.005,0.557 0.229,1.091 0.625,1.486c0.396,0.396 0.932,0.621 1.493,0.628l26.924,0c0.562,-0.006 1.099,-0.231 1.495,-0.626c0.397,-0.396 0.621,-0.93 0.626,-1.488l0,-4.162c-0.005,-0.556 -0.227,-1.088 -0.621,-1.483c-0.393,-0.395 -0.926,-0.622 -1.486,-0.632Z" style="fill:#0a0a0a;fill-rule:nonzero;stroke:#0a0a0a;stroke-width:1px;"></path><path d="M394.883,31.814c0.564,-0.008 1.102,-0.236 1.499,-0.635c0.396,-0.399 0.618,-0.937 0.618,-1.498l0,-4.215c0,-0.561 -0.222,-1.099 -0.618,-1.498c-0.397,-0.399 -0.935,-0.627 -1.499,-0.635l-30.255,0c-0.564,0.008 -1.102,0.236 -1.499,0.635c-0.396,0.399 -0.618,0.937 -0.618,1.498l0,50.072c0.005,0.557 0.229,1.091 0.625,1.486c0.395,0.396 0.931,0.621 1.492,0.628l30.255,0c0.561,-0.007 1.097,-0.232 1.492,-0.628c0.396,-0.395 0.62,-0.929 0.625,-1.486l0,-4.162c-0.005,-0.558 -0.229,-1.091 -0.625,-1.487c-0.395,-0.395 -0.931,-0.621 -1.492,-0.628l-23.22,0l0,-14.906l19.511,0c0.564,-0.007 1.104,-0.234 1.501,-0.634c0.397,-0.399 0.62,-0.938 0.62,-1.499l0,-4.215c-0.013,-0.556 -0.24,-1.085 -0.635,-1.479c-0.395,-0.394 -0.927,-0.621 -1.486,-0.636l-19.511,0l0,-14.078l23.22,0Z" style="fill:#0a0a0a;fill-rule:nonzero;stroke:#0a0a0a;stroke-width:1px;"></path><defs><linearGradient id="_Linear1" x1="0" y1="0" x2="1" y2="0" gradientUnits="userSpaceOnUse" gradientTransform="matrix(71.09,-71.537,71.537,71.09,32.898,104.216)"><stop offset="0" style="stop-color:#b090f5;stop-opacity:1"></stop><stop offset="1" style="stop-color:#5fbfff;stop-opacity:1"></stop></linearGradient><linearGradient id="_Linear2" x1="0" y1="0" x2="1" y2="0" gradientUnits="userSpaceOnUse" gradientTransform="matrix(85.656,0,0,85.656,7.32366e-07,40.252)"><stop offset="0" style="stop-color:#68d7fa;stop-opacity:1"></stop><stop offset="1" style="stop-color:#7ef1b3;stop-opacity:1"></stop></linearGradient></defs></svg> 