<?xml version="1.0" encoding="UTF-8"?> <svg xmlns="http://www.w3.org/2000/svg" width="183" height="33" viewBox="0 0 183 33" fill="none"><path d="M36.9343 9.21154C30.2863 9.21154 25.0919 14.307 25.0919 21.1284C25.0919 27.9498 30.155 33.0017 36.9343 33.0017C43.7134 33.0017 48.8647 27.8626 48.8647 21.0848C48.8647 14.3506 43.8015 9.21154 36.9343 9.21154ZM36.9791 28.0857C33.1933 28.0857 30.4191 25.1169 30.4191 21.1301C30.4191 17.098 33.1485 14.1309 36.9343 14.1309C40.7649 14.1309 43.5374 17.1432 43.5374 21.1301C43.5374 25.1169 40.7649 28.0857 36.9791 28.0857ZM50.3166 14.3959H53.6187V32.5606H58.9012V9.65435H50.3166V14.3959ZM11.7976 14.1292C14.5717 14.1292 16.7727 15.8568 17.6083 18.4263H23.1998C22.1865 12.9334 17.6964 9.21154 11.8424 9.21154C5.19444 9.21154 0 14.307 0 21.1301C0 27.9531 5.06322 33.0034 11.8424 33.0034C17.5651 33.0034 22.1433 29.2816 23.1566 23.7432H17.6083C16.8159 26.3128 14.6149 28.0857 11.8408 28.0857C8.01012 28.0857 5.32566 25.1169 5.32566 21.1301C5.32734 17.098 7.96859 14.1292 11.7976 14.1292ZM150.687 18.9144L146.813 18.3391C144.965 18.0741 143.644 17.4536 143.644 15.991C143.644 14.3959 145.362 13.5992 147.694 13.5992C150.247 13.5992 151.877 14.7062 152.229 16.5227H157.335C156.762 11.9153 153.24 9.21319 147.827 9.21319C142.235 9.21319 138.538 12.0931 138.538 16.1688C138.538 20.0667 140.959 22.3277 145.845 23.0355L149.719 23.6107C151.613 23.8757 152.669 24.6305 152.669 26.0478C152.669 27.8643 150.82 28.6173 148.267 28.6173C145.14 28.6173 143.38 27.3326 143.116 25.3836H137.921C138.406 29.8585 141.883 33.0034 148.222 33.0034C153.99 33.0034 157.819 30.3449 157.819 25.7811C157.819 21.7054 155.046 19.5786 150.687 18.9144ZM56.26 0.218101C54.3231 0.218101 52.8699 1.63538 52.8699 3.58435C52.8699 5.53331 54.3215 6.95059 56.26 6.95059C58.1968 6.95059 59.6505 5.53331 59.6505 3.58435C59.6505 1.63538 58.1968 0.218101 56.26 0.218101ZM133.783 17.4971C133.783 12.5358 130.79 9.21319 124.451 9.21319C118.464 9.21319 115.118 12.2708 114.457 16.9671H119.696C119.96 15.1507 121.369 13.6445 124.363 13.6445C127.049 13.6445 128.369 14.8404 128.369 16.303C128.369 18.2083 125.947 18.6947 122.954 19.005C118.904 19.4478 113.886 20.8651 113.886 26.182C113.886 30.303 116.924 32.9597 121.767 32.9597C125.552 32.9597 127.929 31.3647 129.119 28.8387C129.295 31.098 130.968 32.5606 133.302 32.5606H136.383V27.8206H133.785V17.4971H133.783ZM128.589 23.2569C128.589 26.3145 125.947 28.5737 122.733 28.5737C120.752 28.5737 119.079 27.7317 119.079 25.9606C119.079 23.7013 121.765 23.0807 124.23 22.8158C126.607 22.5944 127.928 22.0626 128.589 21.0429V23.2569ZM100.547 9.21154C97.5964 9.21154 95.1314 10.4527 93.3707 12.5342V-0.0032959H88.0882V32.5606H93.2824V29.5482C95.043 31.7186 97.5535 33.0034 100.547 33.0034C106.885 33.0034 111.685 27.9531 111.685 21.1301C111.685 14.307 106.798 9.21154 100.547 9.21154ZM99.7545 28.0857C95.9686 28.0857 93.1945 25.1169 93.1945 21.1301C93.1945 17.1432 96.012 14.1309 99.7974 14.1309C103.628 14.1309 106.312 17.0997 106.312 21.1301C106.312 25.1169 103.54 28.0857 99.7545 28.0857ZM75.453 9.21154C72.0196 9.21154 69.7737 10.6288 68.4533 12.623V9.65435H63.2137V32.5589H68.4962V20.1103C68.4962 16.6099 70.6972 14.1292 73.9549 14.1292C76.9931 14.1292 78.885 16.2996 78.885 19.4461V32.5606H84.1675V19.0486C84.1695 13.2872 81.2208 9.21154 75.453 9.21154ZM183 20.377C183 13.8206 178.246 9.21319 171.862 9.21319C165.083 9.21319 160.108 14.3523 160.108 21.1301C160.108 28.2634 165.435 33.0034 171.95 33.0034C177.453 33.0034 181.767 29.7244 182.867 25.0733H177.364C176.571 27.1112 174.634 28.2634 172.037 28.2634C168.646 28.2634 166.093 26.1367 165.521 22.4149H182.998V20.377H183ZM165.83 18.6042C166.668 15.414 169.044 13.8642 171.774 13.8642C174.767 13.8642 177.057 15.5918 177.585 18.6042H165.83Z" fill="#0052FF"></path></svg> 