<?xml version="1.0" encoding="UTF-8" standalone="no"?> <svg xmlns="http://www.w3.org/2000/svg" xmlns:xlink="http://www.w3.org/1999/xlink" xmlns:serif="http://www.serif.com/" width="100%" height="100%" viewBox="0 0 192 43" version="1.1" xml:space="preserve" style="fill-rule:evenodd;clip-rule:evenodd;stroke-linejoin:round;stroke-miterlimit:2;"><path d="M187.083,24.187c0,-2.487 -1.464,-4.359 -3.776,-4.359c-2.313,-0 -3.779,1.872 -3.779,4.359c0,2.486 1.466,4.359 3.779,4.359c2.316,0.004 3.776,-1.868 3.776,-4.359Zm-0.113,-6.028l0,-6.515c0,-0.43 0.288,-0.803 0.704,-0.912l3.456,-0.922l-0,22.045l-3.834,-0l0,-1.872c-0.964,1.404 -2.695,2.226 -4.86,2.226c-4.448,0 -7.053,-3.569 -7.053,-8.018c-0,-4.448 2.605,-8.018 7.053,-8.018c2.16,-0.004 3.745,0.932 4.534,1.986Zm-23.586,-1.641l-0,1.873c0.704,-1.319 2.284,-2.227 4.566,-2.227c3.689,-0 5.65,2.458 5.65,6.117l-0,9.574l-4.155,-0l-0,-9.101c-0,-1.787 -0.761,-3.016 -2.605,-3.016c-2.02,-0 -3.13,1.286 -3.13,3.338l0,8.779l-4.155,-0l0,-15.337l3.829,0Zm-13.545,15.691c-4.477,0 -6.968,-1.933 -6.968,-6.907l-0,-8.784l4.155,0l0,8.841c0,2.137 0.965,3.13 2.808,3.13c1.844,-0 2.809,-0.998 2.809,-3.13l-0,-8.841l4.155,0l0,8.78c0.01,4.978 -2.482,6.911 -6.959,6.911Zm-20.688,-8.022c-0,2.751 1.697,4.359 3.891,4.359c2.193,-0 3.891,-1.613 3.891,-4.359c-0,-2.747 -1.698,-4.359 -3.891,-4.359c-2.189,-0 -3.891,1.607 -3.891,4.359Zm3.895,8.022c-4.916,0 -8.051,-3.659 -8.051,-8.018c0,-4.358 3.13,-8.018 8.051,-8.018c4.917,0 8.052,3.66 8.052,8.018c-0.005,4.359 -3.135,8.018 -8.052,8.018Zm-20.716,-8.022c-0,2.486 1.465,4.359 3.777,4.359c2.312,-0 3.778,-1.873 3.778,-4.359c-0,-2.487 -1.466,-4.359 -3.778,-4.359c-2.312,-0 -3.777,1.872 -3.777,4.359Zm0.118,6.032l0,6.378c0,0.43 -0.288,0.803 -0.704,0.912l-3.452,0.908l0,-21.899l3.835,0l-0,1.873c0.964,-1.404 2.694,-2.227 4.86,-2.227c4.448,-0 7.053,3.569 7.053,8.018c0,4.449 -2.605,8.018 -7.053,8.018c-2.17,0.009 -3.749,-0.927 -4.539,-1.981Zm-16.499,-7.087l-0,8.723l-4.156,-0l-0,-9.101c-0,-1.697 -0.615,-3.016 -2.458,-3.016c-1.934,-0 -2.988,1.258 -2.988,3.309l-0,8.813l-4.156,-0l0,-15.342l3.834,0l0,1.873c0.705,-1.319 2.227,-2.227 4.421,-2.227c2.08,-0 3.569,0.818 4.448,2.165c1.348,-1.494 2.898,-2.165 5.092,-2.165c3.688,-0 5.56,2.548 5.56,6.117l-0,9.574l-4.156,-0l0,-9.101c0,-1.697 -0.614,-3.016 -2.458,-3.016c-1.962,-0 -2.983,1.258 -2.983,3.394Zm-27.624,1.055c-0,2.751 1.697,4.359 3.891,4.359c2.193,-0 3.891,-1.613 3.891,-4.359c-0,-2.747 -1.698,-4.359 -3.891,-4.359c-2.194,-0 -3.891,1.607 -3.891,4.359Zm3.891,8.022c-4.917,0 -8.051,-3.659 -8.051,-8.018c-0,-4.358 3.129,-8.018 8.051,-8.018c4.921,0 8.051,3.66 8.051,8.018c-0,4.359 -3.135,8.018 -8.051,8.018Zm-29.614,-10.774c-0,-6.496 4.477,-10.802 10.448,-10.802c5.181,-0 9.28,3.072 10.07,8.136l-4.567,-0c-0.615,-2.605 -2.723,-4.071 -5.503,-4.071c-3.806,0 -5.943,2.634 -5.943,6.732c0,4.099 2.137,6.733 5.943,6.733c2.78,-0 4.888,-1.466 5.503,-4.071l4.567,0c-0.79,5.064 -4.889,8.136 -10.07,8.136c-5.971,0.01 -10.448,-4.292 -10.448,-10.793Z" style="fill:#0a0a0a;"></path><path d="M1.707,33.143c-1.059,-0.648 -1.707,-1.801 -1.707,-3.04l0,-6.917c0,-0.264 0.071,-0.519 0.203,-0.746c0.412,-0.71 1.324,-0.951 2.033,-0.535l15.611,9.101c0.912,0.534 1.475,1.508 1.475,2.567l-0,7.167c-0,0.327 -0.09,0.653 -0.26,0.932c-0.515,0.841 -1.612,1.106 -2.454,0.591l-14.901,-9.12Zm23.269,-13.134c0.913,0.535 1.475,1.509 1.475,2.568l0,14.542c0,0.43 -0.232,0.827 -0.605,1.035l-3.418,1.924c-0.043,0.024 -0.09,0.043 -0.137,0.057l-0,-8.075c-0,-1.045 -0.549,-2.014 -1.447,-2.553l-13.71,-8.202l0,-9.115c0,-0.265 0.071,-0.52 0.203,-0.747c0.412,-0.709 1.324,-0.95 2.033,-0.534l15.606,9.1Zm6.832,-10.741c0.917,0.53 1.479,1.513 1.479,2.572l0,21.242c0,0.434 -0.241,0.836 -0.624,1.044l-3.238,1.75l-0,-14.789c-0,-1.044 -0.548,-2.009 -1.442,-2.548l-14.013,-8.406l0,-8.646c0,-0.265 0.071,-0.52 0.199,-0.747c0.411,-0.71 1.324,-0.951 2.033,-0.539l15.606,9.067Z" style="fill:#00d395;"></path></svg> 