<?xml version="1.0" encoding="UTF-8" standalone="no"?> <svg xmlns="http://www.w3.org/2000/svg" xmlns:xlink="http://www.w3.org/1999/xlink" xmlns:serif="http://www.serif.com/" width="100%" height="100%" viewBox="0 0 201 43" version="1.1" xml:space="preserve" style="fill-rule:evenodd;clip-rule:evenodd;stroke-linejoin:round;stroke-miterlimit:2;"><path d="M59.185,0.001c-5.359,0 -8.416,3.035 -8.416,8.058c0,4.866 3.058,8.007 8.311,8.007c4.836,0 7.658,-2.485 8.129,-6.436l-3.66,0c-0.34,2.251 -1.725,3.611 -4.443,3.611c-3.005,0 -4.782,-1.752 -4.782,-5.207c0,-3.455 1.594,-5.207 4.782,-5.207c2.614,0 3.973,1.307 4.338,3.584l3.633,0c-0.47,-3.819 -2.953,-6.41 -7.892,-6.41Z" style="fill:#0a0a0a;fill-rule:nonzero;"></path><path d="M76.563,16.066c5.122,0 8.258,-3.114 8.258,-8.085c0,-5.18 -3.424,-7.98 -8.258,-7.98c-5.122,0 -8.258,2.906 -8.258,8.085c0,5.18 3.423,7.98 8.258,7.98Zm0,-13.24c2.823,0 4.704,1.648 4.704,5.259c0,3.506 -1.725,5.154 -4.704,5.154c-2.823,0 -4.705,-1.754 -4.705,-5.259c0,-3.506 1.726,-5.154 4.705,-5.154Z" style="fill:#0a0a0a;"></path><path d="M90.23,0.262l-3.502,0l0,15.542l3.502,0l0,-10.544c0.916,-1.753 2.169,-2.564 4.182,-2.564c2.508,0 3.789,1.152 3.789,3.663l0,9.444l3.502,0l0,-9.943c0,-3.715 -2.038,-5.86 -5.645,-5.86c-3.188,0 -4.94,1.649 -5.828,4.396l0,-4.134Z" style="fill:#0a0a0a;fill-rule:nonzero;"></path><path d="M106.826,11.041l-3.659,0c0.391,3.114 2.719,5.025 7.737,5.025c5.017,0 7.134,-2.067 7.134,-4.84c-0,-2.354 -1.123,-3.977 -4.521,-4.369l-4.678,-0.549c-1.385,-0.158 -1.882,-0.707 -1.882,-1.622c-0,-1.099 0.836,-1.936 3.502,-1.936c2.665,0 3.579,0.889 3.789,2.25l3.633,0c-0.445,-2.956 -2.354,-4.998 -7.318,-4.998c-4.965,0 -6.977,2.12 -6.977,4.892c-0,2.433 1.28,3.899 4.704,4.291l4.495,0.523c1.49,0.184 1.881,0.811 1.881,1.648c-0,1.125 -1.019,1.962 -3.684,1.962c-2.666,0 -3.869,-0.733 -4.156,-2.277Z" style="fill:#0a0a0a;fill-rule:nonzero;"></path><path d="M119.37,8.085c0,4.552 2.822,7.979 8.102,7.979c4.417,0 7.134,-2.093 7.918,-5.284l-3.581,-0.001c-0.522,1.544 -1.855,2.459 -4.233,2.459c-2.64,0 -4.338,-1.543 -4.652,-4.316l12.57,0c0.026,-5.443 -2.326,-8.922 -7.996,-8.922c-5.098,0 -8.128,3.271 -8.128,8.085Zm12.439,-1.544l-8.833,0c0.445,-2.485 2.065,-3.793 4.496,-3.793c2.769,0 4.102,1.49 4.337,3.793Z" style="fill:#0a0a0a;"></path><path d="M140.72,0.262l-3.501,0l0,15.542l3.501,0l0,-10.544c0.916,-1.753 2.169,-2.564 4.182,-2.564c2.508,0 3.789,1.152 3.789,3.663l0,9.444l3.502,0l0,-9.943c0,-3.715 -2.038,-5.86 -5.645,-5.86c-3.188,0 -4.94,1.649 -5.828,4.396l0,-4.134Z" style="fill:#0a0a0a;fill-rule:nonzero;"></path><path d="M157.316,11.041l-3.659,0c0.391,3.114 2.719,5.025 7.737,5.025c5.017,0 7.134,-2.067 7.134,-4.84c0,-2.354 -1.123,-3.977 -4.521,-4.369l-4.678,-0.549c-1.385,-0.158 -1.882,-0.707 -1.882,-1.622c0,-1.099 0.836,-1.936 3.502,-1.936c2.665,0 3.58,0.889 3.789,2.25l3.633,0c-0.445,-2.956 -2.353,-4.998 -7.318,-4.998c-4.965,0 -6.977,2.12 -6.977,4.892c0,2.433 1.28,3.899 4.704,4.291l4.495,0.523c1.49,0.184 1.881,0.811 1.881,1.648c0,1.125 -1.019,1.962 -3.684,1.962c-2.666,0 -3.869,-0.733 -4.156,-2.277Z" style="fill:#0a0a0a;fill-rule:nonzero;"></path><path d="M178.717,19.623l6.508,-19.36l-3.66,0l-4.495,13.604l-4.678,-13.604l-3.868,0l5.096,13.84l3.372,0l-0.862,2.642l-5.906,0l0,2.878l8.493,0Z" style="fill:#0a0a0a;fill-rule:nonzero;"></path><path d="M188.831,11.042l-3.659,0c0.392,3.114 2.719,5.025 7.737,5.025c5.018,0 7.135,-2.067 7.135,-4.84c-0,-2.353 -1.124,-3.977 -4.522,-4.368l-4.678,-0.55c-1.385,-0.157 -1.881,-0.707 -1.881,-1.622c-0,-1.098 0.836,-1.935 3.501,-1.935c2.666,0 3.58,0.889 3.789,2.249l3.633,0c-0.444,-2.956 -2.353,-4.997 -7.318,-4.997c-4.964,0 -6.977,2.119 -6.977,4.892c-0,2.432 1.281,3.898 4.704,4.29l4.495,0.523c1.491,0.184 1.882,0.811 1.882,1.648c-0,1.125 -1.019,1.962 -3.685,1.962c-2.666,0 -3.868,-0.733 -4.156,-2.277Z" style="fill:#0a0a0a;fill-rule:nonzero;"></path><path d="M42.69,21.632l0,-21.369l-21.345,0c-11.789,0 -21.345,9.566 -21.345,21.368c0,11.801 9.557,21.369 21.346,21.369c11.788,0 21.344,-9.567 21.344,-21.368Zm-26.196,-10.685l10.672,-10.684l0,15.541l15.524,0l-10.674,10.689l-15.522,0l0,-15.546Z" style="fill:#0a0a0a;"></path></svg> 