<?xml version="1.0" encoding="UTF-8" standalone="no"?> <svg xmlns="http://www.w3.org/2000/svg" xmlns:xlink="http://www.w3.org/1999/xlink" xmlns:serif="http://www.serif.com/" width="100%" height="100%" viewBox="0 0 200 41" version="1.1" xml:space="preserve" style="fill-rule:evenodd;clip-rule:evenodd;stroke-linejoin:round;stroke-miterlimit:2;"><path d="M47.188,21.489c-4.683,0 -8.676,-4.079 -8.676,-9.365c-0,-5.286 3.993,-9.366 8.676,-9.366c4.252,0 7.153,3.189 7.986,6.608l-3.102,-0c-0.575,-1.896 -2.241,-3.735 -4.884,-3.735c-3.017,-0 -5.688,2.7 -5.688,6.493c-0,3.792 2.671,6.464 5.688,6.464c2.672,-0 4.338,-1.81 4.999,-3.706l3.102,-0c-0.833,3.418 -3.763,6.607 -8.101,6.607Z" style="fill:#171717;fill-rule:nonzero;"></path><path d="M63.548,21.489c-3.534,0 -6.522,-3.045 -6.522,-6.866c0,-3.821 2.988,-6.866 6.522,-6.866c3.533,-0 6.493,3.045 6.493,6.866c-0,3.821 -2.96,6.866 -6.493,6.866Zm-0,-2.643c2.011,0 3.648,-1.723 3.648,-4.223c0,-2.47 -1.637,-4.194 -3.648,-4.194c-2.04,-0 -3.677,1.724 -3.677,4.194c-0,2.5 1.637,4.223 3.677,4.223Z" style="fill:#171717;fill-rule:nonzero;"></path><path d="M77.673,21.489c-3.074,0 -5.257,-2.269 -5.257,-5.717l-0,-7.699l2.844,-0l0,7.498c0,1.925 1.264,3.275 2.988,3.275c1.781,0 3.045,-1.35 3.045,-3.275l0,-7.498l2.815,-0l0,13.1l-2.125,0l-0.518,-1.465l-0.114,0c-0.431,0.546 -1.753,1.781 -3.678,1.781Z" style="fill:#171717;fill-rule:nonzero;"></path><path d="M90.244,21.173l-2.844,0l0,-13.1l2.126,-0l0.517,1.465l0.144,0c0.373,-0.546 1.551,-1.781 3.217,-1.781c0.46,-0 0.776,0.029 1.121,0.144l-0,2.815c-0.374,-0.086 -0.718,-0.115 -1.178,-0.115c-1.839,0 -3.103,1.264 -3.103,3.361l0,7.211Z" style="fill:#171717;fill-rule:nonzero;"></path><path d="M100.548,21.489c-3.102,0 -5.056,-1.982 -5.199,-4.309l2.815,-0c0.086,1.149 0.977,1.954 2.384,1.954c1.408,-0 2.126,-0.719 2.126,-1.552c0,-2.614 -7.009,-1.407 -7.009,-5.947c-0,-2.154 1.752,-3.878 4.769,-3.878c2.872,-0 4.74,1.867 4.912,4.194l-2.815,0c-0.144,-1.091 -0.805,-1.81 -2.097,-1.81c-1.265,0 -1.925,0.604 -1.925,1.379c-0,2.471 6.981,1.293 6.981,5.919c-0,2.298 -1.753,4.05 -4.942,4.05Z" style="fill:#171717;fill-rule:nonzero;"></path><path d="M120.001,14.336c-0,0.661 -0.059,1.12 -0.145,1.408l-9.681,-0c0.373,1.982 1.752,3.188 3.62,3.188c1.465,0 2.356,-0.718 2.815,-1.378l2.959,-0c-0.747,1.896 -2.872,3.935 -5.745,3.935c-3.62,0 -6.522,-2.959 -6.522,-6.866c0,-3.821 2.988,-6.866 6.464,-6.866c3.505,-0 6.235,2.873 6.235,6.579Zm-6.235,-4.022c-1.752,-0 -3.218,1.264 -3.62,3.275l7.125,-0c-0.345,-1.925 -1.724,-3.275 -3.505,-3.275Z" style="fill:#171717;fill-rule:nonzero;"></path><path d="M136.229,21.173l-3.476,0l-3.878,-6.923l-2.988,-0l0,6.923l-3.016,0l0,-18.099l6.981,0c3.418,0 5.947,2.413 5.947,5.631c0,2.384 -1.552,4.338 -3.908,5.142l4.338,7.326Zm-6.463,-15.283l-3.879,-0l0,5.602l3.879,-0c1.752,-0 3.016,-1.178 3.016,-2.758c-0,-1.638 -1.264,-2.844 -3.016,-2.844Z" style="fill:#171717;fill-rule:nonzero;"></path><path d="M150.357,14.336c0,0.661 -0.058,1.12 -0.145,1.408l-9.681,-0c0.373,1.982 1.753,3.188 3.62,3.188c1.466,0 2.356,-0.718 2.816,-1.378l2.959,-0c-0.748,1.896 -2.873,3.935 -5.746,3.935c-3.62,0 -6.521,-2.959 -6.521,-6.866c-0,-3.821 2.988,-6.866 6.463,-6.866c3.506,-0 6.235,2.873 6.235,6.579Zm-6.235,-4.022c-1.752,-0 -3.218,1.264 -3.62,3.275l7.126,-0c-0.345,-1.925 -1.724,-3.275 -3.506,-3.275Z" style="fill:#171717;fill-rule:nonzero;"></path><path d="M155.726,25.827l-2.844,0l0,-17.754l2.126,-0l0.517,1.465l0.144,0c0.373,-0.46 1.81,-1.781 3.906,-1.781c3.218,-0 6.034,2.873 6.034,6.866c-0,3.993 -2.816,6.866 -6.034,6.866c-2.011,0 -3.418,-1.235 -3.705,-1.695l-0.144,0l-0,6.033Zm3.533,-6.981c1.868,0 3.506,-1.723 3.506,-4.223c0,-2.499 -1.638,-4.194 -3.506,-4.194c-1.895,-0 -3.533,1.695 -3.533,4.194c-0,2.5 1.638,4.223 3.533,4.223Z" style="fill:#171717;fill-rule:nonzero;"></path><path d="M173.919,21.489c-3.534,0 -6.522,-3.045 -6.522,-6.866c0,-3.821 2.988,-6.866 6.522,-6.866c3.534,-0 6.492,3.045 6.492,6.866c0,3.821 -2.958,6.866 -6.492,6.866Zm-0,-2.643c2.011,0 3.649,-1.723 3.649,-4.223c-0,-2.47 -1.638,-4.194 -3.649,-4.194c-2.04,-0 -3.677,1.724 -3.677,4.194c-0,2.5 1.637,4.223 3.677,4.223Z" style="fill:#171717;fill-rule:nonzero;"></path><path d="M185.745,21.173l-2.843,0l-0,-13.1l2.125,-0l0.518,1.465l0.143,0c0.374,-0.546 1.552,-1.781 3.218,-1.781c0.459,-0 0.775,0.029 1.12,0.144l0,2.815c-0.373,-0.086 -0.718,-0.115 -1.177,-0.115c-1.839,0 -3.104,1.264 -3.104,3.361l0,7.211Z" style="fill:#171717;fill-rule:nonzero;"></path><path d="M197.187,21.489c-2.356,0 -4.109,-1.666 -4.109,-4.567l0,-6.292l-2.125,-0l0,-2.385l0.919,0c1.034,0 1.581,-0.546 1.581,-1.551l-0,-1.982l2.47,-0l0,3.361l2.816,-0l-0,2.557l-2.816,-0l0,6.09c0,1.437 0.746,2.069 1.925,2.069c0.345,-0 0.632,-0.029 0.891,-0.144l-0,2.586c-0.316,0.115 -0.834,0.258 -1.552,0.258Z" style="fill:#171717;fill-rule:nonzero;"></path><path d="M138.242,38.13c-1.049,-0 -1.767,-0.647 -1.953,-0.891l-0.059,0l-0.257,0.733l-1.063,-0l-0,-9.05l1.422,-0l-0,3.189l0.057,-0c0.157,-0.23 0.862,-0.848 1.853,-0.848c1.624,0 3.017,1.437 3.017,3.434c-0,1.996 -1.393,3.433 -3.017,3.433Zm-0.158,-1.322c0.948,0 1.752,-0.862 1.752,-2.111c0,-1.25 -0.804,-2.098 -1.752,-2.098c-0.948,0 -1.752,0.848 -1.752,2.098c-0,1.249 0.804,2.111 1.752,2.111Z" style="fill:#525252;fill-rule:nonzero;"></path><path d="M144.897,36.075l1.668,-4.654l1.464,0l-2.714,6.91c-0.604,1.565 -1.236,2.039 -2.068,2.039c-0.288,0 -0.532,-0.071 -0.705,-0.129l0,-1.293c0.13,0.058 0.273,0.087 0.46,0.087c0.488,-0 0.804,-0.201 1.02,-0.833l0.172,-0.417l-2.585,-6.364l1.536,0l1.752,4.654Z" style="fill:#525252;fill-rule:nonzero;"></path><path d="M154.572,38.13c-1.767,-0 -3.26,-1.523 -3.26,-3.433c-0,-1.911 1.493,-3.434 3.26,-3.434c1.624,0 2.758,1.293 3.017,2.572l-1.423,-0c-0.143,-0.532 -0.661,-1.236 -1.594,-1.236c-1.019,0 -1.839,0.862 -1.839,2.098c0,1.249 0.82,2.111 1.839,2.111c0.933,0 1.451,-0.718 1.594,-1.25l1.423,0c-0.259,1.279 -1.393,2.572 -3.017,2.572Z" style="fill:#525252;fill-rule:nonzero;"></path><path d="M161.254,31.263c1.594,0 2.614,1.078 2.614,2.658l0,4.051l-1.063,-0l-0.259,-0.733l-0.057,0c-0.273,0.33 -0.891,0.891 -1.925,0.891c-1.278,-0 -2.198,-0.877 -2.198,-1.954c0,-1.307 1.236,-2.14 3.046,-2.14l1.034,-0l-0,-0.216c-0,-0.79 -0.489,-1.278 -1.207,-1.278c-0.718,-0 -1.077,0.459 -1.163,0.876l-1.408,0c0.101,-1.092 1.005,-2.155 2.586,-2.155Zm-0.402,5.674c0.991,0 1.594,-0.689 1.594,-1.465l-0,-0.402l-1.034,0c-1.107,0 -1.623,0.388 -1.623,0.991c-0,0.503 0.373,0.876 1.063,0.876Z" style="fill:#525252;fill-rule:nonzero;"></path><path d="M166.854,37.972l-1.421,-0l-0,-6.551l1.062,0l0.259,0.733l0.072,0c0.186,-0.273 0.775,-0.891 1.609,-0.891c0.229,0 0.387,0.015 0.559,0.072l0,1.408c-0.186,-0.043 -0.359,-0.057 -0.588,-0.057c-0.919,-0 -1.552,0.632 -1.552,1.68l-0,3.606Z" style="fill:#525252;fill-rule:nonzero;"></path><path d="M175.672,34.553c0,0.33 -0.029,0.56 -0.072,0.704l-4.841,-0c0.187,0.991 0.877,1.594 1.811,1.594c0.732,0 1.177,-0.359 1.407,-0.689l1.48,-0c-0.373,0.948 -1.437,1.968 -2.873,1.968c-1.809,-0 -3.261,-1.48 -3.261,-3.433c0,-1.911 1.494,-3.434 3.232,-3.434c1.753,0 3.117,1.437 3.117,3.29Zm-3.117,-2.011c-0.876,-0 -1.609,0.632 -1.81,1.637l3.563,0c-0.172,-0.962 -0.863,-1.637 -1.753,-1.637Z" style="fill:#525252;fill-rule:nonzero;"></path><path d="M182.911,34.553c0,0.33 -0.029,0.56 -0.072,0.704l-4.841,-0c0.187,0.991 0.876,1.594 1.81,1.594c0.733,0 1.178,-0.359 1.408,-0.689l1.479,-0c-0.373,0.948 -1.436,1.968 -2.872,1.968c-1.811,-0 -3.261,-1.48 -3.261,-3.433c-0,-1.911 1.493,-3.434 3.232,-3.434c1.752,0 3.117,1.437 3.117,3.29Zm-3.117,-2.011c-0.877,-0 -1.609,0.632 -1.81,1.637l3.562,0c-0.173,-0.962 -0.862,-1.637 -1.752,-1.637Z" style="fill:#525252;fill-rule:nonzero;"></path><path d="M185.596,37.972l-1.422,-0l-0,-6.551l1.063,0l0.258,0.733l0.072,0c0.186,-0.273 0.775,-0.891 1.609,-0.891c0.229,0 0.388,0.015 0.559,0.072l0,1.408c-0.186,-0.043 -0.359,-0.057 -0.588,-0.057c-0.919,-0 -1.551,0.632 -1.551,1.68l-0,3.606Z" style="fill:#525252;fill-rule:nonzero;"></path><path d="M188.605,38.13c-0.516,-0 -0.905,-0.403 -0.905,-0.905c0,-0.503 0.389,-0.905 0.905,-0.905c0.502,-0 0.905,0.402 0.905,0.905c-0,0.502 -0.403,0.905 -0.905,0.905Z" style="fill:#525252;fill-rule:nonzero;"></path><path d="M191.513,30.516c-0.46,0 -0.834,-0.359 -0.834,-0.833c0,-0.488 0.374,-0.833 0.834,-0.833c0.459,0 0.833,0.345 0.833,0.833c0,0.474 -0.374,0.833 -0.833,0.833Zm0.704,7.456l-1.423,-0l0,-6.551l1.423,0l-0,6.551Z" style="fill:#525252;fill-rule:nonzero;"></path><path d="M196.754,38.13c-1.767,-0 -3.261,-1.523 -3.261,-3.433c0,-1.911 1.494,-3.434 3.261,-3.434c1.767,0 3.246,1.523 3.246,3.434c0,1.91 -1.479,3.433 -3.246,3.433Zm0,-1.322c1.005,0 1.824,-0.862 1.824,-2.111c-0,-1.236 -0.819,-2.098 -1.824,-2.098c-1.02,0 -1.838,0.862 -1.838,2.098c-0,1.249 0.818,2.111 1.838,2.111Z" style="fill:#525252;fill-rule:nonzero;"></path><path d="M0,17.768l3.049,-0c4.449,-0 8.056,3.607 8.056,8.056l-0,3.049l-6.393,-0c-1.044,-0 -3.8,-0 -4.712,-0l0,-11.105Z" style="fill:#339d5d;fill-rule:nonzero;"></path><path d="M0,17.768l3.049,-0c4.449,-0 8.056,3.607 8.056,8.056l-0,3.049l-6.393,-0c-1.044,-0 -3.8,-0 -4.712,-0l0,-11.105Z" style="fill:#339d5d;fill-rule:nonzero;"></path><path d="M22.651,26.467c-2.394,1.569 -5.612,2.406 -8.492,2.406l-0,-14.276l-14.159,-0c0,-2.824 0.854,-5.584 2.454,-7.932c1.6,-2.348 3.874,-4.178 6.535,-5.258c2.661,-1.081 4.82,-1.407 8.047,-1.407c3.228,-0 9.147,0 11.807,0l-0,11.811c-0,3.164 0.273,5.64 -0.829,8.249c-1.102,2.609 -2.968,4.838 -5.363,6.407Z" style="fill:#339d5d;fill-rule:nonzero;"></path><path d="M22.651,26.467c-2.394,1.569 -5.612,2.406 -8.492,2.406l-0,-14.276l-14.159,-0c0,-2.824 0.854,-5.584 2.454,-7.932c1.6,-2.348 3.874,-4.178 6.535,-5.258c2.661,-1.081 4.82,-1.407 8.047,-1.407c3.228,-0 9.147,0 11.807,0l-0,11.811c-0,3.164 0.273,5.64 -0.829,8.249c-1.102,2.609 -2.968,4.838 -5.363,6.407Z" style="fill:#43cc79;fill-rule:nonzero;"></path></svg> 