<?xml version="1.0" encoding="UTF-8" standalone="no"?> <svg xmlns="http://www.w3.org/2000/svg" xmlns:xlink="http://www.w3.org/1999/xlink" xmlns:serif="http://www.serif.com/" width="100%" height="100%" viewBox="0 0 87 17" version="1.1" xml:space="preserve" style="fill-rule:evenodd;clip-rule:evenodd;stroke-linejoin:round;stroke-miterlimit:2;"><path d="M16.485,11.011l-3.325,0c-0.415,0 -0.808,0.164 -1.1,0.455l-3.357,3.341c-0.087,0.086 -0.229,0.086 -0.315,-0l-6.184,-6.155c-0.087,-0.086 -0.087,-0.227 -0,-0.313l6.184,-6.155c0.086,-0.086 0.228,-0.086 0.315,0l3.357,3.341c0.292,0.291 0.689,0.455 1.1,0.455l3.325,-0c0.48,-0 0.717,-0.578 0.379,-0.914l-4.59,-4.568c-0.666,-0.664 -1.749,-0.664 -2.416,-0l-1.078,1.072c-0.132,0.132 -0.347,0.132 -0.479,0l-1.078,-1.072c-0.667,-0.664 -1.749,-0.664 -2.416,-0l-4.307,4.286c-0.667,0.664 -0.667,1.741 0,2.405l1.078,1.072c0.132,0.132 0.132,0.346 -0,0.478l-1.078,1.072c-0.667,0.664 -0.667,1.741 0,2.405l4.307,4.286c0.667,0.664 1.749,0.664 2.416,0l1.078,-1.073c0.132,-0.131 0.347,-0.131 0.479,0l1.078,1.073c0.667,0.664 1.75,0.664 2.416,0l4.595,-4.573c0.338,-0.34 0.096,-0.918 -0.384,-0.918Z" style="fill:#0a0a0a;"></path><path d="M74.29,12.982l-0,-9.005l1.893,-0l0,9.005l-1.893,-0Zm0.956,-10.229c-0.368,-0 -0.68,-0.116 -0.938,-0.347c-0.245,-0.244 -0.367,-0.554 -0.367,-0.932c-0,-0.377 0.122,-0.682 0.367,-0.913c0.258,-0.244 0.57,-0.365 0.938,-0.365c0.38,-0 0.692,0.121 0.937,0.365c0.245,0.231 0.368,0.536 0.368,0.913c-0,0.378 -0.123,0.688 -0.368,0.932c-0.245,0.231 -0.557,0.347 -0.937,0.347Z" style="fill:#0a0a0a;fill-rule:nonzero;"></path><path d="M63.532,12.982l-0,-9.006l1.856,0l0,1.352l0.295,0c0.171,-0.365 0.478,-0.706 0.919,-1.023c0.441,-0.316 1.097,-0.475 1.967,-0.475c0.686,0 1.293,0.152 1.82,0.457c0.539,0.304 0.962,0.737 1.268,1.297c0.306,0.548 0.46,1.211 0.46,1.991l-0,5.407l-1.894,-0l0,-5.261c0,-0.779 -0.196,-1.352 -0.588,-1.717c-0.392,-0.378 -0.931,-0.566 -1.618,-0.566c-0.784,-0 -1.415,0.255 -1.893,0.767c-0.466,0.511 -0.699,1.254 -0.699,2.228l0,4.549l-1.893,-0Z" style="fill:#0a0a0a;fill-rule:nonzero;"></path><path d="M56.836,13.238c-0.907,-0 -1.716,-0.183 -2.427,-0.548c-0.698,-0.378 -1.25,-0.914 -1.654,-1.608c-0.405,-0.694 -0.607,-1.516 -0.607,-2.466l0,-0.274c0,-0.95 0.202,-1.765 0.607,-2.447c0.404,-0.694 0.956,-1.23 1.654,-1.608c0.711,-0.377 1.52,-0.566 2.427,-0.566c0.907,-0 1.716,0.189 2.426,0.566c0.711,0.378 1.269,0.914 1.673,1.608c0.405,0.682 0.607,1.497 0.607,2.447l-0,0.274c-0,0.95 -0.202,1.772 -0.607,2.466c-0.404,0.694 -0.962,1.23 -1.673,1.608c-0.71,0.365 -1.519,0.548 -2.426,0.548Zm-0,-1.681c0.833,0 1.507,-0.262 2.022,-0.785c0.527,-0.536 0.79,-1.273 0.79,-2.21l0,-0.165c0,-0.938 -0.257,-1.668 -0.772,-2.192c-0.514,-0.536 -1.195,-0.804 -2.04,-0.804c-0.821,0 -1.495,0.268 -2.022,0.804c-0.515,0.524 -0.772,1.254 -0.772,2.192l-0,0.165c-0,0.937 0.257,1.674 0.772,2.21c0.527,0.523 1.201,0.785 2.022,0.785Z" style="fill:#0a0a0a;fill-rule:nonzero;"></path><path d="M48.445,12.982c-0.552,-0 -0.993,-0.164 -1.324,-0.493c-0.318,-0.329 -0.478,-0.767 -0.478,-1.315l0,-5.608l-1.948,-0l-0,-1.589l1.948,-0l0,-2.978l1.894,0l-0,2.978l2.702,-0l0,1.589l-2.702,-0l-0,5.279c-0,0.365 0.171,0.548 0.514,0.548l1.894,-0l-0,1.589l-2.5,-0Z" style="fill:#0a0a0a;fill-rule:nonzero;"></path><path d="M35.536,16.635l-0,-1.644l5.055,0c0.343,0 0.515,-0.183 0.515,-0.548l-0,-2.776l-0.294,-0c-0.111,0.243 -0.282,0.481 -0.515,0.712c-0.221,0.219 -0.521,0.402 -0.901,0.548c-0.38,0.146 -0.858,0.219 -1.434,0.219c-0.686,0 -1.299,-0.152 -1.838,-0.457c-0.539,-0.304 -0.962,-0.736 -1.269,-1.296c-0.306,-0.561 -0.459,-1.224 -0.459,-1.991l-0,-5.425l1.893,-0l0,5.278c0,0.78 0.196,1.358 0.589,1.736c0.392,0.365 0.937,0.548 1.636,0.548c0.772,-0 1.391,-0.256 1.856,-0.767c0.478,-0.512 0.717,-1.255 0.717,-2.229l0,-4.566l1.894,-0l-0,10.85c-0,0.548 -0.166,0.986 -0.496,1.315c-0.319,0.329 -0.76,0.493 -1.324,0.493l-5.625,0Z" style="fill:#0a0a0a;fill-rule:nonzero;"></path><path d="M24.982,11.937c-0.867,-0.897 -1.3,-2.034 -1.3,-3.41c-0,-1.376 0.433,-2.513 1.3,-3.41c0.866,-0.897 1.947,-1.346 3.241,-1.346c1.448,0 2.629,0.556 3.543,1.669c0.392,0.515 0.665,1.065 0.819,1.651l-1.959,0c-0.083,-0.299 -0.237,-0.568 -0.463,-0.807c-0.462,-0.539 -1.109,-0.808 -1.94,-0.808c-0.736,0 -1.354,0.281 -1.852,0.844c-0.487,0.562 -0.73,1.298 -0.73,2.207c-0,0.909 0.243,1.645 0.73,2.208c0.498,0.562 1.116,0.843 1.852,0.843c0.854,0 1.525,-0.269 2.012,-0.808c0.213,-0.239 0.374,-0.508 0.48,-0.807l1.87,-0c-0.154,0.61 -0.427,1.166 -0.819,1.669c-0.902,1.101 -2.083,1.651 -3.543,1.651c-1.294,0 -2.375,-0.449 -3.241,-1.346Z" style="fill:#0a0a0a;fill-rule:nonzero;"></path><path d="M79.397,11.937c-0.867,-0.897 -1.3,-2.034 -1.3,-3.41c-0,-1.376 0.433,-2.513 1.3,-3.41c0.866,-0.897 1.946,-1.346 3.24,-1.346c1.449,0 2.63,0.556 3.544,1.669c0.392,0.515 0.665,1.065 0.819,1.651l-1.959,0c-0.083,-0.299 -0.237,-0.568 -0.463,-0.807c-0.463,-0.539 -1.11,-0.808 -1.941,-0.808c-0.736,0 -1.353,0.281 -1.851,0.844c-0.487,0.562 -0.731,1.298 -0.731,2.207c0,0.909 0.244,1.645 0.731,2.208c0.498,0.562 1.115,0.843 1.851,0.843c0.855,0 1.526,-0.269 2.013,-0.808c0.213,-0.239 0.373,-0.508 0.48,-0.807l1.87,-0c-0.154,0.61 -0.427,1.166 -0.819,1.669c-0.902,1.101 -2.083,1.651 -3.544,1.651c-1.294,0 -2.374,-0.449 -3.24,-1.346Z" style="fill:#0a0a0a;fill-rule:nonzero;"></path></svg> 