<?xml version="1.0" encoding="UTF-8" standalone="no"?> <svg xmlns="http://www.w3.org/2000/svg" xmlns:xlink="http://www.w3.org/1999/xlink" xmlns:serif="http://www.serif.com/" width="100%" height="100%" viewBox="0 0 200 68" version="1.1" xml:space="preserve" style="fill-rule:evenodd;clip-rule:evenodd;stroke-linejoin:round;stroke-miterlimit:2;"><path d="M50.264,24.551c0,-1.34 0.258,-2.524 0.774,-3.557c0.479,-0.99 1.23,-1.821 2.165,-2.395c0.927,-0.564 2,-0.846 3.215,-0.846c1.17,-0 2.215,0.29 3.134,0.871c0.919,0.58 1.636,1.393 2.154,2.441c0.517,1.048 0.775,2.244 0.775,3.582l-0,1.015l-8.959,0c0.046,0.808 0.336,1.46 0.866,1.961c0.532,0.501 1.232,0.75 2.099,0.75c0.589,0.005 1.17,-0.14 1.686,-0.423c0.516,-0.282 1.078,-0.768 1.686,-1.465l2.028,2.204c-0.697,0.821 -1.504,1.463 -2.414,1.924c-0.928,0.463 -1.951,0.699 -2.987,0.688c-1.232,0 -2.318,-0.281 -3.26,-0.845c-0.943,-0.566 -1.703,-1.393 -2.188,-2.382c-0.516,-1.027 -0.775,-2.199 -0.775,-3.521l-0,-0.003l0.001,0.001Zm8.934,-1.405c-0.023,-0.337 -0.113,-0.666 -0.263,-0.969c-0.15,-0.303 -0.358,-0.573 -0.613,-0.795c-0.523,-0.468 -1.204,-0.719 -1.904,-0.702c-0.777,0 -1.413,0.228 -1.916,0.679c-0.501,0.451 -0.811,1.048 -0.934,1.791l5.63,-0l0,-0.003Zm13.199,-1.934l-0,5.153c-0,0.434 0.094,0.749 0.284,0.942c0.19,0.194 0.506,0.29 0.945,0.29l2.759,0l-0,3.34l-3.055,0c-1.337,0 -2.37,-0.335 -3.099,-1.005c-0.73,-0.668 -1.094,-1.625 -1.094,-2.866l0,-5.854l-2.964,-0l0,-3.098l2.964,-0l0,-3.268l3.26,0l-0,3.268l4.74,-0l0,3.098l-4.74,-0Zm8.889,-7.936l3.259,-0l0,6.023l0.047,0c0.849,-1.031 2.013,-1.547 3.487,-1.547c0.832,-0.014 1.649,0.222 2.347,0.677c0.685,0.452 1.215,1.089 1.595,1.912c0.38,0.821 0.571,1.775 0.571,2.854l-0,7.742l-3.26,0l0,-7.281c0,-0.855 -0.205,-1.525 -0.615,-2.008c-0.411,-0.484 -0.973,-0.727 -1.686,-0.727c-0.777,0 -1.385,0.239 -1.825,0.714c-0.441,0.476 -0.661,1.134 -0.661,1.973l0,7.331l-3.259,0l-0,-17.665l-0,0.002Zm14.656,11.274c-0,-1.34 0.258,-2.524 0.775,-3.557c0.479,-0.99 1.23,-1.821 2.165,-2.395c0.926,-0.564 1.997,-0.846 3.214,-0.846c1.17,0 2.215,0.29 3.134,0.871c0.92,0.58 1.638,1.393 2.155,2.441c0.514,1.048 0.775,2.244 0.775,3.583l-0,1.015l-8.959,-0c0.047,0.807 0.334,1.459 0.867,1.96c0.532,0.501 1.231,0.75 2.097,0.75c0.607,-0 1.17,-0.14 1.686,-0.423c0.517,-0.282 1.079,-0.768 1.686,-1.465l2.03,2.204c-0.668,0.798 -1.49,1.452 -2.415,1.924c-0.927,0.463 -1.95,0.699 -2.985,0.689c-1.232,-0 -2.319,-0.282 -3.26,-0.846c-0.943,-0.566 -1.703,-1.393 -2.188,-2.382c-0.518,-1.027 -0.777,-2.201 -0.777,-3.523Zm8.936,-1.404c-0.024,-0.338 -0.113,-0.667 -0.263,-0.97c-0.151,-0.303 -0.359,-0.573 -0.613,-0.795c-0.524,-0.468 -1.204,-0.719 -1.905,-0.702c-0.775,0 -1.413,0.228 -1.915,0.679c-0.501,0.451 -0.814,1.048 -0.934,1.791l5.63,-0l0,-0.003Zm7.75,-5.032l3.122,-0l0,1.185l0.045,0c0.517,-0.547 1.053,-0.943 1.608,-1.185c0.556,-0.243 1.189,-0.365 1.904,-0.365c1.048,-0 1.952,0.328 2.711,0.982c0.76,0.651 1.293,1.542 1.597,2.671l-3.055,1.065c-0.347,-1.048 -1.071,-1.574 -2.165,-1.574c-0.82,0 -1.443,0.254 -1.868,0.763c-0.426,0.508 -0.64,1.206 -0.64,2.093l0,7.187l-3.259,-0l0,-12.822Zm13.767,6.436c0,-1.34 0.258,-2.524 0.773,-3.557c0.479,-0.99 1.231,-1.821 2.166,-2.395c0.925,-0.564 1.998,-0.846 3.213,-0.846c1.17,0 2.215,0.29 3.136,0.871c0.919,0.58 1.636,1.393 2.153,2.441c0.516,1.048 0.774,2.244 0.774,3.583l0,1.015l-8.956,-0c0.045,0.807 0.334,1.459 0.867,1.96c0.532,0.501 1.229,0.75 2.097,0.75c0.605,-0 1.169,-0.14 1.686,-0.423c0.516,-0.282 1.079,-0.768 1.686,-1.465l2.03,2.204c-0.699,0.821 -1.504,1.463 -2.417,1.924c-0.927,0.463 -1.95,0.699 -2.985,0.689c-1.231,-0 -2.317,-0.282 -3.259,-0.846c-0.943,-0.566 -1.703,-1.393 -2.189,-2.382c-0.516,-1.027 -0.775,-2.201 -0.775,-3.523Zm8.935,-1.404c-0.023,-0.338 -0.113,-0.668 -0.263,-0.97c-0.151,-0.303 -0.36,-0.573 -0.614,-0.795c-0.523,-0.468 -1.204,-0.719 -1.904,-0.702c-0.774,0 -1.412,0.228 -1.914,0.679c-0.503,0.451 -0.814,1.048 -0.936,1.791l5.63,-0l0.001,-0.003Zm6.974,3.436l0,-8.468l3.256,-0l0,7.669c0,1.565 0.731,2.346 2.19,2.346c0.655,0 1.174,-0.212 1.562,-0.641c0.387,-0.427 0.582,-0.996 0.582,-1.705l0,-7.669l3.256,-0l0,12.82l-3.12,0l0,-1.138l-0.047,0c-0.334,0.453 -0.793,0.815 -1.378,1.09c-0.574,0.272 -1.2,0.413 -1.835,0.411c-1.43,0 -2.53,-0.414 -3.306,-1.244c-0.773,-0.832 -1.162,-1.99 -1.162,-3.473l0.002,0.002Zm14.197,-8.468l2.876,-0l0,1.112l0.046,0c0.256,-0.434 0.588,-0.769 0.99,-1.003c0.402,-0.232 0.846,-0.352 1.334,-0.352c0.959,0 1.724,0.476 2.301,1.427l0.046,-0c0.607,-0.951 1.443,-1.427 2.508,-1.427c0.879,0 1.595,0.332 2.14,0.992c0.549,0.662 0.822,1.524 0.822,2.588l0,9.486l-3.01,0l0,-8.879c0,-0.37 -0.091,-0.652 -0.273,-0.846c-0.184,-0.194 -0.441,-0.291 -0.775,-0.291c-0.144,-0.006 -0.287,0.02 -0.419,0.076c-0.133,0.057 -0.251,0.142 -0.347,0.25c-0.188,0.218 -0.284,0.514 -0.284,0.884l0,8.806l-2.849,0l0,-8.879c0,-0.355 -0.088,-0.634 -0.262,-0.835c-0.175,-0.199 -0.421,-0.303 -0.742,-0.303c-0.148,-0.007 -0.296,0.019 -0.434,0.075c-0.138,0.057 -0.261,0.142 -0.363,0.252c-0.198,0.218 -0.297,0.514 -0.297,0.884l0,8.806l-3.008,0l0,-12.823Zm-102.59,30.061l-3.19,-0l-0,-3.097l3.19,0l-0,-1.886c-0,-1.129 0.353,-2.02 1.059,-2.673c0.708,-0.652 1.683,-0.98 2.929,-0.98l3.511,-0l-0,3.071l-3.124,0c-0.317,0 -0.562,0.088 -0.727,0.266c-0.169,0.179 -0.252,0.427 -0.252,0.751l0,1.451l4.832,0l-0,3.097l-4.832,-0l0,8.299l-3.396,-0l-0,-8.299Zm11.578,1.887c0,-1.322 0.26,-2.496 0.777,-3.519c0.484,-0.989 1.239,-1.82 2.175,-2.395c0.936,-0.573 2.002,-0.86 3.204,-0.86c1.214,0 2.29,0.287 3.224,0.86c0.937,0.575 1.692,1.406 2.177,2.395c0.518,1.023 0.775,2.197 0.775,3.519c0,1.323 -0.259,2.494 -0.775,3.521c-0.485,0.989 -1.24,1.819 -2.177,2.393c-0.934,0.572 -2.01,0.859 -3.224,0.859c-1.202,0 -2.268,-0.287 -3.204,-0.859c-0.936,-0.575 -1.691,-1.405 -2.177,-2.393c-0.515,-1.027 -0.775,-2.199 -0.775,-3.521Zm9.073,-0c-0,-1.128 -0.255,-2.012 -0.764,-2.65c-0.509,-0.637 -1.226,-0.956 -2.153,-0.956c-0.913,0 -1.624,0.319 -2.133,0.956c-0.509,0.638 -0.763,1.522 -0.763,2.65c-0,1.129 0.254,2.012 0.763,2.65c0.509,0.637 1.22,0.956 2.133,0.956c0.91,-0 1.624,-0.324 2.142,-0.969c0.517,-0.643 0.775,-1.524 0.775,-2.637Zm6.836,2.055l0,-8.465l3.26,-0l-0,7.669c-0,1.564 0.729,2.347 2.188,2.347c0.653,-0 1.174,-0.214 1.562,-0.642c0.387,-0.426 0.58,-0.995 0.58,-1.707l0,-7.669l3.26,0l-0,12.822l-3.122,0l-0,-1.136l-0.047,0c-0.361,0.473 -0.835,0.847 -1.378,1.088c-0.574,0.272 -1.201,0.413 -1.835,0.411c-1.428,0 -2.529,-0.414 -3.306,-1.245c-0.773,-0.831 -1.162,-1.99 -1.162,-3.473Zm15.113,-8.467l3.261,0l-0,1.211l0.044,-0c0.488,-0.518 1.012,-0.909 1.572,-1.174c0.562,-0.266 1.2,-0.399 1.918,-0.399c0.788,0 1.524,0.195 2.208,0.591c0.684,0.396 1.24,1 1.664,1.816c0.425,0.813 0.638,1.824 0.638,3.035l0,7.742l-3.259,0l0,-7.281c0,-0.822 -0.198,-1.484 -0.593,-1.985c-0.396,-0.499 -0.964,-0.751 -1.71,-0.751c-0.775,-0 -1.383,0.238 -1.823,0.713c-0.441,0.476 -0.661,1.134 -0.661,1.973l0,7.331l-3.258,0l0,-12.824l-0.001,0.002Zm14.406,6.412c0,-1.29 0.237,-2.451 0.708,-3.483c0.471,-1.033 1.13,-1.839 1.983,-2.421c0.853,-0.581 1.863,-0.884 2.893,-0.87c1.368,0 2.439,0.387 3.215,1.161l0.044,0l0,-5.637l3.258,0l0,17.662l-3.008,-0l0,-1.113l-0.045,-0c-0.896,0.983 -2.066,1.476 -3.509,1.476c-1.064,0 -2.016,-0.282 -2.859,-0.846c-0.843,-0.565 -1.505,-1.36 -1.974,-2.383c-0.471,-1.023 -0.707,-2.206 -0.707,-3.544l0.001,-0l0,-0.002Zm8.843,0.821l0,-1.667c0,-0.484 -0.122,-0.935 -0.363,-1.357c-0.245,-0.421 -0.595,-0.771 -1.015,-1.016c-0.439,-0.259 -0.94,-0.393 -1.448,-0.387c-0.853,0 -1.524,0.327 -2.017,0.979c-0.496,0.655 -0.742,1.529 -0.742,2.627c0,1.08 0.25,1.95 0.752,2.61c0.503,0.662 1.164,0.992 1.984,0.992c0.818,0 1.5,-0.27 2.039,-0.809c0.539,-0.541 0.81,-1.198 0.81,-1.972Zm7.385,2.156c0,-1.194 0.384,-2.123 1.151,-2.783c0.767,-0.66 2.049,-1.144 3.841,-1.451c0.942,-0.161 1.585,-0.344 1.926,-0.544c0.343,-0.201 0.512,-0.473 0.512,-0.813c0.003,-0.183 -0.042,-0.364 -0.13,-0.525c-0.087,-0.161 -0.215,-0.296 -0.371,-0.392c-0.332,-0.227 -0.79,-0.34 -1.367,-0.34c-0.653,-0 -1.22,0.209 -1.699,0.63c-0.479,0.42 -0.785,0.975 -0.922,1.669l-3.033,-0.725c0.152,-0.873 0.494,-1.647 1.026,-2.325c0.535,-0.68 1.223,-1.222 2.007,-1.584c0.82,-0.383 1.715,-0.577 2.62,-0.569c1.55,-0 2.788,0.459 3.717,1.376c0.926,0.923 1.388,2.148 1.388,3.679l0,8.129l-2.915,-0l-0,-1.427l-0.047,0c-0.348,0.564 -0.839,1.002 -1.471,1.317c-0.628,0.315 -1.338,0.471 -2.13,0.471c-0.79,0 -1.498,-0.159 -2.119,-0.481c-0.605,-0.305 -1.111,-0.775 -1.46,-1.357c-0.352,-0.591 -0.533,-1.269 -0.524,-1.958l-0,0.003Zm7.567,-1.332l-0,-1.451l-0.043,0c-0.16,0.262 -0.4,0.466 -0.684,0.58c-0.319,0.146 -0.821,0.292 -1.504,0.437c-0.851,0.194 -1.438,0.398 -1.756,0.617c-0.151,0.096 -0.275,0.231 -0.359,0.39c-0.084,0.159 -0.125,0.337 -0.12,0.517c-0.008,0.166 0.026,0.331 0.1,0.479c0.074,0.149 0.184,0.276 0.322,0.368c0.281,0.194 0.687,0.291 1.219,0.291c0.486,-0 0.951,-0.1 1.391,-0.304c0.441,-0.204 0.79,-0.476 1.049,-0.821c0.258,-0.345 0.387,-0.713 0.387,-1.101l-0.002,-0.002Zm13.814,-4.959l0,5.153c0,0.435 0.094,0.75 0.285,0.942c0.189,0.196 0.503,0.292 0.946,0.292l2.759,0l0,3.337l-3.055,0c-1.339,0 -2.372,-0.335 -3.099,-1.003c-0.729,-0.67 -1.094,-1.626 -1.094,-2.868l0,-5.854l-2.964,-0l0,-3.095l2.964,-0l0,-3.268l3.259,0l0,3.268l4.741,-0l0,3.098l-4.739,-0l-0.003,-0.002Zm20.423,6.556l0,3.168l-11.875,0l0,-3.168l4.308,0l0,-6.484l-4.083,-0l0,-3.168l7.342,-0l0,9.652l4.308,0Zm-7.637,-15.072l3.352,-0l0,3.41l-3.352,-0l0,-3.41Zm10.761,11.83c0,-1.322 0.257,-2.496 0.773,-3.519c0.484,-0.99 1.239,-1.821 2.177,-2.395c0.934,-0.573 2.003,-0.86 3.202,-0.86c1.216,0 2.292,0.287 3.226,0.86c0.937,0.575 1.692,1.406 2.177,2.395c0.516,1.023 0.774,2.197 0.774,3.519c0,1.323 -0.258,2.494 -0.774,3.521c-0.484,0.989 -1.239,1.819 -2.177,2.393c-0.934,0.572 -2.01,0.859 -3.226,0.859c-1.199,0 -2.268,-0.287 -3.202,-0.859c-0.937,-0.575 -1.692,-1.405 -2.177,-2.393c-0.516,-1.027 -0.773,-2.199 -0.773,-3.521Zm9.071,-0c0,-1.128 -0.255,-2.012 -0.766,-2.65c-0.509,-0.637 -1.226,-0.956 -2.153,-0.956c-0.911,0 -1.622,0.319 -2.131,0.956c-0.509,0.638 -0.764,1.522 -0.764,2.65c0,1.129 0.253,2.012 0.764,2.65c0.509,0.637 1.22,0.956 2.131,0.956c0.912,-0 1.626,-0.324 2.142,-0.969c0.517,-0.645 0.777,-1.524 0.777,-2.637Zm6.725,-6.412l3.258,0l0,1.211l0.046,-0c0.446,-0.487 0.98,-0.885 1.572,-1.174c0.601,-0.275 1.255,-0.41 1.914,-0.399c0.792,0 1.528,0.195 2.212,0.591c0.684,0.396 1.24,1 1.664,1.816c0.425,0.813 0.638,1.824 0.638,3.035l0,7.742l-3.259,0l0,-7.281c0,-0.822 -0.198,-1.484 -0.593,-1.985c-0.396,-0.499 -0.966,-0.751 -1.711,-0.751c-0.774,-0 -1.382,0.238 -1.822,0.713c-0.441,0.476 -0.661,1.134 -0.661,1.973l0,7.331l-3.258,0l0,-12.822Z" style="fill:#0a0a0a;fill-rule:nonzero;"></path><path d="M19.266,50.473l0,16.124l-18.44,-28.59l18.44,12.466Z" style="fill:#18abd3;fill-rule:nonzero;"></path><path d="M37.707,38.007l-18.441,28.59l0,-16.124l18.441,-12.466Z" style="fill:#6b7aba;fill-rule:nonzero;"></path><path d="M37.707,33.978l-18.441,-11.12l0,23.588l18.441,-12.468Z" style="fill:#a566a6;fill-rule:nonzero;"></path><path d="M37.707,33.978l-18.441,-33.978l0,22.856l18.441,11.122Z" style="fill:#f08a78;fill-rule:nonzero;"></path><path d="M19.266,0l0,22.856l-18.44,11.124l18.44,-33.98Z" style="fill:#ffeb5c;fill-rule:nonzero;"></path><path d="M19.266,22.856l0,23.59l-18.44,-12.468l18.44,-11.122Z" style="fill:#58b36f;fill-rule:nonzero;"></path></svg> 