<?xml version="1.0" encoding="UTF-8" standalone="no"?> <svg xmlns="http://www.w3.org/2000/svg" xmlns:xlink="http://www.w3.org/1999/xlink" xmlns:serif="http://www.serif.com/" width="100%" height="100%" viewBox="0 0 124 33" version="1.1" xml:space="preserve" style="fill-rule:evenodd;clip-rule:evenodd;stroke-linejoin:round;stroke-miterlimit:2;"><path d="M11.307,0.309l-7.984,4.197c-0.481,0.253 -0.729,0.613 -0.764,0.998l-0.004,0l0,0.054c-0.001,0.029 -0.001,0.059 0,0.088l0,20.85c-0.001,0.029 -0.001,0.065 0,0.108c0.013,0.414 0.257,0.829 0.768,1.098l7.984,4.197c0.783,0.412 1.973,0.412 2.756,0l7.984,-4.197c0.513,-0.27 0.774,-0.683 0.784,-1.098l0,-0l0,-21.1l-0.007,0c-0.046,-0.381 -0.305,-0.75 -0.777,-0.998l-7.984,-4.197c-0.783,-0.412 -1.973,-0.412 -2.756,-0Zm-7.495,26.253l7.495,3.92c0.452,0.24 0.921,0.473 1.378,0.475c0.421,0.001 0.83,-0.198 1.243,-0.4l0.08,-0.039l7.567,-3.99l-0,-9.253l-7.512,3.95c-0.783,0.411 -1.973,0.411 -2.756,-0l-7.495,-3.941l0,9.278Zm0,-12.039l7.146,-3.756l-7.146,-3.757l0,7.513Zm17.763,-7.522l-0,7.531l-7.163,-3.765l7.163,-3.766Zm-8.099,-5.586l7.984,4.197l0.019,0.01l0.012,0.007l-0.007,0.004c-0.007,0.004 -0.015,0.009 -0.024,0.013l-7.984,4.198c-0.415,0.218 -1.167,0.218 -1.582,-0l-7.984,-4.198l-0.019,-0.01l-0.012,-0.007l0.007,-0.004c0.007,-0.004 0.015,-0.008 0.024,-0.013l7.984,-4.197c0.415,-0.219 1.167,-0.219 1.582,-0Zm-0,10.274l7.984,4.198l0.019,0.01l0.012,0.007l-0.007,0.004l-0.016,0.009l-0.008,0.004l-7.984,4.197c-0.05,0.027 -0.104,0.05 -0.162,0.069l-0,-8.567c0.058,0.02 0.112,0.043 0.162,0.069Zm-1.419,-0.069c-0.058,0.02 -0.113,0.043 -0.163,0.069l-7.984,4.198c-0.009,0.004 -0.017,0.009 -0.024,0.013l-0.007,0.004l0.012,0.007l0.019,0.01l7.984,4.197c0.05,0.027 0.105,0.05 0.163,0.069l-0,-8.567Zm10.698,-9.745l-0.651,1.07l0.454,0.273l0.147,0.09c0.126,0.077 0.228,0.143 0.322,0.205l0.024,0.017c0.426,0.288 0.659,0.525 0.814,0.836c0.188,0.374 0.282,0.905 0.282,1.714l1.257,-0l-0,-0.057c-0.009,-1.846 -0.462,-2.733 -1.675,-3.547c-0.113,-0.076 -0.235,-0.154 -0.382,-0.244l-0.085,-0.052l-0.507,-0.305Zm-19.455,27.404l-0.651,1.071l-0.507,-0.306l-0.086,-0.052c-0.147,-0.09 -0.268,-0.167 -0.382,-0.244c-1.213,-0.813 -1.665,-1.701 -1.674,-3.547l0,-0.056l1.257,-0c-0,0.808 0.094,1.34 0.282,1.714c0.155,0.31 0.388,0.547 0.814,0.836l0.024,0.016c0.093,0.063 0.196,0.129 0.321,0.206l0.148,0.09l0.454,0.272Z" style="fill:#1969ff;"></path><path d="M38.171,13.957l-0,11.767l-2.792,-0l0,-11.767l-2.681,0l-0,-2.154l2.681,-0l0,-1.768c0,-1.547 0.392,-2.725 1.175,-3.535c0.783,-0.811 1.884,-1.216 3.303,-1.216c0.737,0 1.41,0.092 2.018,0.276l0,2.293c-0.498,-0.147 -0.967,-0.221 -1.41,-0.221c-1.529,-0 -2.294,0.875 -2.294,2.624l-0,1.547l3.262,-0l-0,2.154l-3.262,0Zm14.139,11.297c-0.802,0.442 -1.737,0.663 -2.806,0.663c-1.235,0 -2.317,-0.294 -3.248,-0.884c-0.93,-0.589 -1.654,-1.422 -2.17,-2.499c-0.516,-1.077 -0.774,-2.334 -0.774,-3.771c0,-1.436 0.263,-2.706 0.788,-3.811c0.525,-1.105 1.258,-1.961 2.198,-2.569c0.94,-0.608 2.008,-0.912 3.206,-0.912c1.069,0 2,0.226 2.792,0.677c0.792,0.451 1.401,1.091 1.824,1.92l0,-2.265l2.765,-0l-0,13.921l-2.765,-0l0,-2.375c-0.405,0.828 -1.009,1.463 -1.81,1.905Zm-2.142,-1.546c-1.272,-0 -2.262,-0.433 -2.972,-1.299c-0.709,-0.865 -1.064,-2.08 -1.064,-3.646c-0,-1.583 0.355,-2.822 1.064,-3.715c0.71,-0.893 1.691,-1.339 2.944,-1.339c1.271,-0 2.253,0.432 2.944,1.298c0.691,0.865 1.036,2.099 1.036,3.701c0,1.584 -0.345,2.813 -1.036,3.688c-0.691,0.874 -1.663,1.312 -2.916,1.312Zm13.572,-5.911l-0,7.927l-2.764,-0l-0,-9.999c-0,-1.455 -0.074,-2.762 -0.221,-3.922l2.598,-0l0.249,2.403c0.442,-0.884 1.082,-1.561 1.921,-2.03c0.838,-0.47 1.792,-0.705 2.861,-0.705c3.335,0 5.003,1.86 5.003,5.58l0,8.673l-2.792,-0l0,-8.507c0,-1.216 -0.235,-2.1 -0.705,-2.652c-0.47,-0.552 -1.221,-0.829 -2.253,-0.829c-1.179,0 -2.123,0.369 -2.833,1.105c-0.709,0.737 -1.064,1.722 -1.064,2.956Zm18.99,8.12c0.774,0 1.465,-0.101 2.073,-0.303l0,-2.265c-0.497,0.147 -0.986,0.221 -1.465,0.221c-0.737,-0 -1.313,-0.198 -1.727,-0.594c-0.415,-0.396 -0.622,-1.073 -0.622,-2.03l-0,-6.989l3.842,0l0,-2.154l-3.842,-0l-0,-4.447l-2.792,0.967l-0,3.48l-2.709,-0l-0,2.154l2.709,0l-0,7.209c-0,1.547 0.396,2.726 1.188,3.536c0.793,0.81 1.908,1.215 3.345,1.215Zm14.236,-0.884c-1.032,0.59 -2.221,0.884 -3.566,0.884c-1.364,0 -2.562,-0.294 -3.593,-0.884c-1.032,-0.589 -1.829,-1.427 -2.392,-2.513c-0.562,-1.087 -0.843,-2.357 -0.843,-3.812c0,-1.455 0.281,-2.73 0.843,-3.825c0.563,-1.096 1.36,-1.938 2.392,-2.528c1.031,-0.589 2.229,-0.884 3.593,-0.884c1.345,0 2.534,0.295 3.566,0.884c1.032,0.59 1.829,1.432 2.391,2.528c0.562,1.095 0.843,2.37 0.843,3.825c-0,1.455 -0.281,2.725 -0.843,3.812c-0.562,1.086 -1.359,1.924 -2.391,2.513Zm-3.594,-1.325c-1.271,-0 -2.252,-0.424 -2.944,-1.271c-0.691,-0.847 -1.036,-2.09 -1.036,-3.729c-0,-1.602 0.35,-2.836 1.05,-3.701c0.701,-0.866 1.686,-1.298 2.958,-1.298c1.253,-0 2.225,0.432 2.916,1.298c0.691,0.865 1.037,2.099 1.037,3.701c-0,1.639 -0.341,2.882 -1.023,3.729c-0.682,0.847 -1.668,1.271 -2.958,1.271Zm12.854,-5.856l-0,7.872l-2.764,-0l-0,-9.999c-0,-1.455 -0.074,-2.762 -0.221,-3.922l2.598,-0l0.249,2.32c0.405,-0.847 0.986,-1.501 1.741,-1.961c0.756,-0.46 1.64,-0.691 2.654,-0.691c2.156,0 3.566,0.893 4.229,2.68c0.424,-0.829 1.046,-1.483 1.866,-1.961c0.82,-0.479 1.746,-0.719 2.778,-0.719c3.096,0 4.644,1.86 4.644,5.58l-0,8.673l-2.792,-0l-0,-8.535c-0,-1.197 -0.207,-2.072 -0.622,-2.624c-0.414,-0.552 -1.082,-0.829 -2.004,-0.829c-1.069,0 -1.912,0.369 -2.529,1.105c-0.617,0.737 -0.926,1.74 -0.926,3.011l-0,7.872l-2.792,-0l-0,-8.535c-0,-1.197 -0.207,-2.072 -0.622,-2.624c-0.415,-0.552 -1.083,-0.829 -2.004,-0.829c-1.069,0 -1.917,0.369 -2.543,1.105c-0.627,0.737 -0.94,1.74 -0.94,3.011Z" style="fill:#1969ff;"></path></svg> 