<?xml version="1.0" encoding="UTF-8" standalone="no"?> <svg xmlns="http://www.w3.org/2000/svg" xmlns:xlink="http://www.w3.org/1999/xlink" xmlns:serif="http://www.serif.com/" width="100%" height="100%" viewBox="0 0 198 42" version="1.1" xml:space="preserve" style="fill-rule:evenodd;clip-rule:evenodd;stroke-linejoin:round;stroke-miterlimit:2;"><path d="M1.336,9.835c-0.202,0.053 -0.35,0.236 -0.35,0.454l-0,20.061c-0,0.259 0.21,0.469 0.469,0.469c0.259,0 0.469,-0.21 0.469,-0.469l0,-7.979l14.773,9.218l0.035,8.334c0.001,0.217 0.149,0.399 0.349,0.451c0.137,0.066 0.302,0.064 0.443,-0.019l16.273,-9.628c0.223,-0.132 0.297,-0.42 0.165,-0.643c-0.132,-0.223 -0.42,-0.296 -0.643,-0.165l-15.652,9.261l-0.031,-7.449l16.069,-9.703c0.222,-0.134 0.293,-0.422 0.159,-0.644c-0.133,-0.222 -0.422,-0.293 -0.644,-0.159l-15.588,9.413l-0.039,-9.296l15.799,-9.557c0.158,-0.095 0.239,-0.268 0.225,-0.44c0.014,-0.172 -0.067,-0.345 -0.224,-0.44l-16.247,-9.842c-0.127,-0.084 -0.292,-0.102 -0.438,-0.041c-0.022,0.009 -0.043,0.02 -0.064,0.032l-15.308,8.781Zm15.546,-7.835l15.426,9.345l-15.428,9.332c-0.159,0.096 -0.24,0.271 -0.225,0.444l-0.001,0.013c-0,0.008 -0,0.017 -0,0.025l0.039,9.321l-14.701,-9.172c-0.022,-0.014 -0.045,-0.025 -0.068,-0.035l0,-10.694l7.722,-4.429l8.595,5.327c0.22,0.137 0.509,0.069 0.646,-0.151c0.136,-0.22 0.068,-0.51 -0.152,-0.646l-8.164,-5.061l6.311,-3.619Z" style="fill:#0073e6;"></path><path d="M1.336,9.835l0.249,0.954l0.127,-0.033l0.114,-0.066l-0.49,-0.855Zm0.588,12.536l0.522,-0.836l-1.508,-0.941l0,1.777l0.986,0Zm14.773,9.218l0.986,-0.005l-0.002,-0.544l-0.462,-0.288l-0.522,0.837Zm0.035,8.334l0.986,-0.005l-0.986,0.005Zm0.349,0.451l0.427,-0.889l-0.085,-0.04l-0.091,-0.024l-0.251,0.953Zm0.443,-0.019l-0.502,-0.848l0.502,0.848Zm16.273,-9.628l-0.502,-0.849l0.502,0.849Zm0.165,-0.643l0.848,-0.502l-0.848,0.502Zm-0.643,-0.165l-0.502,-0.848l0.502,0.848Zm-15.652,9.261l-0.986,0.004l0.007,1.721l1.481,-0.876l-0.502,-0.849Zm-0.031,-7.449l-0.51,-0.843l-0.478,0.289l0.002,0.559l0.986,-0.005Zm16.069,-9.703l-0.509,-0.844l0.509,0.844Zm0.159,-0.644l-0.843,0.509l0.843,-0.509Zm-0.644,-0.159l0.51,0.844l-0.51,-0.844Zm-15.588,9.413l-0.986,0.004l0.007,1.739l1.488,-0.899l-0.509,-0.844Zm-0.039,-9.296l-0.51,-0.843l-0.478,0.289l0.002,0.558l0.986,-0.004Zm15.799,-9.557l0.511,0.844l-0.511,-0.844Zm0.225,-0.44l-0.982,-0.081l-0.007,0.081l0.007,0.081l0.982,-0.081Zm-0.224,-0.44l-0.511,0.843l0.511,-0.843Zm-16.247,-9.842l-0.541,0.824l0.015,0.01l0.015,0.009l0.511,-0.843Zm-0.438,-0.041l0.378,0.911l0.002,-0.001l-0.38,-0.91Zm-0.064,0.032l0.491,0.855l0.01,-0.006l0.011,-0.006l-0.512,-0.843Zm15.664,10.291l0.51,0.843l1.394,-0.843l-1.393,-0.843l-0.511,0.843Zm-15.426,-9.345l0.51,-0.843l-0.497,-0.302l-0.504,0.29l0.491,0.855Zm-0.002,18.677l0.51,0.844l-0.51,-0.844Zm-0.225,0.444l0.984,0.061l0.005,-0.075l-0.007,-0.074l-0.982,0.088Zm-0.001,0.013l-0.984,-0.061l-0,0.014l0.984,0.047Zm-0,0.025l-0.986,0.004l-0,0l0.986,-0.004Zm0.039,9.321l-0.522,0.836l1.515,0.946l-0.007,-1.786l-0.986,0.004Zm-14.701,-9.172l-0.522,0.836l-0,0l0.522,-0.836Zm-0.068,-0.035l-0.986,-0l0,0.656l0.605,0.253l0.381,-0.909Zm0,-10.694l-0.49,-0.855l-0.496,0.284l0,0.571l0.986,0Zm7.722,-4.429l0.52,-0.838l-0.5,-0.31l-0.51,0.293l0.49,0.855Zm8.595,5.327l0.519,-0.838l-0.519,0.838Zm0.646,-0.151l-0.838,-0.52l0.838,0.52Zm-0.152,-0.646l0.519,-0.838l-0.519,0.838Zm-8.164,-5.061l-0.49,-0.855l-1.434,0.823l1.405,0.87l0.519,-0.838Zm-8.599,4.67c-0,0.242 -0.165,0.442 -0.387,0.5l-0.499,-1.907c-0.624,0.163 -1.086,0.73 -1.086,1.407l1.972,0Zm-0,10.25l-0,-10.25l-1.972,0l0,10.25l1.972,-0Zm-0,9.811l-0,-9.811l-1.972,-0l0,9.811l1.972,0Zm-0.517,-0.516c0.285,-0 0.517,0.231 0.517,0.516l-1.972,0c0,0.804 0.651,1.455 1.455,1.455l-0,-1.971Zm-0.517,0.516c0,-0.285 0.232,-0.516 0.517,-0.516l-0,1.971c0.803,0 1.455,-0.651 1.455,-1.455l-1.972,0Zm0,-7.979l0,7.979l1.972,0l-0,-7.979l-1.972,0Zm16.281,8.381l-14.773,-9.217l-1.044,1.673l14.773,9.217l1.044,-1.673Zm0.499,9.166l-0.035,-8.334l-1.972,0.009l0.035,8.334l1.972,-0.009Zm-0.386,-0.497c0.221,0.058 0.385,0.257 0.386,0.497l-1.972,0.009c0.003,0.674 0.463,1.237 1.084,1.401l0.502,-1.907Zm-0.31,0.086c0.155,-0.092 0.338,-0.092 0.486,-0.022l-0.853,1.778c0.421,0.202 0.935,0.198 1.371,-0.059l-1.004,-1.697Zm16.273,-9.629l-16.273,9.629l1.004,1.697l16.273,-9.629l-1.004,-1.697Zm-0.182,0.708c-0.145,-0.245 -0.064,-0.562 0.182,-0.708l1.004,1.697c0.692,-0.409 0.921,-1.301 0.511,-1.993l-1.697,1.004Zm0.708,0.182c-0.245,0.145 -0.562,0.064 -0.708,-0.182l1.697,-1.004c-0.409,-0.691 -1.301,-0.92 -1.993,-0.511l1.004,1.697Zm-15.652,9.261l15.652,-9.261l-1.004,-1.697l-15.652,9.261l1.004,1.697Zm-1.519,-8.293l0.031,7.448l1.972,-0.008l-0.031,-7.449l-1.972,0.009Zm16.546,-10.552l-16.07,9.704l1.02,1.687l16.069,-9.703l-1.019,-1.688Zm-0.175,0.709c-0.148,-0.244 -0.07,-0.562 0.175,-0.709l1.019,1.688c0.688,-0.416 0.909,-1.31 0.493,-1.998l-1.687,1.019Zm0.709,0.176c-0.244,0.147 -0.562,0.069 -0.709,-0.176l1.687,-1.019c-0.415,-0.688 -1.309,-0.909 -1.997,-0.493l1.019,1.688Zm-15.589,9.413l15.589,-9.413l-1.019,-1.688l-15.589,9.413l1.019,1.688Zm-1.534,-10.136l0.039,9.296l1.971,-0.008l-0.038,-9.296l-1.972,0.008Zm16.275,-10.404l-15.799,9.557l1.02,1.687l15.8,-9.557l-1.021,-1.687Zm-0.247,0.484c-0.016,-0.186 0.072,-0.378 0.247,-0.484l1.021,1.687c0.49,-0.296 0.741,-0.835 0.697,-1.365l-1.965,0.162Zm0.247,0.322c-0.175,-0.106 -0.263,-0.298 -0.247,-0.484l1.965,0.162c0.044,-0.53 -0.207,-1.068 -0.696,-1.364l-1.022,1.686Zm-16.247,-9.842l16.247,9.842l1.022,-1.686l-16.247,-9.842l-1.022,1.686Zm0.453,0.026c-0.164,0.068 -0.344,0.046 -0.483,-0.045l1.082,-1.648c-0.393,-0.258 -0.902,-0.318 -1.359,-0.127l0.76,1.82Zm0.068,-0.035c-0.023,0.014 -0.046,0.026 -0.07,0.036l-0.756,-1.822c-0.068,0.028 -0.134,0.062 -0.197,0.1l1.023,1.686Zm-15.33,8.793l15.309,-8.781l-0.981,-1.71l-15.309,8.781l0.981,1.71Zm30.993,-0.188l-15.427,-9.345l-1.021,1.686l15.426,9.345l1.022,-1.686Zm-15.429,11.019l15.428,-9.333l-1.02,-1.687l-15.429,9.333l1.021,1.687Zm0.247,-0.488c0.017,0.188 -0.071,0.381 -0.247,0.488l-1.021,-1.687c-0.492,0.298 -0.743,0.841 -0.696,1.375l1.964,-0.176Zm0.001,0.162l0.001,-0.013l-1.968,-0.123l-0.001,0.014l1.968,0.122Zm0.002,-0.04c-0,0.009 -0,0.018 -0.001,0.027l-1.969,-0.095c-0.002,0.025 -0.002,0.051 -0.002,0.076l1.972,-0.008Zm0.039,9.321l-0.039,-9.321l-1.972,0.008l0.039,9.321l1.972,-0.008Zm-16.209,-8.332l14.701,9.172l1.044,-1.673l-14.701,-9.172l-1.044,1.673Zm0.073,0.038c-0.025,-0.01 -0.05,-0.023 -0.073,-0.038l1.044,-1.673c-0.068,-0.041 -0.137,-0.078 -0.209,-0.108l-0.762,1.819Zm-0.605,-1.643l0,0.734l1.972,-0l-0,-0.734l-1.972,-0Zm0,-9.96l0,9.96l1.972,-0l-0,-9.96l-1.972,0Zm8.218,-5.284l-7.722,4.429l0.981,1.711l7.722,-4.43l-0.981,-1.71Zm9.604,5.344l-8.594,-5.327l-1.039,1.676l8.594,5.327l1.039,-1.676Zm-0.711,0.167c0.15,-0.242 0.469,-0.317 0.711,-0.167l-1.039,1.676c0.683,0.424 1.58,0.213 2.004,-0.47l-1.676,-1.039Zm0.167,0.712c-0.243,-0.151 -0.318,-0.469 -0.167,-0.712l1.676,1.039c0.423,-0.683 0.212,-1.58 -0.471,-2.003l-1.038,1.676Zm-8.164,-5.061l8.164,5.061l1.038,-1.676l-8.163,-5.061l-1.039,1.676Zm6.339,-5.312l-6.31,3.619l0.981,1.711l6.31,-3.62l-0.981,-1.71Z" style="fill:#0073e6;fill-rule:nonzero;"></path><path d="M60.008,11.896c-0.981,-0 -1.789,0.427 -2.422,1.282c-0.633,0.823 -0.95,1.773 -0.95,2.85l0,3.894l17.431,0.048l-0,4.512l-17.431,-0.048l0,7.029l-4.227,0l-0.047,-15.673c-0,-2.375 0.712,-4.369 2.137,-5.984c1.457,-1.615 3.293,-2.422 5.509,-2.422l14.201,-0l0,4.512l-14.201,-0Zm40.479,19.52l-0,-12.729l-16.765,0l-0,12.729l-4.275,-0l0,-24.08l4.275,0l-0,6.839l16.765,0l-0,-6.839l4.275,0l-0,24.08l-4.275,-0Zm16.319,0.047c-2.217,0 -4.053,-0.807 -5.51,-2.422c-1.424,-1.615 -2.137,-3.61 -2.137,-5.984l-0,-7.267c-0,-2.375 0.713,-4.369 2.137,-5.984c1.457,-1.615 3.293,-2.422 5.51,-2.422l14.2,-0l-0,4.512l-14.2,-0c-0.982,-0 -1.789,0.427 -2.422,1.282c-0.634,0.823 -0.95,1.773 -0.95,2.85l-0,1.519l17.43,0.048l-0,4.512l-17.43,-0.048l-0,0.76c-0,1.077 0.316,2.042 0.95,2.897c0.633,0.824 1.44,1.235 2.422,1.235l14.2,0l-0,4.512l-14.2,0Zm39.199,-0.047l-0,-15.436c-0,-1.045 -0.348,-1.931 -1.044,-2.66c-0.665,-0.728 -1.504,-1.092 -2.518,-1.092l-9.641,0c-1.013,0 -1.868,0.364 -2.565,1.092c-0.665,0.729 -0.997,1.615 -0.997,2.66l-0,15.436l-4.274,-0l-0,-15.436c-0,-2.375 0.744,-4.338 2.232,-5.889c1.488,-1.583 3.356,-2.375 5.604,-2.375l9.641,0c2.248,0 4.117,0.839 5.605,2.517c1.488,1.678 2.232,3.705 2.232,6.08l-0,15.103l-4.275,-0Zm9.597,-0l-0,-24.08l3.562,0l-0,24.08l-3.562,-0Zm31.597,-0l-2.992,-0l-9.309,-8.739l-9.309,8.739l-2.992,-0l-0.048,-3.372l9.024,-8.454l-9.024,-8.502l0.048,-3.372l2.992,0l9.309,8.739l9.309,-8.739l2.992,0l0.047,3.372l-9.024,8.502l9.024,8.454l-0.047,3.372Z" style="fill:#0073e6;fill-rule:nonzero;"></path></svg> 