<?xml version="1.0" encoding="UTF-8" standalone="no"?> <svg xmlns="http://www.w3.org/2000/svg" xmlns:xlink="http://www.w3.org/1999/xlink" xmlns:serif="http://www.serif.com/" width="100%" height="100%" viewBox="0 0 391 124" version="1.1" xml:space="preserve" style="fill-rule:evenodd;clip-rule:evenodd;stroke-linejoin:round;stroke-miterlimit:2;"><path d="M91.838,46.328l-60.96,-0.047c-16.621,-0 -30.439,13.143 -30.874,30.037c-0.014,0.449 0.361,0.823 0.81,0.823l60.959,0.041c16.621,0.007 30.439,-13.136 30.875,-30.023c0.014,-0.449 -0.361,-0.824 -0.81,-0.824l0,-0.007Z" style="fill:#e62058;fill-rule:nonzero;"></path><path d="M122.736,0.048l-91.861,-0.048c-16.622,0 -30.439,13.143 -30.875,30.037c-0.013,0.45 0.361,0.824 0.81,0.824l91.861,0.041c16.622,0.007 30.439,-13.137 30.875,-30.024c0.013,-0.449 -0.36,-0.824 -0.81,-0.824l-0,-0.006Z" style="fill:#e62058;fill-rule:nonzero;"></path><path d="M15.454,123.265c8.534,-0 15.451,-6.918 15.451,-15.451c0,-8.533 -6.917,-15.452 -15.451,-15.452c-8.533,0 -15.451,6.919 -15.451,15.452c0,8.533 6.918,15.451 15.451,15.451Z" style="fill:#e62058;fill-rule:nonzero;"></path><rect x="188.058" y="15.494" width="16.54" height="92.372" style="fill:#e62058;fill-rule:nonzero;"></rect><path d="M390.088,76.434c0,-17.179 -12.089,-31.555 -29.139,-31.555c-18.323,0 -30.03,15.015 -30.03,32.195c-0,19.338 13.871,32.066 32.317,32.066c9.543,0 19.338,-3.941 25.32,-11.068l-9.413,-9.413c-2.927,3.178 -8.529,7.127 -15.526,7.127c-8.78,-0 -15.777,-5.984 -16.669,-14.635l42.752,0c0.252,-1.402 0.381,-3.056 0.381,-4.71l0.007,-0.007Zm-42.371,-7.378c0.763,-5.602 6.364,-10.816 13.232,-10.816c6.868,0 11.708,5.344 12.217,10.816l-25.449,0Z" style="fill:#e62058;fill-rule:nonzero;"></path><path d="M262.506,51.996l-1.171,-0.953c-4.989,-4.07 -11.23,-6.221 -18.051,-6.221c-16.989,0 -30.296,14.165 -30.296,32.249c-0,8.08 2.804,15.778 7.903,21.679c5.622,6.534 14.328,10.435 23.298,10.435c6.515,-0 12.273,-2.09 17.126,-6.215l1.178,-1l-0,5.915l14.851,-0l0,-61.763l-14.851,0l-0,5.874l0.013,0Zm-17.193,44.114c-9.917,-0 -17.99,-8.475 -17.99,-18.895c0,-10.421 8.073,-18.896 17.99,-18.896c9.917,0 17.989,8.475 17.989,18.896c0,10.42 -8.072,18.895 -17.989,18.895Z" style="fill:#e62058;fill-rule:nonzero;"></path><path d="M320.506,44.829c-6.821,-0 -13.062,2.151 -18.051,6.221l-1.172,0.953l0,-5.874l-14.851,-0l-0,61.762l14.831,0l0,-32.188c0,-4.968 2.022,-9.787 5.772,-13.048c3.111,-2.702 7.1,-4.329 11.442,-4.329c2.879,0 5.595,0.715 8.011,1.981l4.908,-13.402c-3.37,-1.341 -7.039,-2.083 -10.898,-2.083l0.008,0.007Z" style="fill:#e62058;fill-rule:nonzero;"></path><path d="M144.459,107.862l15.518,0l0,-48.905l17.629,0l0,-12.912l-17.629,0l0,-2.675c0,-6.078 0.96,-8.522 2.498,-10.482l0.014,-0.02c2.185,-2.594 5.568,-3.907 10.067,-3.907c1.375,-0 3.124,0.197 4.513,0.497l2.355,-13.069c-2.88,-0.694 -5.677,-0.987 -9.216,-0.987c-7.576,0 -14.389,2.566 -19.195,7.229c-4.54,4.404 -6.561,10.604 -6.561,20.093l0,3.328l-11.368,-0l0,12.912l11.368,0l0,48.905l0.007,-0.007Z" style="fill:#e62058;fill-rule:nonzero;"></path></svg> 