<?xml version="1.0" encoding="UTF-8" standalone="no"?> <svg xmlns="http://www.w3.org/2000/svg" xmlns:xlink="http://www.w3.org/1999/xlink" xmlns:serif="http://www.serif.com/" width="100%" height="100%" viewBox="0 0 199 45" version="1.1" xml:space="preserve" style="fill-rule:evenodd;clip-rule:evenodd;stroke-linejoin:round;stroke-miterlimit:2;"><path d="M7.547,30l15.094,0l-0,-7.5l-7.547,0l-0,-7.5l15.094,0l-0,22.5l-22.641,0l-0,-7.5l-7.547,0l-0,-30l30.188,0l-0,7.5l-22.641,0l-0,22.5Z" style="fill:#717cf5;"></path><rect x="30.188" y="7.5" width="7.547" height="7.5" style="fill:#ff8099;"></rect><rect x="0" y="37.5" width="7.547" height="7.5" style="fill:#0a0a0a;"></rect><path d="M67.549,35.407c-8.114,-0 -11.701,-5.472 -11.701,-12.6c0,-7.092 3.804,-12.6 12.353,-12.6c7.427,-0 11.013,3.24 11.665,9.072l-3.876,-0c-0.507,-3.996 -2.826,-6.012 -7.934,-6.012c-5.832,-0 -8.295,3.312 -8.295,9.54c0,6.156 2.318,9.54 8.332,9.54c5.651,-0 7.643,-3.168 8.114,-6.804l-10.179,-0l0,-2.736l13.802,-0l0,11.988l-3.369,-0l0,-5.076c-1.123,3.456 -4.239,5.688 -8.912,5.688Z" style="fill:#0a0a0a;fill-rule:nonzero;"></path><path d="M89.477,35.263c-3.695,0 -6.014,-1.98 -6.014,-5.292c0,-2.88 1.449,-4.752 5.507,-5.436l4.528,-0.756c1.739,-0.288 2.536,-0.828 2.536,-2.088c0,-1.62 -0.87,-2.736 -3.985,-2.736c-2.971,0 -4.383,1.188 -4.565,3.456l-3.622,0c0.036,-3.816 2.898,-6.228 8.042,-6.228c4.999,0 7.463,2.268 7.463,5.58l0,8.928c0,1.332 0.036,2.412 0.181,4.104l-3.297,0c-0.145,-1.404 -0.217,-2.628 -0.217,-4.068c-0.725,2.268 -2.717,4.536 -6.557,4.536Zm0.761,-2.772c3.803,0 5.796,-2.844 5.796,-6.444l-0,-1.08c-0.978,0.72 -2.137,1.008 -3.224,1.26l-2.5,0.576c-2.246,0.504 -3.224,1.368 -3.224,3.024c-0,1.728 1.268,2.664 3.152,2.664Z" style="fill:#0a0a0a;fill-rule:nonzero;"></path><path d="M116.173,16.795l3.622,0l0,18l-3.622,0l0,-3.924c-1.051,2.628 -3.007,4.5 -6.412,4.5c-4.819,0 -6.739,-2.628 -6.739,-7.344l0,-11.232l3.623,0l0,10.908c0,3.78 1.811,4.68 4.239,4.68c3.224,0 5.289,-2.628 5.289,-7.992l0,-7.596Z" style="fill:#0a0a0a;fill-rule:nonzero;"></path><path d="M134.323,16.219c4.818,0 6.593,2.628 6.593,7.344l0,11.232l-3.623,0l0,-10.908c0,-3.78 -1.739,-4.68 -4.021,-4.68c-3.55,0 -5.506,2.268 -5.506,7.992l0,7.596l-3.623,0l0,-18l3.623,0l0,4.032c1.086,-2.664 3.079,-4.608 6.557,-4.608Z" style="fill:#0a0a0a;fill-rule:nonzero;"></path><path d="M152.069,34.795c-4.383,0 -5.47,-1.692 -5.47,-5.292l-0,-9.936l-3.441,0l-0,-2.467l3.441,-0.305l1.812,-4.068l1.811,0l-0,4.068l5.796,0l-0,2.772l-5.796,0l-0,12.348l5.434,0l-0,2.88l-3.587,0Z" style="fill:#0a0a0a;fill-rule:nonzero;"></path><rect x="159.22" y="9.595" width="3.623" height="25.2" style="fill:#0a0a0a;"></rect><path d="M175.462,32.707c3.297,0 4.746,-1.476 5.253,-3.348l3.333,0c-0.326,2.484 -2.318,6.012 -8.694,6.012c-6.449,0 -9.166,-4.284 -9.166,-9.612c-0,-5.256 2.971,-9.54 9.166,-9.54c5.76,0 8.73,4.068 8.73,9.216c-0,0.468 -0,0.9 -0.072,1.368l-14.273,0c0.289,4.536 2.608,5.904 5.723,5.904Zm-0.072,-13.824c-3.115,0 -5.18,1.296 -5.615,5.292l10.832,0c-0.182,-3.636 -1.993,-5.292 -5.217,-5.292Z" style="fill:#0a0a0a;fill-rule:nonzero;"></path><path d="M194.242,34.795c-4.383,0 -5.47,-1.692 -5.47,-5.292l0,-9.936l-3.442,0l0,-2.467l3.442,-0.305l1.811,-4.068l1.811,0l0,4.068l5.797,0l0,2.772l-5.797,0l0,12.348l5.434,0l0,2.88l-3.586,0Z" style="fill:#0a0a0a;fill-rule:nonzero;"></path></svg> 