<?xml version="1.0" encoding="UTF-8" standalone="no"?> <svg xmlns="http://www.w3.org/2000/svg" xmlns:xlink="http://www.w3.org/1999/xlink" xmlns:serif="http://www.serif.com/" width="100%" height="100%" viewBox="0 0 290 65" version="1.1" xml:space="preserve" style="fill-rule:evenodd;clip-rule:evenodd;stroke-linejoin:round;stroke-miterlimit:2;"><path d="M22.333,59.456c-13.887,-0 -22.333,-9.878 -22.333,-26.771c0,-15.461 9.806,-27.272 24.266,-27.272c11.739,0 20.686,6.943 21.545,16.821l-10.737,0c-1.217,-5.153 -5.655,-8.374 -10.952,-8.374c-8.16,-0 -13.242,7.516 -13.242,19.111c0,11.024 4.868,18.038 12.741,18.038c6.085,0 11.883,-3.936 11.883,-11.524l-0,-1.145l-10.523,-0l0,-8.661l20.544,-0l-0,28.775l-8.876,-0l-0,-5.941c-2.577,4.294 -8.518,6.943 -14.316,6.943Z" style="fill:#0a0a0a;fill-rule:nonzero;"></path><path d="M51.799,58.454l0,-36.935l9.377,-0l0,4.867c2.648,-3.507 7.015,-5.512 11.668,-5.512c10.593,0 12.383,7.516 12.383,17.036l-0,20.544l-10.093,-0l0,-20.472c0,-5.44 -0.93,-9.52 -5.941,-9.52c-4.724,-0 -7.301,3.149 -7.301,11.739l-0,18.253l-10.093,-0Z" style="fill:#0a0a0a;fill-rule:nonzero;"></path><path d="M108.13,59.456c-11.453,-0 -18.754,-7.659 -18.754,-19.47c-0,-11.81 7.301,-19.469 18.754,-19.469c11.524,-0 18.825,7.73 18.825,19.469c0,11.811 -7.301,19.47 -18.825,19.47Zm-0,-7.659c5.44,-0 8.303,-4.51 8.303,-11.811c-0,-7.444 -2.863,-11.81 -8.303,-11.81c-5.369,-0 -8.232,4.438 -8.232,11.81c-0,7.301 2.863,11.811 8.232,11.811Z" style="fill:#0a0a0a;fill-rule:nonzero;"></path><path d="M146.415,59.456c-10.665,-0 -16.821,-4.223 -16.964,-12.813l10.307,0c0,3.937 2.219,5.798 6.586,5.798c3.435,0 5.941,-1.503 5.941,-3.865c-0,-2.577 -2.649,-3.651 -6.013,-4.51c-3.078,-0.787 -6.872,-1.431 -9.95,-2.935c-3.435,-1.646 -6.155,-4.294 -6.155,-9.019c-0,-7.086 6.227,-11.595 16.033,-11.595c10.165,-0 15.82,4.223 15.82,12.311l-10.022,0c-0.214,-4.008 -2.219,-5.297 -6.155,-5.297c-3.222,0 -5.369,1.36 -5.369,3.579c0,3.007 2.505,3.722 11.381,5.584c7.516,1.574 11.024,5.225 11.024,10.808c-0,7.373 -6.228,11.954 -16.464,11.954Z" style="fill:#0a0a0a;fill-rule:nonzero;"></path><path d="M167.702,58.454l0,-36.935l10.093,-0l0,36.935l-10.093,-0Zm0,-42.232l0,-9.735l10.093,-0l0,9.735l-10.093,-0Z" style="fill:#0a0a0a;fill-rule:nonzero;"></path><path d="M199.387,59.456c-10.665,-0 -16.821,-4.223 -16.964,-12.813l10.307,0c0,3.937 2.219,5.798 6.585,5.798c3.436,0 5.942,-1.503 5.942,-3.865c-0,-2.577 -2.649,-3.651 -6.013,-4.51c-3.078,-0.787 -6.872,-1.431 -9.95,-2.935c-3.436,-1.646 -6.156,-4.294 -6.156,-9.019c0,-7.086 6.228,-11.595 16.034,-11.595c10.165,-0 15.819,4.223 15.819,12.311l-10.021,0c-0.215,-4.008 -2.219,-5.297 -6.156,-5.297c-3.221,0 -5.368,1.36 -5.368,3.579c-0,3.007 2.505,3.722 11.381,5.584c7.516,1.574 11.023,5.225 11.023,10.808c0,7.373 -6.227,11.954 -16.463,11.954Z" style="fill:#0a0a0a;fill-rule:nonzero;"></path><path d="M279.271,28.492c0,-1.962 -0.646,-3.746 -1.762,-5.161l-11.819,11.814c1.439,1.116 3.226,1.762 5.164,1.762c4.668,-0.003 8.442,-3.774 8.417,-8.415Zm-35.156,8.387c-4.644,0.025 -8.418,-3.748 -8.418,-8.414c0,-1.935 0.646,-3.722 1.763,-5.161l11.819,11.813c-1.415,1.117 -3.202,1.762 -5.164,1.762Zm-9.138,-16.008c-1.737,2.085 -2.78,4.715 -2.78,7.643c0,6.576 5.339,11.912 11.918,11.912c2.904,-0 5.561,-1.043 7.646,-2.78l5.736,5.732l5.735,-5.732c2.086,1.737 4.718,2.78 7.646,2.78c6.579,-0 11.918,-5.336 11.918,-11.912c-0,-2.903 -1.043,-5.56 -2.78,-7.643l2.682,-2.679l2.556,-2.556c2.98,4.912 4.691,10.645 4.691,16.802c0,17.919 -14.521,32.413 -32.424,32.413c-17.9,0 -32.425,-14.519 -32.425,-32.413c-0.049,-6.179 1.664,-11.912 4.644,-16.802l5.237,5.235Zm22.544,17.546l25.725,-25.712c-0.721,-0.919 -1.49,-1.811 -2.287,-2.654c-5.908,-6.179 -14.227,-10.051 -23.462,-10.051c-9.236,0 -17.577,3.872 -23.463,10.051c-0.819,0.818 -1.59,1.738 -2.236,2.63l25.723,25.736Zm19.914,-25.933l-19.936,19.93l-19.935,-19.93c5.287,-5.336 12.339,-8.264 19.935,-8.264c7.597,-0 14.622,2.928 19.936,8.264Z" style="fill:#0a0a0a;fill-rule:nonzero;"></path></svg> 