<?xml version="1.0" encoding="UTF-8" standalone="no"?> <svg xmlns="http://www.w3.org/2000/svg" xmlns:xlink="http://www.w3.org/1999/xlink" xmlns:serif="http://www.serif.com/" width="100%" height="100%" viewBox="0 0 260 41" version="1.1" xml:space="preserve" style="fill-rule:evenodd;clip-rule:evenodd;stroke-linejoin:round;stroke-miterlimit:2;"><path d="M101.119,19.54l-1.417,12.188c-2.411,1.949 -6.315,3.286 -10.18,3.286c-6.277,0 -11.138,-3.668 -11.138,-11.348c0,-9.093 5.779,-16.506 14.314,-16.506c3.789,0 7.349,1.682 9.301,4.929l-4.708,3.592c-1.033,-1.528 -2.679,-2.751 -4.937,-2.751c-4.555,-0 -7.502,5.005 -7.502,10.393c0,3.973 1.914,6.036 5.091,6.036c1.416,0 2.717,-0.343 4.21,-1.299l0.497,-3.4l-4.516,-0l0.651,-5.12l10.334,-0Z" style="fill:#0a0a0a;fill-rule:nonzero;"></path><path d="M125.262,23.475c-1.034,8.406 -4.899,11.539 -11.559,11.539c-6.238,0 -8.994,-3.668 -8.994,-9.628c-0,-0.917 0.076,-1.872 0.191,-2.828l1.876,-15.015l6.085,-0l-1.837,14.977c-0.077,0.803 -0.153,1.567 -0.153,2.254c-0,2.675 0.88,4.509 3.291,4.509c2.756,-0 4.44,-1.452 4.976,-5.96l1.952,-15.78l6.124,-0l-1.952,15.932Z" style="fill:#0a0a0a;fill-rule:nonzero;"></path><path d="M142.453,34.67l-0.804,-5.005l-8.114,0l-2.028,5.005l-6.43,0l12.247,-27.127l5.894,-0l5.588,27.127l-6.353,0Zm-6.813,-10.201l5.167,-0l-1.416,-9.017l-0.077,-0l-3.674,9.017Z" style="fill:#0a0a0a;fill-rule:nonzero;"></path><path d="M166.751,24.698l-0,0.038l4.555,9.934l-6.813,0l-3.751,-8.864l-2.105,0l-1.072,8.864l-6.008,0l3.329,-27.127l9.683,-0c5.435,-0 7.693,3.133 7.693,7.488c-0,4.509 -1.951,7.986 -5.511,9.667Zm-6.545,-11.768l-0.918,7.489l2.411,-0c2.564,-0 4.172,-1.987 4.172,-4.7c-0,-1.949 -1.302,-2.789 -2.832,-2.789l-2.833,-0Z" style="fill:#0a0a0a;fill-rule:nonzero;"></path><path d="M182.813,34.67l-8.382,0l3.33,-27.127l8.573,-0c7.502,-0 11.214,4.393 11.214,11.271c-0,9.399 -5.511,15.856 -14.735,15.856Zm0.727,-5.463c5.052,-0 7.655,-4.585 7.655,-10.278c-0,-3.745 -1.723,-5.923 -5.55,-5.923l-2.564,0l-1.991,16.201l2.45,-0Z" style="fill:#0a0a0a;fill-rule:nonzero;"></path><path d="M206.164,34.67l-6.2,0l3.291,-27.127l6.239,-0l-3.33,27.127Z" style="fill:#0a0a0a;fill-rule:nonzero;"></path><path d="M226.363,34.67l-0.804,-5.005l-8.114,0l-2.028,5.005l-6.43,0l12.247,-27.127l5.894,-0l5.588,27.127l-6.353,0Zm-6.813,-10.201l5.167,-0l-1.416,-9.017l-0.076,-0l-3.675,9.017Z" style="fill:#0a0a0a;fill-rule:nonzero;"></path><path d="M253.876,7.543l6.124,-0l-3.368,27.127l-6.315,0l-6.736,-16.047l-0.039,0l-1.99,16.047l-6.085,0l3.329,-27.127l6.124,-0l6.851,16.467l0.077,0l2.028,-16.467Z" style="fill:#0a0a0a;fill-rule:nonzero;"></path><path d="M43.485,0c-0.056,0 -0.106,0.028 -0.132,0.074c-3.386,6.028 -8.268,14.717 -11.951,21.262l-8.402,0c-0.107,0 -0.207,0.056 -0.26,0.145l-3.533,5.933c-0.057,0.096 0.015,0.214 0.13,0.214l8.47,0c-0.928,1.518 -1.871,2.875 -2.924,3.986c-1.907,2.012 -4.613,3.22 -8.387,2.852c-5.436,-0.529 -8.887,-5.472 -8.887,-10.953c-0,-3.342 2.566,-8.296 5.526,-10.335c3.487,-2.403 8.249,-3.065 13.622,-0.023c0.143,0.081 0.329,0.04 0.416,-0.095l3.228,-5.032c0.081,-0.125 0.047,-0.29 -0.077,-0.377c-6.993,-4.877 -15.83,-3.609 -21.417,0.182c-5.377,3.647 -8.504,8.802 -8.876,15.458c-0.528,9.436 5.808,16.78 16.118,17.64c6.074,0.507 10.748,-1.855 14.004,-5.033c2.507,-2.448 3.896,-4.961 5.284,-7.473l0.001,-0.001c0.724,-1.31 3.048,-5.174 3.048,-5.174l-1.188,4.014c-0.054,0.183 0.09,0.364 0.289,0.364l12.023,0l1.255,4.759c0.016,0.063 0.076,0.108 0.145,0.108l6.782,-0c0.098,-0 0.17,-0.088 0.146,-0.179l-8.678,-32.209c-0.017,-0.063 -0.076,-0.107 -0.145,-0.107l-5.63,0Zm4.467,21.336l-2.742,-10.405c-0,0 -2.712,4.86 -5.457,9.773l-0.246,0.42c-0.056,0.095 0.017,0.212 0.131,0.212l8.314,0Z" style="fill:#0a0a0a;"></path></svg> 