<?xml version="1.0" encoding="UTF-8" standalone="no"?> <svg xmlns="http://www.w3.org/2000/svg" xmlns:xlink="http://www.w3.org/1999/xlink" xmlns:serif="http://www.serif.com/" width="100%" height="100%" viewBox="0 0 284 67" version="1.1" xml:space="preserve" style="fill-rule:evenodd;clip-rule:evenodd;stroke-linejoin:round;stroke-miterlimit:2;"><path d="M84.435,0l-0,18.093l-6.031,0l-0,-18.093l-6.032,0l0,18.093l-6.031,0l0,-18.093l-6.031,0l0,18.093l-30.155,0l0,-18.093l-6.031,0l0,24.124l60.311,0l-0,6.031l-66.342,0l0,-30.155l-6.031,0l0,30.155l-6.031,0l0,-30.155l-6.031,0l-0,66.341l6.031,0l0,-18.093l6.031,0l0,18.093l6.031,0l0,-18.093l6.031,0l0,18.093l6.031,0l0,-18.093l30.155,0l0,18.093l6.031,0l0,-24.124l-60.31,0l0,-6.031l66.341,0l0,30.155l6.032,0l-0,-30.155l6.031,0l-0,30.155l6.031,0l-0,-66.341l-6.031,0Z" style="fill:#3ef2d0;fill-rule:nonzero;"></path><path d="M131.217,24.124l-0,6.548l-14.731,-0l-0,-6.548l-4.912,0l0,18.007l4.912,-0l-0,-6.548l14.731,0l-0,6.548l4.911,-0l0,-18.007l-4.911,0Z" style="fill:#3ef2d0;fill-rule:nonzero;"></path><rect x="219.617" y="35.583" width="4.912" height="6.547" style="fill:#3ef2d0;fill-rule:nonzero;"></rect><path d="M224.528,24.124l-4.911,0l-0,6.548l-14.735,-0l-0,-6.548l-4.912,0l0,18.007l4.912,-0l-0,-6.548l14.735,0l4.911,-4.911l0,-6.548Z" style="fill:#3ef2d0;fill-rule:nonzero;"></path><path d="M165.597,24.124l-24.557,0l-0,18.007l4.911,-0l0,-6.548l14.735,0l-0,6.548l4.911,-0l0,-18.007Zm-19.646,6.548l0,-1.636l14.735,-0l-0,1.636l-14.735,-0Z" style="fill:#3ef2d0;fill-rule:nonzero;"></path><path d="M195.063,29.036l-0,-4.912l-24.558,0l0,18.007l24.558,-0l-0,-4.912l-19.646,0l-0,-8.183l19.646,-0Z" style="fill:#3ef2d0;fill-rule:nonzero;"></path><path d="M253.993,29.036l0,-4.912l-24.553,0l-0,18.007l24.553,-0l0,-4.912l-19.646,0l0,-1.636l19.646,0l0,-4.911l-19.646,-0l0,-1.636l19.646,-0Z" style="fill:#3ef2d0;fill-rule:nonzero;"></path><path d="M278.547,24.124l0,11.459l-14.731,-11.459l-4.911,0l-0,18.007l4.911,-0l0,-11.459l14.731,11.459l4.912,-0l-0,-18.007l-4.912,0Z" style="fill:#3ef2d0;fill-rule:nonzero;"></path></svg> 