<?xml version="1.0" encoding="UTF-8" standalone="no"?> <svg xmlns="http://www.w3.org/2000/svg" xmlns:xlink="http://www.w3.org/1999/xlink" xmlns:serif="http://www.serif.com/" width="100%" height="100%" viewBox="0 0 234 24" version="1.1" xml:space="preserve" style="fill-rule:evenodd;clip-rule:evenodd;stroke-linejoin:round;stroke-miterlimit:2;"><path d="M208.382,0l-5.681,0l-5.31,24l5.681,0l5.31,-24Z" style="fill:#0a0a0a;fill-rule:nonzero;"></path><path d="M233.001,0l-5.682,0l-5.309,24l5.681,0l5.31,-24Z" style="fill:#0a0a0a;fill-rule:nonzero;"></path><path d="M214.062,0l7.947,24l-5.682,0l-7.946,-24l5.681,0Z" style="fill:#0a0a0a;fill-rule:nonzero;"></path><path d="M73.54,18.315l4.052,-18.315l-5.681,0l-5.309,24l30.299,0l1.258,-5.685l-24.619,0Z" style="fill:#0a0a0a;fill-rule:nonzero;"></path><path d="M104.609,0l-5.31,24l21.134,0c5.062,0 10.074,-4.107 11.194,-9.172l-4.423,-5.685l5.681,0c1.117,-5.049 -2.068,-9.143 -7.114,-9.143l-21.162,0l-0,0Zm17.111,18.315l-15.482,-0l0.771,-3.487l18.938,-0l-0.006,0.029c-0.423,1.909 -2.313,3.458 -4.221,3.458Zm5.485,-9.172l-18.938,0l0.765,-3.458l15.482,-0c1.909,-0 3.113,1.548 2.691,3.458Z" style="fill:#0a0a0a;fill-rule:nonzero;"></path><path d="M194.991,24l2.029,-9.172l-4.423,-5.685l5.681,0c1.117,-5.049 -2.068,-9.143 -7.114,-9.143l-21.163,0l-5.31,24l5.681,-0l2.03,-9.172l18.937,-0l-2.029,9.172l5.681,-0l-0,0Zm-2.394,-14.857l-18.938,0l0.766,-3.458l15.481,0c1.909,0 3.113,1.549 2.691,3.458Z" style="fill:#0a0a0a;fill-rule:nonzero;"></path><path d="M137.304,0l-5.31,24l30.3,0l5.31,-24l-30.3,0Zm20.566,18.315l-18.937,0l2.794,-12.63l18.938,0l-2.795,12.63Z" style="fill:#0a0a0a;fill-rule:nonzero;"></path><path d="M53.762,0l-6.284,0l-14.779,24l5.681,0l15.382,-24l6.283,0l4.159,24l-5.681,0l-4.761,-24Z" style="fill:#0a0a0a;fill-rule:nonzero;"></path><path d="M29.928,0l-2.025,9.158l-18.938,-0l2.026,-9.158l-5.681,0l-5.31,24l5.681,0l3.284,-14.842l4.423,5.685l13.257,-0l-2.027,9.157l5.682,0l5.309,-24l-5.681,0Z" style="fill:#0a0a0a;fill-rule:nonzero;"></path></svg> 