<?xml version="1.0" encoding="UTF-8" standalone="no"?> <svg xmlns="http://www.w3.org/2000/svg" xmlns:xlink="http://www.w3.org/1999/xlink" xmlns:serif="http://www.serif.com/" width="100%" height="100%" viewBox="0 0 135 32" version="1.1" xml:space="preserve" style="fill-rule:evenodd;clip-rule:evenodd;stroke-linejoin:round;stroke-miterlimit:2;"><path d="M40.866,24l0,-16.8l5.318,0l-0,5.87l4.724,-0l-0,-5.87l5.317,0l0,16.8l-5.317,0l-0,-5.869l-4.724,-0l-0,5.869l-5.318,0Z" style="fill:#0249f2;fill-rule:nonzero;"></path><path d="M70.556,7.2l6.146,16.8l-5.574,0l-3.36,-10.226l-3.384,10.226l-5.6,0l6.172,-16.8l5.6,0Z" style="fill:#0249f2;fill-rule:nonzero;"></path><path d="M79.65,24l-6.147,-16.8l5.574,0l3.36,10.226l3.384,-10.226l5.6,0l-6.172,16.8l-5.599,0Z" style="fill:#0249f2;fill-rule:nonzero;"></path><path d="M109.019,24l-0,-16.8l4.477,0l5.244,7.748l-0,-7.748l5.317,0l-0,16.8l-4.526,0l-5.194,-7.722l-0,7.722l-5.318,0Z" style="fill:#0249f2;fill-rule:nonzero;"></path><path d="M129.292,24l-0,-11.405l-2.675,0.411l-0,-4.599l7.999,-1.207l-0,16.8l-5.324,0Z" style="fill:#0249f2;fill-rule:nonzero;"></path><rect x="93.981" y="7.2" width="12.478" height="4.032" style="fill:#0249f2;fill-rule:nonzero;"></rect><rect x="93.981" y="13.584" width="12.478" height="4.032" style="fill:#0249f2;fill-rule:nonzero;"></rect><rect x="93.981" y="19.968" width="12.478" height="4.032" style="fill:#0249f2;fill-rule:nonzero;"></rect><path d="M15.625,-0c-8.629,-0 -15.625,6.984 -15.625,15.6c-0,8.616 6.996,15.6 15.625,15.6c8.629,-0 15.625,-6.984 15.625,-15.6c0,-8.616 -6.996,-15.6 -15.625,-15.6Zm-3.945,18.692l-0.665,-1.08c-0.757,-1.23 -0.757,-2.796 -0,-4.026l0.665,-1.08c1.257,-2.044 -0.176,-4.707 -2.535,-4.707c-0.737,0 -1.333,0.612 -1.333,1.366l-0,12.868c-0,0.755 0.597,1.366 1.333,1.366c2.359,-0 3.792,-2.663 2.535,-4.707Zm1.713,-3.094c0,1.363 1.078,2.465 2.407,2.465c1.33,0 2.406,-1.102 2.406,-2.465c0,-1.362 -1.076,-2.465 -2.406,-2.465c-1.33,-0 -2.407,1.103 -2.407,2.465Zm8.709,7.801c0.738,-0 1.333,-0.612 1.333,-1.366l0,-12.868c0,-0.755 -0.597,-1.366 -1.333,-1.366c-2.359,0 -3.792,2.663 -2.535,4.707l0.665,1.08c0.757,1.23 0.757,2.796 0,4.026l-0.665,1.08c-1.257,2.044 0.176,4.707 2.535,4.707Z" style="fill:#0249f2;"></path></svg> 