<?xml version="1.0" encoding="UTF-8" standalone="no"?> <svg xmlns="http://www.w3.org/2000/svg" xmlns:xlink="http://www.w3.org/1999/xlink" xmlns:serif="http://www.serif.com/" width="100%" height="100%" viewBox="0 0 82 24" version="1.1" xml:space="preserve" style="fill-rule:evenodd;clip-rule:evenodd;stroke-linejoin:round;stroke-miterlimit:2;"><path d="M74.725,2.561l7.08,0l0,-2.561l-8.135,0l-3.365,3.365l0,4.293l8.939,0l0,2.561l-8.939,0l0,2.561l11.5,0l0,-7.683l-8.939,0l0,-0.678l1.858,-1.858Z" style="fill:#0a0a0a;fill-rule:nonzero;"></path><path d="M56.244,3.365l0,9.416l2.561,-0.001l0,-8.361l1.858,-1.858l4.52,0l0,10.22l2.561,-0.001l0,-12.78l-8.135,0l-3.365,3.365Z" style="fill:#0a0a0a;fill-rule:nonzero;"></path><path d="M14.061,13.584l0,9.416l11.5,-0l0,-2.561l-8.939,-0l0,-2.561l8.939,-0l0,-7.659l-8.135,0l-3.365,3.365Zm8.939,-0.804l0,2.561l-6.403,0l0,-0.678l1.858,-1.858l4.545,0.001l0,-0.026Z" style="fill:#0a0a0a;fill-rule:nonzero;"></path><path d="M42.183,3.365l0,9.416l11.5,-0.001l0,-2.561l-8.938,0l-0,-2.561l8.938,0l0,-7.658l-8.135,-0l-3.365,3.365Zm8.939,-0.804l0,2.561l-6.403,0l0,-0.678l1.858,-1.858l4.545,0l0,-0.025Z" style="fill:#0a0a0a;fill-rule:nonzero;"></path><path d="M2.561,11.023l0,-8.462l-2.561,0l0,20.439l2.561,0l0,-8.361l1.858,-1.858l4.52,-0l-0,10.219l2.561,0l-0,-12.781l-8.135,0.001l-0.804,0.803Z" style="fill:#0a0a0a;fill-rule:nonzero;"></path><path d="M30.683,0l-3.842,0l-3.841,3.842l-0,3.816l2.561,0l-0,-2.762l2.335,-2.335l2.787,0l0,-2.561Z" style="fill:#0a0a0a;fill-rule:nonzero;"></path><path d="M42.183,18.104l-2.335,2.335l-2.787,-0l-0,2.561l3.842,-0l3.841,-3.842l0,-3.816l-2.561,-0l0,2.762Z" style="fill:#0a0a0a;fill-rule:nonzero;"></path><path d="M37.061,17.903l2.562,-0l-0,-3.465l-3.691,-2.938l3.691,-2.938l-0,-3.465l-2.562,0l0,2.235l-3.188,2.536l-3.189,-2.536l-0,-2.235l-2.561,0l-0,3.465l3.691,2.938l-3.691,2.938l-0,3.465l2.561,-0l-0,-2.235l3.189,-2.536l3.188,2.536l0,2.235Z" style="fill:#0a0a0a;fill-rule:nonzero;"></path></svg> 