<?xml version="1.0" encoding="UTF-8" standalone="no"?> <svg xmlns="http://www.w3.org/2000/svg" xmlns:xlink="http://www.w3.org/1999/xlink" xmlns:serif="http://www.serif.com/" width="100%" height="100%" viewBox="0 0 195 42" version="1.1" xml:space="preserve" style="fill-rule:evenodd;clip-rule:evenodd;stroke-linejoin:round;stroke-miterlimit:2;"><path d="M10.86,17.694l13.456,13.761l13.312,-13.614l10.914,11.163l-12.681,12.969l-3.262,-3.248l9.506,-9.721l-4.477,-4.579l-13.312,13.614l-13.456,-13.761l-4.422,4.523l9.65,9.869l-3.262,3.248l-12.826,-13.117l10.86,-11.107Z" style="fill:#db138f;"></path><path d="M37.682,24.278l-13.455,-13.761l-13.312,13.614l-10.915,-11.162l12.682,-12.969l3.262,3.247l-9.506,9.722l4.477,4.578l13.312,-13.613l13.455,13.76l4.423,-4.522l-9.651,-9.87l3.263,-3.247l12.826,13.117l-10.861,11.106Z" style="fill:#db138f;"></path><rect x="22.218" y="32.98" width="4.394" height="8.67" style="fill:#db138f;"></rect><rect x="22.218" y="0.323" width="4.394" height="8.67" style="fill:#db138f;"></rect><rect x="58.97" y="10.236" width="4.378" height="22.147" style="fill:#0a0a0a;"></rect><path d="M85.558,16.08c-1.99,-0 -3.889,0.861 -4.838,2.738c-0.979,-1.877 -2.817,-2.738 -4.96,-2.738c-1.929,-0 -3.398,0.738 -4.164,2.061l-0.459,-1.753l-3.981,-0l0,15.995l4.287,-0l0,-8.951c0,-2.369 1.225,-3.507 3.031,-3.507c1.715,-0 2.878,1.077 2.878,3.691l0,8.767l4.134,0l0,-8.859c0.061,-2.492 1.347,-3.599 3.031,-3.599c1.745,0 2.878,1.077 2.878,3.476l0,9.013l4.317,0l0,-9.874c0,-4.43 -2.97,-6.46 -6.154,-6.46Z" style="fill:#0a0a0a;fill-rule:nonzero;"></path><path d="M113.515,16.08c-1.991,-0 -3.888,0.861 -4.837,2.738c-0.981,-1.877 -2.818,-2.738 -4.961,-2.738c-1.929,-0 -3.398,0.738 -4.164,2.061l-0.459,-1.753l-3.98,-0l0,15.995l4.286,-0l0,-8.951c0,-2.369 1.225,-3.507 3.031,-3.507c1.715,-0 2.878,1.077 2.878,3.691l0,8.767l4.134,0l0,-8.859c0.06,-2.492 1.347,-3.599 3.031,-3.599c1.745,0 2.878,1.077 2.878,3.476l0,9.013l4.318,0l0,-9.874c0,-4.43 -2.97,-6.46 -6.155,-6.46Z" style="fill:#0a0a0a;fill-rule:nonzero;"></path><path d="M133.511,16.388l0,8.766c0,2.369 -1.102,3.784 -3.215,3.815c-2.02,0.061 -3.306,-1.139 -3.306,-3.63l0,-8.951l-4.072,0l0,9.505c0,4.091 2.356,6.798 6.43,6.798c1.897,0 3.275,-0.862 4.102,-2.061l0.215,1.753l3.918,0l0,-15.995l-4.072,0Z" style="fill:#0a0a0a;fill-rule:nonzero;"></path><path d="M150.162,16.08c-2.388,-0 -3.98,0.892 -4.807,2.215l-0.245,-1.907l-3.98,-0l0,15.995l4.287,-0l0,-8.459c0,-2.584 1.224,-4.153 3.49,-4.153c2.082,-0 3.338,1.354 3.338,3.999l0,8.613l4.317,0l0,-9.505c0,-4.091 -2.327,-6.798 -6.4,-6.798Z" style="fill:#0a0a0a;fill-rule:nonzero;"></path><path d="M175.308,24.139c0,-4.891 -3.154,-8.059 -7.9,-8.059c-4.746,0 -7.929,3.322 -7.929,8.305c0,5.014 3.183,8.336 7.96,8.336c4.011,0 7.042,-2.245 7.746,-5.567l-4.317,0c-0.489,1.384 -1.745,2.091 -3.307,2.091c-2.051,0 -3.705,-1.322 -3.765,-3.691l11.512,0l0,-1.415Zm-7.9,-4.706c1.868,0 3.43,1.077 3.613,3.291l-7.195,0c0.184,-2.214 1.746,-3.291 3.582,-3.291Z" style="fill:#0a0a0a;fill-rule:nonzero;"></path><path d="M176.982,16.388l0,3.752l2.449,0l0,12.243l4.317,0l0,-12.243l3.644,0l0,-3.752l-3.644,0l0,-1.631c0,-1.138 0.306,-1.999 2.051,-1.999l1.593,0l0,-3.507l-2.541,0c-4.012,0 -5.42,1.969 -5.42,5.076l0,2.061l-2.449,0Z" style="fill:#0a0a0a;fill-rule:nonzero;"></path><path d="M190.223,13.927l4.347,0l0.062,-4.676l-4.347,0l-0.062,4.676Zm0.062,18.456l4.285,0l0,-15.995l-4.285,0l0,15.995Z" style="fill:#0a0a0a;fill-rule:nonzero;"></path></svg> 