<?xml version="1.0" encoding="UTF-8" standalone="no"?> <svg xmlns="http://www.w3.org/2000/svg" xmlns:xlink="http://www.w3.org/1999/xlink" xmlns:serif="http://www.serif.com/" width="100%" height="100%" viewBox="0 0 157 24" version="1.1" xml:space="preserve" style="fill-rule:evenodd;clip-rule:evenodd;stroke-linejoin:round;stroke-miterlimit:2;"><path d="M13.092,0l13.425,7.714l0,7.715l-13.426,-7.715l-0,-7.714l0.001,0Z" style="fill:url(#_Linear1);fill-rule:nonzero;"></path><path d="M13.092,24l13.425,-7.636l0,-7.637l-13.425,7.637l0,7.636Z" style="fill:url(#_Linear2);fill-rule:nonzero;"></path><path d="M13.092,0l-13.092,7.714l0,7.715l13.092,-7.715l0,-7.714Z" style="fill:url(#_Linear3);fill-rule:nonzero;"></path><path d="M13.092,24l-13.092,-7.636l0,-7.637l13.092,7.637l0,7.636Z" style="fill:url(#_Linear4);fill-rule:nonzero;"></path><path d="M42.653,19.506l2.253,0l0,-15.202l-2.253,0l0,15.202Zm4.641,-6.977l0,-1.829l4.05,-6.395l2.48,0l-4.664,7.213l0,0.043l4.96,7.946l-2.55,0l-4.277,-6.977l0.001,-0.001Zm21.864,-8.225l-3.14,11.154c-0.227,0.84 -0.34,1.615 -0.34,1.615l-0.046,0c0,0 -0.09,-0.797 -0.296,-1.615l-2.843,-11.154l-2.321,0l4.095,15.202l2.616,0l2.776,-9.862c0.273,-0.969 0.478,-2.153 0.478,-2.153l0.045,0c0,0 0.205,1.184 0.478,2.153l2.775,9.862l2.617,0l4.208,-15.202l-2.32,0l-2.958,11.154c-0.227,0.818 -0.295,1.615 -0.295,1.615l-0.046,0c0,0 -0.114,-0.775 -0.341,-1.615l-3.14,-11.154l-2.002,0Zm28.512,15.202l-9.714,0l0,-15.202l9.327,0l0,1.852l-7.075,0l0,4.758l5.756,0l0,1.852l-5.756,0l0,4.888l7.462,0l0,1.852Zm8.104,0l2.253,0l0,-9.862c0,-0.861 -0.159,-2.218 -0.159,-2.218l0.045,0c0,0 0.751,1.378 1.342,2.218l7.167,9.862l2.206,0l0,-15.202l-2.252,0l0,9.883c0,0.84 0.159,2.197 0.159,2.197l-0.045,0c0,0 -0.751,-1.378 -1.342,-2.197l-7.144,-9.883l-2.23,0l0,15.202Zm27.684,0l-2.253,0l0,-13.35l-5.505,0l0,-1.852l13.263,0l0,1.852l-5.505,0l0,13.35Zm21.176,0l2.343,0l-5.779,-15.202l-2.366,0l-5.778,15.202l2.32,0l1.569,-4.306l0.615,-1.83l1.798,-4.824c0.273,-0.775 0.637,-2.154 0.637,-2.154l0.045,0c-0,0 0.341,1.379 0.614,2.154l1.775,4.823l0.001,0l0.611,1.82l1.595,4.317Z" style="fill:#0a0a0a;"></path><defs><linearGradient id="_Linear1" x1="0" y1="0" x2="1" y2="0" gradientUnits="userSpaceOnUse" gradientTransform="matrix(-33.102,4.05383e-15,-4.05383e-15,-33.102,37.963,7.671)"><stop offset="0" style="stop-color:#996939;stop-opacity:1"></stop><stop offset="1" style="stop-color:#d0a875;stop-opacity:1"></stop></linearGradient><linearGradient id="_Linear2" x1="0" y1="0" x2="1" y2="0" gradientUnits="userSpaceOnUse" gradientTransform="matrix(2.924,-29.247,29.247,2.924,19.805,24)"><stop offset="0" style="stop-color:#272728;stop-opacity:1"></stop><stop offset="1" style="stop-color:#4b4b4b;stop-opacity:1"></stop></linearGradient><linearGradient id="_Linear3" x1="0" y1="0" x2="1" y2="0" gradientUnits="userSpaceOnUse" gradientTransform="matrix(-12.619,10.446,-10.446,-12.619,13.173,3.163)"><stop offset="0" style="stop-color:#996939;stop-opacity:1"></stop><stop offset="1" style="stop-color:#d0a875;stop-opacity:1"></stop></linearGradient><linearGradient id="_Linear4" x1="0" y1="0" x2="1" y2="0" gradientUnits="userSpaceOnUse" gradientTransform="matrix(9.35202e-16,-15.273,15.273,9.35202e-16,6.546,24)"><stop offset="0" style="stop-color:#363636;stop-opacity:1"></stop><stop offset="1" style="stop-color:#333232;stop-opacity:1"></stop></linearGradient></defs></svg> 