<?xml version="1.0" encoding="UTF-8" standalone="no"?> <svg xmlns="http://www.w3.org/2000/svg" xmlns:xlink="http://www.w3.org/1999/xlink" xmlns:serif="http://www.serif.com/" width="100%" height="100%" viewBox="0 0 200 54" version="1.1" xml:space="preserve" style="fill-rule:evenodd;clip-rule:evenodd;stroke-linejoin:round;stroke-miterlimit:2;"><g><clipPath id="_clip1"><rect x="0" y="0" width="200" height="54"></rect></clipPath><g clip-path="url(#_clip1)"><path d="M15.222,0c-2.009,0.01 -3.997,0.415 -5.849,1.191c-1.853,0.777 -3.534,1.91 -4.947,3.335c-1.414,1.426 -2.532,3.115 -3.291,4.971c-0.76,1.857 -1.145,3.844 -1.135,5.849l0,5.07l12.368,-0l-0,-7.345c-0,-0.345 0.068,-0.686 0.2,-1.005c0.132,-0.318 0.326,-0.608 0.57,-0.852c0.244,-0.244 0.535,-0.437 0.854,-0.569c0.319,-0.132 0.661,-0.2 1.007,-0.2l0.446,0c0.345,0 0.688,0.068 1.007,0.2c0.319,0.132 0.609,0.325 0.854,0.569c0.244,0.244 0.438,0.534 0.57,0.852c0.132,0.319 0.2,0.66 0.2,1.005l0,19.688c1.625,-0 3.233,-0.319 4.733,-0.939c1.501,-0.621 2.864,-1.53 4.013,-2.676c1.148,-1.146 2.059,-2.507 2.681,-4.005c0.621,-1.497 0.941,-3.103 0.941,-4.723l0,-5.07c0.009,-4.062 -1.594,-7.964 -4.459,-10.85c-1.405,-1.425 -3.081,-2.556 -4.929,-3.328c-1.847,-0.772 -3.831,-1.169 -5.834,-1.168Z" style="fill:#0a0a0a;fill-rule:nonzero;"></path><path d="M15.445,42.725l-0.446,-0c-0.345,-0 -0.687,-0.068 -1.006,-0.2c-0.32,-0.132 -0.61,-0.326 -0.854,-0.569c-0.244,-0.244 -0.438,-0.534 -0.57,-0.852c-0.133,-0.319 -0.201,-0.66 -0.201,-1.005l0,-19.688c-1.624,0 -3.232,0.319 -4.733,0.94c-1.5,0.62 -2.864,1.529 -4.012,2.675c-1.149,1.146 -2.06,2.507 -2.681,4.005c-0.622,1.498 -0.941,3.103 -0.941,4.724l-0,4.998c-0.021,2.008 0.358,4.001 1.113,5.862c0.756,1.861 1.874,3.554 3.29,4.982c1.415,1.427 3.1,2.56 4.957,3.333c1.857,0.774 3.85,1.172 5.862,1.172c2.012,-0 4.004,-0.398 5.861,-1.172c1.857,-0.773 3.542,-1.906 4.958,-3.333c1.415,-1.428 2.533,-3.121 3.289,-4.982c0.756,-1.861 1.134,-3.854 1.113,-5.862l0,-4.998l-12.367,-0l0,7.344c0,0.345 -0.068,0.686 -0.2,1.005c-0.133,0.318 -0.327,0.608 -0.571,0.852c-0.244,0.244 -0.534,0.437 -0.854,0.569c-0.319,0.132 -0.661,0.2 -1.007,0.2Z" style="fill:#0a0a0a;fill-rule:nonzero;"></path><path d="M51.585,15.585l-4.335,-0l0,21.947l12.723,-0l-0,-4.138l-8.388,-0l-0,-17.809Z" style="fill:#0a0a0a;fill-rule:nonzero;"></path><path d="M73.854,23.713c-0.611,-0.758 -1.394,-1.361 -2.284,-1.759c-0.89,-0.398 -1.862,-0.579 -2.836,-0.53c-1.018,-0.008 -2.025,0.202 -2.955,0.616c-0.929,0.414 -1.759,1.022 -2.433,1.784c-1.446,1.617 -2.246,3.71 -2.246,5.878c0,2.169 0.8,4.261 2.246,5.879c0.674,0.761 1.504,1.369 2.434,1.783c0.929,0.413 1.936,0.623 2.954,0.615c2.199,0 3.906,-0.763 5.12,-2.288l0,1.85l4.053,-0l0,-15.677l-4.053,0l0,1.849Zm-1.24,9.171c-0.409,0.409 -0.897,0.729 -1.434,0.942c-0.538,0.213 -1.114,0.314 -1.692,0.297c-0.576,0.018 -1.149,-0.082 -1.684,-0.296c-0.536,-0.213 -1.021,-0.534 -1.426,-0.943c-0.789,-0.873 -1.225,-2.007 -1.225,-3.182c-0,-1.176 0.436,-2.31 1.225,-3.183c0.405,-0.409 0.891,-0.73 1.426,-0.943c0.535,-0.213 1.109,-0.313 1.684,-0.295c0.578,-0.017 1.154,0.084 1.691,0.297c0.538,0.213 1.026,0.533 1.435,0.941c0.798,0.869 1.24,2.004 1.24,3.183c0,1.178 -0.442,2.314 -1.24,3.182Z" style="fill:#0a0a0a;fill-rule:nonzero;"></path><path d="M88.351,32.387l-4.097,-10.536l-4.429,-0l6.438,15.175c-0.27,0.906 -0.799,1.712 -1.524,2.32c-0.761,0.515 -1.675,0.759 -2.592,0.69l-0,3.763c1.788,0.165 3.577,-0.32 5.036,-1.365c1.348,-1.016 2.43,-2.642 3.248,-4.88l5.727,-15.702l-4.336,-0l-3.471,10.535Z" style="fill:#0a0a0a;fill-rule:nonzero;"></path><path d="M104.93,21.421c-1.104,-0.038 -2.205,0.152 -3.233,0.559c-1.027,0.408 -1.958,1.024 -2.735,1.809c-1.499,1.609 -2.33,3.726 -2.325,5.924c0.006,2.197 0.848,4.31 2.356,5.911c1.571,1.567 3.655,2.351 6.252,2.352c3.015,-0 5.298,-1.118 6.848,-3.354l-3.267,-1.882c-0.415,0.526 -0.953,0.944 -1.565,1.217c-0.613,0.273 -1.284,0.393 -1.953,0.35c-2.409,0 -3.886,-0.982 -4.43,-2.946l11.843,-0c0.101,-0.549 0.154,-1.105 0.157,-1.663c0.06,-2.183 -0.747,-4.302 -2.245,-5.894c-0.726,-0.779 -1.61,-1.395 -2.594,-1.806c-0.983,-0.411 -2.043,-0.608 -3.109,-0.577Zm-4.115,6.804c0.18,-0.921 0.68,-1.749 1.414,-2.336c0.779,-0.575 1.732,-0.869 2.701,-0.831c0.885,-0.011 1.751,0.264 2.467,0.784c0.761,0.585 1.271,1.437 1.429,2.383l-8.011,0Z" style="fill:#0a0a0a;fill-rule:nonzero;"></path><path d="M119.753,24.55l0,-2.697l-4.053,-0l0,15.677l4.053,-0l0,-7.494c0,-1.504 0.486,-2.581 1.46,-3.229c0.975,-0.648 2.155,-0.916 3.315,-0.753l0,-4.513c-1.019,-0.013 -2.022,0.247 -2.906,0.752c-0.873,0.506 -1.536,1.306 -1.869,2.257Z" style="fill:#0a0a0a;fill-rule:nonzero;"></path><path d="M144.284,18.979l0,-3.394l-14.415,-0l0,4.138l8.923,0l-9.155,14.352l0,3.456l14.822,-0l0,-4.138l-9.33,0l9.155,-14.414Z" style="fill:#0a0a0a;fill-rule:nonzero;"></path><path d="M154.031,21.421c-1.105,-0.038 -2.206,0.152 -3.233,0.559c-1.027,0.408 -1.959,1.024 -2.735,1.809c-1.5,1.609 -2.331,3.726 -2.325,5.924c0.005,2.197 0.848,4.31 2.356,5.911c1.571,1.567 3.655,2.351 6.251,2.352c3.015,-0 5.298,-1.118 6.849,-3.354l-3.268,-1.882c-0.415,0.526 -0.952,0.943 -1.565,1.216c-0.613,0.274 -1.283,0.394 -1.953,0.351c-2.409,0 -3.885,-0.982 -4.429,-2.946l11.843,-0c0.101,-0.549 0.154,-1.105 0.157,-1.663c0.059,-2.183 -0.747,-4.302 -2.246,-5.894c-0.726,-0.779 -1.61,-1.395 -2.593,-1.806c-0.983,-0.411 -2.043,-0.608 -3.109,-0.577Zm-4.115,6.804c0.18,-0.921 0.68,-1.749 1.414,-2.336c0.78,-0.576 1.732,-0.869 2.701,-0.831c0.886,-0.012 1.751,0.263 2.467,0.784c0.761,0.585 1.272,1.437 1.428,2.383l-8.01,0Z" style="fill:#0a0a0a;fill-rule:nonzero;"></path><path d="M168.853,24.55l0,-2.697l-4.053,-0l0,15.677l4.053,-0l0,-7.494c0,-1.504 0.486,-2.581 1.461,-3.229c0.974,-0.648 2.153,-0.916 3.313,-0.753l0,-4.513c-1.017,-0.013 -2.022,0.247 -2.905,0.752c-0.874,0.506 -1.536,1.306 -1.869,2.257Z" style="fill:#0a0a0a;fill-rule:nonzero;"></path><path d="M182.869,21.419c-1.902,0.02 -3.738,0.697 -5.195,1.916c-1.458,1.218 -2.45,2.903 -2.803,4.767c-0.356,1.864 -0.053,3.794 0.856,5.461c0.908,1.667 2.368,2.969 4.128,3.685c1.761,0.715 3.716,0.8 5.534,0.24c1.816,-0.56 3.382,-1.73 4.434,-3.312c1.051,-1.582 1.52,-3.478 1.329,-5.366c-0.192,-1.888 -1.032,-3.652 -2.377,-4.992c-0.768,-0.783 -1.688,-1.399 -2.704,-1.812c-1.016,-0.413 -2.106,-0.613 -3.202,-0.588Zm3.046,11.382c-0.396,0.4 -0.872,0.715 -1.396,0.925c-0.524,0.21 -1.085,0.311 -1.65,0.296c-0.563,0.016 -1.123,-0.084 -1.645,-0.294c-0.521,-0.211 -0.995,-0.526 -1.389,-0.927c-0.777,-0.848 -1.209,-1.955 -1.209,-3.104c0,-1.15 0.432,-2.257 1.209,-3.105c0.394,-0.401 0.868,-0.716 1.389,-0.926c0.522,-0.21 1.082,-0.311 1.645,-0.295c0.565,-0.015 1.125,0.086 1.65,0.296c0.524,0.21 1,0.525 1.396,0.925c0.788,0.843 1.226,1.952 1.226,3.105c0,1.152 -0.438,2.261 -1.226,3.104Z" style="fill:#0a0a0a;fill-rule:nonzero;"></path><rect x="194.763" y="32.708" width="4.931" height="4.828" style="fill:#0a0a0a;fill-rule:nonzero;"></rect><rect x="194.763" y="32.708" width="4.931" height="4.828" style="fill:#0a0a0a;fill-rule:nonzero;"></rect></g></g></svg> 