<?xml version="1.0" encoding="UTF-8" standalone="no"?> <svg xmlns="http://www.w3.org/2000/svg" xmlns:xlink="http://www.w3.org/1999/xlink" xmlns:serif="http://www.serif.com/" width="100%" height="100%" viewBox="0 0 301 79" version="1.1" xml:space="preserve" style="fill-rule:evenodd;clip-rule:evenodd;stroke-linejoin:round;stroke-miterlimit:2;"><path d="M27.777,0l19.637,30.553l-19.637,11.368l-19.637,-11.368l19.637,-30.553Zm-13.63,29.102l13.63,-21.197l13.63,21.197l-13.63,7.887l-13.63,-7.887Z" style="fill:#0085ff;"></path><path d="M27.759,48.637l-22.781,-13.187l-0.615,0.962c-7.008,10.913 -5.445,25.202 3.759,34.366c10.837,10.773 28.419,10.773 39.274,-0c9.221,-9.164 10.785,-23.453 3.759,-34.366l-0.615,-0.962l-22.781,13.187Z" style="fill:#0085ff;fill-rule:nonzero;"></path><path d="M126.208,60.249l-25.908,-0l0,-41.64l7.904,0l0,34.295l18.004,0l0,7.345Z" style="fill:#171717;fill-rule:nonzero;"></path><rect x="158.034" y="18.609" width="7.904" height="41.64" style="fill:#171717;fill-rule:nonzero;"></rect><path d="M197.976,60.249l0,-41.64l13.542,0c2.055,0 3.724,0.069 4.988,0.227c3.267,0.385 6.095,1.539 8.449,3.445c2.389,1.906 4.198,4.355 5.427,7.345c1.247,2.974 1.862,6.244 1.862,9.812c0,3.567 -0.615,6.838 -1.862,9.828c-1.247,2.974 -3.056,5.404 -5.427,7.311c-2.371,1.906 -5.182,3.06 -8.449,3.445c-1.282,0.157 -2.951,0.227 -4.988,0.227l-13.542,-0Zm13.542,-7.397c2.055,0 3.566,-0.105 4.532,-0.298c1.738,-0.349 3.196,-1.171 4.356,-2.466c1.176,-1.311 2.055,-2.885 2.617,-4.739c0.579,-1.871 0.878,-3.848 0.878,-5.929c0,-2.081 -0.299,-4.145 -0.896,-6.016c-0.58,-1.871 -1.458,-3.445 -2.652,-4.722c-1.159,-1.277 -2.6,-2.081 -4.303,-2.396c-0.966,-0.192 -2.477,-0.297 -4.532,-0.297l-5.515,0l0,26.845l5.515,-0l0,0.018Z" style="fill:#171717;fill-rule:nonzero;"></path><path d="M279.721,61.124c-4.128,-0 -7.711,-0.892 -10.785,-2.693c-3.056,-1.819 -5.41,-4.355 -7.061,-7.643c-1.633,-3.27 -2.441,-7.065 -2.441,-11.368c0,-4.302 0.808,-8.097 2.441,-11.367c1.651,-3.271 4.005,-5.807 7.061,-7.608c3.056,-1.819 6.657,-2.711 10.785,-2.711c4.127,0 7.71,0.91 10.784,2.711c3.056,1.801 5.41,4.337 7.026,7.608c1.651,3.27 2.477,7.065 2.477,11.367c0,4.303 -0.826,8.098 -2.477,11.368c-1.633,3.271 -3.97,5.824 -7.026,7.643c-3.056,1.801 -6.657,2.693 -10.784,2.693Zm0.228,-7.398c2.564,0 4.707,-0.594 6.446,-1.766c1.739,-1.172 3.056,-2.833 3.917,-4.967c0.878,-2.134 1.3,-4.652 1.3,-7.555c0,-4.477 -1.019,-7.975 -3.074,-10.493c-2.055,-2.519 -5.076,-3.795 -9.063,-3.795c-2.565,0 -4.707,0.594 -6.446,1.766c-1.739,1.172 -3.057,2.833 -3.917,4.967c-0.878,2.133 -1.3,4.652 -1.3,7.555c0,4.477 1.019,7.975 3.074,10.493c2.055,2.519 5.076,3.795 9.063,3.795Z" style="fill:#171717;fill-rule:nonzero;"></path></svg> 