<?xml version="1.0" encoding="UTF-8" standalone="no"?> <svg xmlns="http://www.w3.org/2000/svg" xmlns:xlink="http://www.w3.org/1999/xlink" xmlns:serif="http://www.serif.com/" width="100%" height="100%" viewBox="0 0 468 140" version="1.1" xml:space="preserve" style="fill-rule:evenodd;clip-rule:evenodd;stroke-linejoin:round;stroke-miterlimit:2;"><g><path d="M344.89,49.73c3.44,-1.72 7.56,-2.53 11.48,-2.53c8.16,0 16.25,3.51 16.25,14.45l0,31.31l-5.37,0l0,-31.07c0,-7.48 -4.95,-10.43 -11.54,-10.43c-3.84,0 -7.76,0.96 -10.82,2.45l0,39.05l-5.37,0l0,-62l5.37,0l0,18.77Z" style="fill:#0a0a0a;fill-rule:nonzero;"></path><path d="M426.11,35.5c0,1.65 -1.07,3.04 -2.97,3.04c-1.78,0 -3.05,-1.27 -3.05,-3.04c-0,-1.9 1.39,-2.96 3.05,-2.96c1.77,0 2.97,1.19 2.97,2.96m-5.7,12.41l5.37,0l-0,45.04l-5.37,0l-0,-45.04Z" style="fill:#0a0a0a;fill-rule:nonzero;"></path><path d="M438.66,51.42c3.68,-1.99 9.24,-4.22 13.39,-4.22c8.43,0 15.28,3.78 15.28,14.45l0,31.31l-5.37,0l0,-31.07c0,-7.42 -3.97,-10.37 -10.61,-10.37c-3.78,0 -8.75,2.19 -11.75,3.68l0,37.76l-5.37,0l0,-45.05l4.33,0l0.1,3.51Z" style="fill:#0a0a0a;fill-rule:nonzero;"></path><g><path d="M139.5,29.23l-9.33,0l0,63.35l34.42,0l0,-8.77l-25.09,0l0,-54.58Z" style="fill:#0a0a0a;fill-rule:nonzero;"></path><path d="M174.9,28.42c-2.86,0 -4.93,2.03 -4.93,4.83c0,2.8 2.12,4.91 4.93,4.91c2.81,0 4.85,-2.07 4.85,-4.91c0,-2.8 -2.04,-4.83 -4.85,-4.83Z" style="fill:#0a0a0a;fill-rule:nonzero;"></path><rect x="170.29" y="47.77" width="9.14" height="44.81" style="fill:#0a0a0a;"></rect><path d="M232.26,47.11c-4.76,0 -10.15,1.51 -14.43,3.94c-2.74,-2.56 -5.86,-3.96 -10.87,-3.96c-3.32,0 -7.93,1.43 -11.11,2.67l-0.06,-1.98l-7.97,0l0,44.81l9.09,0l0,-35.74c2.43,-1.01 6.64,-1.7 9.36,-1.7c6.84,0 6.53,3.86 6.53,6.72l0,30.72l9.09,0l-0,-28.41c-0,-2.37 -0.08,-3.62 -0.41,-6.52c4.72,-2.2 7.08,-2.51 9.57,-2.51c4.93,0 6.29,2.87 6.29,8.67l-0,28.77l9.1,0l0,-29.2c-0.01,-9.78 -4.85,-16.28 -14.18,-16.28Z" style="fill:#0a0a0a;fill-rule:nonzero;"></path><g><path d="M288.65,74.65l-0,-10.52c-0,-10.72 -6.56,-17.12 -17.55,-17.12c-11.4,0 -18.48,6.63 -18.48,17.31l-0,15.03c-0,9.87 6.41,14.17 17.15,14.17c6.25,0 11.65,-1.79 16.04,-5.31l-5.52,-5.52c-2.93,1.85 -6.33,2.8 -10.14,2.8c-7.64,0 -8.52,-4.14 -8.52,-7.25l-0,-3.59l27.02,0Zm-26.89,-10.52c-0,-7.83 5.79,-9 9.24,-9c4.02,0 8.81,1.53 8.81,8.81l-0,3.22l-18.05,0l-0,-3.03Z" style="fill:#0a0a0a;fill-rule:nonzero;"></path></g><path d="M317.82,88.85c-8.97,0 -15.31,-4.87 -15.31,-15.01l0,-21.88c0,-10.14 6.33,-15.01 15.31,-15.01c5.3,0 9.57,1.9 12.11,5.33l3.38,-3.38c-3.27,-4.37 -8.65,-6.96 -15.87,-6.96c-12.06,0 -20.49,6.64 -20.49,20.02l0,21.89c0,13.37 8.43,20.04 20.49,20.04c6.97,0 12.22,-2.43 15.52,-6.53l-3.38,-3.38c-2.58,3.15 -6.7,4.87 -11.76,4.87Z" style="fill:#0a0a0a;fill-rule:nonzero;"></path></g><g><path d="M394.02,47.21c-5,0 -8.69,1.14 -11.4,2.79l3.11,3.11c2.13,-0.9 4.7,-1.42 7.77,-1.42c11.3,0 12.97,5.6 13.09,11.41c-3.46,-0.45 -7.01,-0.82 -10.1,-0.82c-9.44,0 -18.31,2.85 -18.31,14.4c0,11.03 6.7,17.19 15.92,17.19c5.6,0 9.88,-2.41 13.42,-4.39l0.11,3.62l4.33,0l0,-28.04c0.01,-8.81 -1.76,-17.85 -17.94,-17.85Zm12.58,38.39c-2.9,1.54 -5.68,3.44 -11.69,3.9c-7.12,0.55 -11.69,-4.88 -11.69,-12.81c0,-8.33 6.4,-10.41 14.02,-10.41c3.03,0 6.27,0.34 9.37,0.74l0,18.58l-0.01,0Z" style="fill:#0a0a0a;fill-rule:nonzero;"></path></g></g><g><path d="M89.81,56.11c0,-17.92 -6.28,-26.72 -14.63,-32.74l21.82,-23.37l-15.04,0l-74.55,79.59l-0.22,3.72c0,17.92 6.28,26.72 14.63,32.74l-21.82,23.37l15.04,0l74.55,-79.59l0.22,-3.72Zm-60.95,52.39c-6.64,-4.6 -10.76,-10.79 -11.06,-23.66l50.35,-53.94c6.64,4.6 10.76,10.79 11.06,23.66l-50.35,53.94Z" style="fill:#28eb9b;fill-rule:nonzero;"></path><path d="M57.58,134.5l5.81,-9.48c8.57,-4.09 19.59,-12.13 24.22,-27.3c1.47,-4.8 2.2,-17.67 2.2,-23.53l0,-7.8l-10.69,11.55c-0.02,0.32 -0.07,1.02 -0.1,1.41c-0.37,4.26 -1.34,15.57 -2.73,18.75c-3.52,8.05 -10.06,14.44 -18.93,18.47c-0.96,0.44 -1.75,1.13 -2.29,2.01l-6.51,10.61l-6.73,-10.97l-7.38,7.97l5.09,8.3c1.89,3.08 5.26,4.92 9.01,4.92c3.77,0 7.14,-1.83 9.03,-4.91Z" style="fill:#28eb9b;fill-rule:nonzero;"></path><path d="M39.43,4.91l-5.81,9.48c-8.57,4.1 -19.59,12.13 -24.22,27.3c-1.47,4.8 -2.2,17.67 -2.2,23.53l0,7.8l10.69,-11.55c0.02,-0.32 0.07,-1.02 0.1,-1.41c0.37,-4.26 1.34,-15.57 2.73,-18.75c3.52,-8.05 10.06,-14.44 18.93,-18.47c0.96,-0.44 1.75,-1.13 2.29,-2.01l6.51,-10.61l6.73,10.97l7.38,-7.97l-5.09,-8.3c-1.89,-3.08 -5.26,-4.92 -9.01,-4.92c-3.77,0 -7.14,1.84 -9.03,4.91Z" style="fill:#28eb9b;fill-rule:nonzero;"></path></g></svg> 