<?xml version="1.0" encoding="UTF-8" standalone="no"?> <svg xmlns="http://www.w3.org/2000/svg" xmlns:xlink="http://www.w3.org/1999/xlink" xmlns:serif="http://www.serif.com/" width="100%" height="100%" viewBox="0 0 331 97" version="1.1" xml:space="preserve" style="fill-rule:evenodd;clip-rule:evenodd;stroke-linejoin:round;stroke-miterlimit:2;"><path d="M0.246,39.265c14.779,-0.43 50.029,-2.047 57.896,-13.492c5.981,-8.696 -7.219,-17.753 -13.493,-21.025c-6.274,-3.282 -15.001,-4.748 -15.001,-4.748c17.564,1.981 45.33,11.6 36.688,29.089c-7.74,15.653 -48.091,17.781 -66.1,17.781l0,-7.609l0.01,-0l-0,0.004Z" style="fill:#fc784a;fill-rule:nonzero;"></path><path d="M0.236,78.55l0,-7.486c22.353,-0.747 52.224,-1.395 67.717,-16.211c0.42,13.052 -17.451,18.939 -31.128,21.394c-11.839,2.123 -24.443,2.643 -36.584,2.303l-0.005,-0Z" style="fill:#fc784a;fill-rule:nonzero;"></path><path d="M67.962,38.641c-12.269,12.674 -36.886,16.192 -67.962,16.192l0,7.591c32.679,-0 67.868,-4.796 67.962,-23.783Z" style="fill:#fc784a;fill-rule:nonzero;"></path><path d="M284.292,53.453c0,-14.121 8.774,-25.67 23.369,-25.67c16.694,0 22.892,12.404 22.131,24.809l-35.487,-0c0.189,12.021 6.964,18.987 16.027,18.987c7.059,0 12.018,-3.911 14.406,-10.877l5.437,1.528c-2.288,10.21 -10.207,16.986 -21.653,16.986c-14.883,0 -24.23,-11.543 -24.23,-25.763Zm10.302,-5.633l24.991,0c-0.478,-8.11 -4.676,-14.981 -11.924,-14.981c-7.248,-0 -11.923,6.488 -13.067,14.981Z" style="fill:#141414;fill-rule:nonzero;"></path><path d="M279.039,73.012l3.338,4.483l0,0.762l-16.505,-0l0,-0.762l3.338,-4.483l0,-55.548l-3.338,-4.866l0,-0.761l13.162,-2.384l0,63.559l0.005,0Z" style="fill:#141414;fill-rule:nonzero;"></path><path d="M213.029,96.104l0,-0.761l3.338,-4.961l0,-56.205l-3.338,-4.237l-0.066,-1.675l13.133,0l0,9.544c2.672,-6.106 8.874,-10.021 15.834,-10.021c12.878,-0 22.036,10.494 22.036,25.764c0,15.27 -10.113,25.669 -24.041,25.669c-5.437,0 -10.496,-2.194 -13.833,-6.299l0,17.46l4.576,4.96l0,0.762l-17.649,-0l0.01,-0Zm25.946,-22.331c8.869,0 14.784,-8.682 14.784,-20.226c0,-11.544 -5.626,-18.798 -14.117,-18.798c-18.292,0 -19.985,39.024 -0.667,39.024Z" style="fill:#141414;fill-rule:nonzero;"></path><path d="M182.166,79.212c-12.879,0 -22.036,-10.593 -22.036,-25.764c0,-15.171 10.112,-25.669 24.04,-25.669c6.203,-0 11.829,2.577 14.883,6.105l3.816,-5.628l4.865,0l0,44.657l3.338,4.578l0,0.766l-13.068,-0l0,-9.066c-2.671,6.011 -8.874,10.021 -15.833,10.021l-0.005,-0Zm2.383,-6.966c19.218,0 19.057,-39.024 0.572,-39.024c-8.87,-0 -14.784,8.682 -14.784,20.231c0,11.548 5.626,18.798 14.212,18.798l0,-0.005Z" style="fill:#141414;fill-rule:nonzero;"></path><path d="M79.909,78.261l0,-0.761l4.104,-4.772l0.014,-57.439l-4.293,-5.055l0,-0.762l15.725,0l19.554,44.274c3.243,7.155 4.865,13.165 4.865,13.165c0,0 1.621,-6.01 4.676,-13.265l18.793,-44.179l15.833,0l0,0.762l-4.293,5.055l0,57.156l4.293,5.055l0,0.761l-19.077,0l0,-0.761l4.293,-5.055l0,-35.78c0,-7.827 0.478,-14.121 0.478,-14.121c0,-0 -2.194,5.916 -5.343,13.165l-18.599,42.557l-6.104,0l-18.792,-42.368c-3.243,-7.155 -5.343,-13.071 -5.343,-13.071c0,0 0.478,6.299 0.478,14.121l0.189,35.78l4.104,4.772l-0,0.761l-15.55,0l-0.005,0.005Z" style="fill:#141414;fill-rule:nonzero;"></path></svg> 