<?xml version="1.0" encoding="UTF-8" standalone="no"?> <svg xmlns="http://www.w3.org/2000/svg" xmlns:xlink="http://www.w3.org/1999/xlink" xmlns:serif="http://www.serif.com/" width="100%" height="100%" viewBox="0 0 200 38" version="1.1" xml:space="preserve" style="fill-rule:evenodd;clip-rule:evenodd;stroke-linejoin:round;stroke-miterlimit:2;"><path d="M18.731,0c-5.409,0 -18.731,13.513 -18.731,19c0,5.487 13.322,19 18.731,19c5.409,0 18.73,-13.513 18.73,-19c0,-5.487 -13.321,-19 -18.73,-19Zm-2.919,29.865c-2.281,-0.631 -8.414,-11.512 -7.792,-13.826c0.622,-2.314 11.349,-8.534 13.63,-7.904c2.281,0.631 8.413,11.512 7.791,13.826c-0.621,2.314 -11.348,8.534 -13.629,7.904Z" style="fill:#836ef9;fill-rule:nonzero;"></path><path d="M63.643,23.212l0,-0.007l-10.642,-19.912c-0.21,-0.392 -0.789,-0.298 -0.867,0.14l-5.301,29.573c-0.052,0.29 0.168,0.557 0.458,0.557l4.101,0c0.225,0 0.418,-0.164 0.458,-0.388l3.087,-17.255l8.296,16.044c0.174,0.337 0.65,0.337 0.824,0l8.297,-16.044l3.087,17.255c0.04,0.224 0.233,0.388 0.458,0.388l4.1,0c0.291,0 0.51,-0.267 0.458,-0.557l-5.3,-29.573c-0.079,-0.438 -0.658,-0.532 -0.867,-0.14l-10.647,19.919Z" style="fill:#0a0a0a;fill-rule:nonzero;"></path><path d="M97.7,3.85c-8.442,0 -15.055,6.654 -15.055,15.151c0,8.497 6.613,15.156 15.055,15.156c8.42,0 15.017,-6.657 15.017,-15.156c0,-8.499 -6.597,-15.151 -15.017,-15.151Zm-0,25.233c-5.505,-0 -9.819,-4.429 -9.819,-10.082c-0,-5.653 4.314,-10.078 9.819,-10.078c5.484,-0 9.78,4.427 9.78,10.078c-0,5.651 -4.297,10.082 -9.78,10.082Z" style="fill:#0a0a0a;fill-rule:nonzero;"></path><path d="M135.922,22.477l-17.653,-19.274c-0.288,-0.315 -0.806,-0.108 -0.806,0.321l0,29.566c0,0.261 0.209,0.472 0.465,0.472l4.268,0c0.257,0 0.465,-0.211 0.465,-0.472l0,-17.597l17.614,19.31c0.288,0.315 0.807,0.109 0.807,-0.321l0,-29.566c0,-0.261 -0.208,-0.472 -0.464,-0.472l-4.23,0c-0.258,0 -0.466,0.211 -0.466,0.472l0,17.561Z" style="fill:#0a0a0a;fill-rule:nonzero;"></path><path d="M145.608,33.563l4.584,0c0.181,0 0.346,-0.107 0.422,-0.274l3.433,-7.542l10.978,0l3.355,7.538c0.075,0.169 0.241,0.278 0.423,0.278l4.973,0c0.343,0 0.569,-0.364 0.419,-0.678l-14.083,-29.564c-0.17,-0.356 -0.67,-0.356 -0.839,0l-14.084,29.564c-0.149,0.314 0.077,0.678 0.419,0.678Zm10.591,-12.495l3.411,-7.51l3.348,7.51l-6.759,0Z" style="fill:#0a0a0a;fill-rule:nonzero;"></path><path d="M185.318,4.444l-7.043,0c-0.257,0 -0.466,0.212 -0.466,0.472l0,28.174c0,0.261 0.209,0.473 0.466,0.473l7.043,0c8.73,0 14.155,-5.579 14.155,-14.561c0,-8.983 -5.425,-14.558 -14.155,-14.558Zm0,24.123l-2.271,-0l0,-19.166l2.271,-0c5.667,-0 8.917,3.5 8.917,9.601c0,6.078 -3.25,9.565 -8.917,9.565Z" style="fill:#0a0a0a;fill-rule:nonzero;"></path></svg> 