<?xml version="1.0" encoding="UTF-8" standalone="no"?> <svg xmlns="http://www.w3.org/2000/svg" xmlns:xlink="http://www.w3.org/1999/xlink" xmlns:serif="http://www.serif.com/" width="100%" height="100%" viewBox="0 0 454 61" version="1.1" xml:space="preserve" style="fill-rule:evenodd;clip-rule:evenodd;stroke-linejoin:round;stroke-miterlimit:2;"><path d="M36.87,0.76l-4.34,16.18c-0.78,-0.15 -1.58,-0.23 -2.41,-0.23c-1.2,0 -2.36,0.16 -3.47,0.45c-1.95,0.52 -3.72,1.47 -5.21,2.74l-11.83,-11.83c1.53,-1.44 3.22,-2.7 5.04,-3.79l0.91,-0.53c2.12,-1.17 4.39,-2.1 6.78,-2.73c2.49,-0.66 5.1,-1.02 7.79,-1.02c2.32,0 4.58,0.26 6.75,0.76l-0.01,0Z" style="fill:#00aceb;fill-rule:nonzero;"></path><path d="M119.72,23.37c0.51,2.17 0.77,4.42 0.77,6.74c0,2.7 -0.36,5.31 -1.02,7.79c-0.64,2.39 -1.57,4.66 -2.73,6.76l-0.54,0.94c-1.09,1.8 -2.36,3.49 -3.78,5.03l-11.83,-11.83c1.26,-1.49 2.22,-3.26 2.73,-5.22c0.3,-1.1 0.45,-2.27 0.45,-3.47c0,-0.8 -0.06,-1.58 -0.21,-2.33l16.16,-4.41Z" style="fill:#21bcec;fill-rule:nonzero;"></path><path d="M85.88,42.75l-4.36,16.18c-2.01,-0.63 -3.93,-1.45 -5.74,-2.45l-0.89,-0.51c-2.13,-1.28 -4.08,-2.81 -5.84,-4.55c0,-0.01 -0.01,-0.01 -0.01,-0.01l-0.88,-0.92c-0.68,-0.73 -1.32,-1.51 -1.92,-2.31l11.67,-11.66l2.58,2.69c0.12,0.13 0.25,0.26 0.38,0.39c1.38,1.39 3.09,2.49 4.99,3.16l0.02,-0.01Z" style="fill:#009cdd;fill-rule:nonzero;"></path><path d="M54.24,12.06l-11.67,11.65l-0.01,0l-2.57,-2.68c-0.13,-0.13 -0.25,-0.26 -0.38,-0.39c-1.39,-1.39 -3.1,-2.49 -4.99,-3.16l4.34,-16.17c2.01,0.63 3.94,1.45 5.74,2.44l0.89,0.52c2.13,1.28 4.1,2.81 5.84,4.55c0.01,0 0.01,0.01 0.01,0.01l0.88,0.91c0.68,0.75 1.33,1.52 1.93,2.32l-0.01,0Z" style="fill:#009cdd;fill-rule:nonzero;"></path><path d="M99.04,40.32l11.83,11.84c-1.53,1.44 -3.22,2.7 -5.04,3.79l-0.91,0.53c-2.12,1.17 -4.39,2.1 -6.78,2.73c-2.49,0.66 -5.1,1.02 -7.79,1.02c-2.32,0 -4.58,-0.26 -6.75,-0.76l4.36,-16.18c0.78,0.15 1.58,0.23 2.4,0.23c1.2,0 2.37,-0.16 3.47,-0.45c1.95,-0.52 3.72,-1.47 5.21,-2.76l0,0.01Z" style="fill:#00aceb;fill-rule:nonzero;"></path><path d="M37.45,41.35l11.79,12.05c-1.13,0.94 -2.35,1.79 -3.61,2.55l-0.95,0.54c-2.11,1.18 -4.38,2.1 -6.75,2.73c-2.49,0.66 -5.1,1.02 -7.8,1.02c-2.7,0 -5.31,-0.36 -7.79,-1.02c-2.38,-0.64 -4.64,-1.56 -6.74,-2.72l-0.97,-0.56c-2.11,-1.26 -4.05,-2.79 -5.78,-4.52c-1.73,-1.73 -3.26,-3.69 -4.54,-5.8l-0.53,-0.93c-1.01,-1.79 -1.82,-3.72 -2.43,-5.73l16.15,-4.42c0.66,1.92 1.76,3.64 3.17,5.06c1.64,1.64 3.71,2.86 6.01,3.47c1.11,0.3 2.27,0.45 3.47,0.45c1.2,0 2.37,-0.15 3.48,-0.45c1.38,-0.37 2.68,-0.95 3.85,-1.72l-0.03,0Z" style="fill:#ffa726;fill-rule:nonzero;"></path><path d="M8.07,9.6l11.83,11.83c-1.26,1.49 -2.22,3.26 -2.73,5.22c-0.3,1.1 -0.45,2.27 -0.45,3.47c0,0.8 0.06,1.58 0.21,2.33l-16.16,4.41c-0.51,-2.17 -0.77,-4.43 -0.77,-6.74c0,-2.7 0.36,-5.31 1.03,-7.8c0.64,-2.38 1.56,-4.65 2.72,-6.75l0.54,-0.94c1.09,-1.8 2.36,-3.49 3.78,-5.03Z" style="fill:#21bcec;fill-rule:nonzero;"></path><path d="M119.17,21.29l-16.15,4.41c-0.67,-1.93 -1.76,-3.65 -3.18,-5.06c-1.64,-1.64 -3.71,-2.86 -6.01,-3.48c-1.11,-0.29 -2.27,-0.45 -3.47,-0.45c-1.2,0 -2.37,0.16 -3.47,0.45c-1.38,0.38 -2.68,0.96 -3.86,1.73l-11.79,-12.05c1.13,-0.94 2.35,-1.79 3.61,-2.55l0.95,-0.55c2.11,-1.17 4.38,-2.09 6.75,-2.72c2.49,-0.66 5.1,-1.02 7.8,-1.02c2.7,0 5.31,0.36 7.79,1.02c2.38,0.64 4.65,1.56 6.75,2.72l0.96,0.56c2.12,1.26 4.05,2.79 5.78,4.52c1.73,1.73 3.26,3.69 4.54,5.8l0.53,0.92c1.01,1.82 1.83,3.73 2.44,5.75l0.03,0Z" style="fill:#ffa726;fill-rule:nonzero;"></path><path d="M143.24,44.76l0,-29.49l4.69,0l12.22,19.45l0,-19.45l5.84,0l0,29.49l-4.7,-0l-12.18,-19.44l0,19.44l-5.87,-0Z" style="fill:#0a0a0a;fill-rule:nonzero;"></path><path d="M185,44.96c-0.63,0 -1.35,-0.07 -2.17,-0.2c-0.81,-0.11 -1.6,-0.37 -2.37,-0.8c-0.74,-0.43 -1.35,-1.06 -1.85,-1.91c-0.47,-0.88 -0.71,-2.07 -0.71,-3.59l0,-16.46c0,-1.3 0.2,-2.39 0.59,-3.27c0.39,-0.88 0.92,-1.57 1.58,-2.07c0.66,-0.5 1.38,-0.86 2.17,-1.08c0.79,-0.21 1.56,-0.32 2.33,-0.32c1.97,0 3.71,0.03 5.2,0.08c1.52,0.05 2.89,0.12 4.1,0.2c1.21,0.05 2.31,0.13 3.31,0.24l0,4.94l-10.88,0c-0.81,0 -1.45,0.2 -1.89,0.6c-0.45,0.4 -0.67,1.01 -0.67,1.83l0,4.26l11.55,0.32l0,4.66l-11.55,0.32l0,4.06c0,0.69 0.11,1.24 0.32,1.63c0.24,0.37 0.54,0.64 0.91,0.8c0.39,0.13 0.8,0.2 1.22,0.2l11,0l0,4.94c-1.16,0.13 -2.44,0.24 -3.86,0.32c-1.39,0.08 -2.81,0.15 -4.26,0.2c-1.42,0.05 -2.77,0.08 -4.06,0.08l-0.01,0.02Z" style="fill:#0a0a0a;fill-rule:nonzero;"></path><path d="M214.64,44.76l-0,-24.19l-8.01,0l-0,-5.3l21.89,0l-0,5.3l-8.05,0l-0,24.19l-5.83,0Z" style="fill:#0a0a0a;fill-rule:nonzero;"></path><path d="M238.76,44.76l0,-29.49l5.84,0l0,12.28l11,0l0,-12.28l5.88,0l0,29.49l-5.88,0l-0,-11.91l-11,0l-0,11.91l-5.84,0Z" style="fill:#0a0a0a;fill-rule:nonzero;"></path><path d="M280.69,44.96c-0.63,0 -1.35,-0.07 -2.17,-0.2c-0.81,-0.11 -1.6,-0.37 -2.37,-0.8c-0.74,-0.43 -1.35,-1.06 -1.85,-1.91c-0.47,-0.88 -0.71,-2.07 -0.71,-3.59l0,-16.46c0,-1.3 0.2,-2.39 0.59,-3.27c0.39,-0.88 0.92,-1.57 1.58,-2.07c0.66,-0.5 1.38,-0.86 2.17,-1.08c0.79,-0.21 1.56,-0.32 2.33,-0.32c1.97,0 3.71,0.03 5.2,0.08c1.52,0.05 2.89,0.12 4.1,0.2c1.21,0.05 2.31,0.13 3.31,0.24l0,4.94l-10.88,0c-0.81,0 -1.45,0.2 -1.89,0.6c-0.45,0.4 -0.67,1.01 -0.67,1.83l0,4.26l11.55,0.32l0,4.66l-11.55,0.32l0,4.06c0,0.69 0.11,1.24 0.32,1.63c0.24,0.37 0.54,0.64 0.91,0.8c0.39,0.13 0.8,0.2 1.22,0.2l11,0l0,4.94c-1.16,0.13 -2.45,0.24 -3.86,0.32c-1.39,0.08 -2.81,0.15 -4.26,0.2c-1.42,0.05 -2.77,0.08 -4.06,0.08l-0.01,0.02Z" style="fill:#0a0a0a;fill-rule:nonzero;"></path><path d="M304.21,44.76l0,-29.49l12.07,0c1.16,0 2.23,0.15 3.23,0.44c1,0.27 1.88,0.74 2.64,1.43c0.76,0.69 1.35,1.65 1.77,2.87c0.45,1.22 0.67,2.79 0.67,4.7c0,1.35 -0.13,2.51 -0.39,3.47c-0.26,0.96 -0.62,1.74 -1.06,2.35c-0.42,0.61 -0.91,1.1 -1.46,1.47c-0.55,0.37 -1.12,0.68 -1.7,0.92l5.44,11.84l-5.95,0l-4.69,-10.92l-1.1,0c-0.39,-0.03 -0.8,-0.04 -1.22,-0.04l-1.26,0c-0.42,0 -0.8,-0.01 -1.14,-0.04l0,11l-5.85,0Zm5.84,-15.66l5.21,0c0.53,0 1,-0.07 1.42,-0.2c0.42,-0.13 0.79,-0.36 1.1,-0.68c0.32,-0.35 0.55,-0.8 0.71,-1.35c0.18,-0.56 0.28,-1.28 0.28,-2.15c0,-0.82 -0.09,-1.5 -0.28,-2.03c-0.16,-0.56 -0.39,-0.98 -0.71,-1.28c-0.32,-0.32 -0.68,-0.53 -1.1,-0.64c-0.42,-0.13 -0.89,-0.2 -1.42,-0.2l-5.21,0l0,8.53Z" style="fill:#0a0a0a;fill-rule:nonzero;"></path><path d="M335.24,44.76l3.39,-29.49l5.6,0l6.71,22.6l6.66,-22.6l5.56,0l3.43,29.49l-5.64,0l-2.52,-21.72l0.91,0.08l-5.72,21.64l-5.48,0l-5.8,-21.64l0.99,-0.04l-2.45,21.68l-5.64,0Z" style="fill:#0a0a0a;fill-rule:nonzero;"></path><rect x="377.94" y="15.27" width="5.84" height="29.49" style="fill:#0a0a0a;"></rect><path d="M396.13,44.76l0,-29.49l4.69,0l12.23,19.45l0,-19.45l5.83,0l0,29.49l-4.69,-0l-12.18,-19.44l0,19.44l-5.88,-0Z" style="fill:#0a0a0a;fill-rule:nonzero;"></path><path d="M430.8,44.76l0,-29.49l12.34,0c1.97,0 3.61,0.36 4.93,1.08c1.31,0.69 2.35,1.7 3.12,3.03c0.79,1.3 1.34,2.86 1.66,4.66c0.32,1.81 0.47,3.8 0.47,5.98c0,3.32 -0.38,6.07 -1.14,8.25c-0.74,2.18 -1.85,3.81 -3.35,4.9c-1.5,1.06 -3.39,1.59 -5.68,1.59l-12.35,0Zm5.83,-5.3l5.92,0c1.21,0 2.17,-0.35 2.88,-1.04c0.71,-0.72 1.22,-1.78 1.54,-3.19c0.34,-1.41 0.51,-3.15 0.51,-5.22c0,-1.91 -0.11,-3.48 -0.32,-4.7c-0.21,-1.25 -0.52,-2.22 -0.95,-2.91c-0.39,-0.69 -0.91,-1.17 -1.54,-1.43c-0.6,-0.27 -1.31,-0.4 -2.13,-0.4l-5.91,0l0,18.89Z" style="fill:#0a0a0a;fill-rule:nonzero;"></path></svg> 