<?xml version="1.0" encoding="UTF-8" standalone="no"?> <svg xmlns="http://www.w3.org/2000/svg" xmlns:xlink="http://www.w3.org/1999/xlink" xmlns:serif="http://www.serif.com/" width="100%" height="100%" viewBox="0 0 367 120" version="1.1" xml:space="preserve" style="fill-rule:evenodd;clip-rule:evenodd;stroke-linejoin:round;stroke-miterlimit:2;"><path d="M150.141,17.977l0,33.147l-10.82,-0l0,-50.824l11.125,-0l23.544,31.927l0,-31.927l10.82,-0l0,50.824l-10.438,-0l-24.231,-33.147Z" style="fill:#0a0a0a;fill-rule:nonzero;"></path><path d="M211.329,13.405c10.972,0 18.44,8.23 18.44,20.268l0,2.134l-27.355,-0c0.61,4.648 4.343,8.534 10.591,8.534c3.429,0 7.468,-1.372 9.829,-3.657l4.268,6.248c-3.658,3.352 -9.449,5.105 -15.164,5.105c-11.201,0 -19.658,-7.544 -19.658,-19.354c0,-10.668 7.848,-19.278 19.049,-19.278Zm-9.068,15.85l18.136,-0c-0.229,-3.506 -2.668,-8.154 -9.068,-8.154c-6.02,0 -8.611,4.496 -9.068,8.154Z" style="fill:#0a0a0a;fill-rule:nonzero;"></path><path d="M251.816,38.703l-8.457,12.42l-10.744,-0l13.029,-18.896l-12.268,-17.907l10.82,0l7.62,11.352l7.544,-11.352l10.82,0l-12.344,17.907l13.182,18.896l-10.82,-0l-8.382,-12.42Z" style="fill:#0a0a0a;fill-rule:nonzero;"></path><path d="M300.66,46.475c-2.514,2.82 -6.933,5.563 -12.953,5.563c-8.077,-0 -11.887,-4.42 -11.887,-11.583l0,-26.134l9.678,-0l0,22.325c0,5.105 2.666,6.781 6.781,6.781c3.733,0 6.705,-2.057 8.381,-4.19l0,-24.916l9.678,-0l0,36.802l-9.678,0l0,-4.648Z" style="fill:#0a0a0a;fill-rule:nonzero;"></path><path d="M320.93,39.541c2.667,2.515 8.153,5.028 12.725,5.028c4.191,0 6.173,-1.676 6.173,-3.961c0,-2.515 -3.354,-3.2 -7.393,-3.963c-6.324,-1.218 -14.477,-2.818 -14.477,-11.657c0,-6.172 5.411,-11.583 15.088,-11.583c6.248,0 11.2,2.134 14.858,5.03l-3.886,6.629c-2.209,-2.363 -6.401,-4.268 -10.896,-4.268c-3.505,0 -5.792,1.601 -5.792,3.657c0,2.135 2.896,2.744 7.011,3.583c6.324,1.219 14.783,2.971 14.783,12.191c0,6.705 -5.715,11.81 -15.926,11.81c-6.401,0 -12.573,-2.133 -16.459,-5.714l4.191,-6.782Z" style="fill:#0a0a0a;fill-rule:nonzero;"></path><path d="M181.044,82.311l-13.524,36.123l-4.46,-0l-13.524,-36.123l0,36.123l-10.216,-0l0,-49.677l14.316,-0l11.654,29.257l11.654,-29.257l14.387,-0l0,49.677l-10.287,-0l0,-36.123Z" style="fill:#0a0a0a;fill-rule:nonzero;"></path><path d="M225.274,113.785c-2.515,2.82 -6.934,5.563 -12.954,5.563c-8.077,-0 -11.886,-4.42 -11.886,-11.583l0,-26.134l9.677,-0l0,22.325c0,5.105 2.667,6.781 6.781,6.781c3.734,-0 6.706,-2.057 8.382,-4.19l0,-24.916l9.677,-0l0,36.802l-9.677,-0l0,-4.648Z" style="fill:#0a0a0a;fill-rule:nonzero;"></path><path d="M247.093,109.29l0,-19.202l-6.096,-0l0,-8.458l6.096,0l0,-10.057l9.753,-0l0,10.057l7.467,0l0,8.458l-7.467,-0l0,16.612c0,2.285 1.219,4.038 3.352,4.038c1.448,-0 2.82,-0.533 3.354,-1.066l2.057,7.314c-1.448,1.295 -4.039,2.362 -8.077,2.362c-6.782,-0 -10.439,-3.504 -10.439,-10.058Z" style="fill:#0a0a0a;fill-rule:nonzero;"></path><path d="M295.784,113.785c-2.515,2.82 -6.935,5.563 -12.953,5.563c-8.078,-0 -11.887,-4.42 -11.887,-11.583l0,-26.134l9.676,-0l0,22.325c0,5.105 2.668,6.781 6.783,6.781c3.733,-0 6.705,-2.057 8.381,-4.19l0,-24.916l9.677,-0l0,36.802l-9.677,-0l0,-4.648Z" style="fill:#0a0a0a;fill-rule:nonzero;"></path><path d="M337.161,114.624c-2.515,2.972 -6.858,4.724 -11.659,4.724c-5.867,-0 -12.801,-3.962 -12.801,-12.192c0,-8.61 6.934,-11.735 12.801,-11.735c4.877,-0 9.22,1.525 11.659,4.496l0,-5.105c0,-3.734 -3.2,-6.171 -8.078,-6.171c-3.961,-0 -7.618,1.447 -10.742,4.343l-3.659,-6.478c4.496,-3.961 10.287,-5.79 16.079,-5.79c8.381,-0 16.077,3.353 16.077,13.944l0,23.773l-9.677,-0l0,-3.809Zm0,-9.602c-1.6,-2.133 -4.648,-3.2 -7.772,-3.2c-3.81,-0 -6.935,1.982 -6.935,5.563c0,3.428 3.125,5.409 6.935,5.409c3.124,-0 6.172,-1.066 7.772,-3.2l0,-4.572Z" style="fill:#0a0a0a;fill-rule:nonzero;"></path><rect x="356.44" y="67.61" width="9.677" height="50.824" style="fill:#0a0a0a;fill-rule:nonzero;"></rect><path d="M114.121,83.996c4.709,-4.488 4.843,-11.952 0.299,-16.641c-4.562,-4.708 -11.953,-4.839 -16.639,-0.293c-4.594,4.454 -4.748,11.937 -0.338,16.554c4.478,4.688 11.978,4.86 16.678,0.38Z" style="fill:#0ab682;fill-rule:nonzero;"></path><path d="M33.863,114.383c4.488,4.709 11.952,4.842 16.641,0.298c4.708,-4.561 4.839,-11.952 0.294,-16.638c-4.455,-4.595 -11.938,-4.748 -16.555,-0.339c-4.688,4.479 -4.86,11.979 -0.38,16.679Z" style="fill:#0ab682;fill-rule:nonzero;"></path><path d="M3.621,33.531c-4.709,4.488 -4.842,11.952 -0.298,16.641c4.561,4.708 11.952,4.839 16.638,0.293c4.595,-4.454 4.748,-11.937 0.339,-16.554c-4.479,-4.688 -11.979,-4.86 -16.679,-0.38Z" style="fill:#0ab682;fill-rule:nonzero;"></path><path d="M84.362,3.621c-4.488,-4.709 -11.952,-4.842 -16.641,-0.298c-4.708,4.561 -4.837,11.952 -0.293,16.638c4.454,4.595 11.937,4.748 16.554,0.339c4.69,-4.479 4.86,-11.979 0.38,-16.679Z" style="fill:#0ab682;fill-rule:nonzero;"></path><path d="M109.575,39.941c2.236,-2.25 3.412,-5.344 3.239,-8.51l-0.006,-0.088c-0.53,-9.675 -12.258,-14.162 -19.111,-7.312l-11.084,11.286c-3.551,3.55 -11.754,4.09 -15.968,-0.125l-26.523,-26.836c-2.112,-2.179 -5.017,-3.407 -8.051,-3.405c-9.981,0.004 -14.976,12.072 -7.918,19.129l11.18,10.793c4.066,4.427 3.624,12.223 -0,15.847l-26.864,26.916c-2.07,2.069 -3.247,4.865 -3.282,7.792l-0.002,0.251c-0.119,10.046 12.024,15.16 19.128,8.056l11.164,-11.215c3.884,-3.885 11.965,-3.928 16.034,0.143l26.408,26.564c2.184,2.183 5.17,3.369 8.256,3.277l0.036,-0.001c9.82,-0.289 14.539,-12.177 7.592,-19.124l-10.669,-10.78c-3.956,-3.956 -4.253,-11.594 -0.027,-15.82l26.468,-26.838Zm-41.864,27.728c-4.941,4.71 -12.825,4.53 -17.533,-0.4c-4.635,-4.853 -4.475,-12.72 0.356,-17.402c4.927,-4.776 12.696,-4.64 17.491,0.309c4.777,4.929 4.636,12.776 -0.314,17.493Z" style="fill:#0ab682;fill-rule:nonzero;"></path></svg> 