<?xml version="1.0" encoding="UTF-8" standalone="no"?> <svg xmlns="http://www.w3.org/2000/svg" xmlns:xlink="http://www.w3.org/1999/xlink" xmlns:serif="http://www.serif.com/" width="100%" height="100%" viewBox="0 0 255 36" version="1.1" xml:space="preserve" style="fill-rule:evenodd;clip-rule:evenodd;stroke-linejoin:round;stroke-miterlimit:2;"><path d="M238.564,29.361l0,-16.796l4.09,0l0,2.043l0.231,0c0.694,-1.245 2.409,-2.459 4.882,-2.459c3.893,0 6.267,2.651 6.267,6.227l0,10.985l-4.288,0l0,-9.899c0,-2.044 -1.352,-3.417 -3.33,-3.417c-2.078,0 -3.564,1.597 -3.564,3.705l0,9.611l-4.288,0Z" style="fill:#0a0a0a;fill-rule:nonzero;"></path><path d="M234.206,11.07c-1.551,0 -2.639,-0.926 -2.639,-2.427c-0,-1.437 1.088,-2.395 2.639,-2.395c1.55,0 2.638,0.958 2.638,2.395c-0,1.501 -1.088,2.427 -2.638,2.427Zm-2.145,18.291l-0,-16.797l4.289,0l-0,16.797l-4.289,0Z" style="fill:#0a0a0a;fill-rule:nonzero;"></path><path d="M214.924,29.776c-5.113,0 -8.741,-3.704 -8.741,-8.717c0,-5.301 3.66,-8.909 8.741,-8.909c5.573,0 8.608,3.991 8.608,8.717l0,1.31l-13.193,0c0.131,2.554 1.946,4.279 4.716,4.279c2.112,0 3.727,-0.959 4.321,-2.332l3.991,0c-0.856,3.417 -3.958,5.653 -8.443,5.653l0,-0.001Zm-4.52,-10.538l9.039,0c-0.198,-2.267 -2.013,-3.768 -4.519,-3.768c-2.409,0 -4.256,1.66 -4.52,3.768Z" style="fill:#0a0a0a;fill-rule:nonzero;"></path><path d="M186.158,35.621l-0,-23.056l4.222,0l-0,2.139l0.232,0c0.461,-0.702 2.044,-2.555 5.211,-2.555c4.849,0 8.18,3.513 8.18,8.75c-0,5.237 -3.299,8.877 -8.049,8.877c-3.066,0 -4.717,-1.66 -5.277,-2.586l-0.23,0l-0,8.431l-4.289,-0Zm8.839,-9.613c2.772,-0 4.652,-2.075 4.652,-5.045c-0,-3.066 -1.88,-5.045 -4.683,-5.045c-2.837,-0 -4.619,2.203 -4.619,5.045c-0,3.129 1.98,5.045 4.65,5.045Z" style="fill:#0a0a0a;fill-rule:nonzero;"></path><path d="M155.334,29.776c-5.113,0 -8.741,-3.704 -8.741,-8.717c0,-5.301 3.661,-8.909 8.741,-8.909c5.574,0 8.609,3.991 8.609,8.717l0,1.31l-13.194,0c0.132,2.554 1.946,4.279 4.717,4.279c2.111,0 3.727,-0.959 4.321,-2.332l3.991,0c-0.858,3.417 -3.958,5.653 -8.444,5.653l-0,-0.001Zm-4.519,-10.538l9.038,0c-0.198,-2.267 -2.012,-3.768 -4.519,-3.768c-2.408,0 -4.255,1.66 -4.519,3.768Z" style="fill:#0a0a0a;fill-rule:nonzero;"></path><path d="M126.869,29.361l0,-3.929l12.006,-15.156l0,-0.231l-11.577,0l0,-3.797l17.053,0l0,3.896l-12.007,15.156l0,0.264l12.073,0l0,3.797l-17.548,0Z" style="fill:#0a0a0a;fill-rule:nonzero;"></path><path d="M109.211,29.361l0,-16.796l4.091,0l0,2.043l0.23,0c0.693,-1.245 2.408,-2.459 4.882,-2.459c3.893,0 6.268,2.651 6.268,6.227l0,10.985l-4.289,0l0,-9.899c0,-2.044 -1.352,-3.417 -3.331,-3.417c-2.078,0 -3.562,1.597 -3.562,3.705l0,9.611l-4.289,0Z" style="fill:#0a0a0a;fill-rule:nonzero;"></path><path d="M98.42,29.776c-5.112,0 -8.741,-3.704 -8.741,-8.717c0,-5.301 3.662,-8.909 8.741,-8.909c5.575,0 8.61,3.991 8.61,8.717l0,1.31l-13.194,0c0.132,2.554 1.946,4.279 4.716,4.279c2.111,0 3.728,-0.959 4.321,-2.332l3.992,0c-0.858,3.417 -3.959,5.653 -8.445,5.653l0,-0.001Zm-4.518,-10.538l9.037,0c-0.198,-2.267 -2.012,-3.768 -4.519,-3.768c-2.407,0 -4.255,1.66 -4.518,3.768Z" style="fill:#0a0a0a;fill-rule:nonzero;"></path><path d="M69.658,35.597l0,-23.091l4.222,0l0.001,2.198l0.23,0c0.462,-0.702 2.045,-2.555 5.212,-2.555c4.849,0 8.18,3.513 8.18,8.75c0,5.237 -3.298,8.877 -8.048,8.877c-3.068,0 -4.717,-1.66 -5.278,-2.586l-0.231,0l0,8.407l-4.288,0Zm8.84,-9.589c2.771,-0 4.651,-2.075 4.651,-5.045c-0,-3.066 -1.88,-5.045 -4.684,-5.045c-2.836,-0 -4.617,2.203 -4.617,5.045c-0,3.129 1.979,5.045 4.65,5.045Z" style="fill:#0a0a0a;fill-rule:nonzero;"></path><path d="M54.836,29.776c-7.247,0 -12.579,-5.129 -12.579,-12.012c0,-6.817 5.366,-12.012 12.613,-12.012c7.246,0 12.613,5.262 12.613,12.012c0,6.817 -5.401,12.012 -12.648,12.012l0.001,0Zm0.035,-4.202c4.58,0 7.862,-3.309 7.862,-7.81c-0,-4.434 -3.282,-7.809 -7.862,-7.809c-4.615,0 -7.896,3.375 -7.896,7.809c-0,4.501 3.281,7.81 7.896,7.81Z" style="fill:#0a0a0a;fill-rule:nonzero;"></path><rect x="225.715" y="6.151" width="4.16" height="23.211" style="fill:#0a0a0a;"></rect><path d="M166.125,35.621l0,-23.056l4.221,0l0,2.139l0.232,0c0.462,-0.702 2.044,-2.555 5.212,-2.555c4.848,0 8.181,3.513 8.181,8.75c0,5.237 -3.299,8.877 -8.049,8.877c-3.068,0 -4.717,-1.66 -5.278,-2.586l-0.231,0l0,8.431l-4.288,-0Zm8.84,-9.613c2.77,-0 4.652,-2.075 4.652,-5.045c0,-3.066 -1.882,-5.045 -4.685,-5.045c-2.837,-0 -4.617,2.203 -4.617,5.045c0,3.129 1.978,5.045 4.65,5.045Z" style="fill:#0a0a0a;fill-rule:nonzero;"></path><path d="M0,35.655c4.089,-6.849 7.563,-12.498 11.98,-20.239c1.559,-2.613 4.255,-4.236 7.582,-4.236l5.229,0l-14.601,24.475l-10.19,0Z" style="fill:#2e99ff;fill-rule:nonzero;"></path><path d="M0.048,0l31.373,0l-5.36,9.048l-26.013,0l0,-9.048Z" style="fill:#4f56fa;fill-rule:nonzero;"></path><path d="M15.761,30.019c1.18,-2.019 3.077,-3.273 5.733,-3.273l9.932,-0.027l0,8.936l-19.031,0c1.192,-1.978 2.226,-3.685 3.366,-5.636Z" style="fill:#09c2ff;fill-rule:nonzero;"></path></svg> 