<?xml version="1.0" encoding="UTF-8" standalone="no"?> <svg xmlns="http://www.w3.org/2000/svg" xmlns:xlink="http://www.w3.org/1999/xlink" xmlns:serif="http://www.serif.com/" width="100%" height="100%" viewBox="0 0 143 24" version="1.1" xml:space="preserve" style="fill-rule:evenodd;clip-rule:evenodd;stroke-linejoin:round;stroke-miterlimit:2;"><path d="M34.516,23.256l0,-18.837l10.657,-0c0.556,-0 1.058,0.139 1.506,0.418c0.463,0.279 0.826,0.644 1.089,1.093c0.278,0.45 0.417,0.954 0.417,1.512l-0,7.442c-0,0.558 -0.139,1.062 -0.417,1.512c-0.263,0.449 -0.626,0.814 -1.089,1.093c-0.448,0.279 -0.95,0.418 -1.506,0.418l-8.155,0l0,5.349l-2.502,0Zm3.081,-7.86l7.507,-0c0.154,-0 0.285,-0.055 0.393,-0.163c0.124,-0.124 0.186,-0.264 0.186,-0.419l-0,-7.302c-0,-0.155 -0.062,-0.287 -0.186,-0.396c-0.108,-0.124 -0.239,-0.186 -0.393,-0.186l-7.507,0c-0.154,0 -0.293,0.062 -0.417,0.186c-0.108,0.109 -0.162,0.241 -0.162,0.396l0,7.302c0,0.155 0.054,0.295 0.162,0.419c0.124,0.108 0.263,0.163 0.417,0.163Zm15.51,2.511c-0.556,0 -1.065,-0.139 -1.529,-0.418c-0.448,-0.279 -0.81,-0.644 -1.088,-1.093c-0.263,-0.45 -0.394,-0.954 -0.394,-1.512l-0,-4.977l11.143,0l0,-2.395c0,-0.155 -0.054,-0.287 -0.162,-0.396c-0.108,-0.124 -0.239,-0.186 -0.394,-0.186l-10.587,0l-0,-2.511l10.657,-0c0.556,-0 1.058,0.139 1.506,0.418c0.463,0.264 0.826,0.628 1.088,1.093c0.278,0.466 0.417,0.969 0.417,1.512l0,10.465l-10.657,0Zm0.07,-2.511l8.062,-0l0,-3.14l-8.641,0l-0,2.558c-0,0.155 0.054,0.295 0.162,0.419c0.124,0.108 0.262,0.163 0.417,0.163Zm12.998,2.511l0,-13.488l10.658,-0c0.556,-0 1.057,0.139 1.505,0.418c0.463,0.279 0.827,0.644 1.089,1.093c0.278,0.45 0.417,0.954 0.417,1.512l-0,10.465l-2.502,0l0,-10.395c0,-0.155 -0.062,-0.287 -0.185,-0.396c-0.108,-0.124 -0.24,-0.186 -0.394,-0.186l-7.506,0c-0.155,0 -0.294,0.062 -0.417,0.186c-0.109,0.109 -0.163,0.241 -0.163,0.396l0,10.395l-2.502,0Zm18.885,0c-0.556,0 -1.058,-0.139 -1.506,-0.418c-0.448,-0.279 -0.811,-0.644 -1.089,-1.093c-0.278,-0.45 -0.416,-0.954 -0.416,-1.512l-0,-7.442c-0,-0.558 0.138,-1.062 0.416,-1.512c0.278,-0.449 0.641,-0.814 1.089,-1.093c0.448,-0.279 0.95,-0.418 1.506,-0.418l7.645,-0c0.556,-0 1.058,0.139 1.506,0.418c0.463,0.264 0.826,0.628 1.089,1.093c0.278,0.466 0.417,0.969 0.417,1.512l0,7.442c0,0.558 -0.139,1.062 -0.417,1.512c-0.263,0.449 -0.626,0.814 -1.089,1.093c-0.448,0.279 -0.95,0.418 -1.506,0.418l-7.645,0Zm0.069,-2.511l7.507,-0c0.154,-0 0.285,-0.055 0.393,-0.163c0.109,-0.124 0.163,-0.264 0.163,-0.419l-0,-7.302c-0,-0.155 -0.054,-0.287 -0.163,-0.396c-0.108,-0.124 -0.239,-0.186 -0.393,-0.186l-7.507,0c-0.154,0 -0.293,0.062 -0.416,0.186c-0.108,0.109 -0.163,0.241 -0.163,0.396l0,7.302c0,0.155 0.055,0.295 0.163,0.419c0.123,0.108 0.262,0.163 0.416,0.163Zm13.271,7.86l-0,-18.837l10.657,-0c0.556,-0 1.058,0.139 1.506,0.418c0.463,0.279 0.827,0.644 1.089,1.093c0.278,0.45 0.417,0.954 0.417,1.512l-0,7.442c-0,0.558 -0.139,1.062 -0.417,1.512c-0.262,0.449 -0.626,0.814 -1.089,1.093c-0.448,0.279 -0.95,0.418 -1.506,0.418l-8.155,0l-0,5.349l-2.502,0Zm3.082,-7.86l7.506,-0c0.154,-0 0.286,-0.055 0.394,-0.163c0.123,-0.124 0.185,-0.264 0.185,-0.419l-0,-7.302c-0,-0.155 -0.062,-0.287 -0.185,-0.396c-0.108,-0.124 -0.24,-0.186 -0.394,-0.186l-7.506,0c-0.155,0 -0.294,0.062 -0.418,0.186c-0.108,0.109 -0.162,0.241 -0.162,0.396l-0,7.302c-0,0.155 0.054,0.295 0.162,0.419c0.124,0.108 0.263,0.163 0.418,0.163Zm15.532,2.511c-0.556,0 -1.065,-0.139 -1.528,-0.418c-0.448,-0.279 -0.812,-0.644 -1.089,-1.093c-0.263,-0.45 -0.394,-0.954 -0.394,-1.512l-0,-14.721l2.502,-0l-0,4.256l5.514,-0l-0,2.511l-5.514,0l-0,7.884c-0,0.155 0.054,0.295 0.162,0.419c0.123,0.108 0.263,0.163 0.417,0.163l4.935,-0l-0,2.511l-5.005,0Zm7.116,0l-0,-13.488l2.503,-0l-0,13.488l-2.503,0Zm-0,-15.395l-0,-2.512l2.503,-0l-0,2.512l-2.503,-0Zm8.095,15.395c-0.556,0 -1.058,-0.139 -1.506,-0.418c-0.448,-0.279 -0.811,-0.644 -1.089,-1.093c-0.278,-0.45 -0.417,-0.954 -0.417,-1.512l-0,-7.442c-0,-0.558 0.139,-1.062 0.417,-1.512c0.278,-0.449 0.641,-0.814 1.089,-1.093c0.448,-0.279 0.95,-0.418 1.506,-0.418l10.61,-0l-0,2.511l-10.541,0c-0.154,0 -0.293,0.062 -0.416,0.186c-0.108,0.109 -0.163,0.241 -0.163,0.396l-0,7.302c-0,0.155 0.055,0.295 0.163,0.419c0.123,0.108 0.262,0.163 0.416,0.163l10.588,-0l-0,2.511l-10.657,0Z" style="fill:#0a0a0a;fill-rule:nonzero;"></path><path d="M23.808,11.659c0.071,-3.272 -1.412,-6.041 -3.114,-7.785l1.431,-1.397c2.003,2.053 3.768,5.319 3.682,9.225c-0.08,3.675 -1.4,6.516 -3.667,8.96l-1.466,-1.359c1.963,-2.118 3.065,-4.501 3.134,-7.644Z" style="fill:#4e14d0;"></path><path d="M2.002,11.659c-0.071,-3.272 1.413,-6.041 3.115,-7.785l-1.432,-1.397c-2.002,2.053 -3.767,5.319 -3.682,9.225c0.08,3.675 1.401,6.516 3.667,8.96l1.467,-1.359c-1.964,-2.118 -3.066,-4.501 -3.135,-7.644Z" style="fill:#4e14d0;"></path><path d="M12.834,18.954c4.073,-0 7.375,-3.302 7.375,-7.375c0,-4.073 -3.302,-7.375 -7.375,-7.375c-4.073,-0 -7.375,3.302 -7.375,7.375c0,4.073 3.302,7.375 7.375,7.375Zm0,2c5.178,-0 9.375,-4.198 9.375,-9.375c0,-5.178 -4.197,-9.375 -9.375,-9.375c-5.177,-0 -9.375,4.197 -9.375,9.375c0,5.177 4.198,9.375 9.375,9.375Z" style="fill:#4e14d0;"></path></svg> 