<?xml version="1.0" encoding="UTF-8" standalone="no"?> <svg xmlns="http://www.w3.org/2000/svg" xmlns:xlink="http://www.w3.org/1999/xlink" xmlns:serif="http://www.serif.com/" width="100%" height="100%" viewBox="0 0 199 28" version="1.1" xml:space="preserve" style="fill-rule:evenodd;clip-rule:evenodd;stroke-linejoin:round;stroke-miterlimit:2;"><g id="Dark_1080x1080"><g id="paradex-white"><path id="Path" d="M22.543,3.6c-0.331,-0.475 -0.715,-0.915 -1.148,-1.314c-1.535,-1.413 -3.651,-2.284 -5.995,-2.284l-15.4,-0l1.878,3.269c0.416,0.723 1.185,1.168 2.018,1.168l4.508,0l6.998,-0.008c1.014,0 1.929,0.377 2.59,0.99c0.664,0.608 1.075,1.452 1.075,2.381c-0,1.863 -1.639,3.373 -3.665,3.373l-2.218,-0.007l-10.294,-0l1.878,3.269c0.416,0.723 1.185,1.168 2.018,1.168l0.912,0c0.391,0 0.707,0.316 0.707,0.707l0,10.834l3.612,-2.788c0.571,-0.441 0.905,-1.122 0.905,-1.842l-0,-6.202c-0,-0.391 0.316,-0.707 0.707,-0.707l1.773,-0c3.369,-0 6.277,-1.809 7.643,-4.43c0.534,-1.021 0.833,-2.165 0.833,-3.374c0,-1.548 -0.49,-2.987 -1.334,-4.2l-0.001,-0.003Z" style="fill:#0a0a0a;"></path><path id="Vector" d="M198.933,0.002l-5.601,-0l-5.228,7.846l-5.229,-7.846l-5.601,-0l8.03,12.048l-8.03,12.05l5.601,0l5.229,-7.848l5.228,7.848l5.601,0l-8.03,-12.05l8.03,-12.048Z" style="fill:#0a0a0a;fill-rule:nonzero;"></path><path id="Vector1" d="M150.894,24.1l16.68,0l-0,-4.436l-16.68,0l0,4.436Zm0,-19.662l16.646,-0l-0,-4.436l-16.646,-0l0,4.436Zm-0.015,9.83l10.35,0l-0,-4.436l-10.35,0l-0,4.436Z" style="fill:#0a0a0a;"></path><path id="Vector2" d="M141.855,12.05c-0,3.33 -1.404,6.341 -3.675,8.52c-2.271,2.182 -5.407,3.53 -8.869,3.53l-6.632,0l-0,-4.436l6.632,0c4.379,0 7.926,-3.409 7.926,-7.614c0,-2.103 -0.887,-4.005 -2.322,-5.384c-1.435,-1.377 -3.415,-2.23 -5.604,-2.23l-6.632,-0l-0,-4.436l6.632,0c6.926,0 12.544,5.393 12.544,12.05Z" style="fill:#0a0a0a;fill-rule:nonzero;"></path><path id="Vector3" d="M113.204,24.099l-9.049,-24.097l-5.584,-0l0.002,-0l-0.008,-0l-9.049,24.098l5.582,0l6.262,-16.674l6.261,16.673l5.583,-0Z" style="fill:#0a0a0a;fill-rule:nonzero;"></path><path id="Vector4" d="M74.502,15.227l5.989,8.873l-5.673,0l-5.729,-8.497l-7.775,0l-0,-4.428l10.525,0c2.066,0 3.739,-1.512 3.739,-3.375c0,-0.929 -0.415,-1.771 -1.093,-2.378c-0.675,-0.614 -1.608,-0.991 -2.645,-0.991l-10.525,0l0,-4.428l10.525,0c2.394,0 4.551,0.873 6.119,2.286c0.439,0.397 0.832,0.839 1.17,1.313c0.862,1.214 1.363,2.653 1.363,4.198c0,1.21 -0.307,2.352 -0.851,3.375c-1.016,1.91 -2.87,3.392 -5.137,4.052l-0.002,-0Z" style="fill:#0a0a0a;fill-rule:nonzero;"></path><path id="Vector5" d="M51.84,24.099l-9.049,-24.097l-5.59,-0l-9.049,24.098l5.582,0l6.262,-16.674l6.262,16.673l5.582,-0Z" style="fill:#0a0a0a;fill-rule:nonzero;"></path></g></g></svg> 