<?xml version="1.0" encoding="UTF-8" standalone="no"?> <svg xmlns="http://www.w3.org/2000/svg" xmlns:xlink="http://www.w3.org/1999/xlink" xmlns:serif="http://www.serif.com/" width="100%" height="100%" viewBox="0 0 333 65" version="1.1" xml:space="preserve" style="fill-rule:evenodd;clip-rule:evenodd;stroke-linejoin:round;stroke-miterlimit:2;"><path d="M51.701,0l-20.238,11.623l-0,36.277l-11.167,6.473l-11.235,-6.478l0,-12.952l11.235,-6.415l7.224,4.189l-0,-10.478l-7.287,-4.137l-20.233,11.754l0,23.252l20.301,11.691l20.233,-11.691l0,-36.272l11.235,-6.478l11.23,6.478l-0,12.894l-11.23,6.536l-7.287,-4.226l0,10.426l7.219,4.163l20.433,-11.623l-0,-23.383l-20.433,-11.623Z" style="fill:#6c00f6;fill-rule:nonzero;"></path><path d="M170.438,50.362l9.072,0l-0,-49.727l-9.072,0l-0,49.727Zm-58.321,-35.347c4.299,-0 7.864,1.727 10.683,5.176c2.825,3.449 4.232,7.728 4.232,12.836c-0,5.108 -1.413,9.387 -4.232,12.836c-2.824,3.449 -6.384,5.176 -10.683,5.176c-3.045,0 -5.691,-0.939 -7.928,-2.824c-2.194,-1.927 -3.806,-4.525 -4.84,-7.796l-0,23.383l-9.072,-0l0,-48.115l9.072,-0l-0,9.943c1.029,-3.271 2.646,-5.848 4.84,-7.728c2.242,-1.927 4.883,-2.887 7.928,-2.887Zm-3.297,27.756c2.462,-0 4.546,-0.919 6.247,-2.756c1.701,-1.88 2.551,-4.211 2.551,-6.988c0,-2.777 -0.85,-5.019 -2.551,-6.856c-1.701,-1.88 -3.785,-2.825 -6.247,-2.825c-2.736,0 -4.993,0.919 -6.788,2.756c-1.791,1.838 -2.688,4.143 -2.688,6.92c-0,2.777 0.897,5.108 2.688,6.987c1.79,1.838 4.052,2.757 6.788,2.757l-0,0.005Zm20.621,-9.744c0,5.108 1.769,9.387 5.308,12.836c3.539,3.449 7.953,5.176 13.24,5.176c5.287,0 9.702,-1.727 13.24,-5.176c3.539,-3.449 5.308,-7.728 5.308,-12.836c0,-5.108 -1.769,-9.387 -5.308,-12.836c-3.538,-3.449 -7.953,-5.176 -13.24,-5.176c-5.287,-0 -9.701,1.727 -13.24,5.176c-3.539,3.449 -5.308,7.728 -5.308,12.836Zm12.028,6.988c-1.748,-1.88 -2.62,-4.211 -2.62,-6.988c0,-2.777 0.872,-5.019 2.62,-6.856c1.748,-1.88 3.922,-2.825 6.52,-2.825c2.599,0 4.772,0.919 6.521,2.756c1.748,1.838 2.619,4.143 2.619,6.92c0,2.777 -0.871,5.108 -2.619,6.987c-1.749,1.838 -3.922,2.757 -6.521,2.757c-2.598,-0 -4.772,-0.919 -6.52,-2.757l-0,0.006Zm121.85,5.848c-3.538,-3.449 -5.308,-7.728 -5.308,-12.836c0,-5.108 1.77,-9.387 5.308,-12.836c3.538,-3.449 7.954,-5.176 13.24,-5.176c5.287,-0 9.702,1.727 13.24,5.176c3.539,3.449 5.308,7.728 5.308,12.836c-0,5.108 -1.769,9.387 -5.308,12.836c-3.538,3.449 -7.953,5.176 -13.24,5.176c-5.286,0 -9.696,-1.727 -13.24,-5.176Zm4.095,-12.836c-0,2.777 0.871,5.108 2.619,6.988c1.749,1.837 3.922,2.756 6.521,2.756c2.598,-0 4.772,-0.919 6.52,-2.756c1.748,-1.88 2.62,-4.211 2.62,-6.988c0,-2.777 -0.872,-5.087 -2.62,-6.919c-1.748,-1.838 -3.922,-2.756 -6.52,-2.756c-2.599,-0 -4.772,0.939 -6.521,2.824c-1.748,1.837 -2.619,4.121 -2.619,6.856l-0,-0.005Zm51.837,-18.012c3.854,-0 6.946,1.344 9.272,4.032c2.373,2.688 3.559,6.116 3.559,10.279l-0,21.031l-9.072,-0l0,-19.419c0,-2.242 -0.714,-4.08 -2.152,-5.513c-1.433,-1.433 -3.224,-2.152 -5.376,-2.152c-2.42,-0 -4.389,0.719 -5.912,2.152c-1.522,1.433 -2.283,3.271 -2.283,5.513l-0,19.419l-9.072,-0l-0,-34.67l9.072,-0l-0,8.872c0.897,-2.956 2.399,-5.287 4.504,-6.988c2.153,-1.701 4.636,-2.551 7.46,-2.551l0,-0.005Zm-117.949,26.102l9.271,-25.399l9.209,0l-19.084,48.115l-9.208,0l4.84,-12.232l-14.18,-35.883l9.812,0l9.34,25.399Zm44.278,-25.43l-0,8.688c-1.89,-5.67 -6.558,-8.688 -12.768,-8.688c-9.377,-0 -14.92,8.19 -14.92,16.799c-0,8.61 5.502,17.472 14.92,17.472c6.21,0 10.878,-4.478 12.768,-10.148l-0,6.651c-0,2.825 -0.919,5.151 -2.757,6.988c-1.837,1.838 -4.074,2.756 -6.719,2.756c-3.586,0 -6.248,-1.79 -7.996,-5.375l-8.132,4.299c1.522,2.824 3.696,5.082 6.52,6.788c2.824,1.701 6.027,2.552 9.608,2.552c5.286,-0 9.701,-1.722 13.24,-5.177c3.538,-3.449 5.307,-7.728 5.307,-12.836l0,-30.769l-9.071,-0Zm-2.62,23.388c-1.748,1.748 -3.943,2.62 -6.583,2.62c-2.641,-0 -4.704,-0.872 -6.453,-2.62c-1.748,-1.79 -2.619,-3.985 -2.619,-6.583c-0,-2.599 0.871,-4.773 2.619,-6.521c1.749,-1.748 3.896,-2.619 6.453,-2.619c2.556,-0 4.84,0.871 6.583,2.619c1.748,1.701 2.62,3.875 2.62,6.521c-0,2.646 -0.872,4.84 -2.62,6.583Z" style="fill:#0a0a0a;"></path></svg> 