<?xml version="1.0" encoding="UTF-8" standalone="no"?> <svg xmlns="http://www.w3.org/2000/svg" xmlns:xlink="http://www.w3.org/1999/xlink" xmlns:serif="http://www.serif.com/" width="100%" height="100%" viewBox="0 0 171 33" version="1.1" xml:space="preserve" style="fill-rule:evenodd;clip-rule:evenodd;stroke-linejoin:round;stroke-miterlimit:2;"><path d="M34.481,22.674l0,-12.751l4.84,0c1.291,0 2.421,0.323 3.389,1.13c0.968,0.807 1.291,1.776 1.291,2.905c-0,1.292 -0.484,2.26 -1.291,2.906c-0.807,0.645 -2.098,1.291 -3.55,1.291l-2.259,-0l0,4.519l-2.42,0Zm2.42,-6.779l2.259,0c0.646,0 1.13,-0.161 1.452,-0.484c0.323,-0.323 0.484,-0.807 0.484,-1.291c0,-0.484 -0.161,-0.969 -0.484,-1.291c-0.322,-0.485 -0.806,-0.646 -1.452,-0.646l-2.259,-0l0,3.712Z" style="fill:#768cfb;fill-rule:nonzero;"></path><path d="M49.003,16.379c-0,-1.775 0.645,-3.389 1.936,-4.681c1.291,-1.291 2.904,-1.936 4.841,-1.936c1.775,-0 3.388,0.645 4.84,1.936c1.291,1.292 2.098,2.906 1.937,4.681c-0,1.776 -0.646,3.39 -1.937,4.681c-1.291,1.291 -2.904,1.937 -4.84,1.937c-1.775,-0 -3.389,-0.646 -4.841,-1.937c-1.452,-1.291 -1.936,-2.905 -1.936,-4.681Zm10.972,0c-0,-1.291 -0.323,-2.259 -1.13,-3.066c-0.806,-0.808 -1.774,-1.13 -3.065,-1.13c-1.13,-0 -2.098,0.322 -2.905,1.13c-0.806,0.807 -1.129,1.775 -1.129,3.066c-0,1.291 0.323,2.26 1.129,3.067c0.807,0.807 1.775,1.13 2.905,1.13c1.129,-0 2.097,-0.323 2.904,-1.13c0.807,-0.969 1.291,-1.937 1.291,-3.067Z" style="fill:#768cfb;fill-rule:nonzero;"></path><path d="M68.687,22.835l0,-12.912l2.582,0l-0,10.491l5.647,0l0,2.421l-8.229,0Z" style="fill:#768cfb;fill-rule:nonzero;"></path><path d="M91.115,9.923l-4.357,7.748l0,5.003l-2.582,0l0,-5.003l-4.356,-7.748l2.904,0l2.904,5.004l2.743,-5.004l2.744,0Z" style="fill:#768cfb;fill-rule:nonzero;"></path><path d="M100.473,22.835l0,-11.943l-4.679,-0l-0,-0.969l10.327,0l0,0.969l-4.68,-0l0,11.943l-0.968,0Z" style="fill:#0a0a0a;fill-rule:nonzero;"></path><path d="M122.095,22.674l-1.13,0l-4.356,-5.649l-3.227,-0l0,5.81l-0.968,0l0,-12.912l4.356,0c1.13,0 2.098,0.323 2.743,0.969c0.646,0.645 1.13,1.452 1.13,2.582c0,0.969 -0.323,1.614 -0.807,2.26c-0.484,0.645 -1.291,0.968 -2.098,1.13l4.357,5.81Zm-8.713,-11.782l0,5.165l3.227,-0c0.968,-0 1.613,-0.162 2.097,-0.646c0.484,-0.484 0.807,-1.13 0.807,-1.937c0,-0.807 -0.323,-1.452 -0.807,-1.937c-0.484,-0.484 -1.129,-0.645 -2.097,-0.645l-3.227,-0Z" style="fill:#0a0a0a;fill-rule:nonzero;"></path><path d="M137.262,22.674l-1.291,-3.067l-6.777,0l-1.29,3.067l-0.968,-0l5.486,-12.912l0.484,-0l5.486,12.912l-1.13,-0Zm-4.518,-11.137l-2.904,7.263l5.97,0l-3.066,-7.263Z" style="fill:#0a0a0a;fill-rule:nonzero;"></path><path d="M144.845,22.674l0,-12.751l3.55,0c2.098,0 3.872,0.646 5.163,1.776c1.291,1.13 1.936,2.744 1.936,4.519c-0,1.937 -0.645,3.389 -1.936,4.681c-1.291,1.291 -2.904,1.775 -5.163,1.775l-3.55,0Zm1.13,-0.807l2.581,0c1.775,0 3.227,-0.484 4.357,-1.614c1.129,-0.968 1.613,-2.421 1.613,-3.874c0,-1.614 -0.484,-2.905 -1.613,-3.873c-1.13,-0.969 -2.42,-1.453 -4.357,-1.453l-2.581,0l0,10.814Z" style="fill:#0a0a0a;fill-rule:nonzero;"></path><path d="M162.27,22.835l0,-12.912l8.068,0l-0,0.969l-6.939,-0l-0,4.519l5.486,-0l-0,0.968l-5.486,0l-0,5.488l7.261,-0l-0,0.968l-8.39,0Z" style="fill:#0a0a0a;fill-rule:nonzero;"></path><path d="M14.774,12.334l11.95,6.954c0.651,0.435 1.521,0 1.521,-0.869l-0,-9.78c-0,-0.435 -0.218,-0.652 -0.652,-0.869l-13.036,-7.607c-0.218,-0.217 -0.652,-0.217 -0.869,-0l-13.036,7.607c-0.435,-0 -0.652,0.434 -0.652,0.869l-0,3.477l13.688,-7.824c0.434,-0.217 0.651,-0.217 1.086,0l9.56,5.434c0.434,0.217 0.652,0.652 0.652,0.869l-0,3.477l-10.212,-5.868c-0.435,-0.217 -0.652,-0.217 -1.086,0l-13.036,7.607c-0.435,0.217 -0.652,0.652 -0.652,0.869l-0,6.955c-0,0.434 0.217,0.652 0.435,0.869l3.041,1.739l0,-7.39c0,-0.434 0.218,-0.652 0.652,-0.869l9.56,-5.433c0.217,-0.435 0.651,-0.435 1.086,-0.217Z" style="fill:#768cfb;fill-rule:nonzero;"></path><path d="M14.775,27.981c-0.434,0.218 -0.652,0.218 -1.086,0l-6.518,-3.694l-0,3.477c-0,0.435 0.217,0.652 0.434,0.869l6.084,3.478c0.434,0.217 0.652,0.217 1.086,-0l13.688,-7.824l-3.042,-1.739c-0.434,-0.217 -0.652,-0.217 -1.086,0l-9.56,5.433Z" style="fill:#768cfb;fill-rule:nonzero;"></path><path d="M14.773,24.069l5.649,-3.26c0.434,-0.217 0.434,-0.652 -0,-0.869l-5.649,-3.477c-0.434,-0.218 -0.652,-0.218 -1.086,-0l-5.866,3.26c-0.435,0.217 -0.435,0.652 -0,0.869l5.648,3.26c0.435,0.435 0.87,0.435 1.304,0.217Z" style="fill:#768cfb;fill-rule:nonzero;"></path></svg> 