<?xml version="1.0" encoding="UTF-8" standalone="no"?> <svg xmlns="http://www.w3.org/2000/svg" xmlns:xlink="http://www.w3.org/1999/xlink" xmlns:serif="http://www.serif.com/" width="100%" height="100%" viewBox="0 0 198 61" version="1.1" xml:space="preserve" style="fill-rule:evenodd;clip-rule:evenodd;stroke-linejoin:round;stroke-miterlimit:2;"><path d="M25.101,2.217c-0.188,-1.109 1.373,-1.557 1.802,-0.517l0.837,2.027c0.026,0.063 0.046,0.127 0.06,0.191c2.007,-0.483 4.029,-0.727 6.03,-0.746c-0.002,-0.066 0.002,-0.133 0.012,-0.201l0.319,-2.165c0.164,-1.113 1.788,-1.057 1.875,0.065l0.169,2.182c0.005,0.068 0.004,0.136 -0.003,0.202c2.036,0.161 4.037,0.554 5.965,1.161c0.018,-0.064 0.042,-0.127 0.073,-0.188l0.974,-1.964c0.5,-1.008 2.027,-0.453 1.763,0.641l-0.514,2.131c-0.017,0.067 -0.038,0.131 -0.065,0.191c1.873,0.776 3.659,1.761 5.318,2.938c0.036,-0.052 0.078,-0.103 0.124,-0.15l1.534,-1.567c0.787,-0.804 2.067,0.196 1.478,1.154l-1.148,1.868c-0.034,0.056 -0.072,0.107 -0.113,0.154c1.686,1.436 3.207,3.09 4.515,4.941c-0.004,-0.179 -0.005,-0.356 -0.006,-0.53l0,-0.001l0,-0.03c-0.004,-0.888 0.799,-1.57 1.708,-1.697c0.435,-0.058 0.877,0.03 1.256,0.25c0.379,0.22 0.674,0.56 0.84,0.966c0.517,1.317 0.605,2.764 0.25,4.134c-0.03,0.123 -0.064,0.246 -0.102,0.386l-0,0l-0.001,0.001l-0,0.003c-0.015,0.052 -0.03,0.107 -0.046,0.165c1.33,0.749 2.372,1.919 2.963,3.326c0.475,1.133 0.025,2.29 -1.022,2.749c-0.539,0.232 -1.068,0.171 -1.551,-0.082c0.427,1.883 0.645,3.777 0.664,5.654c0.056,-0 0.113,0.004 0.171,0.012l2.164,0.319c1.113,0.164 1.057,1.788 -0.065,1.875l-2.181,0.169c-0.057,0.004 -0.114,0.004 -0.17,0c-0.16,2.039 -0.551,4.042 -1.157,5.973c0.051,0.017 0.102,0.037 0.152,0.062l1.964,0.974c1.007,0.5 0.452,2.027 -0.642,1.763l-2.13,-0.514c-0.054,-0.013 -0.106,-0.03 -0.156,-0.05c-0.776,1.877 -1.762,3.665 -2.941,5.327c0.041,0.03 0.08,0.064 0.118,0.101l1.566,1.533c0.804,0.787 -0.196,2.068 -1.154,1.479l-1.868,-1.148c-0.043,-0.027 -0.084,-0.056 -0.123,-0.087c-1.306,1.534 -2.794,2.932 -4.447,4.157c0.028,0.041 0.054,0.083 0.078,0.128l1.014,1.938c0.521,0.997 -0.826,1.906 -1.555,1.05l-1.419,-1.666c-0.033,-0.038 -0.063,-0.079 -0.089,-0.12c-1.397,0.854 -2.891,1.593 -4.475,2.198c-0.347,0.133 -0.695,0.258 -1.043,0.375c0.014,0.046 0.025,0.094 0.033,0.143l0.367,2.162c0.188,1.109 -1.374,1.558 -1.803,0.518l-0.837,-2.028c-0.019,-0.044 -0.034,-0.09 -0.046,-0.136c-2.011,0.486 -4.038,0.73 -6.044,0.749c-0.001,0.047 -0.005,0.096 -0.012,0.144l-0.319,2.164c-0.164,1.113 -1.788,1.057 -1.874,-0.064l-0.169,-2.182c-0.004,-0.049 -0.005,-0.098 -0.002,-0.146c-2.04,-0.162 -4.045,-0.557 -5.977,-1.166c-0.015,0.046 -0.034,0.092 -0.057,0.137l-0.974,1.964c-0.5,1.007 -2.027,0.452 -1.763,-0.641l0.515,-2.131c0.012,-0.05 0.027,-0.098 0.045,-0.144c-1.876,-0.779 -3.664,-1.768 -5.324,-2.95c-0.03,0.04 -0.063,0.078 -0.099,0.115l-1.534,1.567c-0.787,0.804 -2.067,-0.196 -1.478,-1.155l1.148,-1.867c0.027,-0.044 0.056,-0.085 0.087,-0.124c-1.532,-1.309 -2.928,-2.798 -4.15,-4.452c-0.042,0.03 -0.088,0.058 -0.135,0.083l-1.939,1.014c-0.997,0.521 -1.906,-0.825 -1.049,-1.555l1.665,-1.418c0.042,-0.037 0.086,-0.069 0.132,-0.097c-0.669,-1.097 -1.267,-2.255 -1.785,-3.469l-3.677,4.875c-0.487,0.646 -1.437,0.715 -1.946,0.086c-3.485,-4.308 -3.915,-10.004 -3.574,-13.484c0.082,-0.837 0.958,-1.299 1.733,-0.972l5.507,2.323c-0.138,-1.069 -0.21,-2.137 -0.219,-3.199c-0.058,0 -0.116,-0.004 -0.176,-0.013l-2.164,-0.319c-1.113,-0.164 -1.057,-1.788 0.065,-1.874l2.181,-0.169c0.061,-0.005 0.121,-0.005 0.179,0c0.165,-2.037 0.56,-4.038 1.17,-5.967c-0.059,-0.017 -0.117,-0.04 -0.173,-0.069l-1.964,-0.974c-1.008,-0.5 -0.453,-2.027 0.641,-1.763l2.131,0.515c0.063,0.015 0.123,0.035 0.18,0.059c0.778,-1.872 1.766,-3.656 2.946,-5.315c-0.051,-0.035 -0.101,-0.076 -0.147,-0.122l-1.567,-1.533c-0.804,-0.787 0.196,-2.068 1.154,-1.479l1.868,1.148c0.055,0.034 0.107,0.072 0.154,0.114c1.307,-1.531 2.794,-2.924 4.445,-4.145c-0.039,-0.051 -0.075,-0.107 -0.106,-0.167l-1.014,-1.939c-0.522,-0.997 0.825,-1.906 1.554,-1.049l1.419,1.666c0.045,0.052 0.083,0.107 0.117,0.164c1.39,-0.849 2.877,-1.583 4.453,-2.185c0.35,-0.134 0.702,-0.261 1.055,-0.379c-0.022,-0.063 -0.04,-0.128 -0.051,-0.196l-0.366,-2.163Zm-12.705,36.216c4.578,11.98 18.001,17.981 29.982,13.403c11.868,-4.535 17.868,-17.75 13.529,-29.644c-1.439,1.209 -3.165,2.304 -5.173,3.04c-4.505,1.651 -7.945,2.371 -10.849,2.655c-3.301,4.54 -8.913,6.433 -11.628,6.823l0.346,-6.797c-1.768,0.073 -3.668,0.306 -5.89,0.877c-4.173,1.072 -8.059,2.82 -11.587,4.851c0.246,1.606 0.666,3.212 1.27,4.792Zm5.918,0.585c-1.112,0.198 -2.175,-0.544 -2.373,-1.656c-0.198,-1.113 0.544,-2.175 1.656,-2.373c1.113,-0.198 2.175,0.543 2.373,1.656c0.198,1.112 -0.543,2.175 -1.656,2.373Zm9.433,0.247c-0.726,0.129 -1.42,-0.354 -1.549,-1.081c-0.129,-0.726 0.355,-1.419 1.081,-1.548c0.726,-0.129 1.419,0.355 1.549,1.081c0.129,0.726 -0.355,1.419 -1.081,1.548Zm11.978,-0.468c-0.726,0.129 -1.42,-0.355 -1.549,-1.081c-0.129,-0.726 0.355,-1.42 1.081,-1.549c0.726,-0.129 1.419,0.355 1.549,1.081c0.129,0.726 -0.355,1.419 -1.081,1.549Zm2.494,6.397c0.129,0.726 0.823,1.21 1.549,1.08c0.726,-0.129 1.21,-0.822 1.081,-1.548c-0.13,-0.726 -0.823,-1.21 -1.549,-1.081c-0.726,0.129 -1.21,0.823 -1.081,1.549Zm-13.998,3.259c-0.726,0.13 -1.419,-0.354 -1.548,-1.08c-0.13,-0.726 0.354,-1.42 1.08,-1.549c0.727,-0.129 1.42,0.355 1.549,1.081c0.129,0.726 -0.355,1.419 -1.081,1.548Zm-7.207,-5.644c0.13,0.726 0.823,1.21 1.549,1.081c0.726,-0.129 1.21,-0.823 1.081,-1.549c-0.129,-0.726 -0.823,-1.21 -1.549,-1.081c-0.726,0.13 -1.21,0.823 -1.081,1.549Zm13.039,0.431c-0.726,0.129 -1.419,-0.355 -1.548,-1.081c-0.13,-0.727 0.354,-1.42 1.08,-1.549c0.726,-0.129 1.42,0.355 1.549,1.081c0.129,0.726 -0.355,1.419 -1.081,1.549Zm11.4,-5.463c0.198,1.112 1.26,1.854 2.373,1.656c1.112,-0.198 1.853,-1.261 1.655,-2.373c-0.198,-1.113 -1.26,-1.854 -2.372,-1.656c-1.113,0.198 -1.854,1.26 -1.656,2.373Zm-11.454,10.371c0.199,1.112 1.261,1.854 2.373,1.656c1.113,-0.198 1.854,-1.261 1.656,-2.373c-0.198,-1.113 -1.26,-1.854 -2.372,-1.656c-1.113,0.198 -1.855,1.26 -1.657,2.373Zm15.645,-31.395c0.41,1.799 -0.652,3.574 -2.372,3.966c-1.719,0.391 -3.445,-0.75 -3.855,-2.549c-0.409,-1.799 0.653,-3.575 2.372,-3.967c1.72,-0.391 3.446,0.75 3.855,2.55Z" style="fill:url(#_Linear1);"></path><path d="M47.403,19.156c0.774,-0.177 1.237,-1.044 1.033,-1.938c-0.203,-0.893 -0.996,-1.475 -1.77,-1.298c-0.774,0.176 -1.237,1.043 -1.034,1.937c0.204,0.893 0.996,1.475 1.771,1.299Z" style="fill:#4a98ea;fill-rule:nonzero;"></path><path d="M144.309,18.047c0,-6.641 5.385,-12.024 12.028,-12.024l-0,5.873c-3.398,0 -6.153,2.754 -6.153,6.151l-0,-0l6.152,-0l0,5.873l-6.152,0l-0,18.175l-5.875,-0l0,-24.048Zm-2.641,-11.85l-0,0c-6.643,0 -12.028,5.383 -12.028,12.024l0,-0l0,24.048l5.875,-0l0,-24.048l0,0c0,-3.397 2.755,-6.151 6.153,-6.151l0,0l0,-5.873Zm-53.394,30.198c3.398,0 6.153,-2.753 6.153,-6.15c-0,-3.397 -2.755,-6.151 -6.153,-6.151c-3.398,-0 -6.153,2.754 -6.153,6.151c0,3.397 2.755,6.15 6.153,6.15Zm-0,5.874c-2.248,-0 -4.352,-0.617 -6.153,-1.69l0,13.628l-5.875,-0l0,-23.962c0,-6.641 5.385,-12.024 12.028,-12.024c6.643,-0 12.028,5.383 12.028,12.024c-0,6.64 -5.385,12.024 -12.028,12.024Zm38.724,-24.048l-5.875,-0l-0,12.024c-0,3.396 -2.755,6.15 -6.152,6.15c-3.398,0 -6.153,-2.754 -6.153,-6.15l0,-12.024l-5.875,-0l0,12.024c0,6.64 5.385,12.023 12.028,12.023c6.642,0 12.027,-5.383 12.027,-12.024l-0,-12.023Zm8.517,0l0,5.873l6.153,0l-0,-5.873l-6.153,0Zm44.846,4.292c1.102,1.364 1.886,2.943 2.308,4.621l0.364,2.831c0.001,0.035 0.001,0.07 0.001,0.105l-0,0.001c-0,1.013 -0.126,1.996 -0.362,2.936l-2.388,0l-0,0.001l-14.686,-0c1.043,1.914 3.074,3.214 5.408,3.214c1.566,-0 2.995,-0.585 4.081,-1.548l3.897,4.395c-2.059,1.825 -4.682,2.888 -7.431,3.013c-2.748,0.125 -5.457,-0.696 -7.673,-2.326c-2.217,-1.629 -3.807,-3.97 -4.507,-6.63c-0.699,-2.661 -0.464,-5.48 0.665,-7.989c1.129,-2.508 3.084,-4.554 5.539,-5.796c2.456,-1.241 5.263,-1.604 7.953,-1.027c2.69,0.578 5.101,2.06 6.831,4.199Zm-14.763,4.621c1.043,-1.915 3.074,-3.214 5.408,-3.214c2.334,-0 4.365,1.299 5.408,3.214l-10.816,0Zm25.952,3.11c-0,-3.391 2.744,-6.14 6.132,-6.151l0,-5.873c-6.633,0.011 -12.007,5.39 -12.007,12.024l-0,-0l5.875,-0l-0,-0Zm-5.875,12.024l5.875,0l-0,-12.024l-5.875,0l-0,12.024Z" style="fill:#0a0a0a;"></path><defs><linearGradient id="_Linear1" x1="0" y1="0" x2="1" y2="0" gradientUnits="userSpaceOnUse" gradientTransform="matrix(26.3693,42.8986,-42.8986,26.3693,37.6066,-1.09549e-06)"><stop offset="0" style="stop-color:#874fff;stop-opacity:1"></stop><stop offset="0.07" style="stop-color:#874fff;stop-opacity:1"></stop><stop offset="0.46" style="stop-color:#36afe2;stop-opacity:1"></stop><stop offset="0.86" style="stop-color:#41ff54;stop-opacity:1"></stop><stop offset="1" style="stop-color:#41ff54;stop-opacity:1"></stop></linearGradient></defs></svg> 