<?xml version="1.0" encoding="UTF-8" standalone="no"?> <svg xmlns="http://www.w3.org/2000/svg" xmlns:xlink="http://www.w3.org/1999/xlink" xmlns:serif="http://www.serif.com/" width="100%" height="100%" viewBox="0 0 174 27" version="1.1" xml:space="preserve" style="fill-rule:evenodd;clip-rule:evenodd;stroke-linejoin:round;stroke-miterlimit:2;"><path d="M0.001,15.328l0,11.635l4.571,0l0,-10.071l-4.571,-1.564Z" style="fill:url(#_Linear1);fill-rule:nonzero;"></path><path d="M0.001,0l0,15.553c0,-0.02 -0.001,1.562 -0.001,1.562l4.573,0.001l3.241,0c3.567,0 6.466,3.012 6.466,6.715l0,3.143l4.572,0l0,-3.143c0,-6.223 -4.95,-11.286 -11.038,-11.286l-3.241,0l0,-7.973l3.241,0c3.567,0 6.466,3.012 6.466,6.715l0,1.305c0,0.001 0.001,0.002 0.001,0.003l0,1.378l1.378,0c0.001,0 0.003,0.001 0.006,0.001l3.187,0l0,-2.687c0,-6.224 -4.95,-11.287 -11.038,-11.287l-7.813,0Z" style="fill:url(#_Linear2);fill-rule:nonzero;"></path><path d="M133.872,4.363c0,1.583 1.285,2.869 2.868,2.869c1.582,0 2.868,-1.286 2.868,-2.869c0,-1.583 -1.286,-2.869 -2.868,-2.869c-1.583,0 -2.868,1.286 -2.868,2.869Z" style="fill:url(#_Linear3);"></path><path d="M43.735,10.613c0,0.361 -0.055,0.749 -0.161,1.153c-0.104,0.391 -0.293,0.751 -0.562,1.07c-0.262,0.309 -0.642,0.533 -1.133,0.668c-0.192,0.053 -0.404,0.09 -0.631,0.107c-0.238,0.02 -0.457,0.031 -0.657,0.031l-4.528,0l0,-6.055l4.528,0c0.2,0 0.419,0.01 0.657,0.029c0.232,0.019 0.445,0.056 0.633,0.11c0.489,0.134 0.869,0.358 1.131,0.667c0.269,0.318 0.458,0.679 0.562,1.069c0.106,0.405 0.161,0.792 0.161,1.151Zm3.143,4.693c0.909,-1.294 1.368,-2.873 1.368,-4.693c0,-1.211 -0.198,-2.326 -0.591,-3.318c-0.396,-1.002 -1.023,-1.844 -1.862,-2.505c-0.839,-0.661 -1.923,-1.099 -3.219,-1.298c-0.283,-0.05 -0.608,-0.084 -0.965,-0.099c-0.353,-0.015 -0.633,-0.024 -0.842,-0.024l-9.186,0l0,21.67l4.482,0l0,-7.181l4.075,0l3.48,7.181l5.066,0l-3.899,-8.001c0.889,-0.433 1.592,-1.015 2.093,-1.733l0,0.001Z" style="fill:#0a0a0a;fill-rule:nonzero;"></path><path d="M60.638,17.809c-0.007,0.196 -0.019,0.409 -0.032,0.641c-0.032,0.542 -0.146,1.018 -0.337,1.419c-0.098,0.202 -0.291,0.466 -0.573,0.782c-0.279,0.309 -0.663,0.592 -1.139,0.837c-0.467,0.241 -1.055,0.364 -1.751,0.364c-0.427,0 -0.798,-0.063 -1.101,-0.188c-0.288,-0.119 -0.512,-0.292 -0.666,-0.511c-0.155,-0.222 -0.23,-0.483 -0.23,-0.798c0,-0.225 0.048,-0.431 0.142,-0.609c0.096,-0.183 0.251,-0.357 0.462,-0.516c0.221,-0.168 0.522,-0.328 0.888,-0.475c0.328,-0.122 0.72,-0.238 1.164,-0.344c0.439,-0.105 1.034,-0.226 1.767,-0.358c0.399,-0.072 0.871,-0.153 1.406,-0.244Zm3.796,-6.572c-0.585,-1.107 -1.458,-1.896 -2.596,-2.347c-1.111,-0.44 -2.397,-0.664 -3.825,-0.664c-1.958,0 -3.531,0.432 -4.675,1.285c-1.146,0.849 -1.937,1.97 -2.352,3.328l-0.07,0.228l4.068,1.289l0.077,-0.218c0.234,-0.67 0.63,-1.118 1.211,-1.377c0.602,-0.27 1.189,-0.407 1.741,-0.407c0.989,0 1.695,0.2 2.097,0.595c0.267,0.261 0.448,0.64 0.536,1.129c-0.586,0.088 -1.152,0.172 -1.683,0.251c-1.029,0.15 -1.964,0.311 -2.779,0.479c-0.819,0.167 -1.537,0.363 -2.138,0.585c-0.88,0.322 -1.593,0.733 -2.119,1.218c-0.531,0.49 -0.92,1.063 -1.158,1.704c-0.235,0.632 -0.354,1.336 -0.354,2.098c-0,0.922 0.216,1.776 0.642,2.539c0.427,0.767 1.063,1.388 1.888,1.843c0.822,0.455 1.834,0.685 3.007,0.685c1.407,0 2.591,-0.25 3.519,-0.742c0.569,-0.3 1.125,-0.73 1.657,-1.277l-0,1.578l3.981,0l-0,-9.952c-0,-0.731 -0.029,-1.402 -0.089,-1.995c-0.061,-0.616 -0.258,-1.24 -0.586,-1.855Z" style="fill:#0a0a0a;fill-rule:nonzero;"></path><path d="M76.565,8.631c-0.496,0.035 -0.984,0.123 -1.449,0.259c-0.47,0.139 -0.91,0.334 -1.305,0.575c-0.525,0.309 -0.974,0.705 -1.334,1.181c-0.004,0.004 -0.007,0.009 -0.011,0.014l0,-1.993l-4.012,0l0,16.372l4.513,0l0,-8.363c0,-0.578 0.079,-1.103 0.237,-1.562c0.155,-0.454 0.386,-0.85 0.687,-1.182c0.298,-0.332 0.674,-0.603 1.116,-0.806c0.442,-0.212 0.946,-0.339 1.497,-0.383c0.551,-0.042 1.038,0.003 1.448,0.131l0.311,0.098l0,-4.276l-0.211,-0.027c-0.491,-0.061 -0.993,-0.073 -1.487,-0.038Z" style="fill:#0a0a0a;fill-rule:nonzero;"></path><path d="M90.764,14.758l-6.391,-0c0.155,-0.584 0.377,-1.064 0.659,-1.43c0.601,-0.774 1.523,-1.149 2.82,-1.149c1.096,-0 1.859,0.316 2.33,0.967c0.266,0.369 0.461,0.908 0.582,1.612Zm1.299,-5.314c-1.202,-0.81 -2.678,-1.218 -4.387,-1.218c-1.606,-0 -3.048,0.371 -4.286,1.1c-1.239,0.729 -2.225,1.768 -2.93,3.087c-0.702,1.315 -1.058,2.878 -1.058,4.646c0,1.624 0.365,3.087 1.083,4.348c0.721,1.264 1.731,2.27 3.004,2.989c1.272,0.719 2.759,1.083 4.423,1.083c1.568,-0 3.034,-0.418 4.357,-1.243c1.327,-0.828 2.311,-2.004 2.927,-3.496l0.103,-0.249l-4.46,-1.278l-0.085,0.189c-0.272,0.599 -0.672,1.065 -1.188,1.381c-0.518,0.318 -1.154,0.478 -1.89,0.478c-1.179,-0 -2.044,-0.366 -2.645,-1.122c-0.392,-0.494 -0.66,-1.142 -0.798,-1.929l11.094,-0l0.019,-0.219c0.169,-1.951 -0.034,-3.675 -0.605,-5.125c-0.574,-1.461 -1.474,-2.611 -2.678,-3.422Z" style="fill:#0a0a0a;fill-rule:nonzero;"></path><path d="M112.953,13.971c-0.625,-0.435 -1.289,-0.782 -1.976,-1.03c-0.675,-0.243 -1.295,-0.439 -1.844,-0.587l-3.68,-1.001c-0.439,-0.115 -0.874,-0.259 -1.294,-0.431c-0.4,-0.164 -0.734,-0.381 -0.994,-0.646c-0.241,-0.244 -0.358,-0.558 -0.358,-0.957c0,-0.44 0.149,-0.809 0.455,-1.129c0.32,-0.334 0.744,-0.594 1.26,-0.77c0.521,-0.181 1.093,-0.264 1.687,-0.245c0.604,0.019 1.192,0.146 1.746,0.378c0.548,0.231 1.027,0.572 1.423,1.014c0.392,0.437 0.665,0.986 0.812,1.63l0.052,0.221l4.806,-0.818l-0.065,-0.253c-0.351,-1.352 -0.932,-2.516 -1.727,-3.457c-0.794,-0.94 -1.795,-1.668 -2.975,-2.163c-1.17,-0.49 -2.517,-0.749 -4.004,-0.768c-1.487,-0.011 -2.84,0.222 -4.061,0.691c-1.233,0.476 -2.234,1.21 -2.975,2.183c-0.744,0.981 -1.122,2.224 -1.122,3.692c0,1.044 0.18,1.925 0.534,2.619c0.353,0.69 0.803,1.255 1.338,1.675c0.525,0.415 1.078,0.739 1.642,0.961c0.548,0.219 1.038,0.388 1.455,0.508l5.499,1.617c0.397,0.124 0.724,0.26 0.975,0.405c0.243,0.142 0.432,0.293 0.561,0.448c0.126,0.15 0.217,0.314 0.272,0.484c0.056,0.177 0.084,0.364 0.084,0.554c0,0.527 -0.173,0.958 -0.527,1.317c-0.369,0.374 -0.849,0.661 -1.428,0.853c-0.591,0.197 -1.209,0.296 -1.837,0.296c-1.122,0 -2.134,-0.316 -3.01,-0.941c-0.868,-0.618 -1.451,-1.517 -1.73,-2.671l-0.052,-0.212l-4.633,0.684l0.036,0.238c0.221,1.466 0.754,2.748 1.585,3.814c0.831,1.06 1.906,1.886 3.198,2.454c1.286,0.565 2.746,0.852 4.341,0.852c1.094,0 2.172,-0.141 3.205,-0.42c1.037,-0.28 1.98,-0.711 2.802,-1.278c0.831,-0.572 1.502,-1.307 1.994,-2.184c0.495,-0.882 0.744,-1.923 0.744,-3.096c0,-1.107 -0.211,-2.038 -0.627,-2.768c-0.414,-0.725 -0.948,-1.318 -1.587,-1.763Z" style="fill:#0a0a0a;fill-rule:nonzero;"></path><path d="M133.023,8.667l-5.538,0l-5.02,7.134l0,-12.432l-4.541,0l-0.03,21.67l4.571,0l0,-7.148l5.14,7.148l5.82,0l-6.31,-8.19l5.908,-8.182Z" style="fill:#0a0a0a;fill-rule:nonzero;"></path><rect x="134.463" y="8.667" width="4.482" height="16.372" style="fill:#0a0a0a;"></rect><rect x="143.173" y="2.928" width="4.483" height="22.111" style="fill:#0a0a0a;"></rect><rect x="151.885" y="2.928" width="4.482" height="22.111" style="fill:#0a0a0a;"></rect><path d="M173.11,17.771c-0.353,-0.619 -0.922,-1.154 -1.686,-1.591c-0.746,-0.425 -1.744,-0.803 -2.967,-1.12c-1.225,-0.311 -2.147,-0.568 -2.742,-0.76c-0.706,-0.231 -0.987,-0.408 -1.099,-0.518c-0.145,-0.141 -0.215,-0.312 -0.215,-0.52c0,-0.376 0.173,-0.644 0.545,-0.851c0.403,-0.22 0.956,-0.308 1.639,-0.264c0.703,0.055 1.265,0.242 1.666,0.553c0.392,0.306 0.612,0.711 0.674,1.237l0.029,0.253l4.57,-0.821l-0.031,-0.229c-0.145,-1.002 -0.531,-1.884 -1.151,-2.623c-0.617,-0.733 -1.433,-1.306 -2.427,-1.702c-0.986,-0.392 -2.13,-0.59 -3.4,-0.59c-1.311,0 -2.47,0.212 -3.443,0.63c-0.985,0.423 -1.758,1.036 -2.302,1.82c-0.545,0.787 -0.822,1.727 -0.822,2.793c0,0.855 0.185,1.598 0.549,2.204c0.364,0.611 0.96,1.139 1.771,1.568c0.788,0.419 1.849,0.802 3.156,1.138c1.133,0.3 1.981,0.546 2.521,0.731c0.623,0.214 0.858,0.386 0.945,0.492c0.122,0.149 0.181,0.347 0.181,0.606c0,0.421 -0.16,0.74 -0.488,0.974c-0.348,0.249 -0.866,0.374 -1.538,0.374c-0.826,-0 -1.515,-0.196 -2.043,-0.585c-0.531,-0.39 -0.864,-0.916 -1.019,-1.61l-0.049,-0.219l-4.551,0.689l0.039,0.238c0.273,1.714 1.06,3.061 2.338,4.004c1.267,0.934 2.947,1.407 4.991,1.407c2.125,-0 3.819,-0.489 5.034,-1.449c1.232,-0.977 1.857,-2.331 1.857,-4.029c-0,-0.862 -0.18,-1.612 -0.532,-2.23Z" style="fill:#0a0a0a;fill-rule:nonzero;"></path><defs><linearGradient id="_Linear1" x1="0" y1="0" x2="1" y2="0" gradientUnits="userSpaceOnUse" gradientTransform="matrix(8.10351,8.1035,-8.1035,8.10351,-2.15631,17.4847)"><stop offset="0" style="stop-color:#853c92;stop-opacity:1"></stop><stop offset="1" style="stop-color:#943e9d;stop-opacity:1"></stop></linearGradient><linearGradient id="_Linear2" x1="0" y1="0" x2="1" y2="0" gradientUnits="userSpaceOnUse" gradientTransform="matrix(18.8456,-16.3823,16.3823,18.8456,-0.840117,22.4123)"><stop offset="0" style="stop-color:#8a3392;stop-opacity:1"></stop><stop offset="1" style="stop-color:#937ab7;stop-opacity:1"></stop></linearGradient><linearGradient id="_Linear3" x1="0" y1="0" x2="1" y2="0" gradientUnits="userSpaceOnUse" gradientTransform="matrix(5.736,0,0,5.736,133.872,4.3635)"><stop offset="0" style="stop-color:#8a3392;stop-opacity:1"></stop><stop offset="1" style="stop-color:#937ab7;stop-opacity:1"></stop></linearGradient></defs></svg> 