<?xml version="1.0" encoding="UTF-8" standalone="no"?> <svg xmlns="http://www.w3.org/2000/svg" xmlns:xlink="http://www.w3.org/1999/xlink" xmlns:serif="http://www.serif.com/" width="100%" height="100%" viewBox="0 0 274 38" version="1.1" xml:space="preserve" style="fill-rule:evenodd;clip-rule:evenodd;stroke-linejoin:round;stroke-miterlimit:2;"><path d="M212.331,20.958l-8.733,-0c0.212,-0.799 0.514,-1.454 0.9,-1.954c0.82,-1.057 2.08,-1.572 3.854,-1.572c1.498,-0 2.539,0.432 3.183,1.321c0.365,0.504 0.631,1.244 0.796,2.205Zm1.775,-7.263c-1.643,-1.105 -3.66,-1.665 -5.996,-1.665c-2.194,-0 -4.165,0.506 -5.857,1.502c-1.694,0.999 -3.041,2.419 -4.005,4.22c-0.958,1.797 -1.445,3.933 -1.445,6.35c-0,2.219 0.498,4.22 1.48,5.944c0.984,1.727 2.365,3.101 4.106,4.084c1.736,0.983 3.77,1.481 6.043,1.481c2.145,-0 4.148,-0.572 5.955,-1.699c1.814,-1.132 3.161,-2.738 4.001,-4.779l0.14,-0.338l-6.093,-1.747l-0.117,0.257c-0.373,0.819 -0.919,1.455 -1.624,1.888c-0.707,0.433 -1.577,0.654 -2.584,0.654c-1.612,-0 -2.793,-0.502 -3.614,-1.535c-0.536,-0.674 -0.903,-1.56 -1.092,-2.637l15.162,-0l0.027,-0.298c0.232,-2.669 -0.047,-5.025 -0.826,-7.007c-0.785,-1.996 -2.017,-3.569 -3.661,-4.675Z" style="fill:#0a0a0a;fill-rule:nonzero;"></path><path d="M61.283,14.937c0,0.503 -0.075,1.047 -0.225,1.614c-0.145,0.547 -0.41,1.051 -0.788,1.499c-0.366,0.431 -0.898,0.746 -1.585,0.934c-0.268,0.075 -0.566,0.125 -0.884,0.152c-0.334,0.026 -0.641,0.041 -0.921,0.041l-6.341,-0l0,-8.478l6.341,-0c0.28,-0 0.588,0.014 0.919,0.039c0.327,0.027 0.625,0.079 0.888,0.155c0.685,0.186 1.217,0.501 1.583,0.933c0.378,0.447 0.643,0.951 0.788,1.497c0.15,0.568 0.226,1.111 0.226,1.614l-0.001,-0Zm4.402,6.572c1.271,-1.814 1.916,-4.025 1.916,-6.572c0,-1.696 -0.279,-3.26 -0.827,-4.647c-0.557,-1.404 -1.434,-2.584 -2.609,-3.508c-1.173,-0.927 -2.692,-1.538 -4.508,-1.819c-0.397,-0.071 -0.851,-0.117 -1.352,-0.139c-0.494,-0.021 -0.887,-0.032 -1.179,-0.032l-12.864,-0l0,30.346l6.276,-0l0,-10.056l5.707,-0l4.874,10.056l7.095,-0l-5.461,-11.205c1.244,-0.606 2.23,-1.42 2.932,-2.424Z" style="fill:#0a0a0a;fill-rule:nonzero;"></path><path d="M84.954,25.014c-0.01,0.275 -0.025,0.572 -0.044,0.897c-0.045,0.759 -0.205,1.427 -0.473,1.989c-0.135,0.282 -0.405,0.652 -0.801,1.093c-0.391,0.435 -0.927,0.83 -1.595,1.173c-0.653,0.338 -1.479,0.509 -2.452,0.509c-0.599,0 -1.118,-0.088 -1.541,-0.263c-0.406,-0.167 -0.72,-0.408 -0.934,-0.715c-0.217,-0.311 -0.321,-0.675 -0.321,-1.118c-0,-0.315 0.066,-0.602 0.198,-0.853c0.134,-0.256 0.352,-0.5 0.647,-0.723c0.309,-0.234 0.731,-0.458 1.244,-0.664c0.459,-0.171 1.008,-0.333 1.629,-0.483c0.616,-0.147 1.449,-0.315 2.475,-0.501c0.559,-0.1 1.221,-0.214 1.968,-0.341Zm5.317,-9.203c-0.818,-1.551 -2.041,-2.655 -3.634,-3.287c-1.557,-0.617 -3.359,-0.931 -5.358,-0.931c-2.743,0 -4.944,0.605 -6.548,1.798c-1.604,1.192 -2.713,2.761 -3.294,4.662l-0.097,0.318l5.697,1.807l0.107,-0.307c0.328,-0.935 0.883,-1.565 1.696,-1.926c0.845,-0.378 1.665,-0.569 2.439,-0.569c1.385,0 2.374,0.278 2.937,0.831c0.375,0.367 0.626,0.898 0.751,1.582c-0.821,0.123 -1.614,0.241 -2.357,0.35c-1.441,0.212 -2.751,0.438 -3.893,0.671c-1.145,0.236 -2.153,0.511 -2.995,0.82c-1.231,0.452 -2.229,1.026 -2.966,1.705c-0.743,0.686 -1.29,1.49 -1.622,2.387c-0.328,0.884 -0.494,1.872 -0.494,2.94c-0,1.289 0.301,2.484 0.897,3.555c0.599,1.074 1.488,1.943 2.644,2.58c1.152,0.637 2.568,0.96 4.213,0.96c1.97,0 3.628,-0.349 4.926,-1.04c0.798,-0.421 1.576,-1.022 2.321,-1.79l-0,2.211l5.577,0l-0,-13.936c-0,-1.024 -0.042,-1.963 -0.127,-2.794c-0.085,-0.864 -0.361,-1.738 -0.82,-2.597Z" style="fill:#0a0a0a;fill-rule:nonzero;"></path><path d="M107.26,12.16c-0.693,0.05 -1.377,0.172 -2.029,0.362c-0.659,0.194 -1.275,0.468 -1.828,0.806c-0.734,0.433 -1.362,0.988 -1.868,1.654c-0.005,0.006 -0.009,0.012 -0.015,0.019l0,-2.79l-5.617,0l0,22.928l6.318,0l0,-11.712c0,-0.809 0.111,-1.546 0.332,-2.189c0.218,-0.633 0.541,-1.19 0.961,-1.655c0.42,-0.465 0.946,-0.844 1.566,-1.129c0.618,-0.296 1.323,-0.476 2.096,-0.535c0.77,-0.059 1.453,0.005 2.027,0.183l0.437,0.136l0,-5.987l-0.296,-0.037c-0.687,-0.085 -1.391,-0.103 -2.084,-0.054Z" style="fill:#0a0a0a;fill-rule:nonzero;"></path><path d="M127.146,20.742l-8.949,0c0.216,-0.819 0.527,-1.491 0.922,-2.003c0.842,-1.084 2.133,-1.611 3.949,-1.611c1.535,0 2.602,0.444 3.262,1.354c0.372,0.516 0.647,1.274 0.816,2.26Zm1.817,-7.443c-1.682,-1.133 -3.749,-1.706 -6.142,-1.706c-2.249,0 -4.268,0.518 -6.003,1.539c-1.735,1.024 -3.116,2.479 -4.103,4.325c-0.982,1.842 -1.481,4.03 -1.481,6.506c0,2.274 0.51,4.324 1.517,6.092c1.008,1.768 2.424,3.176 4.207,4.184c1.78,1.006 3.864,1.517 6.193,1.517c2.197,0 4.25,-0.585 6.102,-1.742c1.859,-1.158 3.238,-2.804 4.099,-4.895l0.144,-0.348l-6.245,-1.79l-0.12,0.264c-0.381,0.84 -0.94,1.49 -1.662,1.934c-0.726,0.445 -1.617,0.671 -2.648,0.671c-1.652,0 -2.862,-0.515 -3.704,-1.573c-0.549,-0.691 -0.924,-1.599 -1.118,-2.701l15.536,0l0.026,-0.307c0.238,-2.734 -0.046,-5.148 -0.845,-7.179c-0.804,-2.046 -2.067,-3.657 -3.753,-4.791Z" style="fill:#0a0a0a;fill-rule:nonzero;"></path><path d="M136.246,10.024l0,-5.3l24.971,-0l0,5.3l-9.308,-0l0,25.106l-6.354,0l0,-25.106l-9.309,0Z" style="fill:#0a0a0a;fill-rule:nonzero;"></path><path d="M170.581,31.095c0.951,-0 1.79,-0.189 2.52,-0.569c0.729,-0.379 1.299,-0.893 1.714,-1.54c0.415,-0.648 0.623,-1.381 0.623,-2.202l-0,-2.474c-0.202,0.132 -0.479,0.253 -0.827,0.357c-0.349,0.108 -0.742,0.203 -1.176,0.289c-0.436,0.086 -0.871,0.163 -1.306,0.228c-0.436,0.065 -0.83,0.123 -1.184,0.175c-0.759,0.111 -1.422,0.288 -1.99,0.531c-0.565,0.242 -1.007,0.569 -1.319,0.979c-0.315,0.408 -0.47,0.918 -0.47,1.525c-0,0.879 0.32,1.551 0.963,2.011c0.643,0.461 1.461,0.69 2.452,0.69Zm-1.853,4.463c-1.487,-0 -2.814,-0.26 -3.976,-0.781c-1.165,-0.521 -2.082,-1.294 -2.755,-2.322c-0.673,-1.028 -1.009,-2.311 -1.009,-3.848c-0,-1.296 0.238,-2.384 0.711,-3.263c0.477,-0.881 1.125,-1.59 1.945,-2.125c0.819,-0.536 1.752,-0.942 2.8,-1.215c1.047,-0.274 2.147,-0.466 3.301,-0.578c1.356,-0.141 2.45,-0.274 3.28,-0.402c0.829,-0.125 1.432,-0.315 1.806,-0.569c0.373,-0.253 0.561,-0.627 0.561,-1.123l-0,-0.092c-0,-0.96 -0.301,-1.704 -0.902,-2.231c-0.602,-0.525 -1.456,-0.789 -2.559,-0.789c-1.163,-0 -2.089,0.256 -2.777,0.767c-0.688,0.511 -1.144,1.15 -1.366,1.921l-5.982,-0.487c0.304,-1.417 0.902,-2.643 1.792,-3.681c0.89,-1.036 2.042,-1.836 3.453,-2.399c1.411,-0.561 3.049,-0.842 4.912,-0.842c1.295,-0 2.536,0.152 3.726,0.456c1.188,0.303 2.246,0.775 3.172,1.411c0.926,0.638 1.657,1.455 2.193,2.451c0.536,0.999 0.804,2.189 0.804,3.576l-0,15.726l-6.131,-0l-0,-3.233l-0.183,-0c-0.374,0.727 -0.875,1.369 -1.502,1.92c-0.628,0.552 -1.382,0.981 -2.262,1.291c-0.88,0.308 -1.899,0.461 -3.052,0.461Z" style="fill:#0a0a0a;fill-rule:nonzero;"></path><rect x="186.396" y="4.724" width="6.324" height="30.406" style="fill:#0a0a0a;"></rect><path d="M229.078,21.945l0,13.184l-6.324,-0l0,-22.804l6.027,0.002l0,4.022l0.267,-0c0.506,-1.328 1.351,-2.378 2.54,-3.154c1.186,-0.778 2.627,-1.167 4.319,-1.167c1.585,-0 2.965,0.347 4.143,1.04c1.177,0.693 2.093,1.681 2.747,2.961c0.653,1.281 0.979,2.808 0.979,4.582l0,14.518l-6.323,0l0,-13.392c0.008,-1.396 -0.349,-2.487 -1.071,-3.273c-0.722,-0.788 -1.717,-1.182 -2.983,-1.182c-0.852,0 -1.602,0.185 -2.249,0.551c-0.649,0.366 -1.153,0.898 -1.514,1.595c-0.362,0.698 -0.548,1.537 -0.558,2.517Z" style="fill:#0a0a0a;fill-rule:nonzero;"></path><path d="M250.265,6.861l6.325,0l-0,21.26c-0,0.585 0.089,1.038 0.266,1.36c0.178,0.321 0.429,0.547 0.75,0.674c0.321,0.129 0.697,0.194 1.121,0.194c0.298,0 0.594,-0.028 0.891,-0.082c0.297,-0.054 0.525,-0.097 0.683,-0.125l0.994,4.704c-0.316,0.101 -0.762,0.218 -1.335,0.35c-0.574,0.134 -1.272,0.216 -2.094,0.246c-1.523,0.058 -2.858,-0.145 -4.001,-0.609c-1.142,-0.466 -2.031,-1.188 -2.664,-2.168c-0.635,-0.98 -0.946,-2.217 -0.936,-3.712l-0,-22.092Zm10.615,10.215l-13.732,0l-0,-4.75l13.732,0l-0,4.75Z" style="fill:#0a0a0a;fill-rule:nonzero;"></path><path d="M265.621,31.74c0,2.217 1.8,4.017 4.016,4.017c2.218,-0 4.018,-1.8 4.018,-4.017c0,-2.218 -1.8,-4.018 -4.018,-4.018c-2.216,-0 -4.016,1.8 -4.016,4.018Z" style="fill:url(#_Linear1);"></path><path d="M265.621,31.74c0,2.217 1.8,4.017 4.016,4.017c2.218,-0 4.018,-1.8 4.018,-4.017c0,-2.218 -1.8,-4.018 -4.018,-4.018c-2.216,-0 -4.016,1.8 -4.016,4.018Z" style="fill:url(#_Linear2);"></path><path d="M265.621,31.74c0,2.217 1.8,4.017 4.016,4.017c2.218,-0 4.018,-1.8 4.018,-4.017c0,-2.218 -1.8,-4.018 -4.018,-4.018c-2.216,-0 -4.016,1.8 -4.016,4.018Z" style="fill:url(#_Linear3);"></path><path d="M265.621,31.74c0,2.217 1.8,4.017 4.016,4.017c2.218,-0 4.018,-1.8 4.018,-4.017c0,-2.218 -1.8,-4.018 -4.018,-4.018c-2.216,-0 -4.016,1.8 -4.016,4.018Z" style="fill:url(#_Linear4);"></path><path d="M0,21.471l0,16.299l6.404,0l0,-14.108" style="fill:#2970ff;fill-rule:nonzero;"></path><path d="M0.001,0l0,21.786c0,-0.029 0,2.187 0,2.187l6.404,0.004l4.54,0c4.996,0 9.059,4.219 9.059,9.406l-0,4.402l6.404,0l-0,-4.402c-0,-8.719 -6.936,-15.81 -15.463,-15.81l-4.54,0l-0,-11.169l4.54,0c4.996,0 9.059,4.219 9.059,9.406l-0,1.827c-0,0.002 0.001,0.005 0.001,0.005l-0,1.932l1.929,0c0.002,0 0.005,0.001 0.008,0.001l4.466,0l-0,-3.765c-0,-8.718 -6.936,-15.81 -15.463,-15.81l-10.944,0Z" style="fill:url(#_Linear5);fill-rule:nonzero;"></path><defs><linearGradient id="_Linear1" x1="0" y1="0" x2="1" y2="0" gradientUnits="userSpaceOnUse" gradientTransform="matrix(8.034,0,0,8.034,265.62,31.7393)"><stop offset="0" style="stop-color:#00669f;stop-opacity:1"></stop><stop offset="1" style="stop-color:#8fdee7;stop-opacity:1"></stop></linearGradient><linearGradient id="_Linear2" x1="0" y1="0" x2="1" y2="0" gradientUnits="userSpaceOnUse" gradientTransform="matrix(8.034,0,0,8.034,265.62,31.7393)"><stop offset="0" style="stop-color:#00669f;stop-opacity:1"></stop><stop offset="0.18" style="stop-color:#00669f;stop-opacity:1"></stop><stop offset="1" style="stop-color:#5eb5d9;stop-opacity:1"></stop></linearGradient><linearGradient id="_Linear3" x1="0" y1="0" x2="1" y2="0" gradientUnits="userSpaceOnUse" gradientTransform="matrix(8.034,0,0,8.034,265.62,31.7393)"><stop offset="0" style="stop-color:#00669f;stop-opacity:1"></stop><stop offset="1" style="stop-color:#75c8e7;stop-opacity:1"></stop></linearGradient><linearGradient id="_Linear4" x1="0" y1="0" x2="1" y2="0" gradientUnits="userSpaceOnUse" gradientTransform="matrix(8.034,0,0,8.034,265.62,31.7393)"><stop offset="0" style="stop-color:#2970ff;stop-opacity:1"></stop><stop offset="0.18" style="stop-color:#2970ff;stop-opacity:1"></stop><stop offset="1" style="stop-color:#b2ccff;stop-opacity:1"></stop></linearGradient><linearGradient id="_Linear5" x1="0" y1="0" x2="1" y2="0" gradientUnits="userSpaceOnUse" gradientTransform="matrix(26.3986,-22.948,22.948,26.3986,-1.1775,31.3942)"><stop offset="0" style="stop-color:#2970ff;stop-opacity:1"></stop><stop offset="0.18" style="stop-color:#2970ff;stop-opacity:1"></stop><stop offset="1" style="stop-color:#b2ccff;stop-opacity:1"></stop></linearGradient></defs></svg> 