<?xml version="1.0" encoding="UTF-8" standalone="no"?> <svg xmlns="http://www.w3.org/2000/svg" xmlns:xlink="http://www.w3.org/1999/xlink" xmlns:serif="http://www.serif.com/" width="100%" height="100%" viewBox="0 0 121 31" version="1.1" xml:space="preserve" style="fill-rule:evenodd;clip-rule:evenodd;stroke-linejoin:round;stroke-miterlimit:2;"><path d="M22.45,18.8c-0.97,-0.562 -2.063,-0.724 -3.147,-0.759c-0.909,-0.031 -2.263,-0.613 -2.263,-2.279c0.005,-0.6 0.245,-1.174 0.668,-1.6c0.422,-0.426 0.995,-0.669 1.595,-0.678c1.084,-0.038 2.177,-0.2 3.147,-0.76c0.871,-0.504 1.593,-1.228 2.095,-2.1c0.502,-0.872 0.766,-1.86 0.766,-2.866c-0.001,-1.006 -0.267,-1.995 -0.77,-2.866c-0.503,-0.871 -1.227,-1.594 -2.099,-2.097c-0.871,-0.502 -1.859,-0.767 -2.865,-0.767c-1.006,-0 -1.995,0.264 -2.866,0.767c-0.871,0.503 -1.595,1.226 -2.099,2.097c-0.503,0.871 -0.769,1.859 -0.77,2.865c0,1.112 0.395,2.134 0.902,3.084c0.422,0.797 0.638,2.278 -0.818,3.116c-0.526,0.293 -1.146,0.368 -1.727,0.209c-0.581,-0.159 -1.076,-0.539 -1.379,-1.059c-0.57,-0.912 -1.266,-1.773 -2.221,-2.322c-0.871,-0.503 -1.86,-0.767 -2.867,-0.767c-1.006,0 -1.994,0.265 -2.866,0.769c-0.871,0.503 -1.595,1.227 -2.098,2.098c-0.503,0.872 -0.768,1.861 -0.768,2.867c-0,1.006 0.265,1.995 0.768,2.867c0.503,0.871 1.227,1.595 2.098,2.098c0.872,0.504 1.86,0.769 2.866,0.769c1.007,0.001 1.996,-0.264 2.867,-0.767c0.962,-0.557 1.651,-1.41 2.221,-2.321c0.468,-0.76 1.635,-1.702 3.106,-0.851c0.517,0.31 0.891,0.809 1.044,1.392c0.152,0.582 0.07,1.202 -0.229,1.724c-0.506,0.95 -0.899,1.973 -0.899,3.084c0,1.007 0.265,1.996 0.769,2.868c0.503,0.872 1.227,1.596 2.099,2.1c0.872,0.503 1.861,0.768 2.868,0.768c1.007,0 1.996,-0.264 2.868,-0.768c0.872,-0.503 1.597,-1.227 2.1,-2.098c0.504,-0.872 0.769,-1.861 0.77,-2.868c0,-1.007 -0.265,-1.996 -0.768,-2.869c-0.503,-0.872 -1.226,-1.596 -2.098,-2.1l-0,0.02Z" style="fill:#006aff;fill-rule:nonzero;"></path><path d="M33.207,7.061l3.992,-0l0,1.883c0.533,-0.647 1.201,-1.17 1.959,-1.529c0.758,-0.359 1.585,-0.547 2.423,-0.549c0.569,-0.021 1.138,0.044 1.687,0.195l-0,4.557c-0,-0 -0.552,-0.195 -1.881,-0.195c-2.279,-0 -3.798,1.519 -3.798,3.797l0,9.304l-4.382,0l-0,-17.463Zm21.455,-0l3.993,-0l-0,1.688c1.363,-1.203 3.116,-1.872 4.934,-1.883c4.382,-0 8.18,3.797 8.18,8.926c-0,5.13 -3.798,8.927 -8.18,8.927c-1.674,0.004 -3.292,-0.608 -4.544,-1.719l-0,7.79l-4.383,-0l0,-23.729Zm12.725,8.731c-0,-2.855 -1.884,-4.739 -4.35,-4.739c-2.466,0 -4.382,1.876 -4.382,4.739c-0,2.864 1.914,4.732 4.385,4.732c2.471,0 4.347,-1.873 4.347,-4.732Zm7.594,-8.731l3.993,-0l-0,1.688c1.363,-1.202 3.116,-1.871 4.934,-1.883c4.382,-0 8.18,3.797 8.18,8.926c-0,5.13 -3.798,8.927 -8.18,8.927c-1.674,0.003 -3.291,-0.609 -4.544,-1.719l-0,7.79l-4.383,-0l0,-23.729Zm12.727,8.731c0,-2.855 -1.883,-4.739 -4.352,-4.739c-2.468,0 -4.382,1.876 -4.382,4.739c-0,2.864 1.916,4.732 4.382,4.732c2.466,0 4.352,-1.873 4.352,-4.732Zm7.595,-15.189l4.382,-0l0,23.921l-4.382,0l-0,-23.921Zm7.595,15.189c-0,-4.931 3.992,-8.926 8.732,-8.926c4.574,-0 8.372,3.605 8.372,8.926c-0.018,0.579 -0.084,1.154 -0.195,1.722l-12.17,-0c0.39,1.689 1.732,3.01 3.993,3.01c2.045,0 2.858,-0.939 2.858,-0.939l4.739,-0c-0.878,2.278 -3.605,5.126 -7.595,5.126c-4.742,0.008 -8.734,-3.984 -8.734,-8.919Zm12.911,-1.329c-0.199,-0.963 -0.724,-1.828 -1.487,-2.449c-0.763,-0.622 -1.716,-0.961 -2.7,-0.961c-0.984,0 -1.937,0.339 -2.7,0.961c-0.763,0.621 -1.288,1.486 -1.487,2.449l8.374,0Zm-69.984,-11.979c-0,-0.659 0.261,-1.291 0.727,-1.757c0.466,-0.465 1.097,-0.727 1.756,-0.727c0.659,0 1.29,0.262 1.756,0.727c0.466,0.466 0.728,1.098 0.728,1.757c-0,0.658 -0.262,1.29 -0.728,1.756c-0.466,0.465 -1.097,0.727 -1.756,0.727c-0.659,0 -1.29,-0.262 -1.756,-0.727c-0.466,-0.466 -0.727,-1.098 -0.727,-1.756Zm0.293,4.577l4.39,-0l0,17.468l-4.382,0l-0.008,-17.468Z" style="fill:#0a0a0a;fill-rule:nonzero;"></path></svg> 