<?xml version="1.0" encoding="UTF-8" standalone="no"?> <svg xmlns="http://www.w3.org/2000/svg" xmlns:xlink="http://www.w3.org/1999/xlink" xmlns:serif="http://www.serif.com/" width="100%" height="100%" viewBox="0 0 424 85" version="1.1" xml:space="preserve" style="fill-rule:evenodd;clip-rule:evenodd;stroke-miterlimit:2;"><path d="M150.591,30.967c0,-4.724 0.214,-7.838 0.59,-9.341c0.43,-1.449 1.02,-2.523 1.718,-3.06c0.698,-0.591 1.611,-0.859 2.631,-0.859c1.073,0 2.201,0.376 3.489,1.181l2.255,-6.388c-1.557,-0.913 -3.167,-1.396 -4.885,-1.396c-1.181,0 -2.255,0.268 -3.168,0.859c-0.912,0.59 -1.986,1.825 -3.167,3.704l0,-3.973l-6.818,0l-0,27.863l7.355,0l0,-8.59Z" style="fill:#0a0a0a;fill-rule:nonzero;"></path><path d="M189.683,39.557l-0,-27.863l-7.355,0l0,11.757c0,4.027 -0.161,6.55 -0.537,7.57c-0.376,1.02 -1.074,1.879 -2.094,2.577c-0.966,0.698 -2.094,1.02 -3.382,1.02c-1.074,0 -1.986,-0.268 -2.738,-0.752c-0.698,-0.536 -1.181,-1.234 -1.449,-2.147c-0.269,-0.859 -0.43,-3.275 -0.43,-7.194l-0,-12.831l-7.355,0l0,17.663c0,2.63 0.322,4.724 1.02,6.174c0.644,1.503 1.718,2.684 3.221,3.489c1.503,0.806 3.168,1.235 5.047,1.235c1.825,0 3.597,-0.429 5.207,-1.342c1.664,-0.859 3.007,-2.04 4.027,-3.543l0,4.187l6.818,0Z" style="fill:#0a0a0a;fill-rule:nonzero;"></path><path d="M222.583,22.27c-0,-2.147 -0.161,-3.811 -0.429,-4.939c-0.269,-1.181 -0.752,-2.201 -1.45,-3.114c-0.698,-0.912 -1.718,-1.664 -3.06,-2.254c-1.342,-0.591 -2.845,-0.859 -4.456,-0.859c-3.704,0 -6.818,1.557 -9.234,4.67l-0,-4.08l-6.818,0l0,27.863l7.355,0l-0,-12.616c-0,-3.114 0.215,-5.208 0.591,-6.389c0.375,-1.127 1.073,-2.04 2.093,-2.738c1.02,-0.697 2.148,-1.073 3.436,-1.073c1.02,0 1.879,0.268 2.577,0.751c0.752,0.483 1.235,1.181 1.557,2.04c0.322,0.859 0.483,2.846 0.483,5.852l-0,14.173l7.355,0l-0,-17.287Z" style="fill:#0a0a0a;fill-rule:nonzero;"></path><path d="M237.714,11.694l0,-9.878l-7.355,4.349l-0,5.529l-3.383,0l-0,5.852l3.383,0l-0,12.187c-0,2.63 0.053,4.348 0.214,5.207c0.215,1.235 0.537,2.201 1.074,2.899c0.483,0.698 1.235,1.289 2.309,1.718c1.073,0.483 2.254,0.698 3.596,0.698c2.148,0 4.081,-0.376 5.799,-1.127l-0.591,-5.691c-1.342,0.483 -2.309,0.698 -3.006,0.698c-0.484,0 -0.913,-0.108 -1.235,-0.376c-0.322,-0.215 -0.591,-0.537 -0.644,-0.913c-0.108,-0.375 -0.161,-1.718 -0.161,-4.026l0,-11.274l5.046,0l-0,-5.852l-5.046,0Z" style="fill:#0a0a0a;fill-rule:nonzero;"></path><path d="M255.269,7.936l-0,-6.818l-7.355,0l0,6.818l7.355,0Zm-0,31.621l-0,-27.863l-7.355,0l0,27.863l7.355,0Z" style="fill:#0a0a0a;fill-rule:nonzero;"></path><path d="M262.294,39.557l7.354,0l0,-13.529c0,-2.684 0.215,-4.563 0.591,-5.744c0.376,-1.127 1.02,-2.04 1.933,-2.631c0.912,-0.59 1.932,-0.912 3.06,-0.912c0.966,0 1.718,0.214 2.255,0.59c0.536,0.376 0.966,0.967 1.234,1.718c0.269,0.805 0.376,2.577 0.376,5.261l-0,15.247l7.355,0l-0,-13.368c-0,-2.63 0.215,-4.509 0.591,-5.744c0.429,-1.235 1.073,-2.147 1.986,-2.738c0.913,-0.644 1.879,-0.966 2.899,-0.966c1.45,0 2.47,0.537 3.167,1.557c0.484,0.805 0.752,2.577 0.752,5.368l-0,15.891l7.355,0l-0,-17.77c-0,-2.684 -0.268,-4.617 -0.752,-5.798c-0.698,-1.61 -1.771,-2.792 -3.167,-3.651c-1.45,-0.805 -3.168,-1.234 -5.208,-1.234c-1.61,0 -3.113,0.376 -4.509,1.127c-1.45,0.698 -2.738,1.825 -3.973,3.329c-0.859,-1.504 -1.933,-2.631 -3.221,-3.329c-1.342,-0.751 -2.845,-1.127 -4.617,-1.127c-3.382,0 -6.281,1.449 -8.697,4.402l0,-3.812l-6.764,0l0,27.863Z" style="fill:#0a0a0a;fill-rule:nonzero;"></path><path d="M324.899,33.759c-0.805,0.644 -1.772,0.966 -2.899,0.966c-1.718,0 -3.114,-0.59 -4.241,-1.825c-1.128,-1.235 -1.718,-2.899 -1.772,-5.1l18.414,0c0.108,-5.637 -1.02,-9.825 -3.436,-12.562c-2.362,-2.738 -5.637,-4.134 -9.77,-4.134c-3.705,0 -6.765,1.288 -9.181,3.919c-2.416,2.63 -3.597,6.227 -3.597,10.844c-0,3.866 0.913,7.087 2.738,9.61c2.362,3.167 5.906,4.778 10.737,4.778c3.061,0 5.637,-0.698 7.677,-2.094c2.041,-1.449 3.49,-3.489 4.456,-6.174l-7.355,-1.234c-0.375,1.395 -0.966,2.416 -1.771,3.006Zm-8.805,-10.469c-0,-2.04 0.537,-3.597 1.557,-4.778c1.074,-1.181 2.362,-1.771 3.973,-1.771c1.503,0 2.792,0.537 3.812,1.664c1.073,1.127 1.61,2.738 1.664,4.885l-11.006,0Z" style="fill:#0a0a0a;fill-rule:nonzero;"></path><path d="M150.591,30.967c0,-4.724 0.214,-7.838 0.59,-9.341c0.43,-1.449 1.02,-2.523 1.718,-3.06c0.698,-0.591 1.611,-0.859 2.631,-0.859c1.073,0 2.201,0.376 3.489,1.181l2.255,-6.388c-1.557,-0.913 -3.167,-1.396 -4.885,-1.396c-1.181,0 -2.255,0.268 -3.168,0.859c-0.912,0.59 -1.986,1.825 -3.167,3.704l0,-3.973l-6.818,0l-0,27.863l7.355,0l0,-8.59Zm39.092,8.59l-0,-27.863l-7.355,0l0,11.757c0,4.027 -0.161,6.55 -0.537,7.57c-0.375,1.02 -1.073,1.879 -2.093,2.577c-0.967,0.698 -2.094,1.02 -3.383,1.02c-1.073,0 -1.986,-0.268 -2.738,-0.752c-0.697,-0.536 -1.181,-1.234 -1.449,-2.147c-0.269,-0.859 -0.43,-3.275 -0.43,-7.194l-0,-12.831l-7.355,0l0,17.663c0,2.63 0.323,4.724 1.021,6.174c0.644,1.503 1.717,2.684 3.221,3.489c1.503,0.806 3.167,1.235 5.046,1.235c1.825,0 3.597,-0.429 5.208,-1.342c1.664,-0.859 3.006,-2.04 4.026,-3.543l0,4.187l6.818,0Zm32.9,-17.287c-0,-2.147 -0.161,-3.811 -0.429,-4.939c-0.268,-1.181 -0.752,-2.201 -1.45,-3.114c-0.697,-0.912 -1.717,-1.664 -3.06,-2.254c-1.342,-0.591 -2.845,-0.859 -4.456,-0.859c-3.704,0 -6.818,1.557 -9.233,4.67l0,-4.08l-6.819,0l0,27.863l7.355,0l-0,-12.616c-0,-3.114 0.215,-5.208 0.591,-6.389c0.376,-1.127 1.074,-2.04 2.094,-2.738c1.02,-0.697 2.147,-1.073 3.436,-1.073c1.02,0 1.879,0.268 2.576,0.751c0.752,0.483 1.235,1.181 1.557,2.04c0.322,0.859 0.484,2.846 0.484,5.852l0,14.173l7.354,0l-0,-17.287Zm15.131,-10.576l0,-9.878l-7.355,4.349l-0,5.529l-3.382,0l0,5.852l3.382,0l-0,12.187c-0,2.63 0.054,4.348 0.215,5.207c0.214,1.235 0.537,2.201 1.073,2.899c0.484,0.698 1.235,1.289 2.309,1.718c1.074,0.483 2.255,0.698 3.597,0.698c2.147,0 4.08,-0.376 5.798,-1.127l-0.591,-5.691c-1.342,0.483 -2.308,0.698 -3.006,0.698c-0.483,0 -0.913,-0.108 -1.235,-0.376c-0.322,-0.215 -0.59,-0.537 -0.644,-0.913c-0.107,-0.375 -0.161,-1.718 -0.161,-4.026l0,-11.274l5.046,0l-0,-5.852l-5.046,0Zm17.555,-3.758l-0,-6.818l-7.355,0l0,6.818l7.355,0Zm-0,31.621l-0,-27.863l-7.355,0l0,27.863l7.355,0Zm7.025,0l7.355,0l-0,-13.529c-0,-2.684 0.215,-4.563 0.59,-5.744c0.376,-1.127 1.021,-2.04 1.933,-2.631c0.913,-0.59 1.933,-0.912 3.06,-0.912c0.967,0 1.718,0.214 2.255,0.59c0.537,0.376 0.966,0.967 1.235,1.718c0.268,0.805 0.376,2.577 0.376,5.261l-0,15.247l7.355,0l0,-13.368c0,-2.63 0.214,-4.509 0.59,-5.744c0.43,-1.235 1.074,-2.147 1.986,-2.738c0.913,-0.644 1.879,-0.966 2.899,-0.966c1.45,0 2.47,0.537 3.168,1.557c0.483,0.805 0.752,2.577 0.752,5.368l-0,15.891l7.354,0l-0,-17.77c-0,-2.684 -0.268,-4.617 -0.751,-5.798c-0.698,-1.61 -1.772,-2.792 -3.168,-3.651c-1.449,-0.805 -3.167,-1.234 -5.207,-1.234c-1.611,0 -3.114,0.376 -4.51,1.127c-1.449,0.698 -2.738,1.825 -3.972,3.329c-0.859,-1.504 -1.933,-2.631 -3.222,-3.329c-1.342,-0.751 -2.845,-1.127 -4.617,-1.127c-3.382,0 -6.281,1.449 -8.697,4.402l0,-3.812l-6.764,0l0,27.863Zm62.605,-5.798c-0.805,0.644 -1.772,0.966 -2.899,0.966c-1.718,0 -3.114,-0.59 -4.241,-1.825c-1.128,-1.235 -1.718,-2.899 -1.772,-5.1l18.414,0c0.108,-5.637 -1.02,-9.825 -3.436,-12.562c-2.362,-2.738 -5.637,-4.134 -9.77,-4.134c-3.705,0 -6.765,1.288 -9.181,3.919c-2.415,2.63 -3.597,6.227 -3.597,10.844c-0,3.866 0.913,7.087 2.738,9.61c2.363,3.167 5.906,4.778 10.738,4.778c3.06,0 5.637,-0.698 7.677,-2.094c2.04,-1.449 3.489,-3.489 4.455,-6.174l-7.354,-1.234c-0.376,1.395 -0.967,2.416 -1.772,3.006Zm-8.805,-10.469c-0,-2.04 0.537,-3.597 1.557,-4.778c1.074,-1.181 2.363,-1.771 3.973,-1.771c1.503,0 2.792,0.537 3.812,1.664c1.074,1.127 1.61,2.738 1.664,4.885l-11.006,0Z" style="fill:#0a0a0a;stroke:#fff;stroke-width:1px;"></path><path d="M157.838,83.154l11.113,-27.863l-7.57,0l-5.368,14.227c-0.268,0.805 -0.537,1.557 -0.752,2.362c-0.107,0.376 -0.375,1.181 -0.751,2.362l-1.557,-4.724l-5.208,-14.227l-7.73,0l11.22,27.863l6.603,0Z" style="fill:#0a0a0a;fill-rule:nonzero;"></path><path d="M187.741,77.356c-0.805,0.644 -1.772,0.966 -2.899,0.966c-1.718,0 -3.114,-0.59 -4.241,-1.825c-1.127,-1.235 -1.718,-2.899 -1.772,-5.1l18.414,0c0.108,-5.637 -1.02,-9.825 -3.435,-12.563c-2.363,-2.738 -5.637,-4.134 -9.771,-4.134c-3.704,0 -6.765,1.289 -9.18,3.919c-2.416,2.631 -3.597,6.228 -3.597,10.845c-0,3.865 0.912,7.086 2.738,9.61c2.362,3.167 5.905,4.778 10.737,4.778c3.06,0 5.637,-0.698 7.677,-2.094c2.04,-1.45 3.489,-3.49 4.456,-6.174l-7.355,-1.235c-0.376,1.396 -0.967,2.416 -1.772,3.007Zm-8.804,-10.469c-0,-2.04 0.537,-3.597 1.557,-4.778c1.073,-1.181 2.362,-1.772 3.972,-1.772c1.503,0 2.792,0.537 3.812,1.665c1.074,1.127 1.611,2.738 1.664,4.885l-11.005,0Z" style="fill:#0a0a0a;fill-rule:nonzero;"></path><path d="M210.289,74.564c0,-4.724 0.215,-7.838 0.591,-9.341c0.429,-1.45 1.02,-2.523 1.718,-3.06c0.697,-0.591 1.61,-0.859 2.63,-0.859c1.074,0 2.201,0.376 3.49,1.181l2.254,-6.389c-1.556,-0.912 -3.167,-1.396 -4.885,-1.396c-1.181,0 -2.255,0.269 -3.167,0.859c-0.913,0.591 -1.987,1.826 -3.168,3.705l-0,-3.973l-6.818,0l0,27.863l7.355,0l0,-8.59Z" style="fill:#0a0a0a;fill-rule:nonzero;"></path><path d="M231.521,51.533l-0,-6.818l-7.355,0l0,6.818l7.355,0Zm-0,31.621l-0,-27.863l-7.355,0l0,27.863l7.355,0Z" style="fill:#0a0a0a;fill-rule:nonzero;"></path><path d="M235.86,61.089l4.08,0l0,22.065l7.355,0l-0,-22.065l5.529,0l0,-5.798l-5.529,0l-0,-1.986c-0,-1.45 0.215,-2.416 0.698,-2.899c0.483,-0.484 1.288,-0.752 2.362,-0.752c1.127,0 2.255,0.161 3.489,0.429l0.913,-5.153c-2.04,-0.591 -4.08,-0.913 -6.174,-0.913c-2.094,0 -3.758,0.376 -5.1,1.074c-1.342,0.751 -2.308,1.664 -2.792,2.845c-0.483,1.127 -0.751,2.899 -0.751,5.261l0,2.094l-4.08,0l0,5.798Z" style="fill:#0a0a0a;fill-rule:nonzero;"></path><path d="M264.314,51.533l-0,-6.818l-7.355,0l0,6.818l7.355,0Zm-0,31.621l-0,-27.863l-7.355,0l0,27.863l7.355,0Z" style="fill:#0a0a0a;fill-rule:nonzero;"></path><path d="M291.846,56.902c-1.987,-1.45 -4.724,-2.202 -8.107,-2.202c-4.133,0 -7.408,1.289 -9.824,3.866c-2.416,2.523 -3.651,6.12 -3.651,10.737c0,4.563 1.235,8.106 3.651,10.683c2.416,2.577 5.637,3.866 9.717,3.866c3.597,0 6.442,-0.859 8.536,-2.524c2.147,-1.717 3.597,-4.241 4.349,-7.569l-7.248,-1.235c-0.376,1.933 -1.02,3.329 -1.879,4.134c-0.913,0.805 -2.04,1.181 -3.436,1.181c-1.879,0 -3.328,-0.698 -4.456,-2.04c-1.127,-1.396 -1.664,-3.704 -1.664,-7.033c0,-2.953 0.537,-5.1 1.664,-6.389c1.074,-1.234 2.523,-1.879 4.349,-1.879c1.396,0 2.523,0.376 3.382,1.074c0.859,0.752 1.396,1.825 1.664,3.275l7.248,-1.288c-0.859,-3.007 -2.309,-5.208 -4.295,-6.657Z" style="fill:#0a0a0a;fill-rule:nonzero;"></path><path d="M308.979,61.143c0.751,-0.537 1.771,-0.806 3.114,-0.806c1.932,0 3.221,0.323 3.919,0.913c0.698,0.591 1.073,1.611 1.073,3.06l-0,0.752c-1.342,0.537 -3.704,1.181 -7.14,1.825c-2.577,0.483 -4.509,1.02 -5.852,1.718c-1.342,0.644 -2.415,1.557 -3.167,2.792c-0.752,1.234 -1.127,2.63 -1.127,4.241c0,2.362 0.805,4.348 2.469,5.905c1.664,1.557 3.919,2.309 6.764,2.309c1.611,0 3.114,-0.322 4.564,-0.913c1.449,-0.644 2.791,-1.557 4.026,-2.792c0.054,0.161 0.161,0.43 0.269,0.859c0.268,0.967 0.483,1.665 0.698,2.148l7.301,0c-0.644,-1.342 -1.074,-2.577 -1.289,-3.758c-0.268,-1.128 -0.376,-2.953 -0.376,-5.369l0.108,-8.589c0,-3.222 -0.322,-5.423 -0.966,-6.604c-0.698,-1.181 -1.826,-2.201 -3.436,-2.952c-1.611,-0.806 -4.027,-1.182 -7.302,-1.182c-3.65,0 -6.388,0.645 -8.213,1.987c-1.826,1.288 -3.114,3.275 -3.866,6.013l6.657,1.181c0.43,-1.289 1.074,-2.255 1.772,-2.738Zm8.106,10.146c-0,1.772 -0.107,2.953 -0.268,3.597c-0.322,0.967 -0.859,1.772 -1.772,2.47c-1.235,0.859 -2.469,1.288 -3.811,1.288c-1.182,0 -2.148,-0.376 -2.953,-1.127c-0.752,-0.752 -1.128,-1.664 -1.128,-2.684c0,-1.02 0.484,-1.879 1.45,-2.577c0.644,-0.43 1.933,-0.859 4.026,-1.289c2.04,-0.429 3.49,-0.805 4.456,-1.127l-0,1.449Z" style="fill:#0a0a0a;fill-rule:nonzero;"></path><path d="M339.266,55.291l-0,-9.878l-7.355,4.348l0,5.53l-3.382,0l-0,5.852l3.382,0l0,12.186c0,2.631 0.053,4.349 0.214,5.208c0.215,1.235 0.537,2.201 1.074,2.899c0.483,0.698 1.235,1.288 2.309,1.718c1.073,0.483 2.254,0.698 3.597,0.698c2.147,0 4.08,-0.376 5.798,-1.128l-0.591,-5.69c-1.342,0.483 -2.308,0.698 -3.006,0.698c-0.483,0 -0.913,-0.108 -1.235,-0.376c-0.322,-0.215 -0.591,-0.537 -0.644,-0.913c-0.108,-0.376 -0.161,-1.718 -0.161,-4.026l-0,-11.274l5.046,0l0,-5.852l-5.046,0Z" style="fill:#0a0a0a;fill-rule:nonzero;"></path><path d="M356.821,51.533l0,-6.818l-7.354,0l0,6.818l7.354,0Zm0,31.621l0,-27.863l-7.354,0l0,27.863l7.354,0Z" style="fill:#0a0a0a;fill-rule:nonzero;"></path><path d="M364.49,77.034c1.181,2.254 2.953,3.919 5.261,5.1c2.309,1.127 4.724,1.718 7.301,1.718c4.134,0 7.516,-1.396 10.254,-4.188c2.738,-2.738 4.08,-6.227 4.08,-10.468c-0,-4.188 -1.342,-7.624 -4.026,-10.362c-2.684,-2.738 -6.174,-4.134 -10.361,-4.134c-2.738,0 -5.208,0.591 -7.409,1.826c-2.201,1.181 -3.919,2.952 -5.1,5.261c-1.235,2.255 -1.825,4.617 -1.825,7.086c0,3.222 0.59,5.906 1.825,8.161Zm7.731,-14.12c1.288,-1.449 2.899,-2.201 4.831,-2.201c1.879,0 3.49,0.752 4.832,2.201c1.289,1.504 1.933,3.597 1.933,6.335c-0,2.792 -0.644,4.886 -1.933,6.389c-1.342,1.449 -2.953,2.201 -4.832,2.201c-1.932,0 -3.543,-0.752 -4.831,-2.201c-1.342,-1.503 -1.987,-3.597 -1.987,-6.389c0,-2.738 0.645,-4.831 1.987,-6.335Z" style="fill:#0a0a0a;fill-rule:nonzero;"></path><path d="M422.515,65.867c0,-2.147 -0.161,-3.812 -0.429,-4.939c-0.269,-1.181 -0.752,-2.201 -1.45,-3.114c-0.698,-0.912 -1.718,-1.664 -3.06,-2.255c-1.342,-0.59 -2.845,-0.859 -4.456,-0.859c-3.704,0 -6.818,1.557 -9.234,4.671l-0,-4.08l-6.818,0l-0,27.863l7.355,0l0,-12.616c0,-3.114 0.215,-5.208 0.591,-6.389c0.375,-1.127 1.073,-2.04 2.093,-2.738c1.02,-0.698 2.148,-1.074 3.436,-1.074c1.02,0 1.879,0.269 2.577,0.752c0.752,0.483 1.235,1.181 1.557,2.04c0.322,0.859 0.483,2.845 0.483,5.852l0,14.173l7.355,0l0,-17.287Z" style="fill:#0a0a0a;fill-rule:nonzero;"></path><path d="M157.838,83.154l11.113,-27.863l-7.57,0l-5.368,14.227c-0.268,0.805 -0.537,1.557 -0.752,2.362c-0.107,0.376 -0.375,1.181 -0.751,2.362l-1.557,-4.724l-5.208,-14.227l-7.73,0l11.22,27.863l6.603,0Zm29.903,-5.798c-0.805,0.644 -1.772,0.966 -2.899,0.966c-1.718,0 -3.114,-0.59 -4.241,-1.825c-1.127,-1.235 -1.718,-2.899 -1.772,-5.1l18.414,0c0.108,-5.637 -1.02,-9.825 -3.435,-12.563c-2.363,-2.738 -5.637,-4.134 -9.771,-4.134c-3.704,0 -6.765,1.289 -9.18,3.919c-2.416,2.631 -3.597,6.228 -3.597,10.845c-0,3.865 0.912,7.086 2.738,9.61c2.362,3.167 5.905,4.778 10.737,4.778c3.06,0 5.637,-0.698 7.677,-2.094c2.04,-1.45 3.489,-3.49 4.456,-6.174l-7.355,-1.235c-0.376,1.396 -0.967,2.416 -1.772,3.007Zm-8.804,-10.469c-0,-2.04 0.537,-3.597 1.557,-4.778c1.073,-1.181 2.362,-1.772 3.972,-1.772c1.503,0 2.792,0.537 3.812,1.665c1.074,1.127 1.611,2.738 1.664,4.885l-11.005,0Zm31.352,7.677c0,-4.724 0.215,-7.838 0.591,-9.341c0.429,-1.45 1.02,-2.523 1.718,-3.06c0.697,-0.591 1.61,-0.859 2.63,-0.859c1.074,0 2.201,0.376 3.49,1.181l2.254,-6.389c-1.556,-0.912 -3.167,-1.396 -4.885,-1.396c-1.181,0 -2.255,0.269 -3.167,0.859c-0.913,0.591 -1.987,1.826 -3.168,3.705l-0,-3.973l-6.818,0l0,27.863l7.355,0l0,-8.59Zm21.232,-23.031l-0,-6.818l-7.355,0l0,6.818l7.355,0Zm-0,31.621l-0,-27.863l-7.355,0l0,27.863l7.355,0Zm4.339,-22.065l4.08,0l0,22.065l7.355,0l-0,-22.065l5.529,0l0,-5.798l-5.529,0l-0,-1.986c-0,-1.45 0.215,-2.416 0.698,-2.899c0.483,-0.484 1.288,-0.752 2.362,-0.752c1.127,0 2.255,0.161 3.489,0.429l0.913,-5.153c-2.04,-0.591 -4.08,-0.913 -6.174,-0.913c-2.094,0 -3.758,0.376 -5.1,1.074c-1.342,0.751 -2.308,1.664 -2.792,2.845c-0.483,1.127 -0.751,2.899 -0.751,5.261l0,2.094l-4.08,0l0,5.798Zm28.453,-9.556l-0,-6.818l-7.355,0l0,6.818l7.355,0Zm-0,31.621l-0,-27.863l-7.355,0l0,27.863l7.355,0Zm27.533,-26.252c-1.986,-1.45 -4.724,-2.202 -8.107,-2.202c-4.133,0 -7.408,1.289 -9.824,3.866c-2.416,2.523 -3.651,6.12 -3.651,10.737c0,4.563 1.235,8.106 3.651,10.683c2.416,2.577 5.637,3.866 9.717,3.866c3.597,0 6.442,-0.859 8.536,-2.524c2.147,-1.717 3.597,-4.241 4.349,-7.569l-7.248,-1.235c-0.376,1.933 -1.02,3.329 -1.879,4.134c-0.913,0.805 -2.04,1.181 -3.436,1.181c-1.879,0 -3.328,-0.698 -4.456,-2.04c-1.127,-1.396 -1.664,-3.704 -1.664,-7.033c0,-2.953 0.537,-5.1 1.664,-6.389c1.074,-1.234 2.523,-1.879 4.349,-1.879c1.396,0 2.523,0.376 3.382,1.074c0.859,0.752 1.396,1.825 1.664,3.275l7.248,-1.288c-0.859,-3.007 -2.309,-5.208 -4.295,-6.657Zm17.132,4.241c0.752,-0.537 1.772,-0.806 3.114,-0.806c1.933,0 3.221,0.323 3.919,0.913c0.698,0.591 1.074,1.611 1.074,3.06l-0,0.752c-1.342,0.537 -3.704,1.181 -7.14,1.825c-2.577,0.483 -4.51,1.02 -5.852,1.718c-1.342,0.644 -2.416,1.557 -3.167,2.792c-0.752,1.234 -1.128,2.63 -1.128,4.241c0,2.362 0.805,4.348 2.47,5.905c1.664,1.557 3.919,2.309 6.764,2.309c1.611,0 3.114,-0.322 4.563,-0.913c1.45,-0.644 2.792,-1.557 4.027,-2.792c0.054,0.161 0.161,0.43 0.268,0.859c0.269,0.967 0.483,1.665 0.698,2.148l7.301,0c-0.644,-1.342 -1.073,-2.577 -1.288,-3.758c-0.268,-1.128 -0.376,-2.953 -0.376,-5.369l0.108,-8.589c0,-3.222 -0.323,-5.423 -0.967,-6.604c-0.698,-1.181 -1.825,-2.201 -3.436,-2.952c-1.61,-0.806 -4.026,-1.182 -7.301,-1.182c-3.651,0 -6.389,0.645 -8.214,1.987c-1.825,1.288 -3.114,3.275 -3.865,6.013l6.657,1.181c0.429,-1.289 1.074,-2.255 1.771,-2.738Zm8.107,10.146c-0,1.772 -0.107,2.953 -0.268,3.597c-0.323,0.967 -0.859,1.772 -1.772,2.47c-1.235,0.859 -2.47,1.288 -3.812,1.288c-1.181,0 -2.147,-0.376 -2.952,-1.127c-0.752,-0.752 -1.128,-1.664 -1.128,-2.684c0,-1.02 0.483,-1.879 1.45,-2.577c0.644,-0.43 1.932,-0.859 4.026,-1.289c2.04,-0.429 3.49,-0.805 4.456,-1.127l-0,1.449Zm22.172,-15.998l-0,-9.878l-7.355,4.348l0,5.53l-3.382,0l-0,5.852l3.382,0l0,12.186c0,2.631 0.054,4.349 0.215,5.208c0.215,1.235 0.537,2.201 1.074,2.899c0.483,0.698 1.234,1.288 2.308,1.718c1.074,0.483 2.255,0.698 3.597,0.698c2.147,0 4.08,-0.376 5.798,-1.128l-0.59,-5.69c-1.343,0.483 -2.309,0.698 -3.007,0.698c-0.483,0 -0.912,-0.108 -1.235,-0.376c-0.322,-0.215 -0.59,-0.537 -0.644,-0.913c-0.107,-0.376 -0.161,-1.718 -0.161,-4.026l-0,-11.274l5.047,0l-0,-5.852l-5.047,0Zm17.565,-3.758l-0,-6.818l-7.355,0l0,6.818l7.355,0Zm-0,31.621l-0,-27.863l-7.355,0l0,27.863l7.355,0Zm7.668,-6.12c1.181,2.254 2.953,3.919 5.261,5.1c2.309,1.127 4.725,1.718 7.302,1.718c4.133,0 7.516,-1.396 10.254,-4.188c2.738,-2.738 4.08,-6.227 4.08,-10.468c-0,-4.188 -1.342,-7.624 -4.027,-10.362c-2.684,-2.738 -6.174,-4.134 -10.361,-4.134c-2.738,0 -5.208,0.591 -7.409,1.826c-2.201,1.181 -3.919,2.952 -5.1,5.261c-1.235,2.255 -1.825,4.617 -1.825,7.086c0,3.222 0.59,5.906 1.825,8.161Zm7.731,-14.12c1.288,-1.449 2.899,-2.201 4.832,-2.201c1.879,0 3.489,0.752 4.831,2.201c1.289,1.504 1.933,3.597 1.933,6.335c-0,2.792 -0.644,4.886 -1.933,6.389c-1.342,1.449 -2.952,2.201 -4.831,2.201c-1.933,0 -3.544,-0.752 -4.832,-2.201c-1.342,-1.503 -1.986,-3.597 -1.986,-6.389c-0,-2.738 0.644,-4.831 1.986,-6.335Zm50.294,2.953c0,-2.147 -0.161,-3.812 -0.429,-4.939c-0.268,-1.181 -0.752,-2.201 -1.45,-3.114c-0.697,-0.912 -1.717,-1.664 -3.06,-2.255c-1.342,-0.59 -2.845,-0.859 -4.455,-0.859c-3.705,0 -6.819,1.557 -9.234,4.671l-0,-4.08l-6.818,0l0,27.863l7.354,0l0,-12.616c0,-3.114 0.215,-5.208 0.591,-6.389c0.376,-1.127 1.074,-2.04 2.094,-2.738c1.02,-0.698 2.147,-1.074 3.436,-1.074c1.02,0 1.879,0.269 2.577,0.752c0.751,0.483 1.234,1.181 1.556,2.04c0.322,0.859 0.484,2.845 0.484,5.852l0,14.173l7.354,0l0,-17.287Z" style="fill:#0a0a0a;stroke:#fff;stroke-width:1px;"></path><path d="M59.446,23.168c-0,0.66 -0.117,1.291 -0.32,1.883c-0.248,0.72 -0.633,1.375 -1.126,1.936c-1.064,1.211 -2.618,1.981 -4.353,1.981c-0.472,0 -0.929,-0.063 -1.368,-0.17c-0.67,-0.163 -1.295,-0.436 -1.851,-0.809c-0.764,-0.511 -1.399,-1.2 -1.849,-2.005c-0.465,-0.834 -0.733,-1.794 -0.733,-2.816c0,-1.77 0.798,-3.355 2.052,-4.42c0.726,-0.616 1.604,-1.06 2.571,-1.26c0.122,-0.026 0.248,-0.041 0.372,-0.058c0.264,-0.037 0.532,-0.063 0.806,-0.063c0.366,0 0.723,0.038 1.071,0.103c0.12,0.023 0.237,0.052 0.355,0.082c2.509,0.638 4.373,2.91 4.373,5.616Zm8.761,37.853c0,1.769 -0.798,3.354 -2.051,4.42c-0.727,0.618 -1.606,1.063 -2.574,1.264c-0.117,0.024 -0.237,0.038 -0.356,0.055c-0.269,0.038 -0.541,0.065 -0.821,0.065c-0.367,0 -0.725,-0.038 -1.073,-0.104c-0.113,-0.021 -0.223,-0.049 -0.333,-0.076c-2.519,-0.632 -4.393,-2.91 -4.393,-5.624c-0,-0.665 0.118,-1.302 0.325,-1.898c0.25,-0.717 0.636,-1.37 1.128,-1.929c1.063,-1.206 2.615,-1.973 4.346,-1.973c0.474,0 0.933,0.064 1.374,0.171c0.669,0.163 1.295,0.438 1.851,0.811c0.764,0.512 1.399,1.203 1.847,2.009c0.464,0.833 0.73,1.789 0.73,2.809Zm-34.466,17.726c-20.664,0 -30.076,-10.738 -30.076,-20.714c-0,-29.005 13.493,-52.602 30.077,-52.602c6.164,0 11.898,3.264 16.674,8.85c-3.631,1.325 -6.236,4.803 -6.236,8.887c0,3.411 1.82,6.397 4.534,8.063c0.59,0.363 1.22,0.662 1.885,0.89c0.6,0.205 1.226,0.351 1.872,0.431c0.386,0.049 0.777,0.081 1.176,0.081c2.171,0 4.167,-0.742 5.766,-1.976c2.189,6.255 3.644,13.371 4.174,20.98c-0.388,-0.049 -0.781,-0.082 -1.182,-0.082c-2.167,0 -4.161,0.74 -5.758,1.971c-0.523,0.403 -1.004,0.855 -1.432,1.357c-0.491,0.573 -0.91,1.206 -1.254,1.886c-0.647,1.28 -1.02,2.722 -1.02,4.252c0,4.016 2.516,7.446 6.05,8.821c-4.728,5.141 -13.017,8.905 -25.25,8.905Zm31.91,-8.842c3.624,-1.329 6.221,-4.805 6.221,-8.884c0,-3.409 -1.817,-6.394 -4.528,-8.06c-0.486,-9.188 -2.286,-17.918 -5.247,-25.554c0.643,-1.277 1.014,-2.714 1.014,-4.239c0,-4.017 -2.518,-7.448 -6.055,-8.821c4.727,-5.146 13.018,-8.915 25.26,-8.915c8.019,0 15.464,1.902 20.963,5.356c4.158,2.611 9.114,7.396 9.114,15.358c-0,29.003 -13.493,52.599 -30.076,52.599c-6.16,0 -11.892,-3.261 -16.666,-8.84Zm39.578,-62.221c-6.076,-3.816 -14.213,-5.917 -22.913,-5.917c-8.699,0 -16.836,2.101 -22.912,5.917c-2.259,1.419 -4.175,3.037 -5.742,4.826c-5.722,-6.977 -12.623,-10.745 -19.92,-10.745c-9.2,0 -17.775,5.984 -24.145,16.849c-6.189,10.559 -9.597,24.557 -9.597,39.419c-0,7.628 3.744,14.012 10.829,18.462c6.076,3.816 14.213,5.917 22.912,5.917c8.7,0 16.837,-2.101 22.913,-5.917c2.26,-1.419 4.176,-3.038 5.743,-4.829c5.722,6.977 12.623,10.745 19.92,10.745c9.2,0 17.775,-5.985 24.145,-16.85c6.188,-10.558 9.596,-24.555 9.596,-39.415c-0,-7.628 -3.745,-14.012 -10.829,-18.462Z" style="fill:#0a0a0a;fill-rule:nonzero;"></path><path d="M55.215,54.883c0.428,-0.502 0.909,-0.954 1.432,-1.357c1.597,-1.231 3.591,-1.971 5.758,-1.971c0.401,0 0.794,0.033 1.182,0.082c-0.53,-7.609 -1.985,-14.725 -4.174,-20.98c-1.599,1.234 -3.595,1.976 -5.766,1.976c-0.399,0 -0.79,-0.032 -1.176,-0.081c-0.646,-0.08 -1.272,-0.226 -1.872,-0.431c-0.665,-0.228 -1.295,-0.528 -1.885,-0.89c-2.714,-1.666 -4.534,-4.652 -4.534,-8.063c0,-4.084 2.605,-7.562 6.236,-8.887c-4.776,-5.586 -10.51,-8.85 -16.674,-8.85c-16.584,0 -30.077,23.597 -30.077,52.602c-0,9.976 9.412,20.714 30.076,20.714c12.233,0 20.522,-3.764 25.25,-8.905c-3.534,-1.375 -6.05,-4.805 -6.05,-8.821c0,-1.53 0.373,-2.972 1.02,-4.252c0.344,-0.68 0.763,-1.313 1.254,-1.886Z" style="fill:#1397cc;fill-rule:nonzero;"></path><path d="M63.111,23.168c0,1.525 -0.371,2.962 -1.014,4.239c2.961,7.636 4.761,16.366 5.247,25.554c2.711,1.666 4.528,4.651 4.528,8.06c0,4.079 -2.597,7.555 -6.221,8.884c4.774,5.579 10.506,8.84 16.666,8.84c16.583,0 30.076,-23.596 30.076,-52.599c-0,-7.962 -4.956,-12.747 -9.114,-15.358c-5.499,-3.454 -12.944,-5.356 -20.963,-5.356c-12.242,0 -20.533,3.769 -25.26,8.915c3.537,1.373 6.055,4.804 6.055,8.821Z" style="fill:#fecd05;fill-rule:nonzero;"></path></svg> 