<?xml version="1.0" encoding="UTF-8" standalone="no"?> <svg xmlns="http://www.w3.org/2000/svg" xmlns:xlink="http://www.w3.org/1999/xlink" xmlns:serif="http://www.serif.com/" width="100%" height="100%" viewBox="0 0 343 88" version="1.1" xml:space="preserve" style="fill-rule:evenodd;clip-rule:evenodd;stroke-linejoin:round;stroke-miterlimit:2;"><path d="M70.469,73.412c-0,0.262 -0.023,0.524 -0.067,0.783c-0.085,0.565 -0.264,1.112 -0.531,1.618l-0.156,0.267c-0.185,0.318 -0.411,0.611 -0.671,0.872l-0.238,0.237l-0.096,0.075l-0.23,0.163l-0,0.022c-0.253,0.171 -0.59,0.394 -0.768,0.494c-1.22,0.829 -2.469,1.604 -3.748,2.326c-0.598,0.349 -1.206,0.672 -1.811,0.991c-0.449,0.238 -0.909,0.464 -1.366,0.687c-0.185,0.096 -0.37,0.185 -0.553,0.267c-0.415,0.2 -0.82,0.393 -1.243,0.575l-0.126,0.052c-0.51,0.247 -1.027,0.469 -1.551,0.664c-0.06,0.03 -0.122,0.054 -0.186,0.075c-0.464,0.193 -0.931,0.371 -1.395,0.545c-0.141,0.052 -0.282,0.111 -0.43,0.163c-1.08,0.401 -2.175,0.761 -3.273,1.088l-0.156,0.052c-0.546,0.163 -1.113,0.319 -1.663,0.463c-0.909,0.238 -1.833,0.461 -2.764,0.657c-0.59,0.126 -1.184,0.245 -1.774,0.349l-0.983,0.171c-0.613,0.104 -1.229,0.193 -1.856,0.274c-0.627,0.082 -1.258,0.149 -1.892,0.208c-0.635,0.06 -1.251,0.111 -1.878,0.156c-1.258,0.082 -2.52,0.126 -3.785,0.126c-2.482,0.003 -4.961,-0.154 -7.422,-0.471c-1.462,-0.193 -2.92,-0.431 -4.353,-0.742c-1.432,-0.312 -2.723,-0.609 -4.067,-0.991c-1.042,-0.293 -2.067,-0.627 -3.087,-0.976c-2.067,-0.705 -4.092,-1.529 -6.064,-2.468c-2.537,-1.216 -4.983,-2.615 -7.317,-4.186l-0.253,-0.163c-0.148,-0.096 -0.297,-0.193 -0.438,-0.297l-0.423,-0.3c-0.103,-0.097 -0.2,-0.193 -0.296,-0.297c-0.097,-0.104 -0.186,-0.201 -0.268,-0.297c-0.165,-0.195 -0.312,-0.405 -0.438,-0.627c-0.253,-0.41 -0.44,-0.857 -0.556,-1.325c-0.111,-0.42 -0.166,-0.853 -0.163,-1.288c0.001,-0.21 0.013,-0.421 0.037,-0.63c0.062,-0.524 0.208,-1.034 0.434,-1.511c0.044,-0.096 0.089,-0.193 0.141,-0.282c0.052,-0.089 0.111,-0.193 0.171,-0.289c0.059,-0.097 0.126,-0.193 0.193,-0.29c2.402,-4.013 5.294,-7.713 8.609,-11.013c0.334,-0.334 0.671,-0.665 1.013,-0.991c0.341,-0.327 0.686,-0.642 1.035,-0.961c0.267,-0.245 0.531,-0.479 0.805,-0.716c0.003,-0.013 0.011,-0.024 0.023,-0.03c1.146,-0.998 2.334,-1.967 3.569,-2.883l0.141,-0.112l0.156,-0.119c0.17,-0.148 0.35,-0.284 0.538,-0.408c0.189,-0.136 0.386,-0.26 0.59,-0.371c0.288,-0.171 0.586,-0.323 0.895,-0.453c0.148,-0.066 0.311,-0.126 0.464,-0.178c0.321,-0.111 0.649,-0.2 0.983,-0.267c0.51,-0.104 1.03,-0.156 1.551,-0.156c0.582,-0 1.163,0.067 1.729,0.201c0.186,0.044 0.371,0.096 0.553,0.148c0.861,0.265 1.669,0.68 2.386,1.225c0.112,0.081 0.222,0.167 0.331,0.256c0.122,0.1 0.241,0.204 0.371,0.315c0.235,0.218 0.458,0.45 0.668,0.694l0.148,0.186c0.341,0.445 0.686,0.879 1.043,1.317c0.71,0.866 1.444,1.708 2.204,2.527c0.371,0.416 0.768,0.82 1.161,1.221c0.828,0.835 1.685,1.655 2.557,2.438c0.798,0.716 1.611,1.403 2.453,2.078l0.022,-0l0.442,0.371c0.171,0.141 0.371,0.29 0.523,0.408l0.067,0.052c0.649,0.392 1.403,0.576 2.16,0.527c1.826,-0.124 3.32,-1.544 3.536,-3.362c0.133,-1.143 -0.267,-2.287 -1.083,-3.098l-2.116,-2.116c-0.022,0 -0.037,-0.029 -0.059,-0.052l-5.047,-5.054l-33.906,-33.906l0.03,-0.022c-1.038,-0.966 -1.636,-2.315 -1.655,-3.733c-0,-0.837 0.205,-1.662 0.597,-2.401l0.026,-0.044c0.294,-0.468 0.635,-0.904 1.017,-1.303l0.112,-0.089c0.059,-0.037 0.133,-0.089 0.222,-0.156c0.26,-0.178 0.59,-0.393 0.768,-0.501c0.939,-0.634 1.9,-1.243 2.869,-1.811c19.22,-11.349 43.349,-10.666 61.897,1.752l0.244,0.163c0.297,0.193 0.583,0.401 0.865,0.605c0.393,0.353 0.732,0.762 1.006,1.213c0.488,0.814 0.734,1.75 0.708,2.698c-0.02,0.61 -0.146,1.211 -0.371,1.778c-0.145,0.404 -0.348,0.785 -0.601,1.132c-1.733,2.886 -3.72,5.611 -5.937,8.145c-2.733,3.128 -5.791,5.956 -9.121,8.438l-0.312,0.238c-0.34,0.307 -0.713,0.575 -1.113,0.798c-1.183,0.681 -2.528,1.03 -3.893,1.009l-0.037,-0c-1.768,-0.041 -3.453,-0.77 -4.694,-2.03c-2.943,-2.902 -10.854,-10.516 -10.854,-10.516l-0.464,-0.394c-0.165,-0.145 -0.337,-0.281 -0.516,-0.408l-0.067,-0.052c-0.526,-0.321 -1.125,-0.502 -1.74,-0.527c-1.843,-0.073 -3.491,1.195 -3.893,2.995c-0.261,1.25 0.129,2.551 1.035,3.451l41.068,41.138c1.037,0.963 1.633,2.311 1.648,3.726Z" style="fill:#0a0a0a;fill-rule:nonzero;"></path><path d="M34.622,62.272c-0.876,-0.783 -1.737,-1.607 -2.557,-2.442c-1.571,-1.598 -3.044,-3.29 -4.412,-5.065l-0.145,-0.182c-0.479,-0.576 -1.042,-1.076 -1.669,-1.484c-2.46,-1.675 -5.675,-1.792 -8.25,-0.301c-0.398,0.226 -0.771,0.493 -1.113,0.798l-0.156,0.119l-0.144,0.118c-6.057,4.491 -11.174,10.125 -15.063,16.584c-0.135,0.18 -0.259,0.369 -0.371,0.564c-0.397,0.748 -0.607,1.581 -0.612,2.427c-0.006,0.915 0.242,1.815 0.716,2.598c0.267,0.461 0.608,0.875 1.009,1.224c0.275,0.208 0.561,0.42 0.861,0.613l0.249,0.155c6.228,4.197 13.221,7.129 20.58,8.628c13.804,2.849 28.184,0.589 40.448,-6.357c-10.837,-4.093 -20.803,-10.2 -29.371,-17.997Z" style="fill:#0a0a0a;fill-rule:nonzero;"></path><path d="M180.736,31.045l1.243,0.371l0,39.936l-9.885,0l-0,-4.538c-2.969,3.731 -7.134,5.596 -12.495,5.596c-5.111,-0 -9.493,-1.954 -13.147,-5.863c-3.654,-3.909 -5.481,-8.7 -5.481,-14.372c-0,-5.673 1.827,-10.464 5.481,-14.372c3.654,-3.909 8.036,-5.863 13.147,-5.863c5.366,-0 9.531,1.865 12.495,5.595c-0,-0.002 -0,-0.004 -0,-0.006c-0,-3.705 3.048,-6.753 6.753,-6.753c0.64,-0 1.276,0.09 1.889,0.269Zm-26.888,28.904c1.993,2.019 4.523,3.028 7.588,3.028c3.065,-0 5.607,-1.009 7.626,-3.028c2.019,-2.019 3.028,-4.616 3.028,-7.793c-0,-3.176 -1.009,-5.774 -3.028,-7.793c-2.019,-2.018 -4.561,-3.028 -7.626,-3.028c-3.065,0 -5.595,1.01 -7.588,3.028c-1.992,2.019 -2.989,4.617 -2.991,7.793c-0.003,3.177 0.994,5.774 2.991,7.793Zm59.41,-28.017c5.161,0 9.568,1.955 13.222,5.863c3.654,3.909 5.481,8.7 5.481,14.372c-0,5.673 -1.827,10.464 -5.481,14.372c-3.654,3.909 -8.061,5.864 -13.222,5.864c-5.366,-0 -9.505,-1.866 -12.416,-5.596l-0,4.545l-9.894,0l0,-54.389c0.895,-0.394 1.862,-0.597 2.839,-0.597c3.864,-0 7.044,3.175 7.051,7.039l-0,14.123c2.914,-3.728 7.054,-5.593 12.42,-5.596Zm-9.429,28.017c1.991,2.019 4.521,3.028 7.588,3.028c3.068,-0 5.611,-1.009 7.63,-3.028c2.019,-2.019 3.028,-4.616 3.028,-7.793c-0,-3.176 -1.009,-5.774 -3.028,-7.793c-2.021,-2.018 -4.564,-3.028 -7.63,-3.028c-3.065,0 -5.594,1.01 -7.588,3.028c-1.994,2.019 -2.991,4.617 -2.991,7.793c-0,3.177 0.997,5.774 2.991,7.793Zm35.108,11.403l-0,-54.363c0.816,-0.303 1.679,-0.457 2.549,-0.457c4.027,-0 7.34,3.313 7.34,7.34c0,-0 0,0 0,0l0,47.48l-9.889,0Zm23.838,-42.578c-3.302,-0.051 -6.004,-2.753 -6.056,-6.056c-0.008,-1.616 0.644,-3.168 1.804,-4.293c1.095,-1.188 2.64,-1.862 4.256,-1.856c1.639,-0.017 3.212,0.657 4.331,1.856c1.16,1.125 1.812,2.677 1.803,4.293c0.012,1.606 -0.641,3.148 -1.803,4.256c-1.137,1.166 -2.707,1.811 -4.335,1.782l0,0.018Zm-4.905,42.578l-0,-31.497c-0,-0 -0,-0.001 -0,-0.001c-0,-4.026 3.313,-7.34 7.34,-7.34c0.87,0 1.733,0.155 2.549,0.457l0,38.381l-9.889,0Zm27.289,-15.103c1.329,4.805 4.932,7.207 10.81,7.207c3.782,-0 6.645,-1.278 8.587,-3.834l7.971,4.598c-3.783,5.47 -9.349,8.204 -16.699,8.201c-6.338,0 -11.423,-1.916 -15.255,-5.748c-3.833,-3.832 -5.749,-8.656 -5.749,-14.472c0,-5.774 1.89,-10.591 5.671,-14.45c3.78,-3.86 8.635,-5.788 14.565,-5.785c5.62,-0 10.258,1.942 13.912,5.826c3.653,3.884 5.48,8.687 5.48,14.409c-0.004,1.362 -0.128,2.722 -0.371,4.063l-28.922,-0.015Zm-0.167,-7.681l19.549,-0c-0.562,-2.605 -1.724,-4.547 -3.488,-5.826c-1.747,-1.27 -3.859,-1.942 -6.019,-1.915c-2.66,0 -4.858,0.678 -6.594,2.034c-1.737,1.355 -2.886,3.258 -3.448,5.707Zm46.237,-8.969c0.814,-2.324 2.432,-4.282 4.561,-5.518c2.155,-1.241 4.604,-1.882 7.091,-1.856l0,11.036c-2.831,-0.395 -5.71,0.266 -8.086,1.856c-2.377,1.585 -3.566,4.218 -3.566,7.896l0,18.339l-9.871,0l0,-28.458c0,-5.425 4.465,-9.889 9.89,-9.889l-0.019,6.594Zm-216.453,32.677c-5.296,-0.462 -9.648,-2.036 -13.055,-4.72l-0.1,-0.081c-4.872,-3.889 -3.837,-11.597 1.8,-14.265l0.983,-0.464c1.611,5.631 5.471,8.713 11.582,9.248c2.951,0.247 5.162,-0.098 6.631,-1.036c1.386,-0.817 2.289,-2.262 2.416,-3.866c0.166,-1.886 -0.547,-3.423 -2.138,-4.613c-1.59,-1.19 -4.495,-2.586 -8.713,-4.19c-2.01,-0.774 -3.974,-1.665 -5.881,-2.668c-1.687,-0.924 -3.267,-2.03 -4.713,-3.299c-1.531,-1.305 -2.701,-2.983 -3.395,-4.872c-0.733,-2.099 -0.986,-4.336 -0.743,-6.546c0.423,-4.836 2.479,-8.547 6.168,-11.132c3.688,-2.585 7.951,-3.662 12.787,-3.229c4.327,0.379 8.038,1.768 11.133,4.168l0.093,0.07c4.616,3.618 3.662,10.888 -1.655,13.359l-0.843,0.393c-1.732,-4.769 -4.948,-7.359 -9.648,-7.77c-2.189,-0.191 -3.951,0.156 -5.284,1.039c-1.298,0.803 -2.129,2.188 -2.227,3.711c-0.169,1.623 0.487,3.227 1.744,4.267c1.309,1.168 3.896,2.536 7.76,4.104c1.583,0.654 2.783,1.157 3.599,1.511c0.817,0.354 1.93,0.887 3.34,1.599c1.128,0.547 2.205,1.194 3.217,1.933c0.892,0.713 1.737,1.482 2.531,2.301c0.856,0.834 1.565,1.806 2.097,2.876c1.09,2.422 1.534,5.085 1.287,7.73c-0.433,4.948 -2.57,8.71 -6.412,11.288c-3.842,2.578 -8.629,3.629 -14.361,3.154Z" style="fill:#0a0a0a;fill-rule:nonzero;"></path></svg> 