<?xml version="1.0" encoding="UTF-8" standalone="no"?> <svg xmlns="http://www.w3.org/2000/svg" xmlns:xlink="http://www.w3.org/1999/xlink" xmlns:serif="http://www.serif.com/" width="100%" height="100%" viewBox="0 0 192 16" version="1.1" xml:space="preserve" style="fill-rule:evenodd;clip-rule:evenodd;stroke-linejoin:round;stroke-miterlimit:2;"><path d="M9.047,8.631l9.802,-7.44c1.005,-0.794 1.96,-1.191 2.864,-1.191l3.469,0c0.452,0 0.678,0.298 0.678,0.595c0,0.298 -0.226,0.596 -0.678,0.596l-2.715,-0c-1.055,-0 -1.658,0.446 -2.563,1.339l-10.857,11.31c-1.307,1.488 -2.764,2.207 -4.373,2.158c-2.412,-0.075 -4.674,-1.414 -4.674,-3.795l-0,-6.698c-0,-0.328 0.271,-0.594 0.605,-0.594l7.838,-0c0.334,-0 0.604,0.266 0.604,0.594l0,3.126Z" style="fill:#0a0a0a;"></path><path d="M36.345,15.8c-1.177,-0 -2.355,-0.217 -3.532,-0.651c-1.177,-0.433 -2.167,-1.006 -2.968,-1.717l1.776,-2.569c0.636,0.576 1.378,1.039 2.227,1.391c0.848,0.352 1.674,0.528 2.475,0.528c0.708,0 1.309,-0.139 1.804,-0.416c0.495,-0.277 0.742,-0.632 0.742,-1.066c0,-0.171 -0.034,-0.325 -0.103,-0.464c-0.068,-0.138 -0.184,-0.265 -0.346,-0.378c-0.163,-0.114 -0.318,-0.212 -0.466,-0.294c-0.148,-0.081 -0.367,-0.167 -0.656,-0.256c-0.289,-0.088 -0.522,-0.156 -0.699,-0.202c-0.176,-0.046 -0.445,-0.112 -0.807,-0.197c-3.568,-0.846 -5.351,-2.449 -5.351,-4.809c-0,-1.351 0.541,-2.439 1.625,-3.263c1.083,-0.825 2.509,-1.237 4.279,-1.237c1.134,-0 2.172,0.17 3.115,0.512c0.942,0.341 1.71,0.789 2.302,1.343l-1.604,2.581c-0.447,-0.42 -1.022,-0.761 -1.722,-1.024c-0.701,-0.263 -1.405,-0.395 -2.113,-0.395c-0.686,0 -1.249,0.127 -1.69,0.379c-0.44,0.252 -0.661,0.578 -0.661,0.976c0,0.234 0.076,0.448 0.228,0.639c0.151,0.192 0.37,0.356 0.655,0.491c0.286,0.135 0.578,0.249 0.878,0.341c0.3,0.093 0.644,0.178 1.034,0.256c0.268,0.057 0.517,0.116 0.748,0.176c0.231,0.06 0.549,0.16 0.953,0.299c0.405,0.138 0.769,0.287 1.095,0.447c0.325,0.16 0.671,0.37 1.04,0.63c0.368,0.259 0.677,0.54 0.926,0.842c0.249,0.302 0.457,0.665 0.623,1.088c0.166,0.423 0.249,0.876 0.249,1.359c0,0.903 -0.267,1.711 -0.802,2.426c-0.534,0.714 -1.26,1.265 -2.177,1.653c-0.918,0.387 -1.943,0.581 -3.077,0.581Zm25.012,-15.334l3.435,0l-0,15.067l-3.435,0l0.001,-5.982l-6.143,0l-0,5.982l-3.445,0l-0,-15.067l3.445,0l-0,5.897l6.143,0l-0,-5.897Zm16.756,11.879l7.053,-0l-0,3.188l-10.498,0l-0,-15.067l10.389,0l0,3.189l-6.944,-0l0,2.708l6.208,0l-0,3.188l-6.208,0l0,2.794Zm25.17,3.188l-3.152,-4.665l-1.658,0l0,4.665l-3.445,0l-0,-15.067l6.641,0c1.524,0 2.791,0.48 3.803,1.44c1.011,0.96 1.516,2.161 1.516,3.604c0,1.443 -0.285,2.449 -0.856,3.242c-0.57,0.792 -1.336,1.373 -2.296,1.743l3.575,5.038l-4.128,0Zm-4.81,-11.878l0,4.26l3.12,-0c0.527,-0 0.97,-0.18 1.327,-0.539c0.358,-0.359 0.583,-0.869 0.583,-1.597c0,-0.728 -0.223,-1.218 -0.577,-1.581c-0.354,-0.362 -0.798,-0.543 -1.333,-0.543l-3.12,-0Zm21.597,8.69l6.529,-0l0,3.188l-9.974,0l0,-15.067l3.445,0l0,11.879Zm23.974,2.858c-0.996,0.398 -2.062,0.597 -3.196,0.597c-1.133,-0 -2.202,-0.201 -3.206,-0.603c-1.004,-0.401 -1.864,-0.947 -2.579,-1.636c-0.715,-0.69 -1.278,-1.516 -1.69,-2.48c-0.411,-0.963 -0.617,-1.992 -0.617,-3.087c0,-1.094 0.206,-2.123 0.617,-3.086c0.412,-0.964 0.975,-1.79 1.69,-2.48c0.715,-0.689 1.575,-1.233 2.579,-1.631c1.004,-0.398 2.073,-0.597 3.206,-0.597c1.51,-0 2.884,0.339 4.123,1.018c1.238,0.679 2.212,1.614 2.919,2.805c0.708,1.19 1.062,2.514 1.062,3.971c0,1.095 -0.208,2.124 -0.623,3.087c-0.415,0.964 -0.982,1.79 -1.701,2.479c-0.718,0.69 -1.58,1.237 -2.584,1.643Zm-6.456,-3.956c0.873,0.86 1.96,1.29 3.26,1.29c1.301,-0 2.388,-0.432 3.261,-1.296c0.874,-0.863 1.311,-1.946 1.311,-3.247c-0,-1.3 -0.437,-2.383 -1.311,-3.246c-0.873,-0.864 -1.96,-1.296 -3.261,-1.296c-1.3,0 -2.387,0.432 -3.26,1.296c-0.874,0.863 -1.311,1.946 -1.311,3.246c-0,1.301 0.437,2.385 1.311,3.253Zm25.637,4.553c-1.134,-0 -2.203,-0.201 -3.207,-0.603c-1.004,-0.401 -1.863,-0.947 -2.578,-1.637c-0.715,-0.689 -1.279,-1.515 -1.69,-2.479c-0.412,-0.963 -0.618,-1.992 -0.618,-3.087c-0,-1.094 0.206,-2.123 0.618,-3.086c0.411,-0.964 0.975,-1.79 1.69,-2.48c0.715,-0.689 1.574,-1.233 2.578,-1.631c1.004,-0.398 2.073,-0.597 3.207,-0.597c1.423,-0 2.725,0.3 3.906,0.901c1.18,0.601 2.136,1.431 2.865,2.49l-2.979,1.812c-0.419,-0.604 -0.961,-1.08 -1.625,-1.428c-0.665,-0.349 -1.387,-0.523 -2.167,-0.523c-1.3,0 -2.387,0.432 -3.261,1.296c-0.874,0.863 -1.311,1.946 -1.311,3.246c-0,1.301 0.437,2.384 1.311,3.247c0.874,0.864 1.961,1.296 3.261,1.296c0.787,-0 1.511,-0.172 2.172,-0.517c0.661,-0.345 1.201,-0.82 1.62,-1.424l2.979,1.813c-0.729,1.059 -1.685,1.889 -2.865,2.49c-1.181,0.6 -2.483,0.901 -3.906,0.901Zm24.289,-0.267l-4.637,-5.374l-1.278,1.418l-0,3.956l-3.445,0l-0,-15.067l3.445,0l-0,6.505l5.698,-6.505l4.366,0l-6.565,7.251l6.901,7.816l-4.485,0Z" style="fill:#0a0a0a;fill-rule:nonzero;"></path></svg> 