<?xml version="1.0" encoding="UTF-8" standalone="no"?> <svg xmlns="http://www.w3.org/2000/svg" xmlns:xlink="http://www.w3.org/1999/xlink" xmlns:serif="http://www.serif.com/" width="100%" height="100%" viewBox="0 0 251 75" version="1.1" xml:space="preserve" style="fill-rule:evenodd;clip-rule:evenodd;stroke-linejoin:round;stroke-miterlimit:2;"><g><rect x="0" y="0" width="73.223" height="73.223" style="fill:#fafafa;"></rect><rect x="0" y="0" width="75" height="75" style="fill:#fff;"></rect><g><clipPath id="_clip1"><rect x="18.306" y="19.195" width="36.611" height="36.611"></rect></clipPath><g clip-path="url(#_clip1)"><path d="M54.185,33.472c0.403,-0 0.732,-0.33 0.732,-0.732l0,-8.421c0,-0.403 -0.329,-0.732 -0.732,-0.732l-2.929,-0c-0.403,-0 -0.732,-0.33 -0.732,-0.732l-0,-2.929c-0,-0.403 -0.33,-0.732 -0.732,-0.732l-26.361,-0c-0.402,-0 -0.732,0.329 -0.732,0.732l0,2.929c0,0.402 -0.329,0.732 -0.732,0.732l-2.929,-0c-0.403,-0 -0.732,0.329 -0.732,0.732l-0,12.082c-0,0.403 0.329,0.732 0.732,0.732l9.519,0c0.403,0 0.732,0.33 0.732,0.732l0,2.197c0,0.403 0.33,0.732 0.732,0.732l13.18,0c0.403,0 0.733,0.33 0.733,0.732l-0,7.689c-0,0.403 -0.33,0.732 -0.733,0.732l-7.688,0c-0.403,0 -0.732,-0.329 -0.732,-0.732l-0,-3.295c-0,-0.403 -0.33,-0.732 -0.732,-0.732l-7.689,-0c-0.403,-0 -0.732,-0.33 -0.732,-0.733l-0,-2.196c-0,-0.403 -0.33,-0.733 -0.732,-0.733l-5.858,0c-0.403,0 -0.732,0.33 -0.732,0.733l-0,8.42c-0,0.403 0.329,0.733 0.732,0.733l2.929,-0c0.403,-0 0.732,0.329 0.732,0.732l0,2.929c0,0.402 0.33,0.732 0.732,0.732l26.361,-0c0.402,-0 0.732,-0.33 0.732,-0.732l-0,-2.929c-0,-0.403 0.329,-0.732 0.732,-0.732l2.929,-0c0.403,-0 0.732,-0.33 0.732,-0.733l0,-12.081c0,-0.403 -0.329,-0.733 -0.732,-0.733l-9.519,0c-0.403,0 -0.732,-0.329 -0.732,-0.732l-0,-2.197c-0,-0.402 -0.33,-0.732 -0.733,-0.732l-13.18,0c-0.402,0 -0.732,-0.329 -0.732,-0.732l0,-7.688c0,-0.403 0.33,-0.733 0.732,-0.733l7.689,0c0.402,0 0.732,0.33 0.732,0.733l-0,3.295c-0,0.402 0.329,0.732 0.732,0.732l7.689,-0c0.402,-0 0.732,0.329 0.732,0.732l-0,2.197c-0,0.402 0.329,0.732 0.732,0.732l5.858,-0Z" style="fill:#0a0a0a;fill-rule:nonzero;"></path></g></g></g><g transform="matrix(32,0,0,32,252.854,50.2951)"></g><text x="85.416px" y="50.295px" style="font-family:'Inter-Bold', 'Inter';font-weight:700;font-size:32px;fill:#0a0a0a;">Sound.xyz</text></svg> 