<?xml version="1.0" encoding="UTF-8" standalone="no"?> <svg xmlns="http://www.w3.org/2000/svg" xmlns:xlink="http://www.w3.org/1999/xlink" xmlns:serif="http://www.serif.com/" width="100%" height="100%" viewBox="0 0 215 44" version="1.1" xml:space="preserve" style="fill-rule:evenodd;clip-rule:evenodd;stroke-linejoin:round;stroke-miterlimit:2;"><path d="M20.337,43.878l0,-2.798c0,-2.64 1.308,-5.101 3.471,-6.541l2.813,-1.873l-9.728,-19.02l-9.728,19.02l2.817,1.873c2.163,1.44 3.466,3.897 3.471,6.532l0,2.802l-13.453,-8.988l16.897,-34.885l8.449,17.442l8.448,17.443l-13.452,8.992l-0.005,0l-0,0.001Z" style="fill:#25f2d0;fill-rule:nonzero;"></path><path d="M55.65,15.405c-0.114,0.201 -0.237,0.346 -0.364,0.434c-0.141,0.095 -0.309,0.143 -0.479,0.136c-0.188,-0 -0.416,-0.075 -0.649,-0.22c-0.275,-0.17 -0.555,-0.334 -0.838,-0.491c-0.325,-0.181 -0.702,-0.347 -1.136,-0.491c-0.435,-0.146 -0.948,-0.225 -1.536,-0.225c-0.535,-0 -1.001,0.066 -1.4,0.193c-0.399,0.127 -0.737,0.307 -1.009,0.535c-0.272,0.229 -0.474,0.506 -0.61,0.822c-0.132,0.321 -0.202,0.672 -0.202,1.054c0,0.488 0.136,0.891 0.408,1.216c0.272,0.325 0.632,0.602 1.08,0.83c0.447,0.228 0.956,0.435 1.531,0.614c0.57,0.181 1.158,0.374 1.76,0.58c0.601,0.208 1.189,0.445 1.759,0.717c0.56,0.263 1.077,0.611 1.531,1.032c0.448,0.416 0.808,0.921 1.08,1.523c0.272,0.602 0.408,1.331 0.408,2.191c0,0.936 -0.158,1.81 -0.478,2.627c-0.311,0.802 -0.788,1.53 -1.4,2.134c-0.614,0.606 -1.365,1.085 -2.251,1.431c-0.886,0.347 -1.904,0.523 -3.045,0.523c-0.658,-0 -1.308,-0.066 -1.944,-0.193c-0.629,-0.124 -1.245,-0.31 -1.838,-0.554c-0.588,-0.237 -1.137,-0.523 -1.655,-0.86c-0.497,-0.321 -0.958,-0.695 -1.373,-1.116l1.132,-1.844c0.097,-0.132 0.219,-0.246 0.373,-0.338c0.154,-0.092 0.316,-0.136 0.487,-0.136c0.237,-0 0.496,0.096 0.772,0.294c0.277,0.197 0.606,0.412 0.988,0.649c0.381,0.237 0.829,0.457 1.338,0.65c0.509,0.198 1.123,0.295 1.838,0.295c1.097,-0 1.944,-0.26 2.545,-0.782c0.601,-0.517 0.9,-1.264 0.9,-2.239c0,-0.544 -0.136,-0.988 -0.408,-1.331c-0.272,-0.342 -0.632,-0.632 -1.08,-0.865c-0.489,-0.249 -1.002,-0.449 -1.531,-0.594c-0.585,-0.166 -1.168,-0.343 -1.746,-0.531c-0.596,-0.192 -1.179,-0.421 -1.747,-0.684c-0.564,-0.263 -1.081,-0.616 -1.531,-1.046c-0.448,-0.43 -0.807,-0.966 -1.079,-1.612c-0.272,-0.645 -0.409,-1.441 -0.409,-2.385c0,-0.754 0.15,-1.488 0.452,-2.204c0.303,-0.717 0.748,-1.365 1.308,-1.905c0.57,-0.553 1.277,-0.997 2.119,-1.332c0.838,-0.333 1.804,-0.5 2.887,-0.5c1.22,-0 2.348,0.189 3.375,0.571c1.031,0.382 1.908,0.918 2.632,1.603l-0.956,1.818l-0.009,0.005l0,0.001Zm17.122,-3.768c1.382,0 2.58,0.163 3.589,0.487c1.009,0.325 1.847,0.778 2.501,1.362c0.648,0.57 1.151,1.286 1.466,2.09c0.32,0.812 0.478,1.699 0.478,2.661c0,0.962 -0.167,1.919 -0.5,2.758c-0.326,0.825 -0.84,1.564 -1.501,2.156c-0.667,0.602 -1.505,1.067 -2.51,1.401c-1.005,0.334 -2.181,0.5 -3.523,0.5l-2.875,0l0,7.286l-3.848,0l0,-20.702l6.722,0l0.001,0.001Zm0,10.408c0.706,0 1.321,-0.088 1.843,-0.263c0.526,-0.177 0.961,-0.431 1.307,-0.761c0.347,-0.329 0.606,-0.728 0.781,-1.202c0.171,-0.475 0.259,-1.002 0.259,-1.582c0,-0.579 -0.088,-1.054 -0.259,-1.501c-0.164,-0.437 -0.429,-0.83 -0.772,-1.147c-0.342,-0.316 -0.777,-0.557 -1.303,-0.724c-0.527,-0.167 -1.145,-0.25 -1.861,-0.25l-2.874,0l0,7.429l2.879,0l0,0.001Zm20.564,-7.342l0,5.739l7.237,0l0,2.964l-7.237,0l0,5.853l9.184,0l0,3.079l-13.045,0l0,-20.702l13.045,0l0,3.067l-9.184,0Zm36.03,17.636l-2.975,0c-0.333,0 -0.605,-0.084 -0.816,-0.25c-0.209,-0.163 -0.371,-0.379 -0.47,-0.624l-1.544,-4.225l-8.569,0l-1.545,4.225c-0.074,0.219 -0.224,0.421 -0.443,0.601c-0.219,0.181 -0.491,0.272 -0.816,0.272l-3.001,0l8.139,-20.695l3.918,0l8.122,20.696Zm-6.792,-7.817l-2.519,-6.886c-0.123,-0.307 -0.254,-0.667 -0.386,-1.088c-0.132,-0.422 -0.268,-0.875 -0.399,-1.362c-0.123,0.487 -0.25,0.944 -0.386,1.366c-0.132,0.426 -0.264,0.795 -0.387,1.111l-2.501,6.854l6.578,0l0,0.005Zm30.8,7.816l-3.475,0c-0.658,0 -1.137,-0.259 -1.431,-0.772l-4.348,-6.628c-0.162,-0.25 -0.342,-0.425 -0.535,-0.531c-0.193,-0.106 -0.483,-0.158 -0.865,-0.158l-1.645,0l0,8.089l-3.848,0l0,-20.702l6.31,0c1.399,0 2.606,0.146 3.611,0.436c1.005,0.289 1.829,0.698 2.474,1.225c0.645,0.526 1.119,1.15 1.422,1.884c0.303,0.728 0.456,1.532 0.456,2.411c0.005,0.671 -0.098,1.338 -0.307,1.976c-0.2,0.608 -0.5,1.18 -0.886,1.691c-0.401,0.518 -0.884,0.967 -1.431,1.33c-0.597,0.396 -1.251,0.699 -1.939,0.901c0.512,0.291 0.945,0.704 1.259,1.203l5.178,7.645Zm-9.899,-10.851c0.724,0 1.356,-0.092 1.896,-0.272c0.539,-0.181 0.983,-0.43 1.329,-0.751c0.347,-0.321 0.61,-0.699 0.781,-1.138c0.171,-0.438 0.259,-0.922 0.259,-1.444c0,-1.05 -0.347,-1.858 -1.035,-2.42c-0.694,-0.562 -1.747,-0.843 -3.168,-0.843l-2.462,0l0,6.871l2.405,0l-0.005,-0.003Zm24.988,-9.85c1.355,0 2.514,0.128 3.475,0.386c0.961,0.259 1.75,0.624 2.365,1.103c0.614,0.479 1.066,1.054 1.351,1.73c0.285,0.676 0.43,1.44 0.43,2.292c0,0.487 -0.07,0.953 -0.215,1.397c-0.145,0.444 -0.364,0.86 -0.667,1.247c-0.303,0.386 -0.68,0.738 -1.145,1.053c-0.513,0.341 -1.069,0.611 -1.654,0.804c2.839,0.641 4.26,2.174 4.26,4.611c0,0.878 -0.166,1.691 -0.5,2.433c-0.333,0.743 -0.832,1.401 -1.457,1.923c-0.64,0.541 -1.426,0.962 -2.36,1.265c-0.935,0.307 -2.001,0.456 -3.203,0.456l-7.811,0l0,-20.7l7.131,0Zm-3.278,2.978l0,5.985l3.063,-0c1.316,-0 2.308,-0.237 2.983,-0.716c0.672,-0.479 1.009,-1.234 1.009,-2.275c0,-1.041 -0.307,-1.844 -0.917,-2.305c-0.61,-0.457 -1.562,-0.685 -2.86,-0.685l-3.278,-0l0,-0.004Zm3.892,14.715c0.715,-0 1.316,-0.088 1.803,-0.259c0.487,-0.171 0.873,-0.401 1.167,-0.685c0.288,-0.279 0.505,-0.622 0.632,-1.002c0.127,-0.382 0.193,-0.786 0.193,-1.216c0,-0.43 -0.07,-0.852 -0.215,-1.208c-0.143,-0.357 -0.374,-0.673 -0.671,-0.918c-0.307,-0.254 -0.698,-0.447 -1.18,-0.579c-0.483,-0.132 -1.062,-0.202 -1.738,-0.202l-3.874,-0l0,6.069l3.892,-0l-0.009,-0Zm20.688,3.008l-3.861,-0l0,-20.702l3.861,-0l0,20.702Zm24.784,-17.534l-6.235,-0l0,17.534l-3.848,-0l0,-17.533l-6.235,-0l0,-3.162l16.318,-0l0,3.162l0,-0.001Z" style="fill:#0a0a0a;fill-rule:nonzero;"></path></svg> 