<?xml version="1.0" encoding="UTF-8" standalone="no"?> <svg xmlns="http://www.w3.org/2000/svg" xmlns:xlink="http://www.w3.org/1999/xlink" xmlns:serif="http://www.serif.com/" width="100%" height="100%" viewBox="0 0 92 27" version="1.1" xml:space="preserve" style="fill-rule:evenodd;clip-rule:evenodd;stroke-linejoin:round;stroke-miterlimit:2;"><path d="M42.872,4.551l-10.038,-0l0,2.122l3.864,0l0,11.027l2.31,0l0,-11.027l3.864,0l0,-2.122Z" style="fill:#faafe7;fill-rule:nonzero;"></path><path d="M45.74,8.543c-2.418,-0 -4.008,1.258 -4.008,3.184l1.876,-0c0,-0.937 0.723,-1.476 2.021,-1.476c1.12,0 1.84,0.487 1.84,1.693l-0,0.197l-2.672,0.197c-2.112,0.161 -3.302,1.186 -3.302,2.826c0,1.639 1.157,2.769 3.053,2.769c1.39,0 2.599,-0.63 2.98,-1.547l0.161,1.314l1.932,0l-0,-5.398c-0,-2.465 -1.482,-3.759 -3.881,-3.759Zm1.752,5.559c-0,1.367 -0.868,2.175 -2.221,2.175c-0.993,0 -1.535,-0.394 -1.535,-1.205c0,-0.72 0.523,-1.17 1.896,-1.295l1.86,-0.145l-0,0.47Z" style="fill:#faafe7;fill-rule:nonzero;"></path><path d="M56.14,8.543c-1.354,-0 -2.527,0.595 -3.069,1.62l-0.145,-1.351l-2.04,0l-0,13.008l2.201,0l0,-5.306c0.559,0.9 1.715,1.419 3.053,1.419c2.655,0 4.169,-2.014 4.169,-4.784c0,-2.769 -1.659,-4.606 -4.169,-4.606Zm-0.523,7.412c-1.518,0 -2.51,-1.097 -2.51,-2.697c0,-1.6 0.992,-2.717 2.51,-2.717c1.518,-0 2.474,1.133 2.474,2.717c0,1.584 -0.92,2.697 -2.474,2.697Z" style="fill:#faafe7;fill-rule:nonzero;"></path><rect x="61.157" y="8.812" width="2.201" height="8.888" style="fill:#faafe7;"></rect><path d="M62.258,4.386c-0.759,0 -1.354,0.575 -1.354,1.315c-0,0.739 0.595,1.33 1.354,1.33c0.759,0 1.317,-0.594 1.317,-1.33c0,-0.736 -0.594,-1.315 -1.317,-1.315Z" style="fill:#faafe7;fill-rule:nonzero;"></path><path d="M68.974,8.563c-2.764,-0 -4.765,1.905 -4.765,4.678c0,2.774 2.005,4.679 4.765,4.679c2.76,0 4.764,-1.905 4.764,-4.679c0,-2.773 -2.004,-4.678 -4.764,-4.678Zm-0,7.392c-1.518,0 -2.563,-1.097 -2.563,-2.717c-0,-1.62 1.048,-2.717 2.563,-2.717c1.514,-0 2.563,1.097 2.563,2.717c-0,1.62 -1.049,2.717 -2.563,2.717Z" style="fill:#faafe7;fill-rule:nonzero;"></path><path d="M78.87,15.955c-1.409,0 -2.273,-1.044 -2.273,-2.717c-0,-1.672 0.939,-2.734 2.346,-2.734c1.048,0 1.787,0.523 2.04,1.528l2.201,0c-0.233,-2.142 -1.895,-3.489 -4.333,-3.489c-2.636,-0 -4.459,1.942 -4.459,4.695c-0,2.754 1.768,4.695 4.478,4.695c2.33,0 4.061,-1.419 4.334,-3.489l-2.221,0c-0.233,0.973 -1.012,1.511 -2.113,1.511Z" style="fill:#faafe7;fill-rule:nonzero;"></path><path d="M88.12,8.543c-2.419,-0 -4.009,1.258 -4.009,3.184l1.876,-0c0,-0.937 0.723,-1.476 2.021,-1.476c1.12,0 1.84,0.487 1.84,1.693l-0,0.197l-2.671,0.197c-2.113,0.161 -3.303,1.186 -3.303,2.826c0,1.639 1.157,2.769 3.053,2.769c1.39,0 2.599,-0.63 2.98,-1.547l0.161,1.314l1.932,0l-0,-5.398c-0,-2.465 -1.482,-3.759 -3.88,-3.759Zm1.751,5.559c-0,1.367 -0.868,2.175 -2.221,2.175c-0.993,0 -1.535,-0.394 -1.535,-1.205c0,-0.72 0.523,-1.17 1.896,-1.295l1.86,-0.145l-0,0.47Z" style="fill:#faafe7;fill-rule:nonzero;"></path><path d="M13.149,-0c-7.261,-0 -13.149,5.865 -13.149,13.103c0,7.239 5.888,13.104 13.149,13.104c7.262,-0 13.15,-5.868 13.15,-13.104c-0,-7.235 -5.888,-13.103 -13.15,-13.103Zm0,24.603c-6.768,0 -12.255,-5.398 -12.255,-12.058c-0,-6.66 5.487,-12.055 12.255,-12.055c6.769,-0 12.256,5.398 12.256,12.058c0,6.66 -5.487,12.059 -12.256,12.059l0,-0.004Z" style="fill:#faafe7;fill-rule:nonzero;"></path><path d="M13.149,0.979c-6.275,0 -11.362,4.929 -11.362,11.011c0,6.081 5.087,11.01 11.362,11.01c6.276,0 11.362,-4.929 11.362,-11.01c0,-6.082 -5.086,-11.011 -11.362,-11.011Zm0,20.418c-5.779,-0 -10.468,-4.462 -10.468,-9.963c0,-5.5 4.689,-9.965 10.468,-9.965c5.78,-0 10.469,4.462 10.469,9.962c-0,5.5 -4.686,9.962 -10.469,9.962l0,0.004Z" style="fill:#faafe7;fill-rule:nonzero;"></path><path d="M13.149,1.962c-5.286,-0 -9.574,3.992 -9.574,8.917c-0,4.925 4.284,8.917 9.574,8.917c5.29,0 9.575,-3.992 9.575,-8.917c-0,-4.925 -4.288,-8.917 -9.575,-8.917Zm-4.974,14.802c1.022,-1.522 2.865,-2.537 4.974,-2.537c2.11,0 3.953,1.015 4.975,2.537c-0.424,0.269 -0.874,0.506 -1.347,0.703c-0.953,-0.799 -2.228,-1.288 -3.628,-1.288c-1.399,-0 -2.674,0.489 -3.627,1.288c-0.473,-0.197 -0.923,-0.434 -1.347,-0.703Zm4.974,-4.492c-2.733,0 -5.056,1.581 -5.924,3.789c-0.259,-0.221 -0.502,-0.457 -0.729,-0.704c0.568,-2.865 3.332,-5.04 6.653,-5.04c3.322,0 6.086,2.175 6.654,5.04c-0.227,0.247 -0.47,0.483 -0.729,0.704c-0.868,-2.208 -3.194,-3.789 -5.925,-3.789Zm0,-9.768c4.778,-0 8.652,3.512 8.652,7.843c-0,1.028 -0.217,2.007 -0.615,2.908c0.092,-0.447 0.142,-0.911 0.142,-1.384c-0,-4.097 -3.661,-7.416 -8.179,-7.416c-4.517,0 -8.178,3.322 -8.178,7.416c0,0.473 0.05,0.933 0.142,1.384c-0.398,-0.901 -0.615,-1.88 -0.615,-2.908c0,-4.331 3.874,-7.843 8.651,-7.843Zm-7.705,10.895c0,-3.861 3.45,-6.989 7.705,-6.989c4.255,0 7.705,3.128 7.705,6.989c0,0.187 -0.009,0.375 -0.023,0.559c-0.138,0.24 -0.289,0.476 -0.453,0.7c-0.154,-3.5 -3.332,-6.293 -7.229,-6.293c-3.896,0 -7.07,2.793 -7.228,6.293c-0.164,-0.227 -0.316,-0.46 -0.454,-0.7c-0.016,-0.184 -0.023,-0.368 -0.023,-0.559Z" style="fill:#faafe7;fill-rule:nonzero;"></path></svg> 