<?xml version="1.0" encoding="UTF-8" standalone="no"?> <svg xmlns="http://www.w3.org/2000/svg" xmlns:xlink="http://www.w3.org/1999/xlink" xmlns:serif="http://www.serif.com/" width="100%" height="100%" viewBox="0 0 66 22" version="1.1" xml:space="preserve" style="fill-rule:evenodd;clip-rule:evenodd;stroke-linejoin:round;stroke-miterlimit:2;"><path d="M35.547,14.13c-0.001,-4.525 3.338,-7.87 7.766,-7.87c4.428,0 7.735,3.372 7.735,7.87c0,4.499 -3.312,7.87 -7.766,7.87c-4.455,0 -7.736,-3.314 -7.736,-7.87Zm13.192,0c0,-3.313 -2.253,-5.793 -5.451,-5.793c-3.198,-0 -5.425,2.506 -5.425,5.793c-0,3.288 2.253,5.794 5.425,5.794c3.172,-0 5.451,-2.449 5.451,-5.794Z" style="fill:url(#_Linear1);fill-rule:nonzero;"></path><path d="M2.798,17.098l0,-8.536l-2.798,-0l0,-1.929l2.227,-0c0.4,-0 0.717,-0.263 0.717,-0.75l-0,-3.602l2.113,-0l-0,4.352l4.568,-0l0,1.929l-4.568,-0l-0,8.504c-0,1.615 0.602,2.564 2.31,2.564l2.056,0l-0,1.987l-2.196,0c-2.742,0 -4.424,-1.499 -4.424,-4.524l-0.005,0.005Zm9.106,-2.968c0,-4.787 3.224,-7.87 7.279,-7.87c4.511,0 7.195,3.345 7.195,7.671l0,1.007l-12.107,-0c0.115,2.999 2.025,4.986 5.083,4.986c1.968,-0 3.852,-0.949 4.538,-2.711l2.341,0c-0.826,2.795 -3.427,4.787 -6.91,4.787c-4.538,0 -7.424,-3.371 -7.424,-7.87l0.005,0Zm12.081,-1.211c-0.203,-2.999 -2.284,-4.582 -4.797,-4.582c-2.513,-0 -4.626,1.814 -4.854,4.582l9.651,0Zm5.539,5.505l0,-18.424l2.253,0l0,18.424c0,0.75 0.369,1.18 1.085,1.18l0.686,-0l-0,2.019l-1.085,-0c-1.859,-0 -2.944,-1.154 -2.944,-3.199l0.005,0Zm24.099,-1.153l2.202,-0c0.254,1.788 1.51,2.737 3.68,2.737c2.17,-0 3.453,-1.096 3.453,-2.622c-0,-4.21 -8.878,-1.007 -8.878,-6.947c0,-2.538 2.253,-4.179 5.368,-4.179c2.741,0 5.026,1.615 5.254,4.326l-2.17,-0c-0.197,-1.416 -1.256,-2.365 -3.224,-2.365c-1.858,0 -3.053,0.923 -3.053,2.218c0,3.807 8.909,0.634 8.909,6.832c0,2.826 -2.315,4.729 -5.768,4.729c-3.452,0 -5.508,-1.929 -5.767,-4.729l-0.006,-0Z" style="fill:#0a0a0a;fill-rule:nonzero;"></path><defs><linearGradient id="_Linear1" x1="0" y1="0" x2="1" y2="0" gradientUnits="userSpaceOnUse" gradientTransform="matrix(10.56,13.42,-13.42,10.56,37.62,8.58002)"><stop offset="0" style="stop-color:#00f2fe;stop-opacity:1"></stop><stop offset="0.54" style="stop-color:#4facfe;stop-opacity:1"></stop><stop offset="0.98" style="stop-color:#c471f5;stop-opacity:1"></stop><stop offset="1" style="stop-color:#c471f5;stop-opacity:1"></stop></linearGradient></defs></svg> 