<?xml version="1.0" encoding="UTF-8" standalone="no"?> <svg xmlns="http://www.w3.org/2000/svg" xmlns:xlink="http://www.w3.org/1999/xlink" xmlns:serif="http://www.serif.com/" width="100%" height="100%" viewBox="0 0 142 23" version="1.1" xml:space="preserve" style="fill-rule:evenodd;clip-rule:evenodd;stroke-linejoin:round;stroke-miterlimit:2;"><path d="M68.971,2.168c-1.146,0.003 -2.087,0.947 -2.087,2.093c0,0.007 0,0.013 0,0.02c-0,0.015 -0,0.03 -0,0.046c-0,1.145 0.942,2.088 2.088,2.088c1.145,-0 2.088,-0.943 2.088,-2.088c-0,-0.016 -0,-0.031 -0.001,-0.046c0,-1.184 -0.94,-2.113 -2.087,-2.113l-0.001,0Zm1.837,5.271l-3.648,0l0,12.518l3.648,0l0,-12.518Zm-24.937,-4.807l3.556,0l0,4.808l2.73,0l0,3.344l-2.73,0l0,4.412c0,0.65 0.505,1.161 1.124,1.161l1.583,0l0,3.553l-1.583,0c-2.57,0 -4.68,-2.113 -4.68,-4.737l0,-4.413l-1.65,0l0,-3.344l1.651,0l0,-4.784l-0.001,0Zm14.98,4.529c-1.652,0 -2.96,0.697 -3.464,1.788l0,-6.317l-3.648,0l0,17.302l3.648,0l0,-7.014c0,-1.463 0.94,-2.485 2.27,-2.485c1.354,0 2.111,0.883 2.111,2.37l0,7.152l3.648,0l0,-7.617c0,-3.252 -1.652,-5.18 -4.565,-5.18l0,0.001Zm15.162,0.256l0,1.718c0.55,-1.254 1.881,-1.974 3.556,-1.997c0.252,0 0.573,0.023 0.963,0.07l0,3.483c-0.4,-0.076 -0.807,-0.115 -1.215,-0.116c-2.088,0 -3.304,1.185 -3.304,3.251l0,6.108l-3.647,-0l0,-12.517l3.647,-0Zm14.773,1.648c-0.367,-1.091 -1.812,-1.858 -3.67,-1.858c-1.743,-0 -3.212,0.627 -4.381,1.881c-1.147,1.231 -1.744,2.787 -1.744,4.599c0,1.811 0.597,3.344 1.744,4.621c1.17,1.23 2.638,1.858 4.381,1.858c1.858,-0 3.303,-0.767 3.67,-1.858l0,1.649l3.648,-0l0,-17.325l-3.648,-0l0,6.433Zm-0.734,6.851c-0.62,0.604 -1.376,0.883 -2.27,0.883c-0.872,-0 -1.63,-0.302 -2.226,-0.883c-0.598,-0.586 -0.93,-1.393 -0.917,-2.23c0,-0.859 0.298,-1.602 0.917,-2.206c0.579,-0.608 1.386,-0.945 2.225,-0.929c0.918,-0 1.675,0.302 2.271,0.93c0.643,0.603 0.964,1.346 0.964,2.206c0,0.859 -0.321,1.602 -0.964,2.229Zm14.911,-8.43l3.304,5.945l2.225,-5.992l3.578,-0l-5.092,13.238l-4.015,-7.2l-4.014,7.2l-5.07,-13.238l3.579,-0l2.202,5.992l3.303,-5.945Zm15.117,-0.348c-1.881,-0 -3.464,0.604 -4.703,1.812c-1.215,1.184 -1.835,2.763 -1.835,4.714l0,0.116c0,1.95 0.62,3.53 1.835,4.714c1.262,1.162 2.868,1.765 4.886,1.765c1.881,0 3.418,-0.371 4.588,-1.138l0,-3.228c-1.147,0.813 -2.615,1.208 -4.381,1.208c-1.927,0 -3.189,-0.952 -3.258,-2.438l9.061,0c0.046,-0.372 0.069,-0.79 0.069,-1.208c0,-1.788 -0.596,-3.275 -1.743,-4.482c-1.147,-1.231 -2.684,-1.835 -4.519,-1.835Zm-2.868,5.132c0.023,-0.58 0.322,-1.068 0.872,-1.463c0.574,-0.394 1.216,-0.603 1.996,-0.603c1.445,-0 2.569,0.952 2.569,2.066l-5.437,-0Zm17.825,-5.063c1.743,-0 3.211,0.627 4.358,1.881c1.17,1.254 1.767,2.764 1.767,4.575c0,1.812 -0.597,3.345 -1.767,4.622c-1.147,1.23 -2.615,1.858 -4.358,1.858c-1.858,-0 -3.304,-0.767 -3.671,-1.858l0,1.649l-3.647,-0l0,-17.302l3.647,-0l0,6.433c0.367,-1.091 1.813,-1.858 3.671,-1.858Zm-0.666,9.592c0.872,-0 1.606,-0.28 2.226,-0.883c0.619,-0.627 0.917,-1.37 0.917,-2.23c0,-0.859 -0.298,-1.602 -0.917,-2.206c-0.597,-0.627 -1.354,-0.929 -2.226,-0.929c-0.894,-0 -1.651,0.302 -2.293,0.93c-0.62,0.603 -0.941,1.346 -0.941,2.206c0,0.859 0.321,1.602 0.941,2.229c0.619,0.58 1.376,0.883 2.293,0.883Z" style="fill:#0a0a0a;"></path><path d="M19.784,0c0.23,0.048 0.448,0.145 0.637,0.284c0.213,0.168 0.376,0.391 0.471,0.645l1.81,4.527c0.668,1.677 1.34,3.354 2.014,5.032c0.352,0.88 0.701,1.76 1.058,2.638c0.154,0.363 0.154,0.772 0,1.135l-3.067,7.651c-0.203,0.507 -0.57,0.822 -1.112,0.904c-0.673,0.101 -1.275,-0.231 -1.518,-0.821c-0.575,-1.416 -1.138,-2.835 -1.705,-4.254l-2.886,-7.218c-0.854,-2.142 -1.709,-4.283 -2.566,-6.424c-0.284,-0.71 -0.559,-1.425 -0.856,-2.13c-0.075,-0.176 -0.114,-0.366 -0.114,-0.558c0,-0.662 0.462,-1.241 1.107,-1.389c0.024,-0.006 0.048,-0.015 0.072,-0.022l6.655,0Z" style="fill:url(#_Linear1);fill-rule:nonzero;"></path><path d="M7.831,0c0.076,0.021 0.152,0.04 0.225,0.065c0.39,0.121 0.703,0.413 0.852,0.793c0.659,1.635 1.314,3.271 1.967,4.909c0.985,2.461 1.97,4.921 2.955,7.382c0.148,0.35 0.148,0.745 0,1.095l-1.093,2.726l-2.003,4.987c-0.214,0.528 -0.727,0.876 -1.297,0.88c-0.604,0.011 -1.153,-0.362 -1.366,-0.928c-0.618,-1.567 -1.248,-3.13 -1.872,-4.693c-0.838,-2.118 -1.68,-4.234 -2.525,-6.348l-2.582,-6.458c-0.326,-0.815 -0.649,-1.631 -0.98,-2.445c-0.298,-0.701 0.018,-1.523 0.708,-1.845c0.121,-0.049 0.246,-0.089 0.373,-0.12l6.638,0Z" style="fill:url(#_Linear2);fill-rule:nonzero;"></path><path d="M37.611,13.916c-0.183,0.616 -0.456,1.197 -0.688,1.79c-0.672,1.69 -1.348,3.38 -2.027,5.068c-0.156,0.387 -0.314,0.773 -0.466,1.162c-0.217,0.541 -0.745,0.897 -1.328,0.897c-0.584,-0.001 -1.111,-0.362 -1.324,-0.906l-2.947,-7.374l-2.55,-6.37l-2.495,-6.24c-0.071,-0.171 -0.107,-0.354 -0.107,-0.539c-0,-0.658 0.46,-1.232 1.101,-1.376l0.081,-0.024l6.655,0c0.021,0.006 0.041,0.015 0.062,0.02c0.475,0.099 0.867,0.434 1.037,0.888c1.406,3.512 2.81,7.024 4.212,10.537c0.266,0.67 0.563,1.327 0.782,2.015l0.002,0.452Z" style="fill:url(#_Linear3);fill-rule:nonzero;"></path><defs><linearGradient id="_Linear1" x1="0" y1="0" x2="1" y2="0" gradientUnits="userSpaceOnUse" gradientTransform="matrix(16.031,16,-16,16.031,10.9192,1.854)"><stop offset="0" style="stop-color:#ff00a8;stop-opacity:1"></stop><stop offset="1" style="stop-color:#6200c6;stop-opacity:1"></stop></linearGradient><linearGradient id="_Linear2" x1="0" y1="0" x2="1" y2="0" gradientUnits="userSpaceOnUse" gradientTransform="matrix(16.028,15.996,-15.996,16.028,-1.02783,1.849)"><stop offset="0" style="stop-color:#ff00a8;stop-opacity:1"></stop><stop offset="1" style="stop-color:#6200c6;stop-opacity:1"></stop></linearGradient><linearGradient id="_Linear3" x1="0" y1="0" x2="1" y2="0" gradientUnits="userSpaceOnUse" gradientTransform="matrix(16.029,15.997,-15.997,16.029,22.6472,1.848)"><stop offset="0" style="stop-color:#ff00a8;stop-opacity:1"></stop><stop offset="1" style="stop-color:#6200c6;stop-opacity:1"></stop></linearGradient></defs></svg> 