<?xml version="1.0" encoding="UTF-8" standalone="no"?> <svg xmlns="http://www.w3.org/2000/svg" xmlns:xlink="http://www.w3.org/1999/xlink" xmlns:serif="http://www.serif.com/" width="100%" height="100%" viewBox="0 0 1202 326" version="1.1" xml:space="preserve" style="fill-rule:evenodd;clip-rule:evenodd;stroke-linejoin:round;stroke-miterlimit:2;"><path d="M0,46.95l144.45,-46.95l-0,325.02c-103.18,-43.34 -144.45,-126.4 -144.45,-173.34l0,-104.73Z" style="fill:#0500ff;fill-rule:nonzero;"></path><path d="M288.91,46.95l-144.45,-46.95l0,325.02c103.18,-43.34 144.45,-126.4 144.45,-173.34l0,-104.73Z" style="fill:url(#_Linear1);fill-rule:nonzero;"></path><path d="M542.58,76.67l57.29,0l-0,32.09c18.77,-28.84 40.37,-32.09 71.99,-32.09l-0,56.71l-14.4,-0c-37.89,-0 -56.03,17.83 -56.03,53.15l-0,60.28l-58.85,-0l-0,-170.14Z" style="fill:#0500ff;fill-rule:nonzero;"></path><path d="M863.01,246.8l-58.84,-0l0,-16.22c-12.85,14.91 -30.36,21.39 -51.95,21.39c-41,-0 -64.18,-24.31 -64.18,-69.02l0,-106.29l58.84,-0l-0,93.02c-0,21.05 10.33,33.36 27.85,33.36c17.52,-0 29.43,-12 29.43,-32.4l-0,-93.98l58.84,-0l-0,170.14l0.01,-0Z" style="fill:#0500ff;fill-rule:nonzero;"></path><path d="M877.39,194.28l55.11,-0c2.51,12.31 10.96,17.49 31.29,17.49c16.6,-0 26.3,-3.88 26.3,-11.01c0,-5.52 -4.7,-9.09 -18.14,-12l-44.45,-10.05c-29.74,-6.79 -44.77,-23.97 -44.77,-51.53c-0,-36.31 26.6,-55.1 78.25,-55.1c51.65,0 77,18.31 81.4,57.54l-54.77,0c-0.93,-10.36 -11.59,-16.7 -29.11,-16.7c-14.08,0 -23.14,4.53 -23.14,11.35c0,5.83 5.93,10.36 17.85,13.3l46.63,11.35c30.67,7.44 45.4,23.01 45.4,48.28c0,35.01 -30.37,55.75 -81.99,55.75c-51.62,0 -85.77,-22.36 -85.77,-58.67l-0.09,0Z" style="fill:#0500ff;fill-rule:nonzero;"></path><path d="M1201.92,129.58l0,-52.92l-145.24,-0l0,52.95l43.34,-0l0,117.19l58.54,-0l0,-117.22l43.36,-0Z" style="fill:#0500ff;fill-rule:nonzero;"></path><path d="M526.2,129.58l0,-52.92l-145.23,-0l-0,52.95l43.34,-0l-0,117.19l58.55,-0l-0,-117.22l43.34,-0Z" style="fill:#0500ff;fill-rule:nonzero;"></path><defs><linearGradient id="_Linear1" x1="0" y1="0" x2="1" y2="0" gradientUnits="userSpaceOnUse" gradientTransform="matrix(-109.12,343.34,-343.34,-109.12,250.54,-22.76)"><stop offset="0" style="stop-color:#00f;stop-opacity:1"></stop><stop offset="0.02" style="stop-color:#00f;stop-opacity:1"></stop><stop offset="0.08" style="stop-color:#0094ff;stop-opacity:1"></stop><stop offset="0.16" style="stop-color:#48ff91;stop-opacity:1"></stop><stop offset="0.42" style="stop-color:#0094ff;stop-opacity:1"></stop><stop offset="0.68" style="stop-color:#0038ff;stop-opacity:1"></stop><stop offset="0.9" style="stop-color:#0500ff;stop-opacity:1"></stop><stop offset="1" style="stop-color:#0500ff;stop-opacity:1"></stop></linearGradient></defs></svg> 