<?xml version="1.0" encoding="UTF-8" standalone="no"?> <svg xmlns="http://www.w3.org/2000/svg" xmlns:xlink="http://www.w3.org/1999/xlink" xmlns:serif="http://www.serif.com/" width="100%" height="100%" viewBox="0 0 128 46" version="1.1" xml:space="preserve" style="fill-rule:evenodd;clip-rule:evenodd;stroke-linejoin:round;stroke-miterlimit:2;"><path d="M74.3,27.7c0,9.5 -5.2,10.7 -10.4,10.7c-8.9,0 -10.8,-4.6 -10.8,-11.1l0,-18.5l-3.3,0l0,-1.8l12.5,0l0,1.8l-3.5,0l0,17.9c0,6.3 1.6,9.5 6.2,9.5c4.6,-0 6.9,-2.3 6.9,-8.9l0,-18.5l-3.3,-0l0,-1.8l8.9,-0l0,1.8l-3,-0l-0.2,18.9Zm8.7,8.5l-0,-27.4l-3.5,0l-0,-1.8l13.8,0c5.9,0 8.8,3.3 8.8,7.2c-0,4.2 -3.8,6.5 -7.1,7.2c6.5,0.6 8.3,4.8 8.3,7.9c-0,6.3 -5.4,8.7 -10.6,8.7l-13.4,-0l-0,-1.8l3.7,-0Zm13.5,-21.6c-0,-2.9 -1.5,-5.8 -4.8,-5.8l-3.6,-0l-0,11.9l3.2,-0c3.6,-0 5.2,-2.9 5.2,-6.1Zm1.2,14.8c-0,-4.1 -1.8,-6.9 -5.9,-6.9l-3.5,-0l-0,13.8l2.9,-0c4.3,-0.1 6.5,-2.7 6.5,-6.9Zm19.5,-21c-3.3,-0 -5.4,1.9 -5.4,5.3c-0,3 3.3,4.5 6.5,5.6c1.9,0.7 4.3,1.6 6,3.1c1.8,1.7 2.8,4 2.7,6.9c-0.1,5.4 -3.9,9.1 -10.6,9.1c-2.5,-0 -6.4,-0.6 -8.7,-1.9l-0.3,-8.1l2,-0c0.2,5.5 2.7,8.3 7.2,8.3c3.6,-0 5.6,-2.4 5.6,-6.1c-0,-3.2 -2.6,-4.5 -6.6,-5.9c-1.3,-0.4 -3.9,-1.4 -5.7,-3.2c-1.6,-1.6 -2.4,-3.7 -2.4,-5.8c-0,-6.3 4.5,-9.1 10.1,-9.1c2.2,-0 5.5,0.8 7.5,1.9l0.2,7.1l-2,-0c-0.3,-5 -2.5,-7.2 -6.1,-7.2Z" style="fill:#e60000;fill-rule:nonzero;"></path><path d="M34.1,13.3l-0.8,0.7l0.9,2.9l-2.6,-1.4l-0.9,0.7l2.9,1.6l-3.1,2.5l-0.8,-1.1l1.1,-0.9l-0.8,-1l-1.1,0.9l-0.9,-1.2l1.1,-0.9l-0.8,-1.1l-5.6,4.7l5.4,4.3l1,-1.2c0.7,0 1.2,0.6 1.5,1.2l-1,1.2l0.6,0.5c1.3,-1.2 3.1,-2 4.9,-2c3.8,0 6.7,3.1 6.7,6.9c0,1.2 -0.3,2.6 -1,3.7l1,0.8c0,0.7 -0.7,1.5 -1.4,1.7l-1,-0.8c-1.3,1.3 -3.1,2 -4.9,2c-3.8,0 -6.7,-3 -6.7,-6.8c0,-1.2 0.4,-2.5 0.9,-3.6l-0.7,-0.5l-1,1.3c-0.7,-0.1 -1.3,-0.6 -1.5,-1.3l1,-1.1l-4.5,-3.8l0,6l1.5,0c0.2,0.3 0.3,0.6 0.3,0.9c0,0.3 -0.1,0.7 -0.3,1l-1.5,0l0,0.7c3.3,0.6 6.1,3.4 6.1,6.8c0,3.5 -2.7,6.3 -6.1,6.9l0,1.2c-0.3,0.2 -0.7,0.3 -1.1,0.3c-0.4,0 -0.9,-0.1 -1.2,-0.3l0,-1.2c-3.4,-0.5 -6,-3.4 -6,-6.9c0,-3.4 2.6,-6.2 6,-6.7l0,-0.8l-1.6,0c-0.2,-0.3 -0.3,-0.6 -0.3,-1c0,-0.4 0.1,-0.7 0.3,-1l1.6,0l0,-6l-4.6,3.8l1,1.1c-0.2,0.7 -0.8,1.2 -1.5,1.3l-1,-1.3l-0.6,0.6c0.6,1.1 1,2.3 1,3.6c0,3.8 -3,6.8 -6.7,6.8c-1.8,0 -3.6,-0.7 -4.9,-2l-1,0.8c-0.6,-0.2 -1.3,-1 -1.4,-1.7l1,-0.8c-0.6,-1.1 -1,-2.4 -1,-3.7c0,-3.8 2.9,-6.9 6.7,-6.9c1.8,0 3.6,0.8 4.9,2l0.6,-0.4l-1,-1.2c0.2,-0.6 0.8,-1.1 1.5,-1.2l1,1.2l5.4,-4.3l-5.6,-4.7l-0.8,1.1l1.1,0.9l-0.8,1.1l-1.1,-0.9l-0.8,1l0.9,0.7l-0.8,1.1l-3,-2.5l2.8,-1.6l-0.8,-0.7l-2.6,1.4l0.8,-2.7l-0.8,-0.7l-1,3.1l-3.1,-2.5l0.8,-1l1.1,0.9l0.9,-1l-1.1,-1l0.8,-1l1.1,0.8l0.8,-1l-2.4,-1.8c0.2,-0.8 0.7,-1.4 1.5,-1.9l12.7,10.4l0,-6.9l-1.3,0l0,1.3l-1.3,0l0,-1.3l-1.3,0l0,1.3l-1.3,0l0,-3.9l3,1.3l0,-1.1l-2.8,-1.2l2.8,-1.1l0,-1l-3,1.2l0,-4l1.3,0l0,1.4l1.3,-0l0,-1.4l1.3,-0l0,1.4l1.3,-0l0,-3.1c0.4,-0.1 0.8,-0.2 1.2,-0.2c0.4,-0 0.8,0.1 1.1,0.2l0,17.1l12.7,-10.4c0.7,0.5 1.2,1.1 1.5,1.9l-2.4,1.9l0.8,1l1.1,-0.8l0.8,1l-1.1,1l0.8,1l1.1,-0.9l0.8,1l-3.1,2.5l-0.9,-3.2Zm-25.9,18.8c0,1.1 0.8,1.8 1.8,1.9l-1.6,1.2c-1.1,-0.4 -2.1,-1.7 -2.1,-2.9c0,-0.4 0.1,-0.6 0.2,-0.9l-0.3,-0c-1.5,-0 -2.7,-1.4 -3,-2.8l1.7,-1.3l0,0.5c0,0.9 0.9,1.7 1.8,1.7c1,-0 1.9,-0.8 1.9,-1.8c0,-1.2 -0.9,-2 -2.1,-2c-2.2,-0 -4.4,2.2 -4.4,5c0,0.8 0.2,1.6 0.5,2.3l1,-0.8c0.7,0.3 1.2,1 1.4,1.8l-1,0.8c1,0.8 2.2,1.2 3.4,1.2c2.6,-0 4.6,-2.1 4.6,-3.9c0,-1.1 -0.7,-2 -1.8,-2c-1.2,0.2 -2,1 -2,2Zm13.6,4c0,1 0.8,1.8 1.8,1.8c0.7,-0 1,-0.3 1.5,-0.7l0,2.1c-0.5,0.3 -1,0.4 -1.6,0.4c-1.1,-0 -2,-0.3 -2.6,-1.3c-0.6,1 -1.6,1.3 -2.7,1.3c-0.5,-0 -1.1,-0.1 -1.6,-0.4l0,-2.1c0.5,0.5 0.8,0.7 1.5,0.7c1,-0 1.8,-0.8 1.8,-1.8c0,-1 -0.6,-1.8 -1.7,-1.8c-1.9,-0 -2.7,1.8 -2.7,3.5c0,2.4 1.8,4.5 4.1,4.9l0,-1.2c0.4,-0.2 0.8,-0.2 1.1,-0.2c0.4,-0 0.8,-0 1.2,0.2l0,1.2c2.2,-0.3 4.1,-2.6 4.1,-4.9c0,-1.7 -0.7,-3.5 -2.7,-3.5c-0.8,-0.1 -1.5,0.8 -1.5,1.8Zm11.4,-8.3c0,0.9 1,1.8 1.9,1.8c0.9,-0 1.8,-0.8 1.8,-1.7l0,-0.5l1.6,1.3c-0.3,1.6 -1.7,2.9 -3.3,2.8c0.1,0.3 0.1,0.6 0.1,0.9c0,1.2 -1,2.5 -2.1,2.9l-1.5,-1.3c1,-0.1 1.8,-0.8 1.8,-1.9c0,-1.1 -0.9,-1.8 -1.9,-1.8c-1.1,-0 -1.8,0.9 -1.8,2c0,1.3 1.6,3.9 4.7,3.9c1.2,-0 2.4,-0.4 3.3,-1.2l-1,-0.8c0.2,-0.8 0.7,-1.5 1.4,-1.8l1,0.8c0.4,-0.7 0.6,-1.5 0.6,-2.3c0,-2.2 -1.7,-5 -4.4,-5c-1.2,-0 -2.2,0.7 -2.2,1.9Z" style="fill:#0a0a0a;fill-rule:nonzero;"></path></svg> 