<?xml version="1.0" encoding="UTF-8" standalone="no"?> <svg xmlns="http://www.w3.org/2000/svg" xmlns:xlink="http://www.w3.org/1999/xlink" xmlns:serif="http://www.serif.com/" width="100%" height="100%" viewBox="0 0 295 56" version="1.1" xml:space="preserve" style="fill-rule:evenodd;clip-rule:evenodd;stroke-linejoin:round;stroke-miterlimit:2;"><path d="M288.361,47.788c-2.428,0 -4.318,-0.607 -5.67,-1.822c-1.351,-1.233 -2.027,-3.065 -2.027,-5.495l-0.054,-14.118c0,-1.198 0.688,-2.24 1.89,-2.53l-5.424,0l0,-6.12l3.586,-0l1.454,-9.908l5.999,-0l0,9.908l6.793,-0l0,6.12l-6.793,0l0,14.499c0,1.161 0.192,1.968 0.575,2.421c0.402,0.453 1.141,0.68 2.219,0.68c0.858,0 1.616,-0.009 2.273,-0.027c0.658,-0.018 1.26,-0.055 1.808,-0.109l0,6.093c-0.785,0.218 -1.79,0.336 -3.013,0.354c-1.223,0.036 -2.429,0.054 -3.616,0.054Zm-24.553,0.078c-2.429,0 -4.547,-0.353 -6.355,-1.06c-1.807,-0.708 -3.232,-1.778 -4.273,-3.21c-1.022,-1.451 -1.588,-3.301 -1.698,-5.549l7.341,-0c0.201,1.487 0.74,2.566 1.616,3.237c0.877,0.652 2.009,0.979 3.397,0.979c0.84,-0 1.616,-0.091 2.328,-0.272c0.712,-0.182 1.278,-0.49 1.698,-0.925c0.438,-0.435 0.657,-1.034 0.657,-1.795c0,-0.581 -0.136,-1.052 -0.41,-1.415c-0.274,-0.381 -0.685,-0.698 -1.233,-0.952c-0.53,-0.272 -1.187,-0.526 -1.972,-0.762c-0.785,-0.235 -1.689,-0.498 -2.712,-0.788c-1.808,-0.526 -3.469,-1.152 -4.985,-1.877c-1.516,-0.744 -2.73,-1.723 -3.643,-2.938c-0.913,-1.215 -1.37,-2.802 -1.37,-4.761c0,-2.81 1.041,-4.941 3.123,-6.392c2.082,-1.469 4.793,-2.203 8.135,-2.203c2.045,-0 3.89,0.281 5.533,0.843c1.644,0.562 2.995,1.532 4.054,2.911c1.077,1.378 1.762,3.291 2.054,5.739l-7.286,-0.027c-0.219,-1.124 -0.566,-1.968 -1.041,-2.53c-0.456,-0.58 -0.986,-0.97 -1.588,-1.17c-0.585,-0.199 -1.205,-0.299 -1.863,-0.299c-0.73,0 -1.388,0.118 -1.972,0.354c-0.566,0.218 -1.004,0.544 -1.315,0.979c-0.31,0.435 -0.465,0.961 -0.465,1.578c0,0.762 0.219,1.396 0.657,1.904c0.456,0.508 1.141,0.952 2.054,1.333c0.932,0.363 2.091,0.752 3.479,1.17c1.023,0.272 2.118,0.589 3.287,0.952c1.169,0.362 2.273,0.852 3.314,1.469c1.041,0.598 1.89,1.414 2.548,2.448c0.675,1.015 1.013,2.339 1.013,3.971c0,2.847 -1.096,5.069 -3.287,6.665c-2.191,1.595 -5.131,2.393 -8.82,2.393Zm-35.099,-1.82c2.119,1.179 4.657,1.768 7.615,1.768c2.392,0 4.483,-0.381 6.273,-1.142c1.807,-0.762 3.241,-1.859 4.3,-3.292c1.077,-1.45 1.698,-3.164 1.863,-5.141l-7.259,0c-0.219,1.016 -0.758,1.877 -1.616,2.584c-0.858,0.708 -2.109,1.061 -3.753,1.061c-1.862,0 -3.378,-0.634 -4.547,-1.904c-1.15,-1.269 -1.817,-3.264 -1.999,-5.984l19.667,-0c0.036,-0.599 0.064,-1.116 0.082,-1.551c0.036,-0.435 0.055,-0.897 0.055,-1.387c0,-3.01 -0.502,-5.549 -1.507,-7.617c-1.004,-2.085 -2.474,-3.654 -4.41,-4.706c-1.917,-1.069 -4.264,-1.604 -7.039,-1.604c-2.849,-0 -5.351,0.598 -7.506,1.795c-2.136,1.197 -3.807,2.938 -5.012,5.223c-1.187,2.285 -1.781,5.077 -1.781,8.378c0,3.264 0.567,6.039 1.699,8.324c1.132,2.266 2.757,3.998 4.875,5.195Zm13.312,-16.647l-9.203,-0c-0.986,-0 -1.744,0.172 -2.273,0.516c-0.53,0.345 -0.868,0.989 -1.014,1.932c0.091,-2.739 0.657,-4.86 1.698,-6.365c1.059,-1.524 2.694,-2.285 4.903,-2.285c2.009,-0 3.47,0.525 4.383,1.577c0.931,1.052 1.433,2.594 1.506,4.625Zm-54.984,18.006l0,-39.552l9.313,0l12.381,23.693l3.314,8.297l0.219,-0l-1.095,-9.521l0,-22.469l7.505,0l0,39.552l-9.368,-0l-12.298,-23.612l-3.178,-7.779l-0.274,-0l0.986,10.554l0,20.837l-7.505,-0Zm-27.579,-1.576c1.717,1.288 3.798,1.931 6.245,1.931c1.352,0 2.493,-0.208 3.424,-0.625c0.95,-0.436 1.735,-0.998 2.356,-1.687c0.621,-0.707 1.114,-1.487 1.479,-2.339c0.365,-0.853 0.63,-1.696 0.794,-2.53l0.023,-0.097l0.005,6.925l7.505,-0l0,-39.561l-7.533,-0l0.01,13.824c-0.208,-0.494 -0.485,-0.992 -0.831,-1.492c-0.603,-0.871 -1.461,-1.587 -2.575,-2.149c-1.114,-0.581 -2.529,-0.871 -4.246,-0.871c-2.191,0 -4.182,0.59 -5.971,1.768c-1.79,1.179 -3.214,2.902 -4.273,5.169c-1.059,2.267 -1.589,5.041 -1.589,8.323c0,3.029 0.438,5.695 1.315,7.998c0.876,2.303 2.164,4.107 3.862,5.413Zm14.311,-19.383l0.009,12.133l-0.022,-0.04c-0.091,0.381 -0.374,0.816 -0.849,1.306c-0.456,0.471 -1.086,0.888 -1.89,1.251c-0.785,0.344 -1.735,0.517 -2.849,0.517c-1.953,-0 -3.487,-0.771 -4.601,-2.312c-1.114,-1.56 -1.671,-3.809 -1.671,-6.747c0,-3.173 0.593,-5.494 1.78,-6.963c1.187,-1.469 2.776,-2.204 4.766,-2.204c1.078,0 1.973,0.136 2.685,0.408c0.73,0.273 1.305,0.644 1.725,1.116c0.439,0.453 0.74,0.97 0.904,1.55l0.013,-0.015Zm-30.74,20.959l0,-39.552l7.588,0l0,39.552l-7.588,0Zm-23.999,-1.359c2.118,1.179 4.657,1.768 7.615,1.768c2.392,0 4.483,-0.381 6.272,-1.142c1.808,-0.762 3.242,-1.859 4.301,-3.292c1.077,-1.45 1.698,-3.164 1.863,-5.141l-7.259,0c-0.219,1.016 -0.758,1.877 -1.616,2.584c-0.859,0.708 -2.109,1.061 -3.753,1.061c-1.862,0 -3.378,-0.634 -4.547,-1.904c-1.15,-1.269 -1.817,-3.264 -1.999,-5.984l19.667,-0c0.036,-0.599 0.063,-1.116 0.082,-1.551c0.036,-0.435 0.055,-0.897 0.055,-1.387c0,-3.01 -0.503,-5.549 -1.507,-7.617c-1.004,-2.085 -2.474,-3.654 -4.41,-4.706c-1.917,-1.069 -4.264,-1.604 -7.04,-1.604c-2.848,-0 -5.35,0.598 -7.505,1.795c-2.136,1.197 -3.807,2.938 -5.012,5.223c-1.187,2.285 -1.781,5.077 -1.781,8.378c0,3.264 0.566,6.039 1.698,8.324c1.133,2.266 2.758,3.998 4.876,5.195Zm13.312,-16.647l-9.203,-0c-0.986,-0 -1.744,0.172 -2.274,0.516c-0.529,0.345 -0.867,0.989 -1.013,1.932c0.091,-2.739 0.657,-4.86 1.698,-6.365c1.059,-1.524 2.694,-2.285 4.903,-2.285c2.009,-0 3.47,0.525 4.383,1.577c0.931,1.052 1.433,2.594 1.506,4.625Zm-43.184,18.006l0,-12.649l11.848,-23.509c0.221,0.452 0.516,0.862 0.887,1.231c0.913,0.907 2.027,1.36 3.342,1.36c1.297,-0 2.401,-0.453 3.314,-1.36c0.932,-0.907 1.397,-2.068 1.397,-3.482c0,-0.402 -0.037,-0.783 -0.113,-1.143l-15.909,0l-4.903,11.262l-3.561,7.97l-0.411,-0l-3.506,-7.997l-4.903,-11.235l-8.792,0l13.558,26.849l0,12.703l7.752,-0Zm12.27,0l0,-29.704l7.56,-0l-0.028,29.704l-7.532,0Z" style="fill:#0a0a0a;"></path><path d="M24.257,0.504c-0,-0.278 0.228,-0.504 0.51,-0.504l6.639,0c0.282,0 0.51,0.226 0.51,0.504l0,13.144c0,0.501 0.661,0.695 0.939,0.276l7.538,-11.388c0.158,-0.239 0.484,-0.301 0.721,-0.137l5.434,3.762c0.226,0.156 0.285,0.461 0.134,0.688l-6.349,9.593c-0.222,0.335 0.021,0.779 0.427,0.779l14.902,0c0.282,0 0.511,0.226 0.511,0.504l0,6.552c0,0.278 -0.229,0.504 -0.511,0.504l-5.946,-0c-4.171,-0 -7.856,-2.428 -11.489,-4.822c-1.456,-0.959 -2.902,-1.912 -4.369,-2.702c-1.714,-0.923 -3.681,-1.448 -5.771,-1.448c-2.091,0 -4.057,0.525 -5.772,1.448c-1.466,0.79 -2.913,1.743 -4.368,2.702c-3.634,2.394 -7.319,4.822 -11.49,4.822l-5.946,-0c-0.282,-0 -0.511,-0.226 -0.511,-0.504l-0,-6.552c-0,-0.278 0.229,-0.504 0.511,-0.504l14.912,0c0.405,0 0.649,-0.444 0.427,-0.779l-6.349,-9.593c-0.151,-0.227 -0.092,-0.532 0.134,-0.688l5.434,-3.762c0.236,-0.164 0.563,-0.102 0.721,0.137l7.528,11.373c0.278,0.419 0.939,0.225 0.939,-0.276l-0,-13.129Zm-6.31,34.974c-3.634,-2.394 -7.319,-4.822 -11.49,-4.822l-5.946,0c-0.282,0 -0.511,0.226 -0.511,0.504l-0,6.552c-0,0.278 0.229,0.504 0.511,0.504l14.912,-0c0.405,-0 0.649,0.444 0.427,0.779l-6.349,9.593c-0.151,0.227 -0.092,0.532 0.134,0.688l5.434,3.762c0.236,0.164 0.563,0.102 0.721,-0.137l7.528,-11.373c0.278,-0.419 0.939,-0.225 0.939,0.276l-0,13.129c-0,0.278 0.228,0.504 0.51,0.504l6.639,0c0.282,0 0.51,-0.226 0.51,-0.504l0,-13.144c0,-0.501 0.661,-0.695 0.939,-0.276l7.538,11.388c0.158,0.239 0.484,0.301 0.721,0.137l5.434,-3.762c0.226,-0.156 0.285,-0.461 0.134,-0.688l-6.349,-9.593c-0.222,-0.335 0.021,-0.779 0.427,-0.779l14.902,-0c0.282,-0 0.511,-0.226 0.511,-0.504l0,-6.552c0,-0.278 -0.229,-0.504 -0.511,-0.504l-5.946,0c-4.171,0 -7.856,2.428 -11.489,4.822c-1.456,0.959 -2.902,1.912 -4.369,2.702c-1.714,0.923 -3.681,1.448 -5.771,1.448c-2.091,-0 -4.057,-0.525 -5.772,-1.448c-1.466,-0.79 -2.913,-1.743 -4.368,-2.702Zm10.14,2.068c5.449,-0 9.866,-4.4 9.866,-9.827c0,-5.428 -4.417,-9.828 -9.866,-9.828c-5.45,0 -9.867,4.4 -9.867,9.828c0,5.427 4.417,9.827 9.867,9.827Z" style="fill:#e8c787;"></path></svg> 