<?xml version="1.0" encoding="UTF-8" standalone="no"?> <svg xmlns="http://www.w3.org/2000/svg" xmlns:xlink="http://www.w3.org/1999/xlink" xmlns:serif="http://www.serif.com/" width="100%" height="100%" viewBox="0 0 129 27" version="1.1" xml:space="preserve" style="fill-rule:evenodd;clip-rule:evenodd;stroke-linejoin:round;stroke-miterlimit:2;"><path d="M0,11.138l11.155,-11.138l0,5.569l11.155,0l-11.155,8.353l0,8.354l-11.155,-11.138Z" style="fill:#0a0a0a;fill-rule:nonzero;"></path><path d="M39.043,11.138l-11.155,11.138l-0,-5.569l-11.156,-0l11.156,-8.354l-0,-8.353l11.155,11.138Z" style="fill:#0a0a0a;fill-rule:nonzero;"></path><path d="M60.725,20.918l-0,-19.493l4.718,0l0,8.243l0.258,-0l6.453,-8.243l5.558,0l-6.921,8.7l7.044,10.793l-5.643,-0l-4.861,-7.662l-1.888,2.379l0,5.283l-4.718,-0Z" style="fill:#0a0a0a;fill-rule:nonzero;"></path><path d="M43.996,20.918l0,-2.684l9.485,-12.983l-9.475,0l-0,-3.826l15.442,0l0,2.684l-9.485,12.982l9.476,0l-0,3.827l-15.443,-0Z" style="fill:#0a0a0a;fill-rule:nonzero;"></path><path d="M122.838,21.222c-1.309,0 -2.45,-0.327 -3.422,-0.98c-0.966,-0.654 -1.716,-1.548 -2.25,-2.684c-0.534,-1.136 -0.801,-2.43 -0.801,-3.883c-0,-1.466 0.27,-2.77 0.81,-3.912c0.547,-1.142 1.303,-2.037 2.269,-2.684c0.966,-0.654 2.088,-0.981 3.365,-0.981c0.979,0 1.865,0.191 2.66,0.572c0.794,0.374 1.449,0.904 1.963,1.589c0.522,0.679 0.849,1.472 0.982,2.379l-1.716,0c-0.178,-0.824 -0.606,-1.529 -1.286,-2.112c-0.674,-0.591 -1.532,-0.886 -2.574,-0.886c-0.934,0 -1.761,0.254 -2.479,0.762c-0.718,0.501 -1.28,1.202 -1.687,2.103c-0.4,0.895 -0.6,1.932 -0.6,3.112c-0,1.187 0.197,2.237 0.591,3.151c0.394,0.907 0.946,1.618 1.658,2.132c0.718,0.514 1.557,0.771 2.517,0.771c0.648,-0 1.239,-0.121 1.773,-0.362c0.54,-0.247 0.991,-0.596 1.353,-1.047c0.369,-0.45 0.617,-0.987 0.744,-1.608l1.716,-0c-0.127,0.882 -0.442,1.668 -0.944,2.36c-0.496,0.685 -1.141,1.225 -1.935,1.618c-0.788,0.393 -1.69,0.59 -2.707,0.59Z" style="fill:#0a0a0a;fill-rule:nonzero;"></path><path d="M105.15,11.78l0,9.137l-1.697,0l0,-14.619l1.649,-0l0,2.294l0.153,-0c0.343,-0.749 0.877,-1.349 1.601,-1.799c0.731,-0.457 1.633,-0.685 2.707,-0.685c0.985,-0 1.85,0.206 2.593,0.618c0.75,0.406 1.332,1.006 1.745,1.799c0.419,0.793 0.629,1.767 0.629,2.922l-0,9.47l-1.697,0l-0,-9.365c-0,-1.2 -0.337,-2.148 -1.01,-2.846c-0.668,-0.698 -1.564,-1.047 -2.689,-1.047c-0.768,-0 -1.452,0.165 -2.049,0.495c-0.597,0.33 -1.071,0.806 -1.42,1.428c-0.344,0.615 -0.515,1.348 -0.515,2.198Z" style="fill:#0a0a0a;fill-rule:nonzero;"></path><path d="M91.86,26.4c-0.336,-0 -0.651,-0.032 -0.943,-0.095c-0.293,-0.064 -0.525,-0.133 -0.696,-0.21l0.457,-1.494c0.579,0.178 1.093,0.241 1.545,0.19c0.451,-0.044 0.851,-0.247 1.201,-0.609c0.349,-0.355 0.661,-0.901 0.934,-1.637l0.534,-1.484l-5.386,-14.762l1.84,-0l4.346,12.382l0.134,0l4.347,-12.382l1.839,-0l-6.196,16.932c-0.26,0.704 -0.581,1.291 -0.962,1.76c-0.382,0.476 -0.823,0.828 -1.325,1.057c-0.496,0.235 -1.052,0.352 -1.669,0.352Z" style="fill:#0a0a0a;fill-rule:nonzero;"></path><path d="M88.633,9.506l-1.554,0.438c-0.153,-0.438 -0.369,-0.835 -0.648,-1.19c-0.28,-0.355 -0.645,-0.638 -1.096,-0.847c-0.445,-0.21 -0.998,-0.314 -1.659,-0.314c-0.991,-0 -1.805,0.235 -2.44,0.704c-0.636,0.47 -0.954,1.076 -0.954,1.818c0,0.628 0.216,1.139 0.648,1.532c0.439,0.387 1.113,0.695 2.021,0.924l2.212,0.542c1.226,0.298 2.145,0.771 2.755,1.418c0.616,0.647 0.925,1.46 0.925,2.437c-0,0.825 -0.229,1.557 -0.687,2.198c-0.457,0.641 -1.096,1.146 -1.916,1.514c-0.813,0.361 -1.757,0.542 -2.831,0.542c-1.43,0 -2.609,-0.32 -3.537,-0.961c-0.927,-0.647 -1.522,-1.58 -1.782,-2.798l1.63,-0.4c0.21,0.869 0.62,1.526 1.23,1.97c0.616,0.444 1.426,0.666 2.43,0.666c1.125,0 2.024,-0.25 2.698,-0.752c0.674,-0.507 1.011,-1.142 1.011,-1.903c-0,-0.59 -0.197,-1.085 -0.591,-1.485c-0.394,-0.406 -0.992,-0.704 -1.793,-0.895l-2.392,-0.571c-1.271,-0.304 -2.212,-0.786 -2.822,-1.446c-0.61,-0.66 -0.915,-1.479 -0.915,-2.456c0,-0.806 0.219,-1.513 0.658,-2.122c0.438,-0.616 1.042,-1.098 1.811,-1.447c0.769,-0.349 1.646,-0.524 2.631,-0.524c1.341,0 2.412,0.305 3.212,0.914c0.807,0.603 1.389,1.434 1.745,2.494Z" style="fill:#0a0a0a;fill-rule:nonzero;"></path></svg> 